<?xml version="1.0" standalone="no"?>
<!DOCTYPE svg PUBLIC "-//W3C//DTD SVG 1.1//EN" "http://www.w3.org/Graphics/SVG/1.1/DTD/svg11.dtd" >
<svg xmlns="http://www.w3.org/2000/svg" xmlns:xlink="http://www.w3.org/1999/xlink" version="1.1">
<metadata>
Created by FontForge 20170731 at Wed Jun 22 23:30:13 2016
 By Aleksey,,,
Copyright (c) 2015 Berton Hasebe, under exclusive license to Schwartzco Inc./ Commercial Type. All rights reserved.
</metadata>
<defs>
<font id="DrukTextWide-Medium" horiz-adv-x="920" >
  <font-face 
    font-family="Druk Text Wide"
    font-weight="500"
    font-stretch="normal"
    units-per-em="1000"
    panose-1="0 0 0 0 0 0 0 0 0 0"
    ascent="794"
    descent="-206"
    x-height="555"
    cap-height="744"
    bbox="-58 -280 2215 1239"
    underline-thickness="139"
    underline-position="-305"
    unicode-range="U+000D-FB02"
  />
<missing-glyph horiz-adv-x="289" 
 />
    <glyph glyph-name="f_t" unicode="ft" horiz-adv-x="974" 
d="M355 415v-415h-194v415h-123v140h123v45q0 78 37.5 117.5t135.5 39.5h142v-121h-77q-23 0 -33.5 -10.5t-10.5 -35.5v-35h244v169h194v-169h127v-140h-127v-204q0 -34 12 -48t46 -14h69v-149h-177q-69 0 -106.5 38t-37.5 112v265h-244z" />
    <glyph glyph-name="f_f_t" unicode="fft" horiz-adv-x="1412" 
d="M355 415v-415h-194v415h-123v140h123v45q0 78 37.5 117.5t135.5 39.5h147v-121h-82q-23 0 -33.5 -10.5t-10.5 -35.5v-35h244v45q0 78 37.5 117.5t135.5 39.5h142v-121h-77q-23 0 -33.5 -10.5t-10.5 -35.5v-35h244v169h194v-169h127v-140h-127v-204q0 -34 12 -48t46 -14
h69v-149h-177q-69 0 -106.5 38t-37.5 112v265h-244v-415h-194v415h-244z" />
    <glyph glyph-name="f_f" unicode="ff" horiz-adv-x="958" 
d="M161 0v415h-123v140h123v45q0 78 37.5 117.5t135.5 39.5h147v-121h-82q-23 0 -33.5 -10.5t-10.5 -35.5v-35h244v45q0 78 37.5 117.5t135.5 39.5h147v-121h-82q-23 0 -33.5 -10.5t-10.5 -35.5v-35h126v-140h-126v-415h-194v415h-244v-415h-194z" />
    <glyph glyph-name="f_i" unicode="fi" horiz-adv-x="877" 
d="M477 636h-78q-23 0 -33.5 -10.5t-10.5 -35.5v-35h122v-140h-122v-415h-194v415h-123v140h123v45q0 78 37.5 117.5t135.5 39.5h143v-121zM796 617h-199v140h199v-140zM794 0h-195v555h195v-555z" />
    <glyph glyph-name="f_l" unicode="fl" horiz-adv-x="877" 
d="M477 636h-78q-23 0 -33.5 -10.5t-10.5 -35.5v-35h122v-140h-122v-415h-194v415h-123v140h123v45q0 78 37.5 117.5t135.5 39.5h143v-121zM794 0h-195v757h195v-757z" />
    <glyph glyph-name="emdash.alt" unicode="&#x2014;&#x2014;" horiz-adv-x="2289" 
d="M2215 230h-2141v140h2141v-140z" />
    <glyph glyph-name=".notdef" horiz-adv-x="289" 
 />
    <glyph glyph-name=".null" horiz-adv-x="0" 
 />
    <glyph glyph-name="nonmarkingreturn" horiz-adv-x="333" 
 />
    <glyph glyph-name="NULL" horiz-adv-x="0" 
 />
    <glyph glyph-name="NULL" horiz-adv-x="0" 
 />
    <glyph glyph-name="CR" unicode="&#xd;" horiz-adv-x="289" 
 />
    <glyph glyph-name="space" unicode=" " horiz-adv-x="289" 
 />
    <glyph glyph-name="exclam" unicode="!" horiz-adv-x="378" 
d="M301 744l-64 -502h-95l-65 502h224zM297 0h-215v177h215v-177z" />
    <glyph glyph-name="quotedbl" unicode="&#x22;" horiz-adv-x="609" 
d="M526 448h-169v296h169v-296zM252 448h-169v296h169v-296z" />
    <glyph glyph-name="numbersign" unicode="#" horiz-adv-x="798" 
d="M487 462h-143l-36 -147h145zM425 200h-144l-48 -200h-141l47 200h-116l28 115h115l34 147h-115l28 115h114l39 167h145l-40 -167h143l40 167h146l-40 -167h115l-29 -115h-113l-36 -147h114l-28 -115h-113l-48 -200h-144z" />
    <glyph glyph-name="dollar" unicode="$" horiz-adv-x="942" 
d="M282 542q0 -33 29 -52.5t110 -22.5v144q-82 -4 -110.5 -20t-28.5 -49zM664 228q0 38 -30.5 56t-115.5 22v-171q88 5 117 29.5t29 63.5zM421 -89v77q-92 2 -160.5 21t-105 44t-59 60t-28.5 62.5t-6 58.5v11h219q10 -98 140 -109v172l-25 1q-94 3 -160 21.5t-101.5 50
t-51 69t-15.5 85.5v9q0 203 353 209v78h97v-78q109 -3 182 -23t106.5 -53.5t45.5 -66t12 -74.5v-11h-215q-3 21 -11.5 36t-38.5 29.5t-81 18.5v-145l29 -1q98 -3 165 -21t103 -49.5t50.5 -69.5t14.5 -89v-12q0 -35 -7.5 -64.5t-30.5 -61.5t-61.5 -54t-105.5 -37.5
t-157 -17.5v-76h-97z" />
    <glyph glyph-name="percent" unicode="%" horiz-adv-x="1347" 
d="M289 316q-59 0 -104.5 15t-71.5 37.5t-43 52t-23 55.5t-6 51v18q0 26 6 51.5t22.5 54.5t43 51t72 36.5t104.5 14.5h22q59 0 104.5 -14.5t72 -36.5t43.5 -51t23 -55t6 -51v-18q0 -25 -6 -51t-23 -55.5t-43.5 -52t-72 -37.5t-104.5 -15h-22zM1102 744l-689 -744h-170
l690 744h169zM417 540q0 41 -28.5 68t-89.5 27q-62 0 -89 -26.5t-27 -68.5v-6q0 -41 28 -70t88 -29t89 29t29 68v8zM1036 -8q-59 0 -104.5 15t-72 37.5t-43.5 52.5t-23 56t-6 51v17q0 25 6 51t23 55t43.5 51t72 36.5t104.5 14.5h21q59 0 104.5 -14.5t72 -36.5t43.5 -51
t23 -55t6 -51v-17q0 -25 -6 -51t-23 -56t-43.5 -52.5t-72 -37.5t-104.5 -15h-21zM1045 311q-62 0 -89 -26.5t-27 -67.5v-7q0 -41 28 -70t88 -29t89 29t29 68v9q0 40 -28.5 67t-89.5 27z" />
    <glyph glyph-name="ampersand" unicode="&#x26;" horiz-adv-x="1015" 
d="M354 572q0 -26 21.5 -49.5t73.5 -64.5q122 37 122 105q0 36 -26 55.5t-90 19.5q-101 0 -101 -66zM442 124q83 0 144 18l-266 196q-72 -35 -72 -95v-3q0 -49 50 -82.5t144 -33.5zM941 -11q-122 0 -224 61q-110 -62 -283 -62q-203 0 -297 60t-94 156v10q0 76 57.5 121.5
t147.5 63.5q-46 40 -69.5 79.5t-23.5 91.5v8q0 76 66 127t216 51h36q277 0 277 -177v-5q0 -140 -219 -181l184 -143q50 92 50 187h192q-5 -144 -105 -265q50 -16 143 -17z" />
    <glyph glyph-name="quotesingle" unicode="'" horiz-adv-x="338" 
d="M255 447h-172v297h172v-297z" />
    <glyph glyph-name="parenleft" unicode="(" horiz-adv-x="369" 
d="M213 339q0 -133 38 -256.5t95 -213.5h-110q-181 221 -181 470q0 248 181 469h110q-57 -90 -95 -213t-38 -256z" />
    <glyph glyph-name="parenright" unicode=")" horiz-adv-x="370" 
d="M156 339q0 133 -38 256t-95 213h111q181 -221 181 -469q0 -249 -181 -470h-111q57 90 95 213.5t38 256.5z" />
    <glyph glyph-name="asterisk" unicode="*" horiz-adv-x="526" 
d="M329 339h-130l25 137l-118 -83l-52 102l144 46l-144 46l52 102l118 -82l-25 137h130l-24 -137l117 82l50 -102l-144 -46l144 -46l-50 -102l-117 83z" />
    <glyph glyph-name="plus" unicode="+" horiz-adv-x="673" 
d="M412 254v-191h-150v191h-188v132h188v190h150v-190h187v-132h-187z" />
    <glyph glyph-name="comma" unicode="," horiz-adv-x="365" 
d="M115 -144q45 80 55 144h-104v194h233v-144q0 -102 -54 -194h-130z" />
    <glyph glyph-name="hyphen" unicode="-" horiz-adv-x="477" 
d="M403 381v-163h-329v163h329z" />
    <glyph glyph-name="period" unicode="." horiz-adv-x="365" 
d="M299 0h-233v194h233v-194z" />
    <glyph glyph-name="slash" unicode="/" horiz-adv-x="471" 
d="M136 -131h-151l322 939h152z" />
    <glyph glyph-name="zero" unicode="0" horiz-adv-x="998" 
d="M520 756q84 0 152 -17.5t111.5 -48.5t75 -67.5t47.5 -80t23 -80t7 -73.5v-30q0 -44 -9.5 -89t-37.5 -97.5t-72 -92t-121 -66t-176 -26.5h-42q-99 0 -176 26.5t-121 66t-72 92t-37.5 97.5t-9.5 89v30q0 46 9.5 90.5t37.5 96.5t72 90.5t120.5 64t176.5 25.5h42zM722 382
q0 24 -4 47.5t-18.5 53t-37.5 51.5t-65 37t-98 15t-98.5 -15t-65.5 -37t-37 -51.5t-18 -53t-4 -47.5v-14q0 -24 4.5 -48.5t19.5 -54.5t38 -52.5t65 -38t97 -15.5t96.5 15.5t64.5 38t37.5 53t19 54.5t4.5 48v14z" />
    <glyph glyph-name="one" unicode="1" horiz-adv-x="525" 
d="M48 481v151q113 0 158.5 22.5t69.5 89.5h154v-744h-205v481h-177z" />
    <glyph glyph-name="two" unicode="2" horiz-adv-x="890" 
d="M62 0v108q0 27 1.5 45.5t8 43t18 43.5t33 41.5t52.5 41t76.5 39t104.5 38.5l119 36q73 21 99 39.5t26 46.5q0 34 -32 53t-117 19q-41 0 -72 -9.5t-47 -21.5t-26 -30.5t-12.5 -30t-3.5 -26.5h-215v7q0 35 7 67.5t30 71t59.5 66t102 46.5t151.5 19h45q348 0 348 -230v-8
q0 -96 -61 -145.5t-218 -85.5q-81 -18 -119 -28q-173 -44 -173 -78h588v-178h-773z" />
    <glyph glyph-name="three" unicode="3" horiz-adv-x="898" 
d="M417 -11q-90 0 -158.5 19.5t-106.5 47.5t-62 65t-31 66.5t-7 56.5v9h220q15 -98 171 -98q180 0 180 89q0 65 -100 65h-238v151h237q91 0 91 60q0 21 -9.5 35t-50 26t-112.5 12q-54 0 -90 -8.5t-50.5 -24t-18.5 -24t-6 -20.5h-214v11q0 23 5.5 47.5t27 58t56 59t100 43.5
t152.5 18h56q87 0 153 -12t104 -30.5t62 -45t32 -51t8 -52.5v-7q0 -100 -111 -138q55 -14 94.5 -57t39.5 -113v-7q0 -37 -9 -69.5t-35 -67t-67 -59t-110.5 -40t-160.5 -15.5h-42z" />
    <glyph glyph-name="four" unicode="4" horiz-adv-x="932" 
d="M54 293l407 456h272v-427h158v-160h-158v-162h-204v162h-475v131zM529 609l-255 -287h255v287z" />
    <glyph glyph-name="five" unicode="5" horiz-adv-x="884" 
d="M430 -11q-74 0 -134 11.5t-97 31.5t-63.5 43t-39.5 49t-18 46t-5 38v14h217q2 -9 8 -18t22 -21.5t50 -20t82 -7.5q170 0 170 92v6q0 43 -38 66t-132 23q-61 0 -100 -11.5t-50.5 -23t-13.5 -23.5h-204v460h691v-169h-487v-138q8 8 27.5 19t70.5 25t111 14h10
q75 0 132.5 -13.5t92.5 -35.5t57 -53.5t30 -62t8 -66.5v-12q0 -37 -9.5 -71t-34.5 -70t-63.5 -62t-103 -43t-146.5 -17h-40z" />
    <glyph glyph-name="six" unicode="6" horiz-adv-x="939" 
d="M456 -11q-71 0 -130 13.5t-99 35t-70.5 52.5t-48 63t-28.5 69.5t-14.5 68t-3.5 62.5v23q0 42 8 85.5t33.5 98t66.5 95.5t115 69.5t171 28.5h30q110 0 187.5 -21.5t115 -57t53 -71t15.5 -75.5v-1h-216q-5 12 -10.5 19.5t-22 20.5t-50.5 20t-83 7q-52 0 -91 -14
t-59.5 -34.5t-33 -48t-16 -49t-3.5 -43.5v-7q86 72 256 72h22q171 0 250 -59t79 -153v-17q0 -27 -6 -53t-20 -56t-42 -54.5t-67 -45t-100.5 -32t-138.5 -11.5h-49zM300 236q0 -35 40 -62t142 -27q185 0 185 88v6q0 84 -185 84q-182 0 -182 -84v-5z" />
    <glyph glyph-name="seven" unicode="7" horiz-adv-x="870" 
d="M820 744v-156q-95 -133 -162 -237q-66 -102 -84.5 -172.5t-18.5 -154.5v-24h-225v65q0 51 3 78.5t15.5 68t41.5 82.5t79 97q32 36 79.5 87t68.5 74.5t21 29.5h-372v-129h-203v291h757z" />
    <glyph glyph-name="eight" unicode="8" horiz-adv-x="923" 
d="M440 -12q-98 0 -171 16t-112.5 39t-63 55t-30 58t-6.5 55v13q0 65 48 109t119 57q-61 11 -105 49.5t-44 99.5v12q0 200 365 200h42q95 0 165.5 -14t108 -34t59.5 -49t27.5 -52.5t5.5 -50.5v-12q0 -58 -44.5 -98t-105.5 -51q72 -13 120 -57t48 -109v-13q0 -29 -6.5 -55
t-30.5 -58t-64 -55t-113 -39t-170 -16h-42zM630 533q0 67 -169 67t-169 -67v-4q0 -67 169 -67t169 67v4zM649 230q0 80 -188 80q-187 0 -187 -80v-3q0 -81 187 -81q188 0 188 81v3z" />
    <glyph glyph-name="nine" unicode="9" horiz-adv-x="939" 
d="M639 506q0 35 -40.5 62t-141.5 27q-58 0 -98 -9t-57 -24t-23.5 -28t-6.5 -27v-6q0 -84 185 -84q182 0 182 84v5zM450 -11q-88 0 -156 15.5t-107 39t-63.5 55t-32.5 59t-8 55.5v1h215q15 -66 166 -66q52 0 91 14t59.5 34.5t33 48t16 49t3.5 43.5v7q-85 -72 -256 -72h-22
q-172 0 -250.5 59t-78.5 154v16q0 33 8 64.5t32.5 66.5t64 61t108 43t157.5 17h61q96 0 168.5 -26t112.5 -64t65 -90.5t32.5 -95.5t7.5 -88v-23q0 -45 -7.5 -89t-32.5 -98.5t-65 -94.5t-114 -67.5t-171 -27.5h-37z" />
    <glyph glyph-name="colon" unicode=":" horiz-adv-x="375" 
d="M304 0h-233v194h233v-194zM304 337h-233v194h233v-194z" />
    <glyph glyph-name="semicolon" unicode=";" horiz-adv-x="375" 
d="M120 -144q45 80 55 144h-104v194h233v-144q0 -102 -54 -194h-130zM304 337h-233v194h233v-194z" />
    <glyph glyph-name="less" unicode="&#x3c;" horiz-adv-x="605" 
d="M79 248v143l447 175v-150l-285 -97l285 -96v-148z" />
    <glyph glyph-name="equal" unicode="=" horiz-adv-x="666" 
d="M587 490v-126h-508v126h508zM587 278v-126h-508v126h508z" />
    <glyph glyph-name="greater" unicode="&#x3e;" horiz-adv-x="605" 
d="M79 223l285 96l-285 97v150l447 -175v-143l-447 -173v148z" />
    <glyph glyph-name="question" unicode="?" horiz-adv-x="806" 
d="M275 242v50q0 63 29.5 97t118.5 67l48 18q47 18 63.5 32.5t16.5 35.5q0 18 -9 30t-44 21t-98 9q-49 0 -81.5 -9.5t-45 -26t-17 -29.5t-5.5 -28v-5h-211v12q0 237 332 237h56q93 0 160.5 -17t103.5 -47t52 -64.5t16 -76.5v-7q0 -69 -39.5 -114.5t-134.5 -78.5l-49 -17
q-40 -15 -54 -29.5t-14 -46.5v-13h-194zM480 0h-215v177h215v-177z" />
    <glyph glyph-name="at" unicode="@" horiz-adv-x="1230" 
d="M625 -161q-566 0 -566 452v12q0 74 16.5 137t56.5 120t101.5 96.5t157 63t218.5 23.5h11q109 0 196 -14.5t144 -37t98 -57.5t62.5 -67t33.5 -74.5t14.5 -71.5t2.5 -66v-11q0 -56 -14.5 -106.5t-46 -97t-91.5 -74.5t-141 -28h-14q-117 0 -147 77q-65 -77 -184 -77h-13
q-61 0 -106 23t-68.5 60.5t-33 81.5t-4.5 91l5 50q9 84 62.5 141t155.5 57h13q126 0 193 -77l7 65h190l-39 -356q-2 -17 5.5 -28t23.5 -11q55 0 90.5 58t35.5 156v3q0 35 -1.5 57.5t-10.5 56.5t-25 56t-48 47t-76.5 39.5t-113 24.5t-155.5 10h-11q-123 0 -208.5 -26
t-130.5 -75t-63.5 -106.5t-18.5 -134.5v-12q0 -350 437 -350q280 0 417 81l32 -101q-28 -17 -70.5 -32.5t-146 -31.5t-232.5 -16zM594 168q62 0 92 32t34 84l1 17q3 52 -24.5 82t-83.5 30q-106 0 -115 -100l-2 -22q-4 -51 19 -87t79 -36z" />
    <glyph glyph-name="A" unicode="A" horiz-adv-x="973" 
d="M476 594l-131 -303h266zM680 138h-402l-60 -138h-207l330 744h276l345 -744h-221z" />
    <glyph glyph-name="B" unicode="B" horiz-adv-x="990" 
d="M92 744h543q76 0 130.5 -15.5t83 -42t40.5 -55.5t12 -63v-11q0 -64 -43 -102t-94 -45q73 -12 123.5 -56.5t50.5 -127.5v-11q0 -41 -14 -76.5t-45.5 -68t-93 -51.5t-147.5 -19h-546v744zM298 589v-133h307q81 0 81 65v2q0 66 -81 66h-307zM298 310v-147h323
q50 0 71.5 21.5t21.5 53.5v4q0 68 -93 68h-323z" />
    <glyph glyph-name="C" unicode="C" horiz-adv-x="1007" 
d="M489 -11q-98 0 -175 24t-123.5 62t-77.5 88.5t-42.5 98.5t-11.5 97v30q0 50 11.5 98t42.5 97.5t77.5 86.5t123.5 60.5t175 23.5h46q112 0 196 -25.5t130 -69t68 -93.5t22 -106v-2h-212q-1 10 -5.5 21.5t-19.5 31.5t-38 35t-66 26.5t-98 11.5q-126 0 -182.5 -58
t-56.5 -144v-14q0 -37 12.5 -72t39 -66.5t75 -51t113.5 -19.5q56 0 99 11.5t65.5 27t37.5 36.5t19 33t5 23h212v-3q0 -55 -21.5 -105t-67 -95t-130 -72t-197.5 -27h-46z" />
    <glyph glyph-name="D" unicode="D" horiz-adv-x="1007" 
d="M92 744h381q94 0 170 -15t126.5 -41.5t87 -59.5t56.5 -73.5t28.5 -78.5t8.5 -78v-30q0 -43 -7.5 -82t-25 -82.5t-53 -78.5t-85.5 -64t-128.5 -45t-176.5 -16h-382v744zM298 166h166q72 0 124 14t80 34t44 50t20 54t4 54v6q0 30 -4 53.5t-20.5 53t-44.5 48.5t-80 32.5
t-123 13.5h-166v-413z" />
    <glyph glyph-name="E" unicode="E" horiz-adv-x="852" 
d="M773 744v-162h-478v-121h463v-168h-463v-129h484v-164h-687v744h681z" />
    <glyph glyph-name="F" unicode="F" horiz-adv-x="838" 
d="M770 744v-165h-473v-133h459v-170h-459v-276h-205v744h678z" />
    <glyph glyph-name="G" unicode="G" horiz-adv-x="1044" 
d="M490 -11q-117 0 -204.5 34t-135 90.5t-69.5 118.5t-22 129v27q0 51 12.5 99t43.5 97.5t79 86.5t125 60t175 23h34q116 0 202.5 -23.5t133.5 -63t69 -84t22 -93.5v-2h-213q-41 98 -230 98q-126 0 -182.5 -58.5t-56.5 -144.5v-13q0 -85 60 -149t186 -64q61 0 107 14.5
t68 36t31.5 37.5t11.5 28h-202v133h429v-406h-164q-7 64 -25 103q-10 -13 -25.5 -27.5t-48 -36.5t-83.5 -36t-112 -14h-16z" />
    <glyph glyph-name="H" unicode="H" horiz-adv-x="1011" 
d="M92 744h206v-276h415v276h206v-744h-206v299h-415v-299h-206v744z" />
    <glyph glyph-name="I" unicode="I" horiz-adv-x="390" 
d="M298 0h-206v744h206v-744z" />
    <glyph glyph-name="J" unicode="J" horiz-adv-x="868" 
d="M391 -12q-83 0 -147 22.5t-101.5 56.5t-61.5 79.5t-32 85.5t-8 81v6h213q1 -24 7.5 -46.5t21 -49.5t46 -43t76.5 -16h4q166 0 166 182v398h206v-398q0 -46 -7.5 -89.5t-31 -94t-61 -87.5t-104 -62t-153.5 -25h-33z" />
    <glyph glyph-name="K" unicode="K" horiz-adv-x="923" 
d="M92 0v744h206v-306l348 306h262l-392 -341l409 -403h-269l-358 350v-350h-206z" />
    <glyph glyph-name="L" unicode="L" horiz-adv-x="802" 
d="M298 744v-569h455v-175h-661v744h206z" />
    <glyph glyph-name="M" unicode="M" horiz-adv-x="1196" 
d="M92 744h274l237 -504l244 504h257v-744h-201v487l-226 -487h-161l-226 487v-487h-198v744z" />
    <glyph glyph-name="N" unicode="N" horiz-adv-x="1031" 
d="M293 482v-482h-201v744h212l435 -479v479h200v-744h-202z" />
    <glyph glyph-name="O" unicode="O" horiz-adv-x="1056" 
d="M550 756q100 0 179.5 -23t128.5 -59t81.5 -85.5t45 -98.5t12.5 -101v-30q0 -51 -12.5 -100t-45 -99.5t-81.5 -87.5t-128.5 -60.5t-179.5 -23.5h-44q-100 0 -179.5 23.5t-128.5 60.5t-81.5 87.5t-45 99.5t-12.5 100v30q0 52 12.5 100.5t45 98t81.5 86t128.5 59.5t179.5 23
h44zM783 381q0 38 -11 71.5t-37 65t-79 50t-128 18.5q-74 0 -127 -18.5t-79.5 -50t-37.5 -65t-11 -71.5v-14q0 -37 11.5 -71t38.5 -66.5t79.5 -51.5t125.5 -19q74 0 127 19t79.5 51.5t37.5 66t11 71.5v14z" />
    <glyph glyph-name="P" unicode="P" horiz-adv-x="956" 
d="M298 238v-238h-206v744h504q166 0 237 -65t71 -182v-11q0 -248 -308 -248h-298zM298 404h283q109 0 109 85v4q0 85 -109 85h-283v-174z" />
    <glyph glyph-name="Q" unicode="Q" horiz-adv-x="1058" 
d="M446 -10q-89 7 -158.5 34t-111.5 64.5t-69 86t-37.5 93.5t-10.5 91v30q0 51 11.5 98t42.5 97.5t79 87.5t129.5 60.5t185.5 23.5h44q104 0 185 -24t129.5 -61t79.5 -87t42.5 -97.5t11.5 -97.5v-30q0 -56 -16 -109.5t-52 -107t-105.5 -93t-165.5 -53.5l114 -151h-328v145z
M785 381q0 29 -6 55t-23 54.5t-44.5 49t-74.5 33.5t-108 13q-75 0 -128.5 -18.5t-79.5 -50t-37 -64.5t-11 -72v-14q0 -37 11.5 -70.5t37.5 -66t79.5 -52t127.5 -19.5q61 0 107.5 13t74 34t45 49.5t23.5 55t6 56.5v14z" />
    <glyph glyph-name="R" unicode="R" horiz-adv-x="981" 
d="M298 422h287q107 0 107 79v2q0 77 -107 77h-287v-158zM751 358q162 -37 162 -193v-77q0 -62 12 -83v-5h-213q-7 12 -7 52v61q0 74 -31.5 107t-107.5 33h-268v-253h-206v744h501q81 0 141 -13.5t92.5 -33t52 -48t24.5 -52t5 -52.5v-10q0 -68 -42.5 -114.5t-114.5 -62.5z
" />
    <glyph glyph-name="S" unicode="S" horiz-adv-x="925" 
d="M451 -13q-100 0 -174 17.5t-114 43t-64 61.5t-30.5 64.5t-6.5 60.5v11h224q10 -107 175 -107h7q55 0 92 7.5t54 21.5t23 27.5t6 32.5q0 36 -32.5 54.5t-119.5 22.5l-99 3q-171 6 -246.5 65t-75.5 152v9q0 48 15 84t53.5 68.5t114.5 50t187 17.5h34q95 0 165 -13.5
t109 -34.5t62.5 -51.5t30.5 -58t7 -60.5v-11h-221q-2 16 -8.5 27.5t-22.5 25.5t-50.5 21.5t-85.5 7.5h-10q-93 0 -128 -16.5t-35 -49.5q0 -32 31 -49.5t113 -21.5l103 -4q97 -4 163 -21t101.5 -47t50 -66t14.5 -84v-12q0 -37 -7.5 -68t-32 -66t-64.5 -58.5t-111.5 -39.5
t-167.5 -16h-29z" />
    <glyph glyph-name="T" unicode="T" horiz-adv-x="873" 
d="M334 574h-288v170h781v-170h-288v-574h-205v574z" />
    <glyph glyph-name="U" unicode="U" horiz-adv-x="1014" 
d="M494 -11q-105 0 -182.5 26t-119 63.5t-66.5 92t-32 99t-7 96.5v378h206v-373q0 -207 213 -207h5q67 0 112 19.5t65 53.5t27 65t7 69v373h205v-378q0 -35 -3.5 -68t-15 -72t-29.5 -71.5t-49.5 -64t-72.5 -53t-101 -35t-133 -13.5h-29z" />
    <glyph glyph-name="V" unicode="V" horiz-adv-x="975" 
d="M358 0l-345 744h240l242 -564l243 564h224l-333 -744h-271z" />
    <glyph glyph-name="W" unicode="W" horiz-adv-x="1340" 
d="M274 0l-256 744h221l164 -535l156 535h240l157 -537l163 537h203l-247 -744h-246l-158 521l-158 -521h-239z" />
    <glyph glyph-name="X" unicode="X" horiz-adv-x="940" 
d="M468 242l-216 -242h-242l328 378l-323 366h261l202 -231l201 231h237l-313 -364l327 -380h-249z" />
    <glyph glyph-name="Y" unicode="Y" horiz-adv-x="927" 
d="M367 272l-369 472h255l223 -295l223 295h230l-356 -473v-271h-206v272z" />
    <glyph glyph-name="Z" unicode="Z" horiz-adv-x="908" 
d="M74 0v143l456 433h-453v168h754v-143l-475 -431h479v-170h-761z" />
    <glyph glyph-name="bracketleft" unicode="[" horiz-adv-x="401" 
d="M82 808h276v-107h-122v-725h122v-107h-276v939z" />
    <glyph glyph-name="backslash" unicode="\" horiz-adv-x="471" 
d="M335 -131l-323 939h152l322 -939h-151z" />
    <glyph glyph-name="bracketright" unicode="]" horiz-adv-x="401" 
d="M43 -24h123v725h-123v107h276v-939h-276v107z" />
    <glyph glyph-name="asciicircum" unicode="^" horiz-adv-x="651" 
d="M326 606l-131 -218h-177l213 356h188l214 -356h-176z" />
    <glyph glyph-name="underscore" unicode="_" horiz-adv-x="728" 
d="M39 -29h650v-139h-650v139z" />
    <glyph glyph-name="grave" unicode="`" horiz-adv-x="700" 
d="M502 617h-195l-111 149h218z" />
    <glyph glyph-name="a" unicode="a" horiz-adv-x="783" 
d="M343 111q77 0 115 37t38 77v43q-25 -10 -122 -26q-72 -12 -98 -25.5t-26 -42.5v-2q0 -61 93 -61zM502 77q-73 -88 -214 -88h-16q-109 0 -164 50.5t-55 125.5v4q0 75 56.5 117t192.5 54l152 13q23 2 32.5 10.5t9.5 25.5q0 16 -5.5 26t-33 19t-77.5 9q-112 0 -112 -61h-200
v2q0 21 4 40.5t21.5 47.5t47 47.5t87 34t135.5 14.5h31q79 0 136 -13t86 -31t46 -46t20.5 -48.5t3.5 -48.5v-183q0 -28 9 -38.5t37 -10.5h21v-149h-158q-40 0 -63 22.5t-30 54.5z" />
    <glyph glyph-name="b" unicode="b" horiz-adv-x="847" 
d="M495 -11q-143 0 -228 85q-11 -32 -16 -74h-168v757h195v-271q80 80 220 80h13q76 0 132.5 -24t88 -65t46 -88t14.5 -100v-17q0 -49 -15 -96.5t-46.5 -90.5t-88.5 -69.5t-133 -26.5h-14zM590 280q0 25 -6.5 47.5t-22 45t-47 35.5t-74.5 13h-10q-80 0 -117 -42t-37 -99v-3
q0 -55 37 -98t117 -43h10q43 0 74.5 13.5t47 36t22 45t6.5 46.5v3z" />
    <glyph glyph-name="c" unicode="c" horiz-adv-x="801" 
d="M749 218q0 -29 -7 -57t-28 -61t-54.5 -57.5t-92.5 -41t-135 -16.5h-49q-79 0 -140 20t-96 49.5t-57 70t-29 75t-7 70.5v14q0 36 7 70.5t28.5 75t56 70.5t95.5 50t141 20h46q77 0 136 -16t93 -40t55.5 -56t29 -59.5t7.5 -54.5v-1h-204q-2 10 -7 20.5t-18.5 27t-42.5 27
t-69 10.5h-10q-78 0 -110 -42.5t-32 -103.5v-1q0 -62 34.5 -106.5t111.5 -44.5h10q33 0 58.5 8t39 19t22 24.5t11 22.5t2.5 14h204z" />
    <glyph glyph-name="d" unicode="d" horiz-adv-x="847" 
d="M407 421q-43 0 -74.5 -13t-47 -35.5t-22 -45t-6.5 -47.5v-3q0 -24 6.5 -46.5t22 -45t47 -36t74.5 -13.5h11q79 0 116 43t37 98v3q0 57 -37 99t-116 42h-11zM764 757v-757h-194v72q-72 -83 -213 -83h-13q-142 0 -215 82t-73 199v17q0 54 16.5 102.5t49.5 89t89.5 64
t130.5 23.5h12q139 0 215 -70v261h195z" />
    <glyph glyph-name="e" unicode="e" horiz-adv-x="811" 
d="M404 440q-132 0 -149 -99h294q0 99 -145 99zM756 173q0 -18 -5.5 -37.5t-26 -47.5t-53.5 -49t-95 -36.5t-143 -15.5h-37q-79 0 -140.5 17t-98.5 44t-61 65t-33 76t-9 81v14q0 52 14.5 98t48.5 89.5t101 69.5t161 26h44q82 0 143.5 -18t97.5 -47t57.5 -71.5t29 -84
t7.5 -92.5v-18h-505q15 -116 168 -116q16 0 31 1.5t26 3.5t20.5 5t16 6t13 7.5t9.5 7t6.5 7t4.5 6.5l3 6l2 3h203z" />
    <glyph glyph-name="f" unicode="f" horiz-adv-x="520" 
d="M481 636h-82q-23 0 -33.5 -10.5t-10.5 -35.5v-35h126v-140h-126v-415h-194v415h-123v140h123v45q0 78 37.5 117.5t135.5 39.5h147v-121z" />
    <glyph glyph-name="g" unicode="g" horiz-adv-x="846" 
d="M408 422q-83 0 -117 -37.5t-34 -89.5v-3q0 -50 35.5 -88.5t115.5 -38.5h12q79 0 115 38t36 88v4q0 51 -37.5 89t-114.5 38h-11zM405 -206q-82 0 -143 13t-93.5 32t-52 45.5t-24.5 47.5t-5 44v4h207q6 -12 12.5 -19t34.5 -15.5t75 -8.5h11q143 0 143 117v41
q-76 -76 -213 -76h-14q-78 0 -136.5 24.5t-90 65t-46 85t-14.5 92.5v17q0 49 15.5 94t47.5 84t89 62t132 23h11q140 0 218 -68v57h194v-493q0 -122 -75.5 -195t-248.5 -73h-34z" />
    <glyph glyph-name="h" unicode="h" horiz-adv-x="828" 
d="M83 757h195v-289q17 21 40.5 40t74.5 39.5t108 20.5h10q114 0 175 -62.5t61 -145.5v-360h-195v289q0 53 -33 89.5t-100 36.5q-66 0 -103.5 -39t-37.5 -94v-282h-195v757z" />
    <glyph glyph-name="i" unicode="i" horiz-adv-x="361" 
d="M280 617h-199v140h199v-140zM278 0h-195v555h195v-555z" />
    <glyph glyph-name="j" unicode="j" horiz-adv-x="361" 
d="M280 617h-199v140h199v-140zM44 -46q22 0 30.5 10t8.5 34v557h195v-604q0 -142 -116 -142h-178v145h60z" />
    <glyph glyph-name="k" unicode="k" horiz-adv-x="726" 
d="M83 0v757h195v-424l198 222h225l-232 -249l257 -306h-232l-216 257v-257h-195z" />
    <glyph glyph-name="l" unicode="l" horiz-adv-x="361" 
d="M278 0h-195v757h195v-757z" />
    <glyph glyph-name="m" unicode="m" horiz-adv-x="1247" 
d="M83 0v555h193v-90q25 37 78 70t133 33h8q143 0 199 -111q82 111 232 111h9q62 0 109 -20t72.5 -54.5t37.5 -73.5t12 -82v-338h-195v289q0 53 -30 89.5t-92 36.5q-61 0 -94 -39t-33 -94v-282h-194v289q0 53 -30 89.5t-92 36.5t-95 -39t-33 -94v-282h-195z" />
    <glyph glyph-name="n" unicode="n" horiz-adv-x="828" 
d="M83 555h193v-88q18 21 41.5 40.5t74.5 40t109 20.5h10q114 0 175 -62.5t61 -145.5v-360h-195v289q0 53 -33 89.5t-100 36.5q-66 0 -103.5 -39t-37.5 -94v-282h-195v555z" />
    <glyph glyph-name="o" unicode="o" horiz-adv-x="827" 
d="M398 -15q-85 0 -150 20t-101 50t-58.5 70.5t-29 74t-6.5 68.5v14q0 35 6.5 69t29 75t58.5 71.5t100.5 51.5t149.5 21h33q88 0 153.5 -21t101 -51t56.5 -72t27 -75t6 -68v-16q0 -36 -6 -68.5t-27 -73.5t-56.5 -70t-101.5 -49.5t-154 -20.5h-31zM419 131q44 0 75.5 14.5
t48 38t23.5 47.5t7 49q0 26 -7 50t-23.5 47t-48 36.5t-75.5 13.5h-11q-46 0 -78 -13.5t-47.5 -37t-22 -46.5t-6.5 -50q0 -26 6.5 -49.5t22 -47.5t48 -38t77.5 -14h11z" />
    <glyph glyph-name="p" unicode="p" horiz-adv-x="848" 
d="M591 280q0 25 -6.5 47.5t-22 45t-47 35.5t-74.5 13h-10q-80 0 -117 -42t-37 -99v-3q0 -55 37 -98t117 -43h10q43 0 74.5 13.5t47 36t22 45t6.5 46.5v3zM83 555h193v-71q27 29 83.5 55.5t139.5 26.5h13q76 0 132.5 -24t88 -65.5t46 -88t14.5 -99.5v-17q0 -38 -9 -76
t-30 -76t-52.5 -66.5t-80.5 -46.5t-110 -18h-14q-137 0 -219 82v-262h-195v746z" />
    <glyph glyph-name="q" unicode="q" horiz-adv-x="847" 
d="M350 566q146 0 228 -82q12 35 15 71h171v-746h-194v262q-14 -16 -34.5 -31.5t-71 -33t-109.5 -17.5h-13q-74 0 -131 24.5t-89.5 66t-49 90.5t-16.5 102v17q0 52 16 99.5t48.5 88.5t88.5 65t129 24h12zM407 421q-43 0 -74.5 -13t-47 -35.5t-22 -45t-6.5 -47.5v-3
q0 -24 6.5 -46.5t22 -45t47 -36t74.5 -13.5h11q79 0 116 43t37 98v3q0 57 -37 99t-116 42h-11z" />
    <glyph glyph-name="r" unicode="r" horiz-adv-x="697" 
d="M83 0v555h193v-91q6 13 18.5 28t33.5 33t55 30t74 12h6q95 0 142 -57t47 -158q0 -39 -1 -63h-201v8q0 60 -17.5 89t-61.5 29q-45 0 -69 -32.5t-24 -87.5v-295h-195z" />
    <glyph glyph-name="s" unicode="s" horiz-adv-x="737" 
d="M350 -13q-77 0 -135 14.5t-88 34t-48 46.5t-22 45.5t-4 36.5v5h209q9 -59 111 -59h2q107 0 107 53q0 24 -21 37t-85 16l-76 6q-244 15 -244 166v6q0 39 12.5 68t42.5 54t88.5 38.5t143.5 13.5h27q77 0 134 -11t88.5 -27.5t50 -41t23.5 -45t5 -45.5v-3h-204q-5 15 -10 24
t-29.5 19.5t-66.5 10.5h-3q-60 0 -83 -11.5t-23 -34.5q0 -25 21.5 -37.5t78.5 -14.5l76 -3q142 -6 198.5 -47.5t56.5 -116.5v-7q0 -40 -11 -70t-41.5 -59t-94.5 -45t-160 -16h-26z" />
    <glyph glyph-name="t" unicode="t" horiz-adv-x="534" 
d="M480 0h-177q-69 0 -106.5 38t-37.5 112v265h-121v140h121v169h194v-169h127v-140h-127v-204q0 -34 12 -48t46 -14h69v-149z" />
    <glyph glyph-name="u" unicode="u" horiz-adv-x="822" 
d="M739 0h-193v88q-25 -34 -83 -67.5t-140 -33.5h-9q-112 0 -172.5 62.5t-60.5 145.5v360h195v-289q0 -54 31.5 -89.5t98.5 -35.5q65 0 101.5 38.5t36.5 93.5v282h195v-555z" />
    <glyph glyph-name="v" unicode="v" horiz-adv-x="763" 
d="M18 555h216l156 -401l157 401h198l-233 -555h-248z" />
    <glyph glyph-name="w" unicode="w" horiz-adv-x="1152" 
d="M239 0l-217 555h207l133 -385l115 385h220l124 -385l123 385h185l-196 -555h-229l-122 360l-116 -360h-227z" />
    <glyph glyph-name="x" unicode="x" horiz-adv-x="752" 
d="M376 159l-145 -159h-221l249 278l-257 277h239l142 -155l137 155h215l-239 -273l254 -282h-225z" />
    <glyph glyph-name="y" unicode="y" horiz-adv-x="753" 
d="M123 -52h122q29 0 29 23v1q0 17 -18 54l-238 529h214l154 -398l153 398h196l-254 -611q-30 -71 -71 -103t-108 -32h-179v139z" />
    <glyph glyph-name="z" unicode="z" horiz-adv-x="738" 
d="M59 0v134l344 275h-342v146h606v-131l-354 -272h367v-152h-621z" />
    <glyph glyph-name="braceleft" unicode="{" horiz-adv-x="392" 
d="M225 -131q-76 0 -113.5 27.5t-37.5 86.5q0 45 37 141.5t37 119.5q0 22 -9 31.5t-30 9.5h-68v112h68q39 0 39 33q0 25 -37 119.5t-37 137.5q0 61 36 91t115 30h124v-107h-84q-39 0 -39 -39q0 -22 28 -104t28 -113q0 -45 -20 -69t-67 -34q47 -9 67 -30t20 -60
q0 -34 -28 -120.5t-28 -107.5q0 -48 45 -48h78v-107h-124z" />
    <glyph glyph-name="bar" unicode="|" horiz-adv-x="375" 
d="M258 -131h-141v939h141v-939z" />
    <glyph glyph-name="braceright" unicode="}" horiz-adv-x="392" 
d="M43 -131v107h78q45 0 45 48q0 21 -28 107.5t-28 120.5q0 39 20 60t67 30q-47 10 -67 34t-20 69q0 31 28 113t28 104q0 39 -39 39h-84v107h124q79 0 115 -30t36 -91q0 -43 -37 -137.5t-37 -119.5q0 -33 39 -33h68v-112h-68q-21 0 -30 -9.5t-9 -31.5q0 -23 37 -119.5
t37 -141.5q0 -59 -37.5 -86.5t-113.5 -27.5h-124z" />
    <glyph glyph-name="asciitilde" unicode="~" horiz-adv-x="693" 
d="M496 224q-44 0 -79.5 18t-93.5 62q-37 30 -51.5 39t-27.5 9q-21 0 -21 -33v-120h-151v186q0 58 30 97.5t97 39.5q46 0 80.5 -18t89.5 -60q65 -51 80 -51q21 0 21 32v128h151v-192q0 -54 -32 -95.5t-93 -41.5z" />
    <glyph glyph-name="exclamdown" unicode="&#xa1;" horiz-adv-x="378" 
d="M77 -189l64 502h95l65 -502h-224zM81 555h215v-177h-215v177z" />
    <glyph glyph-name="cent" unicode="&#xa2;" horiz-adv-x="822" 
d="M254 281q0 -54 26 -98.5t90 -55.5v304q-116 -19 -116 -149v-1zM370 -96v81q-78 3 -137 24.5t-92 51t-53.5 69t-27 72.5t-6.5 68v14q0 34 6.5 67.5t27.5 73t54 69.5t92 51.5t136 24.5v81h94v-81q74 -2 130.5 -19.5t89 -41t53 -54.5t27 -57t6.5 -52v-1h-201q-3 13 -9 26
t-31.5 33t-64.5 26v-304q88 16 105 93h201q0 -26 -5.5 -52t-25.5 -59t-51.5 -58.5t-89.5 -44t-134 -20.5v-81h-94z" />
    <glyph glyph-name="sterling" unicode="&#xa3;" horiz-adv-x="875" 
d="M812 0h-758v153h62q74 0 74 79v2q0 29 -14 87h-122v101h97q-11 49 -11 88v8q0 43 14 81.5t46 74.5t94.5 57.5t149.5 21.5h36q85 0 147.5 -19.5t94.5 -46t50.5 -66t23 -68.5t4.5 -64v-2h-212q-5 53 -24 75q-31 39 -101 39q-76 0 -102.5 -32.5t-26.5 -85.5q0 -30 4 -61h298
v-101h-287q2 -32 2 -45q0 -91 -49 -123h306v116h204v-269z" />
    <glyph glyph-name="yen" unicode="&#xa5;" horiz-adv-x="845" 
d="M326 146h-229v89h229v62h-229v89h179l-276 358h244l188 -268l192 268h221l-266 -358h178v-89h-229v-62h229v-89h-229v-146h-202v146z" />
    <glyph glyph-name="brokenbar" unicode="&#xa6;" horiz-adv-x="375" 
d="M258 418h-141v390h141v-390zM258 -131h-141v428h141v-428z" />
    <glyph glyph-name="section" unicode="&#xa7;" horiz-adv-x="863" 
d="M581 185q32 22 32 66q0 62 -83 77q-215 37 -248 50q-31 -20 -31 -65q0 -62 85 -78q221 -42 245 -50zM418 -209q-332 0 -332 226v3h194q0 -97 155 -97h7q119 0 119 58v2q0 25 -18 41t-81 27l-168 30q-132 24 -184 73t-52 123v9q0 54 34.5 87.5t90.5 48.5q-75 46 -75 142
v10q0 58 26.5 96.5t97.5 62t188 23.5h36q80 0 138.5 -13t90.5 -32.5t50.5 -49t23.5 -54.5t5 -57v-3h-192q-2 14 -5.5 23.5t-15.5 25t-41.5 24t-73.5 8.5h-7q-79 0 -104.5 -13t-25.5 -38v-2q0 -24 19.5 -38.5t82.5 -25.5l171 -30q133 -23 183 -67t50 -121v-10
q0 -58 -35.5 -92t-86.5 -49q72 -47 72 -140v-10q0 -41 -14 -75t-46.5 -63.5t-93.5 -46t-146 -16.5h-37z" />
    <glyph glyph-name="dieresis" unicode="&#xa8;" horiz-adv-x="700" 
d="M320 617h-191v140h191v-140zM571 617h-191v140h191v-140z" />
    <glyph glyph-name="copyright" unicode="&#xa9;" horiz-adv-x="1079" 
d="M1020 359q0 -76 -23.5 -139.5t-75.5 -117t-145.5 -83.5t-222.5 -30h-27q-129 0 -222.5 30t-145.5 83.5t-75.5 117t-23.5 139.5v28q0 59 14 110.5t48 100t86.5 82.5t134 54.5t185.5 20.5h25q104 0 185.5 -20.5t134 -54.5t86.5 -82.5t48 -100t14 -110.5v-28zM550 75
q101 0 174 24t113 67t58 92t18 108v12q0 65 -17.5 115t-57.5 91t-112.5 63t-175.5 22h-21q-103 0 -175.5 -22t-112.5 -63t-57.5 -91t-17.5 -115v-12q0 -59 18 -108t57.5 -92t113 -67t174.5 -24h21zM531 147q-67 0 -118 15.5t-80 38t-47 54t-23.5 58t-5.5 54.5v17q0 29 5 55
t22.5 56.5t46 52.5t80 37t120.5 15h23q71 0 123.5 -13.5t80 -32.5t44.5 -45.5t21 -45.5t4 -40v-3h-155q-2 8 -7 16.5t-18 21.5t-40.5 21t-64.5 8q-135 0 -135 -106v-8q0 -47 31 -80t105 -33q38 0 65 8.5t39.5 22.5t17.5 23.5t7 18.5h156v-4q0 -21 -4.5 -41.5t-22 -47
t-45.5 -46.5t-80.5 -33.5t-121.5 -13.5h-23z" />
    <glyph glyph-name="ordfeminine" unicode="&#xaa;" horiz-adv-x="647" 
d="M282 402q55 0 87 28.5t32 71.5v15l-131 -22q-56 -9 -56 -48q0 -20 17 -32.5t51 -12.5zM407 377q-16 -25 -57.5 -47t-108.5 -22h-8q-87 0 -129.5 39.5t-42.5 99.5v5q0 58 41.5 87.5t125.5 38.5l147 13q15 2 20.5 7.5t5.5 16.5q0 38 -88 38h-7q-86 0 -86 -40h-150v1
q0 16 3.5 31.5t17 36t36 35t64.5 24.5t98 10h39q73 0 121 -12t69.5 -33.5t28.5 -42t7 -47.5v-142q0 -22 6.5 -30t28.5 -8h17v-121h-125q-58 0 -74 62z" />
    <glyph glyph-name="guillemotleft" unicode="&#xab;" horiz-adv-x="641" 
d="M437 105l-126 183l128 180h164l-130 -180l125 -183h-161zM168 105l-129 183l127 180h165l-128 -180l127 -183h-162z" />
    <glyph glyph-name="registered" unicode="&#xae;" horiz-adv-x="784" 
d="M375 230q-73 0 -130 15.5t-91.5 40.5t-56.5 59t-30.5 68t-8.5 72v19q0 46 14 86.5t46.5 79.5t98.5 62.5t158 23.5h38q75 0 132 -16t90.5 -41t54.5 -60t28.5 -67.5t7.5 -69.5v-17q0 -47 -16.5 -90t-51.5 -81t-99 -61t-148 -23h-36zM396 298q64 0 111 13t73 32.5t42 48
t20.5 53.5t4.5 55q0 29 -4.5 52t-20 50t-41.5 44.5t-73.5 29.5t-111.5 12h-2q-66 0 -114 -11.5t-74.5 -29.5t-42 -45t-19.5 -51.5t-4 -56.5q0 -31 4 -55t19.5 -52t42 -46t74.5 -30.5t114 -12.5h2zM432 516q28 0 28 25q0 26 -28 26h-96v-51h96zM336 359h-103v270h224
q104 0 104 -65v-4q0 -25 -16 -40.5t-37 -18.5q57 -12 57 -61v-49q0 -19 6 -27v-5h-102q-9 9 -9 23v28q0 21 -7 29.5t-27 8.5h-90v-89z" />
    <glyph glyph-name="macron" unicode="&#xaf;" horiz-adv-x="700" 
d="M167 748h366v-118h-366v118z" />
    <glyph glyph-name="degree" unicode="&#xb0;" horiz-adv-x="526" 
d="M266 350q-95 0 -155.5 59.5t-60.5 145.5q0 85 60.5 143t155.5 58q91 0 150.5 -58t59.5 -143q0 -86 -59.5 -145.5t-150.5 -59.5zM264 462q41 0 66.5 25.5t25.5 66.5q0 39 -25.5 64.5t-66.5 25.5q-42 0 -67.5 -25.5t-25.5 -64.5q0 -42 25.5 -67t67.5 -25z" />
    <glyph glyph-name="acute" unicode="&#xb4;" horiz-adv-x="700" 
d="M286 766h218l-111 -149h-195z" />
    <glyph glyph-name="paragraph" unicode="&#xb6;" horiz-adv-x="808" 
d="M337 328h-41q-120 0 -182 54.5t-62 144.5v19q0 198 246 198h473v-118h-74v-626h-136v626h-89v-626h-135v328z" />
    <glyph glyph-name="periodcentered" unicode="&#xb7;" horiz-adv-x="365" 
d="M299 211h-233v194h233v-194z" />
    <glyph glyph-name="cedilla" unicode="&#xb8;" horiz-adv-x="701" 
d="M198 -258v90h109q35 0 35 22q0 23 -35 23h-80v123h111v-50h5q91 0 124 -25t33 -76v-3q0 -48 -34 -76t-123 -28h-145z" />
    <glyph glyph-name="ordmasculine" unicode="&#xba;" horiz-adv-x="671" 
d="M357 751q72 0 123.5 -19t78.5 -52t39 -67.5t13 -74.5v-14q0 -31 -7 -60t-25 -58t-46 -50t-73 -34.5t-103 -13.5h-40q-70 0 -122.5 19.5t-80.5 52.5t-41 69t-13 75v14q0 39 13 75t41 68t80.5 51t122.5 19h40zM337 426q57 0 83 30.5t26 75.5t-26.5 74t-82.5 29
q-110 0 -110 -103q0 -45 26 -75.5t84 -30.5z" />
    <glyph glyph-name="guillemotright" unicode="&#xbb;" horiz-adv-x="640" 
d="M43 105l124 183l-129 180h164l128 -180l-126 -183h-161zM311 105l126 183l-127 180h165l126 -180l-128 -183h-162z" />
    <glyph glyph-name="onequarter" unicode="&#xbc;" horiz-adv-x="1159" 
d="M48 559v106q77 0 104.5 17.5t42.5 61.5h117v-427h-147v242h-117zM942 744l-679 -744h-162l685 744h156zM611 172l126 128l126 128h165v-239h85v-103h-85v-86h-145v86h-272v86zM751 189h132v137z" />
    <glyph glyph-name="onehalf" unicode="&#xbd;" horiz-adv-x="1228" 
d="M942 744l-679 -744h-162l685 744h156zM48 559v106q77 0 104.5 17.5t42.5 61.5h117v-427h-147v242h-117zM681 0v50q0 34 7.5 59t30.5 54t74 52t129 39q56 12 73 20t17 23q0 17 -16.5 25t-64.5 8q-35 0 -56.5 -9.5t-27 -19t-5.5 -18.5h-155v4q0 23 8 44.5t30 46.5
t71.5 40.5t121.5 15.5h20q71 0 119 -10.5t71.5 -30.5t32.5 -42t9 -52v-5q0 -61 -49 -89t-168 -47q-136 -20 -136 -42v-1h353v-115h-489z" />
    <glyph glyph-name="threequarters" unicode="&#xbe;" horiz-adv-x="1355" 
d="M1138 744l-679 -744h-162l685 744h156zM283 311q-61 0 -106.5 12t-69 28.5t-38 39.5t-18 39t-3.5 33v4h157l1 -3q1 -3 1.5 -5t3 -5.5t4.5 -6t6 -6.5t9 -6.5t12.5 -5t15.5 -4.5t19.5 -3t24.5 -1q99 0 99 41v2q0 29 -47 29h-121v98h117q26 0 35 6t9 19v1q0 33 -96 33
q-38 0 -61 -8t-28 -15t-5 -13h-151v7q0 15 3 28.5t16.5 33.5t36 34t66.5 24.5t103 10.5h31q62 0 107.5 -7.5t70 -18.5t39 -27t18 -29.5t3.5 -29.5v-4q0 -27 -18 -46.5t-50 -25.5q82 -19 82 -100v-4q0 -149 -244 -149h-34zM807 171l126 128l126 128h165v-239h85v-103h-85v-86
h-145v86h-272v86zM947 188h132v137z" />
    <glyph glyph-name="questiondown" unicode="&#xbf;" horiz-adv-x="806" 
d="M531 313v-50q0 -63 -29.5 -97t-118.5 -67l-48 -18q-47 -18 -63.5 -32.5t-16.5 -35.5q0 -18 9 -30t44 -21t98 -9q49 0 81.5 9.5t45 26t17 29.5t5.5 28v5h211v-12q0 -237 -332 -237h-56q-93 0 -160.5 17t-103.5 47t-52 64.5t-16 76.5v7q0 69 39.5 114.5t134.5 78.5l49 17
q40 15 54 29.5t14 46.5v13h194zM326 555h215v-177h-215v177z" />
    <glyph glyph-name="Agrave" unicode="&#xc0;" horiz-adv-x="973" 
d="M476 594l-131 -303h266zM680 138h-402l-60 -138h-207l330 744h276l345 -744h-221zM270 953h222l91 -148h-207z" />
    <glyph glyph-name="Aacute" unicode="&#xc1;" horiz-adv-x="973" 
d="M476 594l-131 -303h266zM680 138h-402l-60 -138h-207l330 744h276l345 -744h-221zM375 805l91 148h222l-106 -148h-207z" />
    <glyph glyph-name="Acircumflex" unicode="&#xc2;" horiz-adv-x="973" 
d="M476 594l-131 -303h266zM680 138h-402l-60 -138h-207l330 744h276l345 -744h-221zM735 803h-193l-63 63l-63 -63h-190l140 150h229z" />
    <glyph glyph-name="Atilde" unicode="&#xc3;" horiz-adv-x="973" 
d="M476 594l-131 -303h266zM680 138h-402l-60 -138h-207l330 744h276l345 -744h-221zM393 800h-112v78q0 40 19.5 69t67.5 29h2q37 0 124 -36q48 -20 57 -20q14 0 14 22v40h112v-78q0 -40 -19.5 -69t-67.5 -29h-2q-37 0 -124 36q-48 20 -57 20q-14 0 -14 -22v-40z" />
    <glyph glyph-name="Adieresis" unicode="&#xc4;" horiz-adv-x="973" 
d="M476 594l-131 -303h266zM680 138h-402l-60 -138h-207l330 744h276l345 -744h-221zM448 805h-194v140h194v-140zM704 805h-194v140h194v-140z" />
    <glyph glyph-name="Aring" unicode="&#xc5;" horiz-adv-x="973" 
d="M476 594l-131 -303h266zM680 138h-402l-60 -138h-207l330 744h276l345 -744h-221zM311 926q0 58 40 94t128 36q89 0 129 -36t40 -94q0 -57 -40 -93.5t-129 -36.5q-88 0 -128 36.5t-40 93.5zM547 926q0 25 -17 40t-51 15t-50.5 -15t-16.5 -40q0 -24 17 -40t50 -16t50.5 16
t17.5 40z" />
    <glyph glyph-name="AE" unicode="&#xc6;" horiz-adv-x="1273" 
d="M568 601l-193 -320h193v320zM568 135h-281l-82 -135h-219l465 744h741v-162h-421v-121h407v-168h-407v-129h429v-164h-632v135z" />
    <glyph glyph-name="Ccedilla" unicode="&#xc7;" horiz-adv-x="1007" 
d="M673 -154q0 -48 -34 -76t-123 -28h-145v90h109q35 0 35 22q0 23 -35 23h-80v118q-77 10 -138 38t-98 65t-61.5 83.5t-34 89.5t-9.5 88v30q0 50 11.5 98t42.5 97.5t77.5 86.5t123.5 60.5t175 23.5h46q112 0 196 -25.5t130 -69t68 -93.5t22 -106v-2h-212q-1 10 -5.5 21.5
t-19.5 31.5t-38 35t-66 26.5t-98 11.5q-126 0 -182.5 -58t-56.5 -144v-14q0 -37 12.5 -72t39 -66.5t75 -51t113.5 -19.5q56 0 99 11.5t65.5 27t37.5 36.5t19 33t5 23h212v-3q0 -55 -21.5 -105t-67 -95t-130 -72t-197.5 -27h-24v-39h5q91 0 124 -25t33 -76v-3z" />
    <glyph glyph-name="Egrave" unicode="&#xc8;" horiz-adv-x="852" 
d="M773 744v-162h-478v-121h463v-168h-463v-129h484v-164h-687v744h681zM249 953h222l91 -148h-207z" />
    <glyph glyph-name="Eacute" unicode="&#xc9;" horiz-adv-x="852" 
d="M773 744v-162h-478v-121h463v-168h-463v-129h484v-164h-687v744h681zM330 805l91 148h222l-106 -148h-207z" />
    <glyph glyph-name="Ecircumflex" unicode="&#xca;" horiz-adv-x="852" 
d="M773 744v-162h-478v-121h463v-168h-463v-129h484v-164h-687v744h681zM690 803h-193l-63 63l-63 -63h-190l140 150h229z" />
    <glyph glyph-name="Edieresis" unicode="&#xcb;" horiz-adv-x="852" 
d="M773 744v-162h-478v-121h463v-168h-463v-129h484v-164h-687v744h681zM403 805h-194v140h194v-140zM659 805h-194v140h194v-140z" />
    <glyph glyph-name="Igrave" unicode="&#xcc;" horiz-adv-x="390" 
d="M298 0h-206v744h206v-744zM-14 953h222l91 -148h-207z" />
    <glyph glyph-name="Iacute" unicode="&#xcd;" horiz-adv-x="390" 
d="M298 0h-206v744h206v-744zM91 805l91 148h222l-106 -148h-207z" />
    <glyph glyph-name="Icircumflex" unicode="&#xce;" horiz-adv-x="390" 
d="M298 0h-206v744h206v-744zM451 803h-193l-63 63l-63 -63h-190l140 150h229z" />
    <glyph glyph-name="Idieresis" unicode="&#xcf;" horiz-adv-x="390" 
d="M298 0h-206v744h206v-744zM164 805h-194v140h194v-140zM420 805h-194v140h194v-140z" />
    <glyph glyph-name="Eth" unicode="&#xd0;" horiz-adv-x="1034" 
d="M491 166q72 0 124 14t80 34t44 50t20 54t4 54v6q0 30 -4 53.5t-20.5 53t-44.5 48.5t-80 32.5t-123 13.5h-166v-131h241v-140h-241v-142h166zM119 308h-102v140h102v296h381q94 0 170 -15t126.5 -41.5t87 -59.5t56.5 -73.5t28.5 -78.5t8.5 -78v-30q0 -43 -7.5 -82
t-25 -82.5t-53 -78.5t-85.5 -64t-128.5 -45t-176.5 -16h-382v308z" />
    <glyph glyph-name="Ntilde" unicode="&#xd1;" horiz-adv-x="1031" 
d="M293 482v-482h-201v744h212l435 -479v479h200v-744h-202zM439 800h-112v78q0 40 19.5 69t67.5 29h2q37 0 124 -36q48 -20 57 -20q14 0 14 22v40h112v-78q0 -40 -19.5 -69t-67.5 -29h-2q-37 0 -124 36q-48 20 -57 20q-14 0 -14 -22v-40z" />
    <glyph glyph-name="Ograve" unicode="&#xd2;" horiz-adv-x="1056" 
d="M550 756q100 0 179.5 -23t128.5 -59t81.5 -85.5t45 -98.5t12.5 -101v-30q0 -51 -12.5 -100t-45 -99.5t-81.5 -87.5t-128.5 -60.5t-179.5 -23.5h-44q-100 0 -179.5 23.5t-128.5 60.5t-81.5 87.5t-45 99.5t-12.5 100v30q0 52 12.5 100.5t45 98t81.5 86t128.5 59.5t179.5 23
h44zM783 381q0 38 -11 71.5t-37 65t-79 50t-128 18.5q-74 0 -127 -18.5t-79.5 -50t-37.5 -65t-11 -71.5v-14q0 -37 11.5 -71t38.5 -66.5t79.5 -51.5t125.5 -19q74 0 127 19t79.5 51.5t37.5 66t11 71.5v14zM319 953h222l91 -148h-207z" />
    <glyph glyph-name="Oacute" unicode="&#xd3;" horiz-adv-x="1056" 
d="M550 756q100 0 179.5 -23t128.5 -59t81.5 -85.5t45 -98.5t12.5 -101v-30q0 -51 -12.5 -100t-45 -99.5t-81.5 -87.5t-128.5 -60.5t-179.5 -23.5h-44q-100 0 -179.5 23.5t-128.5 60.5t-81.5 87.5t-45 99.5t-12.5 100v30q0 52 12.5 100.5t45 98t81.5 86t128.5 59.5t179.5 23
h44zM783 381q0 38 -11 71.5t-37 65t-79 50t-128 18.5q-74 0 -127 -18.5t-79.5 -50t-37.5 -65t-11 -71.5v-14q0 -37 11.5 -71t38.5 -66.5t79.5 -51.5t125.5 -19q74 0 127 19t79.5 51.5t37.5 66t11 71.5v14zM424 805l91 148h222l-106 -148h-207z" />
    <glyph glyph-name="Ocircumflex" unicode="&#xd4;" horiz-adv-x="1056" 
d="M550 756q100 0 179.5 -23t128.5 -59t81.5 -85.5t45 -98.5t12.5 -101v-30q0 -51 -12.5 -100t-45 -99.5t-81.5 -87.5t-128.5 -60.5t-179.5 -23.5h-44q-100 0 -179.5 23.5t-128.5 60.5t-81.5 87.5t-45 99.5t-12.5 100v30q0 52 12.5 100.5t45 98t81.5 86t128.5 59.5t179.5 23
h44zM783 381q0 38 -11 71.5t-37 65t-79 50t-128 18.5q-74 0 -127 -18.5t-79.5 -50t-37.5 -65t-11 -71.5v-14q0 -37 11.5 -71t38.5 -66.5t79.5 -51.5t125.5 -19q74 0 127 19t79.5 51.5t37.5 66t11 71.5v14zM784 803h-193l-63 63l-63 -63h-190l140 150h229z" />
    <glyph glyph-name="Otilde" unicode="&#xd5;" horiz-adv-x="1056" 
d="M550 756q100 0 179.5 -23t128.5 -59t81.5 -85.5t45 -98.5t12.5 -101v-30q0 -51 -12.5 -100t-45 -99.5t-81.5 -87.5t-128.5 -60.5t-179.5 -23.5h-44q-100 0 -179.5 23.5t-128.5 60.5t-81.5 87.5t-45 99.5t-12.5 100v30q0 52 12.5 100.5t45 98t81.5 86t128.5 59.5t179.5 23
h44zM783 381q0 38 -11 71.5t-37 65t-79 50t-128 18.5q-74 0 -127 -18.5t-79.5 -50t-37.5 -65t-11 -71.5v-14q0 -37 11.5 -71t38.5 -66.5t79.5 -51.5t125.5 -19q74 0 127 19t79.5 51.5t37.5 66t11 71.5v14zM442 800h-112v78q0 40 19.5 69t67.5 29h2q37 0 124 -36
q48 -20 57 -20q14 0 14 22v40h112v-78q0 -40 -19.5 -69t-67.5 -29h-2q-37 0 -124 36q-48 20 -57 20q-14 0 -14 -22v-40z" />
    <glyph glyph-name="Odieresis" unicode="&#xd6;" horiz-adv-x="1056" 
d="M550 756q100 0 179.5 -23t128.5 -59t81.5 -85.5t45 -98.5t12.5 -101v-30q0 -51 -12.5 -100t-45 -99.5t-81.5 -87.5t-128.5 -60.5t-179.5 -23.5h-44q-100 0 -179.5 23.5t-128.5 60.5t-81.5 87.5t-45 99.5t-12.5 100v30q0 52 12.5 100.5t45 98t81.5 86t128.5 59.5t179.5 23
h44zM783 381q0 38 -11 71.5t-37 65t-79 50t-128 18.5q-74 0 -127 -18.5t-79.5 -50t-37.5 -65t-11 -71.5v-14q0 -37 11.5 -71t38.5 -66.5t79.5 -51.5t125.5 -19q74 0 127 19t79.5 51.5t37.5 66t11 71.5v14zM497 805h-194v140h194v-140zM753 805h-194v140h194v-140z" />
    <glyph glyph-name="multiply" unicode="&#xd7;" horiz-adv-x="604" 
d="M301 212l-146 -145l-98 95l146 145l-147 143l101 99l146 -144l147 145l98 -94l-148 -146l148 -145l-98 -98z" />
    <glyph glyph-name="Oslash" unicode="&#xd8;" horiz-adv-x="1052" 
d="M505 -12q-144 0 -247 50l-43 -38h-182l121 112q-95 102 -95 247v30q-1 48 9.5 95t41 97.5t78.5 88t130 62t187 24.5h42q148 0 250 -50l42 38h183l-121 -111q92 -99 92 -244v-30q0 -48 -10.5 -95t-41 -98.5t-78.5 -89.5t-129.5 -63t-186.5 -25h-42zM268 368q0 -67 33 -120
l351 325q-45 15 -126 15q-61 0 -108 -13t-74.5 -33t-45.5 -48.5t-24 -55t-6 -56.5v-14zM527 158q75 0 128.5 19.5t80 52t37.5 66.5t11 72v14q0 65 -29 116l-351 -326q56 -14 123 -14z" />
    <glyph glyph-name="Ugrave" unicode="&#xd9;" horiz-adv-x="1014" 
d="M494 -11q-105 0 -182.5 26t-119 63.5t-66.5 92t-32 99t-7 96.5v378h206v-373q0 -207 213 -207h5q67 0 112 19.5t65 53.5t27 65t7 69v373h205v-378q0 -35 -3.5 -68t-15 -72t-29.5 -71.5t-49.5 -64t-72.5 -53t-101 -35t-133 -13.5h-29zM299 953h222l91 -148h-207z" />
    <glyph glyph-name="Uacute" unicode="&#xda;" horiz-adv-x="1014" 
d="M494 -11q-105 0 -182.5 26t-119 63.5t-66.5 92t-32 99t-7 96.5v378h206v-373q0 -207 213 -207h5q67 0 112 19.5t65 53.5t27 65t7 69v373h205v-378q0 -35 -3.5 -68t-15 -72t-29.5 -71.5t-49.5 -64t-72.5 -53t-101 -35t-133 -13.5h-29zM403 805l91 148h222l-106 -148h-207z
" />
    <glyph glyph-name="Ucircumflex" unicode="&#xdb;" horiz-adv-x="1014" 
d="M494 -11q-105 0 -182.5 26t-119 63.5t-66.5 92t-32 99t-7 96.5v378h206v-373q0 -207 213 -207h5q67 0 112 19.5t65 53.5t27 65t7 69v373h205v-378q0 -35 -3.5 -68t-15 -72t-29.5 -71.5t-49.5 -64t-72.5 -53t-101 -35t-133 -13.5h-29zM764 803h-193l-63 63l-63 -63h-190
l140 150h229z" />
    <glyph glyph-name="Udieresis" unicode="&#xdc;" horiz-adv-x="1014" 
d="M494 -11q-105 0 -182.5 26t-119 63.5t-66.5 92t-32 99t-7 96.5v378h206v-373q0 -207 213 -207h5q67 0 112 19.5t65 53.5t27 65t7 69v373h205v-378q0 -35 -3.5 -68t-15 -72t-29.5 -71.5t-49.5 -64t-72.5 -53t-101 -35t-133 -13.5h-29zM477 805h-194v140h194v-140zM733 805
h-194v140h194v-140z" />
    <glyph glyph-name="Yacute" unicode="&#xdd;" horiz-adv-x="927" 
d="M367 272l-369 472h255l223 -295l223 295h230l-356 -473v-271h-206v272zM372 805l91 148h222l-106 -148h-207z" />
    <glyph glyph-name="Thorn" unicode="&#xde;" horiz-adv-x="942" 
d="M298 132v-132h-206v744h206v-114h290q164 0 233 -64t69 -178v-12q0 -244 -302 -244h-290zM298 295h275q103 0 103 84v5q0 38 -25.5 60.5t-77.5 22.5h-275v-172z" />
    <glyph glyph-name="germandbls" unicode="&#xdf;" horiz-adv-x="830" 
d="M606 438q27 -5 52.5 -16t54.5 -32t46.5 -59t17.5 -87v-12q0 -52 -14.5 -91.5t-47.5 -72.5t-95 -50.5t-151 -17.5h-122v141h109q71 0 96 26.5t25 70.5v1q0 42 -25 67.5t-96 25.5h-109v141h95q95 0 95 80v2q0 34 -25.5 55.5t-99.5 21.5h-6q-72 0 -100 -28t-28 -81v-523
h-195v541q0 35 5 62t24 60.5t53 55.5t97 37.5t150 15.5h6q90 0 154 -16t96.5 -43.5t46 -57t13.5 -64.5v-6q0 -58 -36 -95.5t-86 -51.5z" />
    <glyph glyph-name="agrave" unicode="&#xe0;" horiz-adv-x="783" 
d="M343 111q77 0 115 37t38 77v43q-25 -10 -122 -26q-72 -12 -98 -25.5t-26 -42.5v-2q0 -61 93 -61zM502 77q-73 -88 -214 -88h-16q-109 0 -164 50.5t-55 125.5v4q0 75 56.5 117t192.5 54l152 13q23 2 32.5 10.5t9.5 25.5q0 16 -5.5 26t-33 19t-77.5 9q-112 0 -112 -61h-200
v2q0 21 4 40.5t21.5 47.5t47 47.5t87 34t135.5 14.5h31q79 0 136 -13t86 -31t46 -46t20.5 -48.5t3.5 -48.5v-183q0 -28 9 -38.5t37 -10.5h21v-149h-158q-40 0 -63 22.5t-30 54.5zM479 617h-195l-111 149h218z" />
    <glyph glyph-name="aacute" unicode="&#xe1;" horiz-adv-x="783" 
d="M343 111q77 0 115 37t38 77v43q-25 -10 -122 -26q-72 -12 -98 -25.5t-26 -42.5v-2q0 -61 93 -61zM502 77q-73 -88 -214 -88h-16q-109 0 -164 50.5t-55 125.5v4q0 75 56.5 117t192.5 54l152 13q23 2 32.5 10.5t9.5 25.5q0 16 -5.5 26t-33 19t-77.5 9q-112 0 -112 -61h-200
v2q0 21 4 40.5t21.5 47.5t47 47.5t87 34t135.5 14.5h31q79 0 136 -13t86 -31t46 -46t20.5 -48.5t3.5 -48.5v-183q0 -28 9 -38.5t37 -10.5h21v-149h-158q-40 0 -63 22.5t-30 54.5zM370 765h218l-111 -149h-195z" />
    <glyph glyph-name="acircumflex" unicode="&#xe2;" horiz-adv-x="783" 
d="M343 111q77 0 115 37t38 77v43q-25 -10 -122 -26q-72 -12 -98 -25.5t-26 -42.5v-2q0 -61 93 -61zM502 77q-73 -88 -214 -88h-16q-109 0 -164 50.5t-55 125.5v4q0 75 56.5 117t192.5 54l152 13q23 2 32.5 10.5t9.5 25.5q0 16 -5.5 26t-33 19t-77.5 9q-112 0 -112 -61h-200
v2q0 21 4 40.5t21.5 47.5t47 47.5t87 34t135.5 14.5h31q79 0 136 -13t86 -31t46 -46t20.5 -48.5t3.5 -48.5v-183q0 -28 9 -38.5t37 -10.5h21v-149h-158q-40 0 -63 22.5t-30 54.5zM634 616h-195l-59 65l-59 -65h-191l136 150h231z" />
    <glyph glyph-name="atilde" unicode="&#xe3;" horiz-adv-x="783" 
d="M343 111q77 0 115 37t38 77v43q-25 -10 -122 -26q-72 -12 -98 -25.5t-26 -42.5v-2q0 -61 93 -61zM502 77q-73 -88 -214 -88h-16q-109 0 -164 50.5t-55 125.5v4q0 75 56.5 117t192.5 54l152 13q23 2 32.5 10.5t9.5 25.5q0 16 -5.5 26t-33 19t-77.5 9q-112 0 -112 -61h-200
v2q0 21 4 40.5t21.5 47.5t47 47.5t87 34t135.5 14.5h31q79 0 136 -13t86 -31t46 -46t20.5 -48.5t3.5 -48.5v-183q0 -28 9 -38.5t37 -10.5h21v-149h-158q-40 0 -63 22.5t-30 54.5zM567 718q0 -39 -19.5 -68.5t-66.5 -29.5h-2q-41 0 -110 35q-41 21 -50 21q-14 0 -14 -22v-40
h-112v79q0 39 19.5 68.5t66.5 29.5h2q41 0 110 -35q41 -21 50 -21q14 0 14 22v40h112v-79z" />
    <glyph glyph-name="adieresis" unicode="&#xe4;" horiz-adv-x="783" 
d="M343 111q77 0 115 37t38 77v43q-25 -10 -122 -26q-72 -12 -98 -25.5t-26 -42.5v-2q0 -61 93 -61zM502 77q-73 -88 -214 -88h-16q-109 0 -164 50.5t-55 125.5v4q0 75 56.5 117t192.5 54l152 13q23 2 32.5 10.5t9.5 25.5q0 16 -5.5 26t-33 19t-77.5 9q-112 0 -112 -61h-200
v2q0 21 4 40.5t21.5 47.5t47 47.5t87 34t135.5 14.5h31q79 0 136 -13t86 -31t46 -46t20.5 -48.5t3.5 -48.5v-183q0 -28 9 -38.5t37 -10.5h21v-149h-158q-40 0 -63 22.5t-30 54.5zM350 617h-191v140h191v-140zM601 617h-191v140h191v-140z" />
    <glyph glyph-name="aring" unicode="&#xe5;" horiz-adv-x="783" 
d="M343 111q77 0 115 37t38 77v43q-25 -10 -122 -26q-72 -12 -98 -25.5t-26 -42.5v-2q0 -61 93 -61zM502 77q-73 -88 -214 -88h-16q-109 0 -164 50.5t-55 125.5v4q0 75 56.5 117t192.5 54l152 13q23 2 32.5 10.5t9.5 25.5q0 16 -5.5 26t-33 19t-77.5 9q-112 0 -112 -61h-200
v2q0 21 4 40.5t21.5 47.5t47 47.5t87 34t135.5 14.5h31q79 0 136 -13t86 -31t46 -46t20.5 -48.5t3.5 -48.5v-183q0 -28 9 -38.5t37 -10.5h21v-149h-158q-40 0 -63 22.5t-30 54.5zM212 741q0 57 40 93t128 36t128.5 -36t40.5 -93q0 -58 -40 -94t-129 -36t-128.5 36t-39.5 94z
M313 741q0 -24 17 -40t50 -16t50.5 16t17.5 40t-17 39t-51 15q-67 0 -67 -54z" />
    <glyph glyph-name="ae" unicode="&#xe6;" horiz-adv-x="1237" 
d="M833 441q-127 0 -146 -103h289q0 42 -31.5 72.5t-111.5 30.5zM338 111q73 0 110.5 37t37.5 77v43q-23 -9 -117 -26q-68 -12 -93.5 -26.5t-25.5 -41.5v-2q0 -61 88 -61zM1183 167q0 -15 -6 -34t-26.5 -46t-53.5 -48t-94.5 -36.5t-141.5 -15.5h-35q-205 0 -287 109
q-71 -107 -247 -107h-16q-114 0 -168.5 50t-54.5 126v4q0 76 55.5 117.5t188.5 53.5l147 13q23 2 32.5 10.5t9.5 25.5q0 16 -6 26t-32 19t-73 9q-107 0 -107 -61h-200v2q0 21 4 41t21.5 47.5t46.5 47.5t85.5 34t132.5 14h31q160 0 220 -52q64 51 200 51h43q81 0 141.5 -18
t96.5 -47t58 -71.5t29.5 -84t7.5 -92.5v-18h-500q20 -116 165 -116q101 0 129 47h204z" />
    <glyph glyph-name="ccedilla" unicode="&#xe7;" horiz-adv-x="801" 
d="M567 -154q0 -48 -34 -76t-123 -28h-145v90h109q35 0 35 22q0 23 -35 23h-80v115q-57 10 -101.5 33.5t-70 52.5t-41.5 64.5t-21.5 66t-5.5 61.5v14q0 36 7 70.5t28.5 75t56 70.5t95.5 50t141 20h46q77 0 136 -16t93 -40t55.5 -56t29 -59.5t7.5 -54.5v-1h-204
q-2 10 -7 20.5t-18.5 27t-42.5 27t-69 10.5h-10q-78 0 -110 -42.5t-32 -103.5v-1q0 -62 34.5 -106.5t111.5 -44.5h10q33 0 58.5 8t39 19t22 24.5t11 22.5t2.5 14h204q0 -29 -7 -57t-28 -61t-54.5 -57.5t-92.5 -41t-135 -16.5h-27v-35h5q91 0 124 -25t33 -76v-3z" />
    <glyph glyph-name="egrave" unicode="&#xe8;" horiz-adv-x="811" 
d="M404 440q-132 0 -149 -99h294q0 99 -145 99zM756 173q0 -18 -5.5 -37.5t-26 -47.5t-53.5 -49t-95 -36.5t-143 -15.5h-37q-79 0 -140.5 17t-98.5 44t-61 65t-33 76t-9 81v14q0 52 14.5 98t48.5 89.5t101 69.5t161 26h44q82 0 143.5 -18t97.5 -47t57.5 -71.5t29 -84
t7.5 -92.5v-18h-505q15 -116 168 -116q16 0 31 1.5t26 3.5t20.5 5t16 6t13 7.5t9.5 7t6.5 7t4.5 6.5l3 6l2 3h203zM501 617h-195l-111 149h218z" />
    <glyph glyph-name="eacute" unicode="&#xe9;" horiz-adv-x="811" 
d="M404 440q-132 0 -149 -99h294q0 99 -145 99zM756 173q0 -18 -5.5 -37.5t-26 -47.5t-53.5 -49t-95 -36.5t-143 -15.5h-37q-79 0 -140.5 17t-98.5 44t-61 65t-33 76t-9 81v14q0 52 14.5 98t48.5 89.5t101 69.5t161 26h44q82 0 143.5 -18t97.5 -47t57.5 -71.5t29 -84
t7.5 -92.5v-18h-505q15 -116 168 -116q16 0 31 1.5t26 3.5t20.5 5t16 6t13 7.5t9.5 7t6.5 7t4.5 6.5l3 6l2 3h203zM392 766h218l-111 -149h-195z" />
    <glyph glyph-name="ecircumflex" unicode="&#xea;" horiz-adv-x="811" 
d="M404 440q-132 0 -149 -99h294q0 99 -145 99zM756 173q0 -18 -5.5 -37.5t-26 -47.5t-53.5 -49t-95 -36.5t-143 -15.5h-37q-79 0 -140.5 17t-98.5 44t-61 65t-33 76t-9 81v14q0 52 14.5 98t48.5 89.5t101 69.5t161 26h44q82 0 143.5 -18t97.5 -47t57.5 -71.5t29 -84
t7.5 -92.5v-18h-505q15 -116 168 -116q16 0 31 1.5t26 3.5t20.5 5t16 6t13 7.5t9.5 7t6.5 7t4.5 6.5l3 6l2 3h203zM656 616h-195l-59 65l-59 -65h-191l136 150h231z" />
    <glyph glyph-name="edieresis" unicode="&#xeb;" horiz-adv-x="811" 
d="M404 440q-132 0 -149 -99h294q0 99 -145 99zM756 173q0 -18 -5.5 -37.5t-26 -47.5t-53.5 -49t-95 -36.5t-143 -15.5h-37q-79 0 -140.5 17t-98.5 44t-61 65t-33 76t-9 81v14q0 52 14.5 98t48.5 89.5t101 69.5t161 26h44q82 0 143.5 -18t97.5 -47t57.5 -71.5t29 -84
t7.5 -92.5v-18h-505q15 -116 168 -116q16 0 31 1.5t26 3.5t20.5 5t16 6t13 7.5t9.5 7t6.5 7t4.5 6.5l3 6l2 3h203zM372 617h-191v140h191v-140zM623 617h-191v140h191v-140z" />
    <glyph glyph-name="igrave" unicode="&#xec;" horiz-adv-x="361" 
d="M276 617h-195l-107 149h214zM278 0h-195v555h195v-555z" />
    <glyph glyph-name="iacute" unicode="&#xed;" horiz-adv-x="361" 
d="M173 766h214l-107 -149h-195zM278 0h-195v555h195v-555z" />
    <glyph glyph-name="icircumflex" unicode="&#xee;" horiz-adv-x="361" 
d="M414 616h-184l-50 68l-50 -68h-180l116 150h231zM278 0h-195v555h195v-555z" />
    <glyph glyph-name="idieresis" unicode="&#xef;" horiz-adv-x="361" 
d="M152 617h-172v140h172v-140zM380 617h-172v140h172v-140zM278 0h-195v555h195v-555z" />
    <glyph glyph-name="eth" unicode="&#xf0;" horiz-adv-x="827" 
d="M395 -15q-92 0 -160 23t-106.5 63.5t-57 88.5t-18.5 105v17q0 119 68.5 192.5t197.5 73.5h15q93 0 163 -38l-114 99l-213 -31v78l137 20l-92 81h250l57 -50l184 26v-77l-108 -16l8 -7q92 -81 130 -158t38 -178v-16q0 -62 -17 -113t-55.5 -93.5t-108 -66t-166.5 -23.5h-32
zM574 280q0 25 -6.5 48t-22 46.5t-48 38t-77.5 14.5h-11q-47 0 -79.5 -14.5t-47.5 -38.5t-21 -46.5t-6 -47.5v-1q0 -24 6 -47t21 -47t47.5 -39t79.5 -15h11q45 0 77.5 15t48 39t22 47t6.5 47v1z" />
    <glyph glyph-name="ntilde" unicode="&#xf1;" horiz-adv-x="828" 
d="M83 555h193v-88q18 21 41.5 40.5t74.5 40t109 20.5h10q114 0 175 -62.5t61 -145.5v-360h-195v289q0 53 -33 89.5t-100 36.5q-66 0 -103.5 -39t-37.5 -94v-282h-195v555zM603 718q0 -39 -19.5 -68.5t-66.5 -29.5h-2q-41 0 -110 35q-41 21 -50 21q-14 0 -14 -22v-40h-112
v79q0 39 19.5 68.5t66.5 29.5h2q41 0 110 -35q41 -21 50 -21q14 0 14 22v40h112v-79z" />
    <glyph glyph-name="ograve" unicode="&#xf2;" horiz-adv-x="827" 
d="M398 -15q-85 0 -150 20t-101 50t-58.5 70.5t-29 74t-6.5 68.5v14q0 35 6.5 69t29 75t58.5 71.5t100.5 51.5t149.5 21h33q88 0 153.5 -21t101 -51t56.5 -72t27 -75t6 -68v-16q0 -36 -6 -68.5t-27 -73.5t-56.5 -70t-101.5 -49.5t-154 -20.5h-31zM419 131q44 0 75.5 14.5
t48 38t23.5 47.5t7 49q0 26 -7 50t-23.5 47t-48 36.5t-75.5 13.5h-11q-46 0 -78 -13.5t-47.5 -37t-22 -46.5t-6.5 -50q0 -26 6.5 -49.5t22 -47.5t48 -38t77.5 -14h11zM513 617h-195l-111 149h218z" />
    <glyph glyph-name="oacute" unicode="&#xf3;" horiz-adv-x="827" 
d="M398 -15q-85 0 -150 20t-101 50t-58.5 70.5t-29 74t-6.5 68.5v14q0 35 6.5 69t29 75t58.5 71.5t100.5 51.5t149.5 21h33q88 0 153.5 -21t101 -51t56.5 -72t27 -75t6 -68v-16q0 -36 -6 -68.5t-27 -73.5t-56.5 -70t-101.5 -49.5t-154 -20.5h-31zM419 131q44 0 75.5 14.5
t48 38t23.5 47.5t7 49q0 26 -7 50t-23.5 47t-48 36.5t-75.5 13.5h-11q-46 0 -78 -13.5t-47.5 -37t-22 -46.5t-6.5 -50q0 -26 6.5 -49.5t22 -47.5t48 -38t77.5 -14h11zM404 766h218l-111 -149h-195z" />
    <glyph glyph-name="ocircumflex" unicode="&#xf4;" horiz-adv-x="827" 
d="M398 -15q-85 0 -150 20t-101 50t-58.5 70.5t-29 74t-6.5 68.5v14q0 35 6.5 69t29 75t58.5 71.5t100.5 51.5t149.5 21h33q88 0 153.5 -21t101 -51t56.5 -72t27 -75t6 -68v-16q0 -36 -6 -68.5t-27 -73.5t-56.5 -70t-101.5 -49.5t-154 -20.5h-31zM419 131q44 0 75.5 14.5
t48 38t23.5 47.5t7 49q0 26 -7 50t-23.5 47t-48 36.5t-75.5 13.5h-11q-46 0 -78 -13.5t-47.5 -37t-22 -46.5t-6.5 -50q0 -26 6.5 -49.5t22 -47.5t48 -38t77.5 -14h11zM668 616h-195l-59 65l-59 -65h-191l136 150h231z" />
    <glyph glyph-name="otilde" unicode="&#xf5;" horiz-adv-x="827" 
d="M398 -15q-85 0 -150 20t-101 50t-58.5 70.5t-29 74t-6.5 68.5v14q0 35 6.5 69t29 75t58.5 71.5t100.5 51.5t149.5 21h33q88 0 153.5 -21t101 -51t56.5 -72t27 -75t6 -68v-16q0 -36 -6 -68.5t-27 -73.5t-56.5 -70t-101.5 -49.5t-154 -20.5h-31zM419 131q44 0 75.5 14.5
t48 38t23.5 47.5t7 49q0 26 -7 50t-23.5 47t-48 36.5t-75.5 13.5h-11q-46 0 -78 -13.5t-47.5 -37t-22 -46.5t-6.5 -50q0 -26 6.5 -49.5t22 -47.5t48 -38t77.5 -14h11zM601 718q0 -39 -19.5 -68.5t-66.5 -29.5h-2q-41 0 -110 35q-41 21 -50 21q-14 0 -14 -22v-40h-112v79
q0 39 19.5 68.5t66.5 29.5h2q41 0 110 -35q41 -21 50 -21q14 0 14 22v40h112v-79z" />
    <glyph glyph-name="odieresis" unicode="&#xf6;" horiz-adv-x="827" 
d="M398 -15q-85 0 -150 20t-101 50t-58.5 70.5t-29 74t-6.5 68.5v14q0 35 6.5 69t29 75t58.5 71.5t100.5 51.5t149.5 21h33q88 0 153.5 -21t101 -51t56.5 -72t27 -75t6 -68v-16q0 -36 -6 -68.5t-27 -73.5t-56.5 -70t-101.5 -49.5t-154 -20.5h-31zM419 131q44 0 75.5 14.5
t48 38t23.5 47.5t7 49q0 26 -7 50t-23.5 47t-48 36.5t-75.5 13.5h-11q-46 0 -78 -13.5t-47.5 -37t-22 -46.5t-6.5 -50q0 -26 6.5 -49.5t22 -47.5t48 -38t77.5 -14h11zM384 617h-191v140h191v-140zM635 617h-191v140h191v-140z" />
    <glyph glyph-name="divide" unicode="&#xf7;" horiz-adv-x="673" 
d="M438 456h-203v158h203v-158zM599 386v-132h-525v132h525zM438 22h-203v159h203v-159z" />
    <glyph glyph-name="oslash" unicode="&#xf8;" horiz-adv-x="821" 
d="M395 -15q-118 0 -200 45l-34 -30h-147l103 89q-64 69 -64 179v14q0 35 6 67.5t27 74.5t56 72.5t100 52t152 21.5h33q123 0 200 -42l32 27h149l-101 -87q61 -68 61 -185v-16q0 -282 -342 -282h-31zM240 279q0 -40 12 -73l249 214q-50 10 -84 10h-11q-63 0 -102 -24.5
t-51.5 -56t-12.5 -69.5v-1zM417 128q47 0 81 14t51 37t25 48t8 52v1q0 41 -11 71l-248 -212q33 -11 83 -11h11z" />
    <glyph glyph-name="ugrave" unicode="&#xf9;" horiz-adv-x="822" 
d="M739 0h-193v88q-25 -34 -83 -67.5t-140 -33.5h-9q-112 0 -172.5 62.5t-60.5 145.5v360h195v-289q0 -54 31.5 -89.5t98.5 -35.5q65 0 101.5 38.5t36.5 93.5v282h195v-555zM509 617h-195l-111 149h218z" />
    <glyph glyph-name="uacute" unicode="&#xfa;" horiz-adv-x="822" 
d="M739 0h-193v88q-25 -34 -83 -67.5t-140 -33.5h-9q-112 0 -172.5 62.5t-60.5 145.5v360h195v-289q0 -54 31.5 -89.5t98.5 -35.5q65 0 101.5 38.5t36.5 93.5v282h195v-555zM399 766h218l-111 -149h-195z" />
    <glyph glyph-name="ucircumflex" unicode="&#xfb;" horiz-adv-x="822" 
d="M739 0h-193v88q-25 -34 -83 -67.5t-140 -33.5h-9q-112 0 -172.5 62.5t-60.5 145.5v360h195v-289q0 -54 31.5 -89.5t98.5 -35.5q65 0 101.5 38.5t36.5 93.5v282h195v-555zM664 616h-195l-59 65l-59 -65h-191l136 150h231z" />
    <glyph glyph-name="udieresis" unicode="&#xfc;" horiz-adv-x="822" 
d="M739 0h-193v88q-25 -34 -83 -67.5t-140 -33.5h-9q-112 0 -172.5 62.5t-60.5 145.5v360h195v-289q0 -54 31.5 -89.5t98.5 -35.5q65 0 101.5 38.5t36.5 93.5v282h195v-555zM380 617h-191v140h191v-140zM631 617h-191v140h191v-140z" />
    <glyph glyph-name="yacute" unicode="&#xfd;" horiz-adv-x="753" 
d="M123 -52h122q29 0 29 23v1q0 17 -18 54l-238 529h214l154 -398l153 398h196l-254 -611q-30 -71 -71 -103t-108 -32h-179v139zM376 766h218l-111 -149h-195z" />
    <glyph glyph-name="thorn" unicode="&#xfe;" horiz-adv-x="841" 
d="M584 280q0 25 -6.5 47.5t-21.5 44.5t-46 35t-75 13h-10q-81 0 -116.5 -41.5t-35.5 -98.5v-3q0 -57 35.5 -98.5t116.5 -41.5h10q44 0 75 13t46 35t21.5 44.5t6.5 47.5v3zM83 757h189v-278q23 29 76.5 58t131.5 29h12q69 0 121.5 -16t84.5 -42t52.5 -63.5t28 -75t7.5 -80.5
v-17q0 -39 -8 -76t-29 -75.5t-53 -67t-85.5 -46.5t-121.5 -18h-13q-77 0 -129 26t-75 52v-258h-189v948z" />
    <glyph glyph-name="ydieresis" unicode="&#xff;" horiz-adv-x="753" 
d="M123 -52h122q29 0 29 23v1q0 17 -18 54l-238 529h214l154 -398l153 398h196l-254 -611q-30 -71 -71 -103t-108 -32h-179v139zM356 617h-191v140h191v-140zM607 617h-191v140h191v-140z" />
    <glyph glyph-name="Amacron" unicode="&#x100;" horiz-adv-x="973" 
d="M476 594l-131 -303h266zM680 138h-402l-60 -138h-207l330 744h276l345 -744h-221zM291 938h377v-118h-377v118z" />
    <glyph glyph-name="amacron" unicode="&#x101;" horiz-adv-x="783" 
d="M343 111q77 0 115 37t38 77v43q-25 -10 -122 -26q-72 -12 -98 -25.5t-26 -42.5v-2q0 -61 93 -61zM502 77q-73 -88 -214 -88h-16q-109 0 -164 50.5t-55 125.5v4q0 75 56.5 117t192.5 54l152 13q23 2 32.5 10.5t9.5 25.5q0 16 -5.5 26t-33 19t-77.5 9q-112 0 -112 -61h-200
v2q0 21 4 40.5t21.5 47.5t47 47.5t87 34t135.5 14.5h31q79 0 136 -13t86 -31t46 -46t20.5 -48.5t3.5 -48.5v-183q0 -28 9 -38.5t37 -10.5h21v-149h-158q-40 0 -63 22.5t-30 54.5zM197 748h366v-118h-366v118z" />
    <glyph glyph-name="Abreve" unicode="&#x102;" horiz-adv-x="973" 
d="M476 594l-131 -303h266zM680 138h-402l-60 -138h-207l330 744h276l345 -744h-221zM464 800q-56 0 -96 17t-59 44t-27 51.5t-8 47.5v3h146q10 -53 60 -53q47 0 57 53h145v-3q0 -22 -9.5 -47.5t-29.5 -51.5t-59 -43.5t-90 -17.5h-30z" />
    <glyph glyph-name="abreve" unicode="&#x103;" horiz-adv-x="783" 
d="M343 111q77 0 115 37t38 77v43q-25 -10 -122 -26q-72 -12 -98 -25.5t-26 -42.5v-2q0 -61 93 -61zM502 77q-73 -88 -214 -88h-16q-109 0 -164 50.5t-55 125.5v4q0 75 56.5 117t192.5 54l152 13q23 2 32.5 10.5t9.5 25.5q0 16 -5.5 26t-33 19t-77.5 9q-112 0 -112 -61h-200
v2q0 21 4 40.5t21.5 47.5t47 47.5t87 34t135.5 14.5h31q79 0 136 -13t86 -31t46 -46t20.5 -48.5t3.5 -48.5v-183q0 -28 9 -38.5t37 -10.5h21v-149h-158q-40 0 -63 22.5t-30 54.5zM368 612q-56 0 -95.5 17t-58 44t-26 51t-7.5 48v3h147q0 -10 3 -20t16.5 -21.5t36.5 -11.5
q21 0 34.5 11.5t16.5 22t3 19.5h145v-3q0 -17 -5 -36.5t-18.5 -42t-33.5 -40t-53.5 -29.5t-74.5 -12h-30z" />
    <glyph glyph-name="Aogonek" unicode="&#x104;" horiz-adv-x="973" 
d="M476 594l-131 -303h266zM680 138h-402l-60 -138h-207l330 744h276l345 -744h-221zM831 -193q-131 0 -131 76v2q0 39 44 65t133 50h85q-39 -24 -55.5 -39t-16.5 -31q0 -25 38 -25h45v-98h-142z" />
    <glyph glyph-name="aogonek" unicode="&#x105;" horiz-adv-x="783" 
d="M343 111q77 0 115 37t38 77v43q-25 -10 -122 -26q-72 -12 -98 -25.5t-26 -42.5v-2q0 -61 93 -61zM502 77q-73 -88 -214 -88h-16q-109 0 -164 50.5t-55 125.5v4q0 75 56.5 117t192.5 54l152 13q23 2 32.5 10.5t9.5 25.5q0 16 -5.5 26t-33 19t-77.5 9q-112 0 -112 -61h-200
v2q0 21 4 40.5t21.5 47.5t47 47.5t87 34t135.5 14.5h31q79 0 136 -13t86 -31t46 -46t20.5 -48.5t3.5 -48.5v-183q0 -28 9 -38.5t37 -10.5h21v-149h-158q-40 0 -63 22.5t-30 54.5zM622 -193q-131 0 -131 76v2q0 39 44 65t133 50h85q-39 -24 -55.5 -39t-16.5 -31q0 -25 38 -25
h45v-98h-142z" />
    <glyph glyph-name="Cacute" unicode="&#x106;" horiz-adv-x="1007" 
d="M489 -11q-98 0 -175 24t-123.5 62t-77.5 88.5t-42.5 98.5t-11.5 97v30q0 50 11.5 98t42.5 97.5t77.5 86.5t123.5 60.5t175 23.5h46q112 0 196 -25.5t130 -69t68 -93.5t22 -106v-2h-212q-1 10 -5.5 21.5t-19.5 31.5t-38 35t-66 26.5t-98 11.5q-126 0 -182.5 -58
t-56.5 -144v-14q0 -37 12.5 -72t39 -66.5t75 -51t113.5 -19.5q56 0 99 11.5t65.5 27t37.5 36.5t19 33t5 23h212v-3q0 -55 -21.5 -105t-67 -95t-130 -72t-197.5 -27h-46zM408 805l91 148h222l-106 -148h-207z" />
    <glyph glyph-name="cacute" unicode="&#x107;" horiz-adv-x="801" 
d="M749 218q0 -29 -7 -57t-28 -61t-54.5 -57.5t-92.5 -41t-135 -16.5h-49q-79 0 -140 20t-96 49.5t-57 70t-29 75t-7 70.5v14q0 36 7 70.5t28.5 75t56 70.5t95.5 50t141 20h46q77 0 136 -16t93 -40t55.5 -56t29 -59.5t7.5 -54.5v-1h-204q-2 10 -7 20.5t-18.5 27t-42.5 27
t-69 10.5h-10q-78 0 -110 -42.5t-32 -103.5v-1q0 -62 34.5 -106.5t111.5 -44.5h10q33 0 58.5 8t39 19t22 24.5t11 22.5t2.5 14h204zM396 766h218l-111 -149h-195z" />
    <glyph glyph-name="Ccircumflex" unicode="&#x108;" horiz-adv-x="1007" 
d="M489 -11q-98 0 -175 24t-123.5 62t-77.5 88.5t-42.5 98.5t-11.5 97v30q0 50 11.5 98t42.5 97.5t77.5 86.5t123.5 60.5t175 23.5h46q112 0 196 -25.5t130 -69t68 -93.5t22 -106v-2h-212q-1 10 -5.5 21.5t-19.5 31.5t-38 35t-66 26.5t-98 11.5q-126 0 -182.5 -58
t-56.5 -144v-14q0 -37 12.5 -72t39 -66.5t75 -51t113.5 -19.5q56 0 99 11.5t65.5 27t37.5 36.5t19 33t5 23h212v-3q0 -55 -21.5 -105t-67 -95t-130 -72t-197.5 -27h-46zM768 803h-193l-63 63l-63 -63h-190l140 150h229z" />
    <glyph glyph-name="ccircumflex" unicode="&#x109;" horiz-adv-x="801" 
d="M749 218q0 -29 -7 -57t-28 -61t-54.5 -57.5t-92.5 -41t-135 -16.5h-49q-79 0 -140 20t-96 49.5t-57 70t-29 75t-7 70.5v14q0 36 7 70.5t28.5 75t56 70.5t95.5 50t141 20h46q77 0 136 -16t93 -40t55.5 -56t29 -59.5t7.5 -54.5v-1h-204q-2 10 -7 20.5t-18.5 27t-42.5 27
t-69 10.5h-10q-78 0 -110 -42.5t-32 -103.5v-1q0 -62 34.5 -106.5t111.5 -44.5h10q33 0 58.5 8t39 19t22 24.5t11 22.5t2.5 14h204zM660 616h-195l-59 65l-59 -65h-191l136 150h231z" />
    <glyph glyph-name="Cdotaccent" unicode="&#x10a;" horiz-adv-x="1007" 
d="M489 -11q-98 0 -175 24t-123.5 62t-77.5 88.5t-42.5 98.5t-11.5 97v30q0 50 11.5 98t42.5 97.5t77.5 86.5t123.5 60.5t175 23.5h46q112 0 196 -25.5t130 -69t68 -93.5t22 -106v-2h-212q-1 10 -5.5 21.5t-19.5 31.5t-38 35t-66 26.5t-98 11.5q-126 0 -182.5 -58
t-56.5 -144v-14q0 -37 12.5 -72t39 -66.5t75 -51t113.5 -19.5q56 0 99 11.5t65.5 27t37.5 36.5t19 33t5 23h212v-3q0 -55 -21.5 -105t-67 -95t-130 -72t-197.5 -27h-46zM612 805h-199v140h199v-140z" />
    <glyph glyph-name="cdotaccent" unicode="&#x10b;" horiz-adv-x="801" 
d="M749 218q0 -29 -7 -57t-28 -61t-54.5 -57.5t-92.5 -41t-135 -16.5h-49q-79 0 -140 20t-96 49.5t-57 70t-29 75t-7 70.5v14q0 36 7 70.5t28.5 75t56 70.5t95.5 50t141 20h46q77 0 136 -16t93 -40t55.5 -56t29 -59.5t7.5 -54.5v-1h-204q-2 10 -7 20.5t-18.5 27t-42.5 27
t-69 10.5h-10q-78 0 -110 -42.5t-32 -103.5v-1q0 -62 34.5 -106.5t111.5 -44.5h10q33 0 58.5 8t39 19t22 24.5t11 22.5t2.5 14h204zM506 617h-199v140h199v-140z" />
    <glyph glyph-name="Ccaron" unicode="&#x10c;" horiz-adv-x="1007" 
d="M489 -11q-98 0 -175 24t-123.5 62t-77.5 88.5t-42.5 98.5t-11.5 97v30q0 50 11.5 98t42.5 97.5t77.5 86.5t123.5 60.5t175 23.5h46q112 0 196 -25.5t130 -69t68 -93.5t22 -106v-2h-212q-1 10 -5.5 21.5t-19.5 31.5t-38 35t-66 26.5t-98 11.5q-126 0 -182.5 -58
t-56.5 -144v-14q0 -37 12.5 -72t39 -66.5t75 -51t113.5 -19.5q56 0 99 11.5t65.5 27t37.5 36.5t19 33t5 23h212v-3q0 -55 -21.5 -105t-67 -95t-130 -72t-197.5 -27h-46zM256 953h194l63 -64l63 64h191l-140 -148h-231z" />
    <glyph glyph-name="ccaron" unicode="&#x10d;" horiz-adv-x="801" 
d="M749 218q0 -29 -7 -57t-28 -61t-54.5 -57.5t-92.5 -41t-135 -16.5h-49q-79 0 -140 20t-96 49.5t-57 70t-29 75t-7 70.5v14q0 36 7 70.5t28.5 75t56 70.5t95.5 50t141 20h46q77 0 136 -16t93 -40t55.5 -56t29 -59.5t7.5 -54.5v-1h-204q-2 10 -7 20.5t-18.5 27t-42.5 27
t-69 10.5h-10q-78 0 -110 -42.5t-32 -103.5v-1q0 -62 34.5 -106.5t111.5 -44.5h10q33 0 58.5 8t39 19t22 24.5t11 22.5t2.5 14h204zM153 766h195l59 -64l59 64h191l-136 -149h-231z" />
    <glyph glyph-name="Dcaron" unicode="&#x10e;" horiz-adv-x="1007" 
d="M92 744h381q94 0 170 -15t126.5 -41.5t87 -59.5t56.5 -73.5t28.5 -78.5t8.5 -78v-30q0 -43 -7.5 -82t-25 -82.5t-53 -78.5t-85.5 -64t-128.5 -45t-176.5 -16h-382v744zM298 166h166q72 0 124 14t80 34t44 50t20 54t4 54v6q0 30 -4 53.5t-20.5 53t-44.5 48.5t-80 32.5
t-123 13.5h-166v-413zM160 953h194l63 -64l63 64h191l-140 -148h-231z" />
    <glyph glyph-name="dcaron" unicode="&#x10f;" horiz-adv-x="847" 
d="M407 421q-43 0 -74.5 -13t-47 -35.5t-22 -45t-6.5 -47.5v-3q0 -24 6.5 -46.5t22 -45t47 -36t74.5 -13.5h11q79 0 116 43t37 98v3q0 57 -37 99t-116 42h-11zM764 757v-757h-194v72q-72 -83 -213 -83h-13q-142 0 -215 82t-73 199v17q0 54 16.5 102.5t49.5 89t89.5 64
t130.5 23.5h12q139 0 215 -70v261h195zM831 766h164l-28 -149h-153z" />
    <glyph glyph-name="Dcroat" unicode="&#x110;" horiz-adv-x="1034" 
d="M491 166q72 0 124 14t80 34t44 50t20 54t4 54v6q0 30 -4 53.5t-20.5 53t-44.5 48.5t-80 32.5t-123 13.5h-166v-131h241v-140h-241v-142h166zM119 308h-102v140h102v296h381q94 0 170 -15t126.5 -41.5t87 -59.5t56.5 -73.5t28.5 -78.5t8.5 -78v-30q0 -43 -7.5 -82
t-25 -82.5t-53 -78.5t-85.5 -64t-128.5 -45t-176.5 -16h-382v308z" />
    <glyph glyph-name="dcroat" unicode="&#x111;" horiz-adv-x="847" 
d="M301 705h556v-87h-556v87zM407 421q-43 0 -74.5 -13t-47 -35.5t-22 -45t-6.5 -47.5v-3q0 -24 6.5 -46.5t22 -45t47 -36t74.5 -13.5h11q79 0 116 43t37 98v3q0 57 -37 99t-116 42h-11zM764 757v-757h-194v72q-72 -83 -213 -83h-13q-142 0 -215 82t-73 199v17
q0 54 16.5 102.5t49.5 89t89.5 64t130.5 23.5h12q139 0 215 -70v261h195z" />
    <glyph glyph-name="Emacron" unicode="&#x112;" horiz-adv-x="852" 
d="M773 744v-162h-478v-121h463v-168h-463v-129h484v-164h-687v744h681zM246 938h377v-118h-377v118z" />
    <glyph glyph-name="emacron" unicode="&#x113;" horiz-adv-x="811" 
d="M404 440q-132 0 -149 -99h294q0 99 -145 99zM756 173q0 -18 -5.5 -37.5t-26 -47.5t-53.5 -49t-95 -36.5t-143 -15.5h-37q-79 0 -140.5 17t-98.5 44t-61 65t-33 76t-9 81v14q0 52 14.5 98t48.5 89.5t101 69.5t161 26h44q82 0 143.5 -18t97.5 -47t57.5 -71.5t29 -84
t7.5 -92.5v-18h-505q15 -116 168 -116q16 0 31 1.5t26 3.5t20.5 5t16 6t13 7.5t9.5 7t6.5 7t4.5 6.5l3 6l2 3h203zM219 748h366v-118h-366v118z" />
    <glyph glyph-name="Ebreve" unicode="&#x114;" horiz-adv-x="852" 
d="M773 744v-162h-478v-121h463v-168h-463v-129h484v-164h-687v744h681zM419 800q-56 0 -96 17t-59 44t-27 51.5t-8 47.5v3h146q10 -53 60 -53q47 0 57 53h145v-3q0 -22 -9.5 -47.5t-29.5 -51.5t-59 -43.5t-90 -17.5h-30z" />
    <glyph glyph-name="ebreve" unicode="&#x115;" horiz-adv-x="811" 
d="M404 440q-132 0 -149 -99h294q0 99 -145 99zM756 173q0 -18 -5.5 -37.5t-26 -47.5t-53.5 -49t-95 -36.5t-143 -15.5h-37q-79 0 -140.5 17t-98.5 44t-61 65t-33 76t-9 81v14q0 52 14.5 98t48.5 89.5t101 69.5t161 26h44q82 0 143.5 -18t97.5 -47t57.5 -71.5t29 -84
t7.5 -92.5v-18h-505q15 -116 168 -116q16 0 31 1.5t26 3.5t20.5 5t16 6t13 7.5t9.5 7t6.5 7t4.5 6.5l3 6l2 3h203zM387 612q-56 0 -95.5 17t-58 44t-26 51t-7.5 48v3h147q0 -10 3 -20t16.5 -21.5t36.5 -11.5q21 0 34.5 11.5t16.5 22t3 19.5h145v-3q0 -17 -5 -36.5t-18.5 -42
t-33.5 -40t-53.5 -29.5t-74.5 -12h-30z" />
    <glyph glyph-name="Edotaccent" unicode="&#x116;" horiz-adv-x="852" 
d="M773 744v-162h-478v-121h463v-168h-463v-129h484v-164h-687v744h681zM534 805h-199v140h199v-140z" />
    <glyph glyph-name="edotaccent" unicode="&#x117;" horiz-adv-x="811" 
d="M404 440q-132 0 -149 -99h294q0 99 -145 99zM756 173q0 -18 -5.5 -37.5t-26 -47.5t-53.5 -49t-95 -36.5t-143 -15.5h-37q-79 0 -140.5 17t-98.5 44t-61 65t-33 76t-9 81v14q0 52 14.5 98t48.5 89.5t101 69.5t161 26h44q82 0 143.5 -18t97.5 -47t57.5 -71.5t29 -84
t7.5 -92.5v-18h-505q15 -116 168 -116q16 0 31 1.5t26 3.5t20.5 5t16 6t13 7.5t9.5 7t6.5 7t4.5 6.5l3 6l2 3h203zM502 617h-199v140h199v-140z" />
    <glyph glyph-name="Eogonek" unicode="&#x118;" horiz-adv-x="852" 
d="M773 744v-162h-478v-121h463v-168h-463v-129h484v-164h-687v744h681zM552 -193q-131 0 -131 76v2q0 39 44 65t133 50h85q-39 -24 -55.5 -39t-16.5 -31q0 -25 38 -25h45v-98h-142z" />
    <glyph glyph-name="eogonek" unicode="&#x119;" horiz-adv-x="811" 
d="M404 442q-132 0 -149 -99h294q0 99 -145 99zM646 -193h-144q-132 0 -132 77v2q0 64 150 108q-45 -5 -87 -5h-37q-79 0 -140.5 17t-98.5 44t-61 65t-33 76t-9 81v14q0 52 14.5 98t48.5 89.5t101 69.5t161 26h44q82 0 143.5 -18t97.5 -47t57.5 -71.5t29 -84t7.5 -92.5v-18
h-505q15 -116 168 -116q16 0 31 1.5t26 3.5t20.5 5t16 6t13 7.5t9.5 7t6.5 7t4.5 6.5l3 6l2 3h203q0 -80 -110 -159q-50 -34 -67 -50.5t-17 -33.5q0 -26 39 -26h45v-99z" />
    <glyph glyph-name="Ecaron" unicode="&#x11a;" horiz-adv-x="852" 
d="M773 744v-162h-478v-121h463v-168h-463v-129h484v-164h-687v744h681zM178 953h194l63 -64l63 64h191l-140 -148h-231z" />
    <glyph glyph-name="ecaron" unicode="&#x11b;" horiz-adv-x="811" 
d="M404 440q-132 0 -149 -99h294q0 99 -145 99zM756 173q0 -18 -5.5 -37.5t-26 -47.5t-53.5 -49t-95 -36.5t-143 -15.5h-37q-79 0 -140.5 17t-98.5 44t-61 65t-33 76t-9 81v14q0 52 14.5 98t48.5 89.5t101 69.5t161 26h44q82 0 143.5 -18t97.5 -47t57.5 -71.5t29 -84
t7.5 -92.5v-18h-505q15 -116 168 -116q16 0 31 1.5t26 3.5t20.5 5t16 6t13 7.5t9.5 7t6.5 7t4.5 6.5l3 6l2 3h203zM149 766h195l59 -64l59 64h191l-136 -149h-231z" />
    <glyph glyph-name="Gcircumflex" unicode="&#x11c;" horiz-adv-x="1044" 
d="M490 -11q-117 0 -204.5 34t-135 90.5t-69.5 118.5t-22 129v27q0 51 12.5 99t43.5 97.5t79 86.5t125 60t175 23h34q116 0 202.5 -23.5t133.5 -63t69 -84t22 -93.5v-2h-213q-41 98 -230 98q-126 0 -182.5 -58.5t-56.5 -144.5v-13q0 -85 60 -149t186 -64q61 0 107 14.5
t68 36t31.5 37.5t11.5 28h-202v133h429v-406h-164q-7 64 -25 103q-10 -13 -25.5 -27.5t-48 -36.5t-83.5 -36t-112 -14h-16zM767 803h-193l-63 63l-63 -63h-190l140 150h229z" />
    <glyph glyph-name="gcircumflex" unicode="&#x11d;" horiz-adv-x="846" 
d="M408 422q-83 0 -117 -37.5t-34 -89.5v-3q0 -50 35.5 -88.5t115.5 -38.5h12q79 0 115 38t36 88v4q0 51 -37.5 89t-114.5 38h-11zM405 -206q-82 0 -143 13t-93.5 32t-52 45.5t-24.5 47.5t-5 44v4h207q6 -12 12.5 -19t34.5 -15.5t75 -8.5h11q143 0 143 117v41
q-76 -76 -213 -76h-14q-78 0 -136.5 24.5t-90 65t-46 85t-14.5 92.5v17q0 49 15.5 94t47.5 84t89 62t132 23h11q140 0 218 -68v57h194v-493q0 -122 -75.5 -195t-248.5 -73h-34zM659 616h-195l-59 65l-59 -65h-191l136 150h231z" />
    <glyph glyph-name="Gbreve" unicode="&#x11e;" horiz-adv-x="1044" 
d="M490 -11q-117 0 -204.5 34t-135 90.5t-69.5 118.5t-22 129v27q0 51 12.5 99t43.5 97.5t79 86.5t125 60t175 23h34q116 0 202.5 -23.5t133.5 -63t69 -84t22 -93.5v-2h-213q-41 98 -230 98q-126 0 -182.5 -58.5t-56.5 -144.5v-13q0 -85 60 -149t186 -64q61 0 107 14.5
t68 36t31.5 37.5t11.5 28h-202v133h429v-406h-164q-7 64 -25 103q-10 -13 -25.5 -27.5t-48 -36.5t-83.5 -36t-112 -14h-16zM496 800q-56 0 -96 17t-59 44t-27 51.5t-8 47.5v3h146q10 -53 60 -53q47 0 57 53h145v-3q0 -22 -9.5 -47.5t-29.5 -51.5t-59 -43.5t-90 -17.5h-30z
" />
    <glyph glyph-name="gbreve" unicode="&#x11f;" horiz-adv-x="846" 
d="M408 422q-83 0 -117 -37.5t-34 -89.5v-3q0 -50 35.5 -88.5t115.5 -38.5h12q79 0 115 38t36 88v4q0 51 -37.5 89t-114.5 38h-11zM405 -206q-82 0 -143 13t-93.5 32t-52 45.5t-24.5 47.5t-5 44v4h207q6 -12 12.5 -19t34.5 -15.5t75 -8.5h11q143 0 143 117v41
q-76 -76 -213 -76h-14q-78 0 -136.5 24.5t-90 65t-46 85t-14.5 92.5v17q0 49 15.5 94t47.5 84t89 62t132 23h11q140 0 218 -68v57h194v-493q0 -122 -75.5 -195t-248.5 -73h-34zM390 612q-56 0 -95.5 17t-58 44t-26 51t-7.5 48v3h147q0 -10 3 -20t16.5 -21.5t36.5 -11.5
q21 0 34.5 11.5t16.5 22t3 19.5h145v-3q0 -17 -5 -36.5t-18.5 -42t-33.5 -40t-53.5 -29.5t-74.5 -12h-30z" />
    <glyph glyph-name="Gdotaccent" unicode="&#x120;" horiz-adv-x="1044" 
d="M490 -11q-117 0 -204.5 34t-135 90.5t-69.5 118.5t-22 129v27q0 51 12.5 99t43.5 97.5t79 86.5t125 60t175 23h34q116 0 202.5 -23.5t133.5 -63t69 -84t22 -93.5v-2h-213q-41 98 -230 98q-126 0 -182.5 -58.5t-56.5 -144.5v-13q0 -85 60 -149t186 -64q61 0 107 14.5
t68 36t31.5 37.5t11.5 28h-202v133h429v-406h-164q-7 64 -25 103q-10 -13 -25.5 -27.5t-48 -36.5t-83.5 -36t-112 -14h-16zM611 805h-199v140h199v-140z" />
    <glyph glyph-name="gdotaccent" unicode="&#x121;" horiz-adv-x="846" 
d="M408 422q-83 0 -117 -37.5t-34 -89.5v-3q0 -50 35.5 -88.5t115.5 -38.5h12q79 0 115 38t36 88v4q0 51 -37.5 89t-114.5 38h-11zM405 -206q-82 0 -143 13t-93.5 32t-52 45.5t-24.5 47.5t-5 44v4h207q6 -12 12.5 -19t34.5 -15.5t75 -8.5h11q143 0 143 117v41
q-76 -76 -213 -76h-14q-78 0 -136.5 24.5t-90 65t-46 85t-14.5 92.5v17q0 49 15.5 94t47.5 84t89 62t132 23h11q140 0 218 -68v57h194v-493q0 -122 -75.5 -195t-248.5 -73h-34zM505 617h-199v140h199v-140z" />
    <glyph glyph-name="uni0122" unicode="&#x122;" horiz-adv-x="1044" 
d="M490 -11q-117 0 -204.5 34t-135 90.5t-69.5 118.5t-22 129v27q0 51 12.5 99t43.5 97.5t79 86.5t125 60t175 23h34q116 0 202.5 -23.5t133.5 -63t69 -84t22 -93.5v-2h-213q-41 98 -230 98q-126 0 -182.5 -58.5t-56.5 -144.5v-13q0 -85 60 -149t186 -64q61 0 107 14.5
t68 36t31.5 37.5t11.5 28h-202v133h429v-406h-164q-7 64 -25 103q-10 -13 -25.5 -27.5t-48 -36.5t-83.5 -36t-112 -14h-16zM479 -280q22 44 29 84h-104v134h214v-111q0 -52 -30 -107h-109z" />
    <glyph glyph-name="uni0123" unicode="&#x123;" horiz-adv-x="846" 
d="M408 422q-83 0 -117 -37.5t-34 -89.5v-3q0 -50 35.5 -88.5t115.5 -38.5h12q79 0 115 38t36 88v4q0 51 -37.5 89t-114.5 38h-11zM405 -206q-82 0 -143 13t-93.5 32t-52 45.5t-24.5 47.5t-5 44v4h207q6 -12 12.5 -19t34.5 -15.5t75 -8.5h11q143 0 143 117v41
q-76 -76 -213 -76h-14q-78 0 -136.5 24.5t-90 65t-46 85t-14.5 92.5v17q0 49 15.5 94t47.5 84t89 62t132 23h11q140 0 218 -68v57h194v-493q0 -122 -75.5 -195t-248.5 -73h-34zM437 835q-22 -44 -29 -84h104v-134h-214v111q0 52 30 107h109z" />
    <glyph glyph-name="Hcircumflex" unicode="&#x124;" horiz-adv-x="1011" 
d="M92 744h206v-276h415v276h206v-744h-206v299h-415v-299h-206v744zM761 803h-193l-63 63l-63 -63h-190l140 150h229z" />
    <glyph glyph-name="hcircumflex" unicode="&#x125;" horiz-adv-x="828" 
d="M83 757h195v-289q17 21 40.5 40t74.5 39.5t108 20.5h10q114 0 175 -62.5t61 -145.5v-360h-195v289q0 53 -33 89.5t-100 36.5q-66 0 -103.5 -39t-37.5 -94v-282h-195v757zM596 819h-195l-59 65l-59 -65h-191l136 150h231z" />
    <glyph glyph-name="Hbar" unicode="&#x126;" horiz-adv-x="1021" 
d="M303 555v-87h415v87h-415zM97 555h-87v104h87v85h206v-85h415v85h206v-85h87v-104h-87v-555h-206v299h-415v-299h-206v555z" />
    <glyph glyph-name="hbar" unicode="&#x127;" horiz-adv-x="828" 
d="M545 705v-87h-556v87h556zM83 757h195v-289q17 21 40.5 40t74.5 39.5t108 20.5h10q114 0 175 -62.5t61 -145.5v-360h-195v289q0 53 -33 89.5t-100 36.5q-66 0 -103.5 -39t-37.5 -94v-282h-195v757z" />
    <glyph glyph-name="Itilde" unicode="&#x128;" horiz-adv-x="390" 
d="M298 0h-206v744h206v-744zM109 800h-112v78q0 40 19.5 69t67.5 29h2q37 0 124 -36q48 -20 57 -20q14 0 14 22v40h112v-78q0 -40 -19.5 -69t-67.5 -29h-2q-37 0 -124 36q-48 20 -57 20q-14 0 -14 -22v-40z" />
    <glyph glyph-name="itilde" unicode="&#x129;" horiz-adv-x="361" 
d="M358 718q0 -39 -18.5 -68.5t-63.5 -29.5h-2q-39 0 -105 35q-39 21 -48 21q-14 0 -14 -22v-40h-109v79q0 39 18.5 68.5t63.5 29.5h2q39 0 105 -35q39 -21 48 -21q14 0 14 22v40h109v-79zM278 0h-195v555h195v-555z" />
    <glyph glyph-name="Imacron" unicode="&#x12a;" horiz-adv-x="390" 
d="M298 0h-206v744h206v-744zM7 938h377v-118h-377v118z" />
    <glyph glyph-name="imacron" unicode="&#x12b;" horiz-adv-x="361" 
d="M12 748h337v-118h-337v118zM278 0h-195v555h195v-555z" />
    <glyph glyph-name="Ibreve" unicode="&#x12c;" horiz-adv-x="390" 
d="M298 0h-206v744h206v-744zM180 800q-56 0 -96 17t-59 44t-27 51.5t-8 47.5v3h146q10 -53 60 -53q47 0 57 53h145v-3q0 -22 -9.5 -47.5t-29.5 -51.5t-59 -43.5t-90 -17.5h-30z" />
    <glyph glyph-name="ibreve" unicode="&#x12d;" horiz-adv-x="361" 
d="M173 611q-44 0 -79 12t-54.5 29.5t-32 40t-16.5 41.5t-4 37v3h145q0 -17 11.5 -35t40.5 -18q27 0 38.5 18t11.5 35h143v-3q0 -22 -9 -47.5t-28.5 -52t-57.5 -43.5t-89 -17h-20zM278 0h-195v555h195v-555z" />
    <glyph glyph-name="Iogonek" unicode="&#x12e;" horiz-adv-x="390" 
d="M298 0h-206v744h206v-744zM167 -193q-131 0 -131 76v2q0 39 44 65t133 50h85q-39 -24 -55.5 -39t-16.5 -31q0 -25 38 -25h45v-98h-142z" />
    <glyph glyph-name="iogonek" unicode="&#x12f;" horiz-adv-x="361" 
d="M280 617h-199v140h199v-140zM278 0h-195v555h195v-555zM147 -193q-131 0 -131 76v2q0 39 44 65t133 50h85q-39 -24 -55.5 -39t-16.5 -31q0 -25 38 -25h45v-98h-142z" />
    <glyph glyph-name="Idotaccent" unicode="&#x130;" horiz-adv-x="390" 
d="M298 0h-206v744h206v-744zM295 805h-199v140h199v-140z" />
    <glyph glyph-name="dotlessi" unicode="&#x131;" horiz-adv-x="361" 
d="M278 0h-195v555h195v-555z" />
    <glyph glyph-name="IJ" unicode="&#x132;" horiz-adv-x="1258" 
d="M298 0h-206v744h206v-744zM781 -12q-83 0 -147 22.5t-101.5 56.5t-61.5 79.5t-32 85.5t-8 81v6h213q1 -24 7.5 -46.5t21 -49.5t46 -43t76.5 -16h4q166 0 166 182v398h206v-398q0 -46 -7.5 -89.5t-31 -94t-61 -87.5t-104 -62t-153.5 -25h-33z" />
    <glyph glyph-name="ij" unicode="&#x133;" horiz-adv-x="722" 
d="M280 617h-199v140h199v-140zM278 0h-195v555h195v-555zM641 617h-199v140h199v-140zM405 -46q22 0 30.5 10t8.5 34v557h195v-604q0 -142 -116 -142h-178v145h60z" />
    <glyph glyph-name="Jcircumflex" unicode="&#x134;" horiz-adv-x="868" 
d="M391 -12q-83 0 -147 22.5t-101.5 56.5t-61.5 79.5t-32 85.5t-8 81v6h213q1 -24 7.5 -46.5t21 -49.5t46 -43t76.5 -16h4q166 0 166 182v398h206v-398q0 -46 -7.5 -89.5t-31 -94t-61 -87.5t-104 -62t-153.5 -25h-33zM933 803h-193l-63 63l-63 -63h-190l140 150h229z" />
    <glyph glyph-name="jcircumflex" unicode="&#x135;" horiz-adv-x="361" 
d="M414 616h-184l-50 68l-50 -68h-180l116 150h231zM44 -46q22 0 30.5 10t8.5 34v557h195v-604q0 -142 -116 -142h-178v145h60z" />
    <glyph glyph-name="uni0136" unicode="&#x136;" horiz-adv-x="923" 
d="M92 0v744h206v-306l348 306h262l-392 -341l409 -403h-269l-358 350v-350h-206zM439 -280q22 44 29 84h-104v134h214v-111q0 -52 -30 -107h-109z" />
    <glyph glyph-name="uni0137" unicode="&#x137;" horiz-adv-x="726" 
d="M83 0v757h195v-424l198 222h225l-232 -249l257 -306h-232l-216 257v-257h-195zM352 -280q22 44 29 84h-104v134h214v-111q0 -52 -30 -107h-109z" />
    <glyph glyph-name="Lacute" unicode="&#x139;" horiz-adv-x="802" 
d="M298 744v-569h455v-175h-661v744h206zM91 805l91 148h222l-106 -148h-207z" />
    <glyph glyph-name="lacute" unicode="&#x13a;" horiz-adv-x="361" 
d="M278 0h-195v757h195v-757zM171 968h218l-111 -149h-195z" />
    <glyph glyph-name="uni013B" unicode="&#x13b;" horiz-adv-x="802" 
d="M298 744v-569h455v-175h-661v744h206zM390 -280q22 44 29 84h-104v134h214v-111q0 -52 -30 -107h-109z" />
    <glyph glyph-name="uni013C" unicode="&#x13c;" horiz-adv-x="361" 
d="M278 0h-195v757h195v-757zM150 -280q22 44 29 84h-104v134h214v-111q0 -52 -30 -107h-109z" />
    <glyph glyph-name="Lcaron" unicode="&#x13d;" horiz-adv-x="803" 
d="M298 744v-569h455v-175h-661v744h206zM365 753h164l-28 -149h-153z" />
    <glyph glyph-name="lcaron" unicode="&#x13e;" horiz-adv-x="361" 
d="M278 0h-195v757h195v-757zM345 766h164l-28 -149h-153z" />
    <glyph glyph-name="Ldot" unicode="&#x13f;" horiz-adv-x="804" 
d="M298 744v-569h455v-175h-661v744h206zM726 313h-233v194h233v-194z" />
    <glyph glyph-name="ldot" unicode="&#x140;" horiz-adv-x="632" 
d="M278 0h-195v757h195v-757zM613 280h-233v194h233v-194z" />
    <glyph glyph-name="Lslash" unicode="&#x141;" horiz-adv-x="825" 
d="M320 744v-308l255 104v-139l-255 -100v-126h455v-175h-661v220l-99 -38v131l99 40v391h206z" />
    <glyph glyph-name="lslash" unicode="&#x142;" horiz-adv-x="409" 
d="M302 0h-195v304l-90 -41v123l90 42v329h195v-239l90 42v-126l-90 -41v-393z" />
    <glyph glyph-name="Nacute" unicode="&#x143;" horiz-adv-x="1031" 
d="M293 482v-482h-201v744h212l435 -479v479h200v-744h-202zM411 805l91 148h222l-106 -148h-207z" />
    <glyph glyph-name="nacute" unicode="&#x144;" horiz-adv-x="828" 
d="M83 555h193v-88q18 21 41.5 40.5t74.5 40t109 20.5h10q114 0 175 -62.5t61 -145.5v-360h-195v289q0 53 -33 89.5t-100 36.5q-66 0 -103.5 -39t-37.5 -94v-282h-195v555zM396 766h218l-111 -149h-195z" />
    <glyph glyph-name="uni0145" unicode="&#x145;" horiz-adv-x="1031" 
d="M293 482v-482h-201v744h212l435 -479v479h200v-744h-202zM483 -280q22 44 29 84h-104v134h214v-111q0 -52 -30 -107h-109z" />
    <glyph glyph-name="uni0146" unicode="&#x146;" horiz-adv-x="828" 
d="M83 555h193v-88q18 21 41.5 40.5t74.5 40t109 20.5h10q114 0 175 -62.5t61 -145.5v-360h-195v289q0 53 -33 89.5t-100 36.5q-66 0 -103.5 -39t-37.5 -94v-282h-195v555zM384 -280q22 44 29 84h-104v134h214v-111q0 -52 -30 -107h-109z" />
    <glyph glyph-name="Ncaron" unicode="&#x147;" horiz-adv-x="1031" 
d="M293 482v-482h-201v744h212l435 -479v479h200v-744h-202zM264 953h194l63 -64l63 64h191l-140 -148h-231z" />
    <glyph glyph-name="ncaron" unicode="&#x148;" horiz-adv-x="828" 
d="M83 555h193v-88q18 21 41.5 40.5t74.5 40t109 20.5h10q114 0 175 -62.5t61 -145.5v-360h-195v289q0 53 -33 89.5t-100 36.5q-66 0 -103.5 -39t-37.5 -94v-282h-195v555zM163 766h195l59 -64l59 64h191l-136 -149h-231z" />
    <glyph glyph-name="napostrophe" unicode="&#x149;" horiz-adv-x="1113" 
d="M91 437q42 74 54 141h-105v166h232v-128q0 -79 -50 -179h-131zM368 555h193v-88q18 21 41.5 40.5t74.5 40t109 20.5h10q114 0 175 -62.5t61 -145.5v-360h-195v289q0 53 -33 89.5t-100 36.5q-66 0 -103.5 -39t-37.5 -94v-282h-195v555z" />
    <glyph glyph-name="Eng" unicode="&#x14a;" horiz-adv-x="1032" 
d="M602 -44h98q23 0 31.5 9t8.5 30v5l-447 480v-480h-201v744h212l436 -475v475h200v-782q0 -155 -145 -155h-193v149z" />
    <glyph glyph-name="eng" unicode="&#x14b;" horiz-adv-x="828" 
d="M513 -46q22 0 30.5 10t8.5 34v291q0 53 -33 89t-100 36q-66 0 -103.5 -38.5t-37.5 -93.5v-282h-195v555h193v-88q18 21 41.5 40.5t74.5 40t109 20.5h10q114 0 175 -62.5t61 -145.5v-409q0 -142 -116 -142h-178v145h60z" />
    <glyph glyph-name="Omacron" unicode="&#x14c;" horiz-adv-x="1056" 
d="M550 756q100 0 179.5 -23t128.5 -59t81.5 -85.5t45 -98.5t12.5 -101v-30q0 -51 -12.5 -100t-45 -99.5t-81.5 -87.5t-128.5 -60.5t-179.5 -23.5h-44q-100 0 -179.5 23.5t-128.5 60.5t-81.5 87.5t-45 99.5t-12.5 100v30q0 52 12.5 100.5t45 98t81.5 86t128.5 59.5t179.5 23
h44zM783 381q0 38 -11 71.5t-37 65t-79 50t-128 18.5q-74 0 -127 -18.5t-79.5 -50t-37.5 -65t-11 -71.5v-14q0 -37 11.5 -71t38.5 -66.5t79.5 -51.5t125.5 -19q74 0 127 19t79.5 51.5t37.5 66t11 71.5v14zM340 938h377v-118h-377v118z" />
    <glyph glyph-name="omacron" unicode="&#x14d;" horiz-adv-x="827" 
d="M398 -15q-85 0 -150 20t-101 50t-58.5 70.5t-29 74t-6.5 68.5v14q0 35 6.5 69t29 75t58.5 71.5t100.5 51.5t149.5 21h33q88 0 153.5 -21t101 -51t56.5 -72t27 -75t6 -68v-16q0 -36 -6 -68.5t-27 -73.5t-56.5 -70t-101.5 -49.5t-154 -20.5h-31zM419 131q44 0 75.5 14.5
t48 38t23.5 47.5t7 49q0 26 -7 50t-23.5 47t-48 36.5t-75.5 13.5h-11q-46 0 -78 -13.5t-47.5 -37t-22 -46.5t-6.5 -50q0 -26 6.5 -49.5t22 -47.5t48 -38t77.5 -14h11zM231 748h366v-118h-366v118z" />
    <glyph glyph-name="Obreve" unicode="&#x14e;" horiz-adv-x="1056" 
d="M550 756q100 0 179.5 -23t128.5 -59t81.5 -85.5t45 -98.5t12.5 -101v-30q0 -51 -12.5 -100t-45 -99.5t-81.5 -87.5t-128.5 -60.5t-179.5 -23.5h-44q-100 0 -179.5 23.5t-128.5 60.5t-81.5 87.5t-45 99.5t-12.5 100v30q0 52 12.5 100.5t45 98t81.5 86t128.5 59.5t179.5 23
h44zM783 381q0 38 -11 71.5t-37 65t-79 50t-128 18.5q-74 0 -127 -18.5t-79.5 -50t-37.5 -65t-11 -71.5v-14q0 -37 11.5 -71t38.5 -66.5t79.5 -51.5t125.5 -19q74 0 127 19t79.5 51.5t37.5 66t11 71.5v14zM513 800q-56 0 -96 17t-59 44t-27 51.5t-8 47.5v3h146
q10 -53 60 -53q47 0 57 53h145v-3q0 -22 -9.5 -47.5t-29.5 -51.5t-59 -43.5t-90 -17.5h-30z" />
    <glyph glyph-name="obreve" unicode="&#x14f;" horiz-adv-x="827" 
d="M398 -15q-85 0 -150 20t-101 50t-58.5 70.5t-29 74t-6.5 68.5v14q0 35 6.5 69t29 75t58.5 71.5t100.5 51.5t149.5 21h33q88 0 153.5 -21t101 -51t56.5 -72t27 -75t6 -68v-16q0 -36 -6 -68.5t-27 -73.5t-56.5 -70t-101.5 -49.5t-154 -20.5h-31zM419 131q44 0 75.5 14.5
t48 38t23.5 47.5t7 49q0 26 -7 50t-23.5 47t-48 36.5t-75.5 13.5h-11q-46 0 -78 -13.5t-47.5 -37t-22 -46.5t-6.5 -50q0 -26 6.5 -49.5t22 -47.5t48 -38t77.5 -14h11zM399 612q-56 0 -95.5 17t-58 44t-26 51t-7.5 48v3h147q0 -10 3 -20t16.5 -21.5t36.5 -11.5
q21 0 34.5 11.5t16.5 22t3 19.5h145v-3q0 -17 -5 -36.5t-18.5 -42t-33.5 -40t-53.5 -29.5t-74.5 -12h-30z" />
    <glyph glyph-name="Ohungarumlaut" unicode="&#x150;" horiz-adv-x="1056" 
d="M550 756q100 0 179.5 -23t128.5 -59t81.5 -85.5t45 -98.5t12.5 -101v-30q0 -51 -12.5 -100t-45 -99.5t-81.5 -87.5t-128.5 -60.5t-179.5 -23.5h-44q-100 0 -179.5 23.5t-128.5 60.5t-81.5 87.5t-45 99.5t-12.5 100v30q0 52 12.5 100.5t45 98t81.5 86t128.5 59.5t179.5 23
h44zM783 381q0 38 -11 71.5t-37 65t-79 50t-128 18.5q-74 0 -127 -18.5t-79.5 -50t-37.5 -65t-11 -71.5v-14q0 -37 11.5 -71t38.5 -66.5t79.5 -51.5t125.5 -19q74 0 127 19t79.5 51.5t37.5 66t11 71.5v14zM384 953h183l-64 -148h-181zM633 953h185l-72 -148h-180z" />
    <glyph glyph-name="ohungarumlaut" unicode="&#x151;" horiz-adv-x="827" 
d="M398 -15q-85 0 -150 20t-101 50t-58.5 70.5t-29 74t-6.5 68.5v14q0 35 6.5 69t29 75t58.5 71.5t100.5 51.5t149.5 21h33q88 0 153.5 -21t101 -51t56.5 -72t27 -75t6 -68v-16q0 -36 -6 -68.5t-27 -73.5t-56.5 -70t-101.5 -49.5t-154 -20.5h-31zM419 131q44 0 75.5 14.5
t48 38t23.5 47.5t7 49q0 26 -7 50t-23.5 47t-48 36.5t-75.5 13.5h-11q-46 0 -78 -13.5t-47.5 -37t-22 -46.5t-6.5 -50q0 -26 6.5 -49.5t22 -47.5t48 -38t77.5 -14h11zM509 766h183l-70 -149h-178zM265 766h182l-64 -149h-180z" />
    <glyph glyph-name="OE" unicode="&#x152;" horiz-adv-x="1361" 
d="M1279 744v-162h-421v-121h408v-168h-408v-129h430v-164h-755q-114 0 -201.5 23t-138 58t-82.5 84.5t-43 96t-11 99.5v30q0 52 12 98.5t44.5 94.5t84.5 82t138 56t198 22h745zM652 164v418h-109q-86 0 -144 -18.5t-84 -51.5t-35 -64t-9 -70v-6q0 -40 9.5 -71.5t35.5 -65
t83.5 -52.5t143.5 -19h109z" />
    <glyph glyph-name="oe" unicode="&#x153;" horiz-adv-x="1316" 
d="M913 441q-128 0 -147 -103h288q0 42 -30.5 72.5t-110.5 30.5zM561 280q0 147 -149 147h-9q-148 0 -148 -147v-1q0 -148 148 -148h9q47 0 78.5 15t46 39.5t19.5 46.5t5 47v1zM392 -15q-72 0 -129 14t-92.5 38t-60.5 52t-36.5 62.5t-16 61.5t-4.5 55v14q0 35 6 67.5
t27 74.5t56 72.5t99 52t150 21.5h33q154 0 241 -68q84 65 223 65h43q81 0 141.5 -18t96.5 -47t58 -71.5t29.5 -84t7.5 -92.5v-18h-499q15 -116 164 -116q101 0 129 47h204q0 -15 -6 -34t-26.5 -46t-53.5 -48t-94.5 -36.5t-141.5 -15.5h-35q-157 0 -237 66q-81 -68 -245 -68
h-31z" />
    <glyph glyph-name="Racute" unicode="&#x154;" horiz-adv-x="981" 
d="M298 422h287q107 0 107 79v2q0 77 -107 77h-287v-158zM751 358q162 -37 162 -193v-77q0 -62 12 -83v-5h-213q-7 12 -7 52v61q0 74 -31.5 107t-107.5 33h-268v-253h-206v744h501q81 0 141 -13.5t92.5 -33t52 -48t24.5 -52t5 -52.5v-10q0 -68 -42.5 -114.5t-114.5 -62.5z
M377 805l91 148h222l-106 -148h-207z" />
    <glyph glyph-name="racute" unicode="&#x155;" horiz-adv-x="697" 
d="M83 0v555h193v-91q6 13 18.5 28t33.5 33t55 30t74 12h6q95 0 142 -57t47 -158q0 -39 -1 -63h-201v8q0 60 -17.5 89t-61.5 29q-45 0 -69 -32.5t-24 -87.5v-295h-195zM357 766h218l-111 -149h-195z" />
    <glyph glyph-name="uni0156" unicode="&#x156;" horiz-adv-x="981" 
d="M298 422h287q107 0 107 79v2q0 77 -107 77h-287v-158zM751 358q162 -37 162 -193v-77q0 -62 12 -83v-5h-213q-7 12 -7 52v61q0 74 -31.5 107t-107.5 33h-268v-253h-206v744h501q81 0 141 -13.5t92.5 -33t52 -48t24.5 -52t5 -52.5v-10q0 -68 -42.5 -114.5t-114.5 -62.5z
M464 -280q22 44 29 84h-104v134h214v-111q0 -52 -30 -107h-109z" />
    <glyph glyph-name="uni0157" unicode="&#x157;" horiz-adv-x="697" 
d="M83 0v555h193v-91q6 13 18.5 28t33.5 33t55 30t74 12h6q95 0 142 -57t47 -158q0 -39 -1 -63h-201v8q0 60 -17.5 89t-61.5 29q-45 0 -69 -32.5t-24 -87.5v-295h-195zM149 -280q22 44 29 84h-104v134h214v-111q0 -52 -30 -107h-109z" />
    <glyph glyph-name="Rcaron" unicode="&#x158;" horiz-adv-x="981" 
d="M298 422h287q107 0 107 79v2q0 77 -107 77h-287v-158zM751 358q162 -37 162 -193v-77q0 -62 12 -83v-5h-213q-7 12 -7 52v61q0 74 -31.5 107t-107.5 33h-268v-253h-206v744h501q81 0 141 -13.5t92.5 -33t52 -48t24.5 -52t5 -52.5v-10q0 -68 -42.5 -114.5t-114.5 -62.5z
M225 953h194l63 -64l63 64h191l-140 -148h-231z" />
    <glyph glyph-name="rcaron" unicode="&#x159;" horiz-adv-x="697" 
d="M83 0v555h193v-91q6 13 18.5 28t33.5 33t55 30t74 12h6q95 0 142 -57t47 -158q0 -39 -1 -63h-201v8q0 60 -17.5 89t-61.5 29q-45 0 -69 -32.5t-24 -87.5v-295h-195zM109 766h195l59 -64l59 64h191l-136 -149h-231z" />
    <glyph glyph-name="Sacute" unicode="&#x15a;" horiz-adv-x="925" 
d="M451 -13q-100 0 -174 17.5t-114 43t-64 61.5t-30.5 64.5t-6.5 60.5v11h224q10 -107 175 -107h7q55 0 92 7.5t54 21.5t23 27.5t6 32.5q0 36 -32.5 54.5t-119.5 22.5l-99 3q-171 6 -246.5 65t-75.5 152v9q0 48 15 84t53.5 68.5t114.5 50t187 17.5h34q95 0 165 -13.5
t109 -34.5t62.5 -51.5t30.5 -58t7 -60.5v-11h-221q-2 16 -8.5 27.5t-22.5 25.5t-50.5 21.5t-85.5 7.5h-10q-93 0 -128 -16.5t-35 -49.5q0 -32 31 -49.5t113 -21.5l103 -4q97 -4 163 -21t101.5 -47t50 -66t14.5 -84v-12q0 -37 -7.5 -68t-32 -66t-64.5 -58.5t-111.5 -39.5
t-167.5 -16h-29zM354 805l91 148h222l-106 -148h-207z" />
    <glyph glyph-name="sacute" unicode="&#x15b;" horiz-adv-x="737" 
d="M350 -13q-77 0 -135 14.5t-88 34t-48 46.5t-22 45.5t-4 36.5v5h209q9 -59 111 -59h2q107 0 107 53q0 24 -21 37t-85 16l-76 6q-244 15 -244 166v6q0 39 12.5 68t42.5 54t88.5 38.5t143.5 13.5h27q77 0 134 -11t88.5 -27.5t50 -41t23.5 -45t5 -45.5v-3h-204q-5 15 -10 24
t-29.5 19.5t-66.5 10.5h-3q-60 0 -83 -11.5t-23 -34.5q0 -25 21.5 -37.5t78.5 -14.5l76 -3q142 -6 198.5 -47.5t56.5 -116.5v-7q0 -40 -11 -70t-41.5 -59t-94.5 -45t-160 -16h-26zM351 766h218l-111 -149h-195z" />
    <glyph glyph-name="Scircumflex" unicode="&#x15c;" horiz-adv-x="925" 
d="M451 -13q-100 0 -174 17.5t-114 43t-64 61.5t-30.5 64.5t-6.5 60.5v11h224q10 -107 175 -107h7q55 0 92 7.5t54 21.5t23 27.5t6 32.5q0 36 -32.5 54.5t-119.5 22.5l-99 3q-171 6 -246.5 65t-75.5 152v9q0 48 15 84t53.5 68.5t114.5 50t187 17.5h34q95 0 165 -13.5
t109 -34.5t62.5 -51.5t30.5 -58t7 -60.5v-11h-221q-2 16 -8.5 27.5t-22.5 25.5t-50.5 21.5t-85.5 7.5h-10q-93 0 -128 -16.5t-35 -49.5q0 -32 31 -49.5t113 -21.5l103 -4q97 -4 163 -21t101.5 -47t50 -66t14.5 -84v-12q0 -37 -7.5 -68t-32 -66t-64.5 -58.5t-111.5 -39.5
t-167.5 -16h-29zM714 803h-193l-63 63l-63 -63h-190l140 150h229z" />
    <glyph glyph-name="scircumflex" unicode="&#x15d;" horiz-adv-x="737" 
d="M350 -13q-77 0 -135 14.5t-88 34t-48 46.5t-22 45.5t-4 36.5v5h209q9 -59 111 -59h2q107 0 107 53q0 24 -21 37t-85 16l-76 6q-244 15 -244 166v6q0 39 12.5 68t42.5 54t88.5 38.5t143.5 13.5h27q77 0 134 -11t88.5 -27.5t50 -41t23.5 -45t5 -45.5v-3h-204q-5 15 -10 24
t-29.5 19.5t-66.5 10.5h-3q-60 0 -83 -11.5t-23 -34.5q0 -25 21.5 -37.5t78.5 -14.5l76 -3q142 -6 198.5 -47.5t56.5 -116.5v-7q0 -40 -11 -70t-41.5 -59t-94.5 -45t-160 -16h-26zM615 616h-195l-59 65l-59 -65h-191l136 150h231z" />
    <glyph glyph-name="uni015E" unicode="&#x15e;" horiz-adv-x="925" 
d="M619 -154q0 -48 -34 -76t-123 -28h-145v90h109q35 0 35 22q0 23 -35 23h-80v116q-72 8 -126 28.5t-83.5 45t-47 57t-22.5 57.5t-5 53v11h224q10 -107 175 -107h7q55 0 92 7.5t54 21.5t23 27.5t6 32.5q0 36 -32.5 54.5t-119.5 22.5l-99 3q-171 6 -246.5 65t-75.5 152v9
q0 48 15 84t53.5 68.5t114.5 50t187 17.5h34q95 0 165 -13.5t109 -34.5t62.5 -51.5t30.5 -58t7 -60.5v-11h-221q-2 16 -8.5 27.5t-22.5 25.5t-50.5 21.5t-85.5 7.5h-10q-93 0 -128 -16.5t-35 -49.5q0 -32 31 -49.5t113 -21.5l103 -4q97 -4 163 -21t101.5 -47t50 -66
t14.5 -84v-12q0 -37 -7.5 -68t-32 -66t-64.5 -58.5t-111.5 -39.5t-167.5 -16h-23v-37h5q91 0 124 -25t33 -76v-3z" />
    <glyph glyph-name="uni015F" unicode="&#x15f;" horiz-adv-x="737" 
d="M522 -154q0 -48 -34 -76t-123 -28h-145v90h109q35 0 35 22q0 23 -35 23h-80v117q-63 9 -105.5 31.5t-60.5 50t-24 48t-6 40.5v5h209q9 -59 111 -59h2q107 0 107 53q0 24 -21 37t-85 16l-76 6q-244 15 -244 166v6q0 39 12.5 68t42.5 54t88.5 38.5t143.5 13.5h27
q77 0 134 -11t88.5 -27.5t50 -41t23.5 -45t5 -45.5v-3h-204q-5 15 -10 24t-29.5 19.5t-66.5 10.5h-3q-60 0 -83 -11.5t-23 -34.5q0 -25 21.5 -37.5t78.5 -14.5l76 -3q142 -6 198.5 -47.5t56.5 -116.5v-7q0 -40 -11 -70t-41.5 -59t-94.5 -45t-160 -16h-16v-37h5q91 0 124 -25
t33 -76v-3z" />
    <glyph glyph-name="Scaron" unicode="&#x160;" horiz-adv-x="925" 
d="M451 -13q-100 0 -174 17.5t-114 43t-64 61.5t-30.5 64.5t-6.5 60.5v11h224q10 -107 175 -107h7q55 0 92 7.5t54 21.5t23 27.5t6 32.5q0 36 -32.5 54.5t-119.5 22.5l-99 3q-171 6 -246.5 65t-75.5 152v9q0 48 15 84t53.5 68.5t114.5 50t187 17.5h34q95 0 165 -13.5
t109 -34.5t62.5 -51.5t30.5 -58t7 -60.5v-11h-221q-2 16 -8.5 27.5t-22.5 25.5t-50.5 21.5t-85.5 7.5h-10q-93 0 -128 -16.5t-35 -49.5q0 -32 31 -49.5t113 -21.5l103 -4q97 -4 163 -21t101.5 -47t50 -66t14.5 -84v-12q0 -37 -7.5 -68t-32 -66t-64.5 -58.5t-111.5 -39.5
t-167.5 -16h-29zM202 953h194l63 -64l63 64h191l-140 -148h-231z" />
    <glyph glyph-name="scaron" unicode="&#x161;" horiz-adv-x="737" 
d="M350 -13q-77 0 -135 14.5t-88 34t-48 46.5t-22 45.5t-4 36.5v5h209q9 -59 111 -59h2q107 0 107 53q0 24 -21 37t-85 16l-76 6q-244 15 -244 166v6q0 39 12.5 68t42.5 54t88.5 38.5t143.5 13.5h27q77 0 134 -11t88.5 -27.5t50 -41t23.5 -45t5 -45.5v-3h-204q-5 15 -10 24
t-29.5 19.5t-66.5 10.5h-3q-60 0 -83 -11.5t-23 -34.5q0 -25 21.5 -37.5t78.5 -14.5l76 -3q142 -6 198.5 -47.5t56.5 -116.5v-7q0 -40 -11 -70t-41.5 -59t-94.5 -45t-160 -16h-26zM108 766h195l59 -64l59 64h191l-136 -149h-231z" />
    <glyph glyph-name="Tcommaaccent" unicode="&#x162;" horiz-adv-x="873" 
d="M334 574h-288v170h781v-170h-288v-574h-205v574zM404 -280q22 44 29 84h-104v134h214v-111q0 -52 -30 -107h-109z" />
    <glyph glyph-name="tcommaaccent" unicode="&#x163;" horiz-adv-x="534" 
d="M480 0h-177q-69 0 -106.5 38t-37.5 112v265h-121v140h121v169h194v-169h127v-140h-127v-204q0 -34 12 -48t46 -14h69v-149zM306 -280q22 44 29 84h-104v134h214v-111q0 -52 -30 -107h-109z" />
    <glyph glyph-name="Tcaron" unicode="&#x164;" horiz-adv-x="873" 
d="M334 574h-288v170h781v-170h-288v-574h-205v574zM180 953h194l63 -64l63 64h191l-140 -148h-231z" />
    <glyph glyph-name="tcaron" unicode="&#x165;" horiz-adv-x="534" 
d="M480 0h-177q-69 0 -106.5 38t-37.5 112v265h-121v140h121v169h194v-169h127v-140h-127v-204q0 -34 12 -48t46 -14h69v-149zM420 766h164l-28 -149h-153z" />
    <glyph glyph-name="Tbar" unicode="&#x166;" horiz-adv-x="873" 
d="M127 293v127h619v-127h-619zM334 574h-288v170h781v-170h-288v-574h-205v574z" />
    <glyph glyph-name="tbar" unicode="&#x167;" horiz-adv-x="542" 
d="M307 0q-69 0 -106.5 38t-37.5 112v97h-121v99h121v74h-121v135h121v169h194v-169h127v-135h-127v-74h127v-99h-127v-41q0 -34 12 -48t47 -14h68v-144h-177z" />
    <glyph glyph-name="Utilde" unicode="&#x168;" horiz-adv-x="1014" 
d="M494 -11q-105 0 -182.5 26t-119 63.5t-66.5 92t-32 99t-7 96.5v378h206v-373q0 -207 213 -207h5q67 0 112 19.5t65 53.5t27 65t7 69v373h205v-378q0 -35 -3.5 -68t-15 -72t-29.5 -71.5t-49.5 -64t-72.5 -53t-101 -35t-133 -13.5h-29zM422 800h-112v78q0 40 19.5 69
t67.5 29h2q37 0 124 -36q48 -20 57 -20q14 0 14 22v40h112v-78q0 -40 -19.5 -69t-67.5 -29h-2q-37 0 -124 36q-48 20 -57 20q-14 0 -14 -22v-40z" />
    <glyph glyph-name="utilde" unicode="&#x169;" horiz-adv-x="822" 
d="M739 0h-193v88q-25 -34 -83 -67.5t-140 -33.5h-9q-112 0 -172.5 62.5t-60.5 145.5v360h195v-289q0 -54 31.5 -89.5t98.5 -35.5q65 0 101.5 38.5t36.5 93.5v282h195v-555zM597 718q0 -39 -19.5 -68.5t-66.5 -29.5h-2q-41 0 -110 35q-41 21 -50 21q-14 0 -14 -22v-40h-112
v79q0 39 19.5 68.5t66.5 29.5h2q41 0 110 -35q41 -21 50 -21q14 0 14 22v40h112v-79z" />
    <glyph glyph-name="Umacron" unicode="&#x16a;" horiz-adv-x="1014" 
d="M494 -11q-105 0 -182.5 26t-119 63.5t-66.5 92t-32 99t-7 96.5v378h206v-373q0 -207 213 -207h5q67 0 112 19.5t65 53.5t27 65t7 69v373h205v-378q0 -35 -3.5 -68t-15 -72t-29.5 -71.5t-49.5 -64t-72.5 -53t-101 -35t-133 -13.5h-29zM320 938h377v-118h-377v118z" />
    <glyph glyph-name="umacron" unicode="&#x16b;" horiz-adv-x="822" 
d="M739 0h-193v88q-25 -34 -83 -67.5t-140 -33.5h-9q-112 0 -172.5 62.5t-60.5 145.5v360h195v-289q0 -54 31.5 -89.5t98.5 -35.5q65 0 101.5 38.5t36.5 93.5v282h195v-555zM227 748h366v-118h-366v118z" />
    <glyph glyph-name="Ubreve" unicode="&#x16c;" horiz-adv-x="1014" 
d="M494 -11q-105 0 -182.5 26t-119 63.5t-66.5 92t-32 99t-7 96.5v378h206v-373q0 -207 213 -207h5q67 0 112 19.5t65 53.5t27 65t7 69v373h205v-378q0 -35 -3.5 -68t-15 -72t-29.5 -71.5t-49.5 -64t-72.5 -53t-101 -35t-133 -13.5h-29zM493 800q-56 0 -96 17t-59 44
t-27 51.5t-8 47.5v3h146q10 -53 60 -53q47 0 57 53h145v-3q0 -22 -9.5 -47.5t-29.5 -51.5t-59 -43.5t-90 -17.5h-30z" />
    <glyph glyph-name="ubreve" unicode="&#x16d;" horiz-adv-x="822" 
d="M739 0h-193v88q-25 -34 -83 -67.5t-140 -33.5h-9q-112 0 -172.5 62.5t-60.5 145.5v360h195v-289q0 -54 31.5 -89.5t98.5 -35.5q65 0 101.5 38.5t36.5 93.5v282h195v-555zM395 612q-56 0 -95.5 17t-58 44t-26 51t-7.5 48v3h147q0 -10 3 -20t16.5 -21.5t36.5 -11.5
q21 0 34.5 11.5t16.5 22t3 19.5h145v-3q0 -17 -5 -36.5t-18.5 -42t-33.5 -40t-53.5 -29.5t-74.5 -12h-30z" />
    <glyph glyph-name="Uring" unicode="&#x16e;" horiz-adv-x="1014" 
d="M494 -11q-105 0 -182.5 26t-119 63.5t-66.5 92t-32 99t-7 96.5v378h206v-373q0 -207 213 -207h5q67 0 112 19.5t65 53.5t27 65t7 69v373h205v-378q0 -35 -3.5 -68t-15 -72t-29.5 -71.5t-49.5 -64t-72.5 -53t-101 -35t-133 -13.5h-29zM339 902q0 58 40 94t128 36
q89 0 129 -36t40 -94q0 -57 -40 -93.5t-129 -36.5q-88 0 -128 36.5t-40 93.5zM575 902q0 25 -17 40t-51 15t-50.5 -15t-16.5 -40q0 -24 17 -40t50 -16t50.5 16t17.5 40z" />
    <glyph glyph-name="uring" unicode="&#x16f;" horiz-adv-x="822" 
d="M739 0h-193v88q-25 -34 -83 -67.5t-140 -33.5h-9q-112 0 -172.5 62.5t-60.5 145.5v360h195v-289q0 -54 31.5 -89.5t98.5 -35.5q65 0 101.5 38.5t36.5 93.5v282h195v-555zM242 741q0 57 40 93t128 36t128.5 -36t40.5 -93q0 -58 -40 -94t-129 -36t-128.5 36t-39.5 94z
M343 741q0 -24 17 -40t50 -16t50.5 16t17.5 40t-17 39t-51 15q-67 0 -67 -54z" />
    <glyph glyph-name="Uhungarumlaut" unicode="&#x170;" horiz-adv-x="1014" 
d="M494 -11q-105 0 -182.5 26t-119 63.5t-66.5 92t-32 99t-7 96.5v378h206v-373q0 -207 213 -207h5q67 0 112 19.5t65 53.5t27 65t7 69v373h205v-378q0 -35 -3.5 -68t-15 -72t-29.5 -71.5t-49.5 -64t-72.5 -53t-101 -35t-133 -13.5h-29zM357 953h183l-64 -148h-181zM606 953
h185l-72 -148h-180z" />
    <glyph glyph-name="uhungarumlaut" unicode="&#x171;" horiz-adv-x="822" 
d="M739 0h-193v88q-25 -34 -83 -67.5t-140 -33.5h-9q-112 0 -172.5 62.5t-60.5 145.5v360h195v-289q0 -54 31.5 -89.5t98.5 -35.5q65 0 101.5 38.5t36.5 93.5v282h195v-555zM506 766h183l-70 -149h-178zM262 766h182l-64 -149h-180z" />
    <glyph glyph-name="Uogonek" unicode="&#x172;" horiz-adv-x="1014" 
d="M583 -193q-131 0 -131 76v2q0 35 35.5 60t107.5 48q-31 -4 -72 -4h-29q-105 0 -182.5 26t-119 63.5t-66.5 92t-32 99t-7 96.5v378h206v-373q0 -207 213 -207h5q67 0 112 19.5t65 53.5t27 65t7 69v373h205v-378q0 -118 -43 -201t-138 -143q-60 -37 -82 -56t-22 -35
q0 -26 38 -26h45v-98h-142z" />
    <glyph glyph-name="uogonek" unicode="&#x173;" horiz-adv-x="822" 
d="M739 0h-193v88q-25 -34 -83 -67.5t-140 -33.5h-9q-112 0 -172.5 62.5t-60.5 145.5v360h195v-289q0 -54 31.5 -89.5t98.5 -35.5q65 0 101.5 38.5t36.5 93.5v282h195v-555zM608 -193q-131 0 -131 76v2q0 39 44 65t133 50h85q-39 -24 -55.5 -39t-16.5 -31q0 -25 38 -25h45
v-98h-142z" />
    <glyph glyph-name="Wcircumflex" unicode="&#x174;" horiz-adv-x="1340" 
d="M274 0l-256 744h221l164 -535l156 535h240l157 -537l163 537h203l-247 -744h-246l-158 521l-158 -521h-239zM935 803h-193l-63 63l-63 -63h-190l140 150h229z" />
    <glyph glyph-name="wcircumflex" unicode="&#x175;" horiz-adv-x="1152" 
d="M239 0l-217 555h207l133 -385l115 385h220l124 -385l123 385h185l-196 -555h-229l-122 360l-116 -360h-227zM839 616h-195l-59 65l-59 -65h-191l136 150h231z" />
    <glyph glyph-name="Ycircumflex" unicode="&#x176;" horiz-adv-x="927" 
d="M367 272l-369 472h255l223 -295l223 295h230l-356 -473v-271h-206v272zM732 803h-193l-63 63l-63 -63h-190l140 150h229z" />
    <glyph glyph-name="ycircumflex" unicode="&#x177;" horiz-adv-x="753" 
d="M123 -52h122q29 0 29 23v1q0 17 -18 54l-238 529h214l154 -398l153 398h196l-254 -611q-30 -71 -71 -103t-108 -32h-179v139zM640 616h-195l-59 65l-59 -65h-191l136 150h231z" />
    <glyph glyph-name="Ydieresis" unicode="&#x178;" horiz-adv-x="927" 
d="M367 272l-369 472h255l223 -295l223 295h230l-356 -473v-271h-206v272zM445 805h-194v140h194v-140zM701 805h-194v140h194v-140z" />
    <glyph glyph-name="Zacute" unicode="&#x179;" horiz-adv-x="908" 
d="M74 0v143l456 433h-453v168h754v-143l-475 -431h479v-170h-761zM350 805l91 148h222l-106 -148h-207z" />
    <glyph glyph-name="zacute" unicode="&#x17a;" horiz-adv-x="738" 
d="M59 0v134l344 275h-342v146h606v-131l-354 -272h367v-152h-621zM355 766h218l-111 -149h-195z" />
    <glyph glyph-name="Zdotaccent" unicode="&#x17b;" horiz-adv-x="908" 
d="M74 0v143l456 433h-453v168h754v-143l-475 -431h479v-170h-761zM554 805h-199v140h199v-140z" />
    <glyph glyph-name="zdotaccent" unicode="&#x17c;" horiz-adv-x="738" 
d="M59 0v134l344 275h-342v146h606v-131l-354 -272h367v-152h-621zM464 617h-199v140h199v-140z" />
    <glyph glyph-name="Zcaron" unicode="&#x17d;" horiz-adv-x="908" 
d="M74 0v143l456 433h-453v168h754v-143l-475 -431h479v-170h-761zM198 953h194l63 -64l63 64h191l-140 -148h-231z" />
    <glyph glyph-name="zcaron" unicode="&#x17e;" horiz-adv-x="738" 
d="M59 0v134l344 275h-342v146h606v-131l-354 -272h367v-152h-621zM112 766h195l59 -64l59 64h191l-136 -149h-231z" />
    <glyph glyph-name="uni0192" unicode="&#x192;" horiz-adv-x="560" 
d="M368 327l-28 -520h-190l27 520h-119v139h126l6 118q4 83 42.5 121.5t136.5 38.5h133v-139h-74q-25 0 -35.5 -9.5t-12.5 -35.5l-5 -94h127v-139h-134z" />
    <glyph glyph-name="Aringacute" unicode="&#x1fa;" horiz-adv-x="973" 
d="M476 594l-131 -303h266zM680 138h-402l-60 -138h-207l330 744h276l345 -744h-221zM311 926q0 58 40 94t128 36q89 0 129 -36t40 -94q0 -57 -40 -93.5t-129 -36.5q-88 0 -128 36.5t-40 93.5zM547 926q0 25 -17 40t-51 15t-50.5 -15t-16.5 -40q0 -24 17 -40t50 -16t50.5 16
t17.5 40zM375 1091l91 148h222l-106 -148h-207z" />
    <glyph glyph-name="aringacute" unicode="&#x1fb;" horiz-adv-x="783" 
d="M343 111q77 0 115 37t38 77v43q-25 -10 -122 -26q-72 -12 -98 -25.5t-26 -42.5v-2q0 -61 93 -61zM502 77q-73 -88 -214 -88h-16q-109 0 -164 50.5t-55 125.5v4q0 75 56.5 117t192.5 54l152 13q23 2 32.5 10.5t9.5 25.5q0 16 -5.5 26t-33 19t-77.5 9q-112 0 -112 -61h-200
v2q0 21 4 40.5t21.5 47.5t47 47.5t87 34t135.5 14.5h31q79 0 136 -13t86 -31t46 -46t20.5 -48.5t3.5 -48.5v-183q0 -28 9 -38.5t37 -10.5h21v-149h-158q-40 0 -63 22.5t-30 54.5zM212 741q0 57 40 93t128 36t128.5 -36t40.5 -93q0 -58 -40 -94t-129 -36t-128.5 36t-39.5 94z
M313 741q0 -24 17 -40t50 -16t50.5 16t17.5 40t-17 39t-51 15q-67 0 -67 -54zM370 1054h218l-111 -149h-195z" />
    <glyph glyph-name="AEacute" unicode="&#x1fc;" horiz-adv-x="1273" 
d="M568 601l-193 -320h193v320zM568 135h-281l-82 -135h-219l465 744h741v-162h-421v-121h407v-168h-407v-129h429v-164h-632v135zM718 805l91 148h222l-106 -148h-207z" />
    <glyph glyph-name="aeacute" unicode="&#x1fd;" horiz-adv-x="1237" 
d="M833 441q-127 0 -146 -103h289q0 42 -31.5 72.5t-111.5 30.5zM338 111q73 0 110.5 37t37.5 77v43q-23 -9 -117 -26q-68 -12 -93.5 -26.5t-25.5 -41.5v-2q0 -61 88 -61zM1183 167q0 -15 -6 -34t-26.5 -46t-53.5 -48t-94.5 -36.5t-141.5 -15.5h-35q-205 0 -287 109
q-71 -107 -247 -107h-16q-114 0 -168.5 50t-54.5 126v4q0 76 55.5 117.5t188.5 53.5l147 13q23 2 32.5 10.5t9.5 25.5q0 16 -6 26t-32 19t-73 9q-107 0 -107 -61h-200v2q0 21 4 41t21.5 47.5t46.5 47.5t85.5 34t132.5 14h31q160 0 220 -52q64 51 200 51h43q81 0 141.5 -18
t96.5 -47t58 -71.5t29.5 -84t7.5 -92.5v-18h-500q20 -116 165 -116q101 0 129 47h204zM597 766h218l-111 -149h-195z" />
    <glyph glyph-name="Oslashacute" unicode="&#x1fe;" horiz-adv-x="1052" 
d="M505 -12q-144 0 -247 50l-43 -38h-182l121 112q-95 102 -95 247v30q-1 48 9.5 95t41 97.5t78.5 88t130 62t187 24.5h42q148 0 250 -50l42 38h183l-121 -111q92 -99 92 -244v-30q0 -48 -10.5 -95t-41 -98.5t-78.5 -89.5t-129.5 -63t-186.5 -25h-42zM268 368q0 -67 33 -120
l351 325q-45 15 -126 15q-61 0 -108 -13t-74.5 -33t-45.5 -48.5t-24 -55t-6 -56.5v-14zM527 158q75 0 128.5 19.5t80 52t37.5 66.5t11 72v14q0 65 -29 116l-351 -326q56 -14 123 -14zM423 805l91 148h222l-106 -148h-207z" />
    <glyph glyph-name="oslashacute" unicode="&#x1ff;" horiz-adv-x="821" 
d="M395 -15q-118 0 -200 45l-34 -30h-147l103 89q-64 69 -64 179v14q0 35 6 67.5t27 74.5t56 72.5t100 52t152 21.5h33q123 0 200 -42l32 27h149l-101 -87q61 -68 61 -185v-16q0 -282 -342 -282h-31zM240 279q0 -40 12 -73l249 214q-50 10 -84 10h-11q-63 0 -102 -24.5
t-51.5 -56t-12.5 -69.5v-1zM417 128q47 0 81 14t51 37t25 48t8 52v1q0 41 -11 71l-248 -212q33 -11 83 -11h11zM401 766h218l-111 -149h-195z" />
    <glyph glyph-name="uni0218" unicode="&#x218;" horiz-adv-x="925" 
d="M451 -13q-100 0 -174 17.5t-114 43t-64 61.5t-30.5 64.5t-6.5 60.5v11h224q10 -107 175 -107h7q55 0 92 7.5t54 21.5t23 27.5t6 32.5q0 36 -32.5 54.5t-119.5 22.5l-99 3q-171 6 -246.5 65t-75.5 152v9q0 48 15 84t53.5 68.5t114.5 50t187 17.5h34q95 0 165 -13.5
t109 -34.5t62.5 -51.5t30.5 -58t7 -60.5v-11h-221q-2 16 -8.5 27.5t-22.5 25.5t-50.5 21.5t-85.5 7.5h-10q-93 0 -128 -16.5t-35 -49.5q0 -32 31 -49.5t113 -21.5l103 -4q97 -4 163 -21t101.5 -47t50 -66t14.5 -84v-12q0 -37 -7.5 -68t-32 -66t-64.5 -58.5t-111.5 -39.5
t-167.5 -16h-29zM435 -280q22 44 29 84h-104v134h214v-111q0 -52 -30 -107h-109z" />
    <glyph glyph-name="uni0219" unicode="&#x219;" horiz-adv-x="737" 
d="M350 -13q-77 0 -135 14.5t-88 34t-48 46.5t-22 45.5t-4 36.5v5h209q9 -59 111 -59h2q107 0 107 53q0 24 -21 37t-85 16l-76 6q-244 15 -244 166v6q0 39 12.5 68t42.5 54t88.5 38.5t143.5 13.5h27q77 0 134 -11t88.5 -27.5t50 -41t23.5 -45t5 -45.5v-3h-204q-5 15 -10 24
t-29.5 19.5t-66.5 10.5h-3q-60 0 -83 -11.5t-23 -34.5q0 -25 21.5 -37.5t78.5 -14.5l76 -3q142 -6 198.5 -47.5t56.5 -116.5v-7q0 -40 -11 -70t-41.5 -59t-94.5 -45t-160 -16h-26zM336 -280q22 44 29 84h-104v134h214v-111q0 -52 -30 -107h-109z" />
    <glyph glyph-name="uni021A" unicode="&#x21a;" horiz-adv-x="873" 
d="M334 574h-288v170h781v-170h-288v-574h-205v574zM404 -280q22 44 29 84h-104v134h214v-111q0 -52 -30 -107h-109z" />
    <glyph glyph-name="uni021B" unicode="&#x21b;" horiz-adv-x="534" 
d="M480 0h-177q-69 0 -106.5 38t-37.5 112v265h-121v140h121v169h194v-169h127v-140h-127v-204q0 -34 12 -48t46 -14h69v-149zM306 -280q22 44 29 84h-104v134h214v-111q0 -52 -30 -107h-109z" />
    <glyph glyph-name="uni0237" unicode="&#x237;" horiz-adv-x="361" 
d="M44 -46q22 0 30.5 10t8.5 34v557h195v-604q0 -142 -116 -142h-178v145h60z" />
    <glyph glyph-name="circumflex" unicode="&#x2c6;" horiz-adv-x="700" 
d="M602 616h-195l-59 65l-59 -65h-191l136 150h231z" />
    <glyph glyph-name="caron" unicode="&#x2c7;" horiz-adv-x="700" 
d="M98 766h195l59 -64l59 64h191l-136 -149h-231z" />
    <glyph glyph-name="breve" unicode="&#x2d8;" horiz-adv-x="700" 
d="M336 612q-56 0 -95.5 17t-58 44t-26 51t-7.5 48v3h147q0 -10 3 -20t16.5 -21.5t36.5 -11.5q21 0 34.5 11.5t16.5 22t3 19.5h145v-3q0 -17 -5 -36.5t-18.5 -42t-33.5 -40t-53.5 -29.5t-74.5 -12h-30z" />
    <glyph glyph-name="dotaccent" unicode="&#x2d9;" horiz-adv-x="700" 
d="M449 617h-199v140h199v-140z" />
    <glyph glyph-name="ring" unicode="&#x2da;" horiz-adv-x="700" 
d="M181 741q0 57 40 93t128 36t128.5 -36t40.5 -93q0 -58 -40 -94t-129 -36t-128.5 36t-39.5 94zM282 741q0 -24 17 -40t50 -16t50.5 16t17.5 40t-17 39t-51 15q-67 0 -67 -54z" />
    <glyph glyph-name="ogonek" unicode="&#x2db;" horiz-adv-x="701" 
d="M345 -193q-131 0 -131 76v2q0 39 44 65t133 50h85q-39 -24 -55.5 -39t-16.5 -31q0 -25 38 -25h45v-98h-142z" />
    <glyph glyph-name="tilde" unicode="&#x2dc;" horiz-adv-x="700" 
d="M537 718q0 -39 -19.5 -68.5t-66.5 -29.5h-2q-41 0 -110 35q-41 21 -50 21q-14 0 -14 -22v-40h-112v79q0 39 19.5 68.5t66.5 29.5h2q41 0 110 -35q41 -21 50 -21q14 0 14 22v40h112v-79z" />
    <glyph glyph-name="hungarumlaut" unicode="&#x2dd;" horiz-adv-x="700" 
d="M411 766h183l-70 -149h-178zM167 766h182l-64 -149h-180z" />
    <glyph glyph-name="Wgrave" unicode="&#x1e80;" horiz-adv-x="1340" 
d="M274 0l-256 744h221l164 -535l156 535h240l157 -537l163 537h203l-247 -744h-246l-158 521l-158 -521h-239zM470 953h222l91 -148h-207z" />
    <glyph glyph-name="wgrave" unicode="&#x1e81;" horiz-adv-x="1152" 
d="M239 0l-217 555h207l133 -385l115 385h220l124 -385l123 385h185l-196 -555h-229l-122 360l-116 -360h-227zM679 617h-195l-111 149h218z" />
    <glyph glyph-name="Wacute" unicode="&#x1e82;" horiz-adv-x="1340" 
d="M274 0l-256 744h221l164 -535l156 535h240l157 -537l163 537h203l-247 -744h-246l-158 521l-158 -521h-239zM575 805l91 148h222l-106 -148h-207z" />
    <glyph glyph-name="wacute" unicode="&#x1e83;" horiz-adv-x="1152" 
d="M239 0l-217 555h207l133 -385l115 385h220l124 -385l123 385h185l-196 -555h-229l-122 360l-116 -360h-227zM575 766h218l-111 -149h-195z" />
    <glyph glyph-name="Wdieresis" unicode="&#x1e84;" horiz-adv-x="1340" 
d="M274 0l-256 744h221l164 -535l156 535h240l157 -537l163 537h203l-247 -744h-246l-158 521l-158 -521h-239zM648 805h-194v140h194v-140zM904 805h-194v140h194v-140z" />
    <glyph glyph-name="wdieresis" unicode="&#x1e85;" horiz-adv-x="1152" 
d="M239 0l-217 555h207l133 -385l115 385h220l124 -385l123 385h185l-196 -555h-229l-122 360l-116 -360h-227zM555 617h-191v140h191v-140zM806 617h-191v140h191v-140z" />
    <glyph glyph-name="Ygrave" unicode="&#x1ef2;" horiz-adv-x="927" 
d="M367 272l-369 472h255l223 -295l223 295h230l-356 -473v-271h-206v272zM267 953h222l91 -148h-207z" />
    <glyph glyph-name="ygrave" unicode="&#x1ef3;" horiz-adv-x="753" 
d="M123 -52h122q29 0 29 23v1q0 17 -18 54l-238 529h214l154 -398l153 398h196l-254 -611q-30 -71 -71 -103t-108 -32h-179v139zM485 617h-195l-111 149h218z" />
    <glyph glyph-name="uni2009" unicode="&#x2009;" horiz-adv-x="70" 
 />
    <glyph glyph-name="endash" unicode="&#x2013;" horiz-adv-x="804" 
d="M730 370v-140h-656v140h656z" />
    <glyph glyph-name="emdash" unicode="&#x2014;" horiz-adv-x="1219" 
d="M1145 370v-140h-1071v140h1071z" />
    <glyph glyph-name="quoteleft" unicode="&#x2018;" horiz-adv-x="358" 
d="M242 744q-42 -74 -54 -141h105v-166h-232v128q0 93 50 179h131z" />
    <glyph glyph-name="quoteright" unicode="&#x2019;" horiz-adv-x="358" 
d="M114 437q42 74 54 141h-105v166h232v-128q0 -79 -50 -179h-131z" />
    <glyph glyph-name="quotesinglbase" unicode="&#x201a;" horiz-adv-x="358" 
d="M114 -141q42 74 54 141h-105v166h232v-128q0 -79 -50 -179h-131z" />
    <glyph glyph-name="quotedblleft" unicode="&#x201c;" horiz-adv-x="671" 
d="M555 744q-42 -74 -54 -141h105v-166h-232v128q0 93 50 179h131zM242 744q-42 -74 -54 -141h105v-166h-232v128q0 93 50 179h131z" />
    <glyph glyph-name="quotedblright" unicode="&#x201d;" horiz-adv-x="671" 
d="M427 437q42 74 54 141h-105v166h232v-128q0 -79 -50 -179h-131zM114 437q42 74 54 141h-105v166h232v-128q0 -79 -50 -179h-131z" />
    <glyph glyph-name="quotedblbase" unicode="&#x201e;" horiz-adv-x="671" 
d="M427 -141q42 74 54 141h-105v166h232v-128q0 -79 -50 -179h-131zM114 -141q42 74 54 141h-105v166h232v-128q0 -79 -50 -179h-131z" />
    <glyph glyph-name="dagger" unicode="&#x2020;" horiz-adv-x="540" 
d="M182 447h-140v139h140v158h176v-158h140v-139h-140v-447h-176v447z" />
    <glyph glyph-name="daggerdbl" unicode="&#x2021;" horiz-adv-x="556" 
d="M363 294h141v-137h-141v-157h-170v157h-141v137h141v159h-141v138h141v153h170v-153h141v-138h-141v-159z" />
    <glyph glyph-name="bullet" unicode="&#x2022;" horiz-adv-x="455" 
d="M395 329q0 -72 -46.5 -117.5t-123.5 -45.5q-75 0 -120 45.5t-45 117.5q0 71 45.5 117.5t119.5 46.5q77 0 123.5 -46.5t46.5 -117.5z" />
    <glyph glyph-name="ellipsis" unicode="&#x2026;" horiz-adv-x="1095" 
d="M1029 0h-233v194h233v-194zM664 0h-233v194h233v-194zM299 0h-233v194h233v-194z" />
    <glyph glyph-name="perthousand" unicode="&#x2030;" horiz-adv-x="1933" 
d="M1622 -8q-59 0 -104.5 15t-72 37.5t-43.5 52.5t-23 56t-6 51v17q0 25 6 51t23 55t43.5 51t72 36.5t104.5 14.5h21q59 0 104.5 -14.5t72 -36.5t43.5 -51t23 -55t6 -51v-17q0 -25 -6 -51t-23 -56t-43.5 -52.5t-72 -37.5t-104.5 -15h-21zM1631 311q-62 0 -89 -26.5
t-27 -67.5v-7q0 -41 28 -70t88 -29t89 29t29 68v9q0 40 -28.5 67t-89.5 27zM289 316q-59 0 -104.5 15t-71.5 37.5t-43 52t-23 55.5t-6 51v18q0 26 6 51.5t22.5 54.5t43 51t72 36.5t104.5 14.5h22q59 0 104.5 -14.5t72 -36.5t43.5 -51t23 -55t6 -51v-18q0 -25 -6 -51
t-23 -55.5t-43.5 -52t-72 -37.5t-104.5 -15h-22zM1102 744l-689 -744h-170l690 744h169zM417 540q0 41 -28.5 68t-89.5 27q-62 0 -89 -26.5t-27 -68.5v-6q0 -41 28 -70t88 -29t89 29t29 68v8zM1036 -8q-59 0 -104.5 15t-72 37.5t-43.5 52.5t-23 56t-6 51v17q0 25 6 51t23 55
t43.5 51t72 36.5t104.5 14.5h21q59 0 104.5 -14.5t72 -36.5t43.5 -51t23 -55t6 -51v-17q0 -25 -6 -51t-23 -56t-43.5 -52.5t-72 -37.5t-104.5 -15h-21zM1045 311q-62 0 -89 -26.5t-27 -67.5v-7q0 -41 28 -70t88 -29t89 29t29 68v9q0 40 -28.5 67t-89.5 27z" />
    <glyph glyph-name="uni2032" unicode="&#x2032;" horiz-adv-x="323" 
d="M219 447h-164l48 297h165z" />
    <glyph glyph-name="uni2033" unicode="&#x2033;" horiz-adv-x="587" 
d="M219 447h-164l48 297h165zM481 447h-163l50 297h164z" />
    <glyph glyph-name="guilsinglleft" unicode="&#x2039;" horiz-adv-x="388" 
d="M175 105l-136 183l137 180h174l-138 -180l134 -183h-171z" />
    <glyph glyph-name="guilsinglright" unicode="&#x203a;" horiz-adv-x="388" 
d="M42 105l134 183l-138 180h174l137 -180l-136 -183h-171z" />
    <glyph glyph-name="fraction" unicode="&#x2044;" horiz-adv-x="841" 
d="M841 744l-679 -744h-162l685 744h156z" />
    <glyph glyph-name="Euro" unicode="&#x20ac;" horiz-adv-x="1030" 
d="M975 284q0 -52 -20.5 -101t-63.5 -94t-124 -72.5t-189 -27.5h-46q-92 0 -164 23t-117.5 63t-72.5 84.5t-41 97.5h-99v89h86v62h-86v89h101q14 51 41.5 94.5t72.5 81.5t116.5 60t162.5 22h46q107 0 187.5 -26t124.5 -69.5t64.5 -92.5t20.5 -102v-2h-212q-2 9 -5.5 19.5
t-18 31.5t-35 36.5t-61 27.5t-92.5 12q-144 0 -193 -93h266v-89h-290q-1 -8 -1 -25v-14q0 -15 1 -23h290v-89h-265q55 -102 193 -102q52 0 92.5 12.5t61.5 29t35 38t17.5 32.5t4.5 20h212v-3z" />
    <glyph glyph-name="trademark" unicode="&#x2122;" horiz-adv-x="1182" 
d="M321 635v-290h-144v290h-140v109h424v-109h-140zM530 744h203l86 -213l86 213h193v-399h-128v272l-113 -272h-87l-112 272v-272h-128v399z" />
    <glyph glyph-name="onethird" unicode="&#x2153;" horiz-adv-x="1260" 
d="M48 559v106q77 0 104.5 17.5t42.5 61.5h117v-427h-147v242h-117zM942 744l-679 -744h-162l685 744h156zM926 -7q-61 0 -106.5 12t-69 28.5t-38 39.5t-18 39t-3.5 33v4h157l1 -3q1 -3 1.5 -5t3 -5.5t4.5 -6t6 -6.5t9 -6.5t12.5 -5t15.5 -4.5t19.5 -3t24.5 -1q99 0 99 41v2
q0 29 -47 29h-121v98h117q26 0 35 6t9 19v1q0 33 -96 33q-38 0 -61 -8t-28 -15t-5 -13h-151v7q0 15 3 28.5t16.5 33.5t36 34t66.5 24.5t103 10.5h31q62 0 107.5 -7.5t70 -18.5t39 -27t18 -29.5t3.5 -29.5v-4q0 -27 -18 -46.5t-50 -25.5q82 -19 82 -100v-4q0 -149 -244 -149
h-34z" />
    <glyph glyph-name="twothirds" unicode="&#x2154;" horiz-adv-x="1479" 
d="M1161 744l-679 -744h-162l685 744h156zM55 317v50q0 34 7.5 59t30.5 54t74 52t129 39q56 12 73 20t17 23q0 17 -16.5 25t-64.5 8q-35 0 -56.5 -9.5t-27 -19t-5.5 -18.5h-155v4q0 23 8 44.5t30 46.5t71.5 40.5t121.5 15.5h20q71 0 119 -10.5t71.5 -30.5t32.5 -42t9 -52v-5
q0 -61 -49 -89t-168 -47q-136 -20 -136 -42v-1h353v-115h-489zM1145 -7q-61 0 -106.5 12t-69 28.5t-38 39.5t-18 39t-3.5 33v4h157l1 -3q1 -3 1.5 -5t3 -5.5t4.5 -6t6 -6.5t9 -6.5t12.5 -5t15.5 -4.5t19.5 -3t24.5 -1q99 0 99 41v2q0 29 -47 29h-121v98h117q26 0 35 6t9 19
v1q0 33 -96 33q-38 0 -61 -8t-28 -15t-5 -13h-151v7q0 15 3 28.5t16.5 33.5t36 34t66.5 24.5t103 10.5h31q62 0 107.5 -7.5t70 -18.5t39 -27t18 -29.5t3.5 -29.5v-4q0 -27 -18 -46.5t-50 -25.5q82 -19 82 -100v-4q0 -149 -244 -149h-34z" />
    <glyph glyph-name="oneeighth" unicode="&#x215b;" horiz-adv-x="1262" 
d="M48 559v106q77 0 104.5 17.5t42.5 61.5h117v-427h-147v242h-117zM942 744l-679 -744h-162l685 744h156zM963 434q230 0 230 -117v-6q0 -33 -24 -56t-59 -30q40 -7 66.5 -33t26.5 -61v-7q0 -17 -4 -32t-19 -34t-40 -32.5t-70.5 -23t-106.5 -9.5h-26q-239 0 -239 131v7
q0 35 26 61t66 33q-35 7 -59 30t-24 56v6q0 117 230 117h26zM861 305q0 -18 17 -27.5t72 -9.5q54 0 71.5 9.5t17.5 27.5v1q0 17 -17.5 26.5t-71.5 9.5q-38 0 -58.5 -5.5t-25.5 -12.5t-5 -18v-1zM851 134q0 -12 5.5 -19.5t29 -14t64.5 -6.5q99 0 99 40v4q0 38 -99 38
q-41 0 -64.5 -6t-29 -13.5t-5.5 -18.5v-4z" />
    <glyph glyph-name="threeeighths" unicode="&#x215c;" horiz-adv-x="1448" 
d="M283 311q-61 0 -106.5 12t-69 28.5t-38 39.5t-18 39t-3.5 33v4h157l1 -3q1 -3 1.5 -5t3 -5.5t4.5 -6t6 -6.5t9 -6.5t12.5 -5t15.5 -4.5t19.5 -3t24.5 -1q99 0 99 41v2q0 29 -47 29h-121v98h117q26 0 35 6t9 19v1q0 33 -96 33q-38 0 -61 -8t-28 -15t-5 -13h-151v7
q0 15 3 28.5t16.5 33.5t36 34t66.5 24.5t103 10.5h31q62 0 107.5 -7.5t70 -18.5t39 -27t18 -29.5t3.5 -29.5v-4q0 -27 -18 -46.5t-50 -25.5q82 -19 82 -100v-4q0 -149 -244 -149h-34zM1138 744l-679 -744h-162l685 744h156zM1149 434q230 0 230 -117v-6q0 -33 -24 -56
t-59 -30q40 -7 66.5 -33t26.5 -61v-7q0 -17 -4 -32t-19 -34t-40 -32.5t-70.5 -23t-106.5 -9.5h-26q-239 0 -239 131v7q0 35 26 61t66 33q-35 7 -59 30t-24 56v6q0 117 230 117h26zM1047 305q0 -18 17 -27.5t72 -9.5q54 0 71.5 9.5t17.5 27.5v1q0 17 -17.5 26.5t-71.5 9.5
q-38 0 -58.5 -5.5t-25.5 -12.5t-5 -18v-1zM1037 134q0 -12 5.5 -19.5t29 -14t64.5 -6.5q99 0 99 40v4q0 38 -99 38q-41 0 -64.5 -6t-29 -13.5t-5.5 -18.5v-4z" />
    <glyph glyph-name="fiveeighths" unicode="&#x215d;" horiz-adv-x="1433" 
d="M1123 744l-679 -744h-162l685 744h156zM288 310q-57 0 -99.5 10.5t-65 25t-36 34t-17 33.5t-3.5 28v1h156q16 -27 87 -27q83 0 83 47v4q0 46 -85 46q-33 0 -54 -6.5t-26 -11.5t-5 -9h-148v259h444v-102h-296v-76q36 36 131 36h5q105 0 145.5 -36.5t40.5 -97.5v-3
q0 -155 -210 -155h-47zM1134 434q230 0 230 -117v-6q0 -33 -24 -56t-59 -30q40 -7 66.5 -33t26.5 -61v-7q0 -17 -4 -32t-19 -34t-40 -32.5t-70.5 -23t-106.5 -9.5h-26q-239 0 -239 131v7q0 35 26 61t66 33q-35 7 -59 30t-24 56v6q0 117 230 117h26zM1032 305q0 -18 17 -27.5
t72 -9.5q54 0 71.5 9.5t17.5 27.5v1q0 17 -17.5 26.5t-71.5 9.5q-38 0 -58.5 -5.5t-25.5 -12.5t-5 -18v-1zM1022 134q0 -12 5.5 -19.5t29 -14t64.5 -6.5q99 0 99 40v4q0 38 -99 38q-41 0 -64.5 -6t-29 -13.5t-5.5 -18.5v-4z" />
    <glyph glyph-name="seveneighths" unicode="&#x215e;" horiz-adv-x="1348" 
d="M1038 744l-679 -744h-162l685 744h156zM541 744v-102q-31 -35 -87 -120q-39 -59 -49.5 -100.5t-10.5 -99.5v-5h-168v46q0 47 19.5 84t75.5 101q69 78 72 90h-183v-82h-148v188h479zM1049 434q230 0 230 -117v-6q0 -33 -24 -56t-59 -30q40 -7 66.5 -33t26.5 -61v-7
q0 -17 -4 -32t-19 -34t-40 -32.5t-70.5 -23t-106.5 -9.5h-26q-239 0 -239 131v7q0 35 26 61t66 33q-35 7 -59 30t-24 56v6q0 117 230 117h26zM947 305q0 -18 17 -27.5t72 -9.5q54 0 71.5 9.5t17.5 27.5v1q0 17 -17.5 26.5t-71.5 9.5q-38 0 -58.5 -5.5t-25.5 -12.5t-5 -18v-1
zM937 134q0 -12 5.5 -19.5t29 -14t64.5 -6.5q99 0 99 40v4q0 38 -99 38q-41 0 -64.5 -6t-29 -13.5t-5.5 -18.5v-4z" />
    <glyph glyph-name="minus" unicode="&#x2212;" horiz-adv-x="656" 
d="M582 388v-136h-508v136h508z" />
    <glyph glyph-name="uni24C5" unicode="&#x24c5;" horiz-adv-x="1079" 
d="M1020 359q0 -76 -23.5 -139.5t-75.5 -117t-145.5 -83.5t-222.5 -30h-27q-129 0 -222.5 30t-145.5 83.5t-75.5 117t-23.5 139.5v28q0 59 14 110.5t48 100t86.5 82.5t134 54.5t185.5 20.5h25q104 0 185.5 -20.5t134 -54.5t86.5 -82.5t48 -100t14 -110.5v-28zM550 75
q101 0 174 24t113 67t58 92t18 108v12q0 65 -17.5 115t-57.5 91t-112.5 63t-175.5 22h-21q-103 0 -175.5 -22t-112.5 -63t-57.5 -91t-17.5 -115v-12q0 -59 18 -108t57.5 -92t113 -67t174.5 -24h21zM467 281v-124h-144v432h296q186 0 186 -151v-6q0 -151 -186 -151h-152z
M467 385h125q65 0 65 49v3q0 48 -65 48h-125v-100z" />
    <glyph glyph-name="cent.tab" unicode="&#xe459;" 
d="M288 281q0 -136 131 -155v306q-131 -15 -131 -150v-1zM419 -96v81q-80 2 -141.5 23t-96.5 50t-57 68.5t-29 73.5t-7 70v14q0 35 7 69t29 73.5t57 69.5t96.5 51t141.5 23v81h94v-81q95 -3 163 -26.5t100 -59.5t45 -69.5t13 -68.5v-1h-201q-2 10 -7 20t-16.5 24.5
t-36.5 25.5t-60 16v-306q107 13 120 94h201q0 -27 -6 -53.5t-26.5 -59.5t-54 -57.5t-94 -43t-140.5 -20.5v-81h-94z" />
    <glyph glyph-name="J.alt" unicode="&#xe489;" horiz-adv-x="565" 
d="M49 175h121q57 0 78 26.5t21 94.5v448h206v-495q0 -128 -52.5 -188.5t-173.5 -60.5h-200v175z" />
    <glyph glyph-name="a.alt" unicode="&#xe4c0;" horiz-adv-x="768" 
d="M343 111q77 0 115 37t38 77v43q-25 -10 -122 -26q-72 -12 -98 -25.5t-26 -42.5v-2q0 -61 93 -61zM502 78q-80 -89 -215 -89h-15q-109 0 -164 50.5t-55 125.5v4q0 75 56.5 117t192.5 54l152 13q23 2 32.5 10.5t9.5 25.5q0 16 -5.5 26t-33 19t-77.5 9q-112 0 -112 -61h-200
v2q0 21 4 40.5t21.5 47.5t47 47.5t87 34t135.5 14.5h31q79 0 136 -13t86 -31t46 -46t20.5 -48.5t3.5 -48.5v-196q0 -120 21 -185h-189q-14 31 -16 78z" />
    <glyph glyph-name="r.alt" unicode="&#xe4d1;" horiz-adv-x="539" 
d="M83 555h193v-115q69 127 224 127h2v-210q-18 5 -77 5q-147 0 -147 -113v-249h-195v555z" />
    <glyph glyph-name="idotaccent" horiz-adv-x="361" 
d="M280 617h-199v140h199v-140zM278 0h-195v555h195v-555z" />
    <glyph glyph-name="space_uni0326" horiz-adv-x="666" 
d="M301 -280q22 44 29 84h-104v134h214v-111q0 -52 -30 -107h-109z" />
    <glyph glyph-name="zero.num" horiz-adv-x="648" 
d="M335 751q61 0 107.5 -15t73.5 -37t44 -51.5t22.5 -55t5.5 -51.5v-18q0 -34 -10.5 -66.5t-35.5 -67.5t-78.5 -57t-128.5 -22h-22q-74 0 -127.5 22t-79 57t-36 68t-10.5 66v18q0 33 10.5 65.5t36 67t79 56t127.5 21.5h22zM435 537q0 38 -26 68t-86 30q-59 0 -84.5 -30
t-25.5 -68v-7q0 -38 26.5 -70t83.5 -32q59 0 85.5 31.5t26.5 70.5v7z" />
    <glyph glyph-name="one.num" horiz-adv-x="396" 
d="M48 559v106q77 0 104.5 17.5t42.5 61.5h117v-427h-147v242h-117z" />
    <glyph glyph-name="two.num" horiz-adv-x="602" 
d="M55 317v50q0 34 7.5 59t30.5 54t74 52t129 39q56 12 73 20t17 23q0 17 -16.5 25t-64.5 8q-35 0 -56.5 -9.5t-27 -19t-5.5 -18.5h-155v4q0 23 8 44.5t30 46.5t71.5 40.5t121.5 15.5h20q71 0 119 -10.5t71.5 -30.5t32.5 -42t9 -52v-5q0 -61 -49 -89t-168 -47
q-136 -20 -136 -42v-1h353v-115h-489z" />
    <glyph glyph-name="three.num" horiz-adv-x="617" 
d="M283 310q-61 0 -106.5 12t-69 28.5t-38 39.5t-18 39t-3.5 33v4h157l1 -3q1 -3 1.5 -5t3 -5.5t4.5 -6t6 -6.5t9 -6.5t12.5 -5t15.5 -4.5t19.5 -3t24.5 -1q99 0 99 41v2q0 29 -47 29h-121v98h117q26 0 35 6t9 19v1q0 33 -96 33q-38 0 -61 -8t-28 -15t-5 -13h-151v7
q0 15 3 28.5t16.5 33.5t36 34t66.5 24.5t103 10.5h31q62 0 107.5 -7.5t70 -18.5t39 -27t18 -29.5t3.5 -29.5v-4q0 -27 -18 -46.5t-50 -25.5q82 -19 82 -100v-4q0 -149 -244 -149h-34z" />
    <glyph glyph-name="four.num" horiz-adv-x="595" 
d="M47 489l126 128l126 128h165v-239h85v-103h-85v-86h-145v86h-272v86zM187 506h132v137z" />
    <glyph glyph-name="five.num" horiz-adv-x="600" 
d="M288 310q-57 0 -99.5 10.5t-65 25t-36 34t-17 33.5t-3.5 28v1h156q16 -27 87 -27q83 0 83 47v4q0 46 -85 46q-33 0 -54 -6.5t-26 -11.5t-5 -9h-148v259h444v-102h-296v-76q36 36 131 36h5q105 0 145.5 -36.5t40.5 -97.5v-3q0 -155 -210 -155h-47z" />
    <glyph glyph-name="six.num" horiz-adv-x="632" 
d="M305 310q-73 0 -124 19.5t-76 53t-35 67.5t-10 73v14q0 36 10 69t34 68t74.5 56t122.5 21h31q56 0 98.5 -9t66.5 -22.5t39 -32t19.5 -33.5t4.5 -31v-2h-149q-18 29 -93 29q-61 0 -86 -29t-25 -65v-2q52 38 154 38h6q212 0 212 -132v-5q0 -61 -54.5 -103t-183.5 -42h-36z
M222 458q0 -43 103 -43q101 0 101 43v1q0 42 -101 42q-103 0 -103 -42v-1z" />
    <glyph glyph-name="seven.num" horiz-adv-x="592" 
d="M541 744v-102q-31 -35 -87 -120q-39 -59 -49.5 -100.5t-10.5 -99.5v-5h-168v46q0 47 19.5 84t75.5 101q69 78 72 90h-183v-82h-148v188h479z" />
    <glyph glyph-name="eight.num" horiz-adv-x="624" 
d="M325 751q230 0 230 -117v-6q0 -33 -24 -56t-59 -30q40 -7 66.5 -33t26.5 -61v-7q0 -17 -4 -32t-19 -34t-40 -32.5t-70.5 -23t-106.5 -9.5h-26q-239 0 -239 131v7q0 35 26 61t66 33q-35 7 -59 30t-24 56v6q0 117 230 117h26zM223 622q0 -18 17 -27.5t72 -9.5
q54 0 71.5 9.5t17.5 27.5v1q0 17 -17.5 26.5t-71.5 9.5q-38 0 -58.5 -5.5t-25.5 -12.5t-5 -18v-1zM213 451q0 -12 5.5 -19.5t29 -14t64.5 -6.5q99 0 99 40v4q0 38 -99 38q-41 0 -64.5 -6t-29 -13.5t-5.5 -18.5v-4z" />
    <glyph glyph-name="nine.num" horiz-adv-x="632" 
d="M408 604q0 43 -101 43q-99 0 -99 -43v-2q0 -40 99 -40q101 0 101 40v2zM302 310q-70 0 -119 14t-71 36t-31 41.5t-9 39.5v2h151q19 -28 91 -28q61 0 85 28t24 63v2q-1 0 -6 -3.5t-8 -5.5t-10.5 -5.5t-15 -6t-19 -5.5t-24 -4.5t-29.5 -3t-36 -1.5h-7q-120 0 -167.5 34.5
t-47.5 93.5v6q0 61 52.5 102.5t182.5 41.5h37q73 0 124 -19.5t76.5 -52t36 -66t10.5 -71.5v-14q0 -28 -5 -55t-21 -57.5t-41 -53t-69.5 -37.5t-102.5 -15h-31z" />
    <glyph glyph-name="zero.den" horiz-adv-x="648" 
d="M335 434q61 0 107.5 -15t73.5 -37t44 -51.5t22.5 -55t5.5 -51.5v-18q0 -34 -10.5 -66.5t-35.5 -67.5t-78.5 -57t-128.5 -22h-22q-74 0 -127.5 22t-79 57t-36 68t-10.5 66v18q0 33 10.5 65.5t36 67t79 56t127.5 21.5h22zM435 220q0 38 -26 68t-86 30q-59 0 -84.5 -30
t-25.5 -68v-7q0 -38 26.5 -70t83.5 -32q59 0 85.5 31.5t26.5 70.5v7z" />
    <glyph glyph-name="one.den" horiz-adv-x="396" 
d="M48 242v106q77 0 104.5 17.5t42.5 61.5h117v-427h-147v242h-117z" />
    <glyph glyph-name="two.den" horiz-adv-x="602" 
d="M55 0v50q0 34 7.5 59t30.5 54t74 52t129 39q56 12 73 20t17 23q0 17 -16.5 25t-64.5 8q-35 0 -56.5 -9.5t-27 -19t-5.5 -18.5h-155v4q0 23 8 44.5t30 46.5t71.5 40.5t121.5 15.5h20q71 0 119 -10.5t71.5 -30.5t32.5 -42t9 -52v-5q0 -61 -49 -89t-168 -47
q-136 -20 -136 -42v-1h353v-115h-489z" />
    <glyph glyph-name="three.den" horiz-adv-x="617" 
d="M283 -7q-61 0 -106.5 12t-69 28.5t-38 39.5t-18 39t-3.5 33v4h157l1 -3q1 -3 1.5 -5t3 -5.5t4.5 -6t6 -6.5t9 -6.5t12.5 -5t15.5 -4.5t19.5 -3t24.5 -1q99 0 99 41v2q0 29 -47 29h-121v98h117q26 0 35 6t9 19v1q0 33 -96 33q-38 0 -61 -8t-28 -15t-5 -13h-151v7
q0 15 3 28.5t16.5 33.5t36 34t66.5 24.5t103 10.5h31q62 0 107.5 -7.5t70 -18.5t39 -27t18 -29.5t3.5 -29.5v-4q0 -27 -18 -46.5t-50 -25.5q82 -19 82 -100v-4q0 -149 -244 -149h-34z" />
    <glyph glyph-name="four.den" horiz-adv-x="595" 
d="M47 172l126 128l126 128h165v-239h85v-103h-85v-86h-145v86h-272v86zM187 189h132v137z" />
    <glyph glyph-name="five.den" horiz-adv-x="600" 
d="M288 -7q-57 0 -99.5 10.5t-65 25t-36 34t-17 33.5t-3.5 28v1h156q16 -27 87 -27q83 0 83 47v4q0 46 -85 46q-33 0 -54 -6.5t-26 -11.5t-5 -9h-148v259h444v-102h-296v-76q36 36 131 36h5q105 0 145.5 -36.5t40.5 -97.5v-3q0 -155 -210 -155h-47z" />
    <glyph glyph-name="six.den" horiz-adv-x="632" 
d="M305 -7q-73 0 -124 19.5t-76 53t-35 67.5t-10 73v14q0 36 10 69t34 68t74.5 56t122.5 21h31q56 0 98.5 -9t66.5 -22.5t39 -32t19.5 -33.5t4.5 -31v-2h-149q-18 29 -93 29q-61 0 -86 -29t-25 -65v-2q52 38 154 38h6q212 0 212 -132v-5q0 -61 -54.5 -103t-183.5 -42h-36z
M222 141q0 -43 103 -43q101 0 101 43v1q0 42 -101 42q-103 0 -103 -42v-1z" />
    <glyph glyph-name="seven.den" horiz-adv-x="592" 
d="M541 427v-102q-31 -35 -87 -120q-39 -59 -49.5 -100.5t-10.5 -99.5v-5h-168v46q0 47 19.5 84t75.5 101q72 79 72 90h-183v-82h-148v188h479z" />
    <glyph glyph-name="eight.den" horiz-adv-x="624" 
d="M325 433q230 0 230 -117v-6q0 -33 -24 -56t-59 -30q40 -7 66.5 -33t26.5 -61v-7q0 -17 -4 -32t-19 -34t-40 -32.5t-70.5 -23t-106.5 -9.5h-26q-239 0 -239 131v7q0 35 26 61t66 33q-35 7 -59 30t-24 56v6q0 117 230 117h26zM223 304q0 -18 17 -27.5t72 -9.5
q54 0 71.5 9.5t17.5 27.5v1q0 17 -17.5 26.5t-71.5 9.5q-38 0 -58.5 -5.5t-25.5 -12.5t-5 -18v-1zM213 133q0 -12 5.5 -19.5t29 -14t64.5 -6.5q99 0 99 40v4q0 38 -99 38q-41 0 -64.5 -6t-29 -13.5t-5.5 -18.5v-4z" />
    <glyph glyph-name="nine.den" horiz-adv-x="632" 
d="M408 287q0 43 -101 43q-99 0 -99 -43v-2q0 -40 99 -40q101 0 101 40v2zM302 -7q-70 0 -119 14t-71 36t-31 41.5t-9 39.5v2h151q19 -28 91 -28q61 0 85 28t24 63v2q-1 0 -6 -3.5t-8 -5.5t-10.5 -5.5t-15 -6t-19 -5.5t-24 -4.5t-29.5 -3t-36 -1.5h-7q-120 0 -167.5 34.5
t-47.5 93.5v6q0 61 52.5 102.5t182.5 41.5h37q73 0 124 -19.5t76.5 -52t36 -66t10.5 -71.5v-14q0 -28 -5 -55t-21 -57.5t-41 -53t-69.5 -37.5t-102.5 -15h-31z" />
    <glyph glyph-name="zero.sub" horiz-adv-x="713" 
d="M369 316q67 0 119 -16t81.5 -40.5t48 -57t24.5 -60.5t6 -57v-19q0 -29 -6 -57t-24.5 -61.5t-48 -58.5t-81.5 -41.5t-119 -16.5h-25q-67 0 -119 16.5t-81 41.5t-48 58.5t-25 61.5t-6 57v19q0 29 6 57t25 60.5t48 57t81 40.5t119 16h25zM356 -42q67 0 96 34.5t29 79.5v9
q0 44 -28.5 76.5t-96.5 32.5t-96 -32.5t-28 -76.5v-9q0 -43 29 -78.5t95 -35.5z" />
    <glyph glyph-name="one.sub" horiz-adv-x="434" 
d="M345 309v-471h-161v267h-131v117q60 0 93.5 11t45.5 27t25 49h128z" />
    <glyph glyph-name="two.sub" horiz-adv-x="661" 
d="M60 -162v55q0 30 4.5 52.5t20.5 50.5t43.5 49t77.5 41.5t119 34.5q64 15 83 23.5t19 24.5q0 37 -91 37q-42 0 -67 -10.5t-31 -21t-6 -20.5h-166v3q0 15 3.5 30t12 34.5t27 35.5t45 30.5t70 22.5t97.5 8h21q79 0 132 -12t79 -34.5t35.5 -46.5t9.5 -56v-6q0 -64 -51.5 -96
t-187.5 -52q-88 -14 -120.5 -24.5t-32.5 -22.5v-1h392v-129h-538z" />
    <glyph glyph-name="three.sub" horiz-adv-x="680" 
d="M311 -169q-66 0 -116 13t-76 31.5t-42 43t-20 42.5t-4 36v5h171q0 -4 1.5 -9t8 -13t17.5 -14t32.5 -10.5t49.5 -4.5q47 0 73 7.5t32 16.5t6 21v2q0 32 -50 32h-139v109h134q49 0 49 28v2q0 11 -6.5 17.5t-32 12t-71.5 5.5q-45 0 -70.5 -8.5t-29 -14.5t-6.5 -16h-164v8
q0 16 3.5 31.5t18.5 37t40 37t73.5 26.5t113.5 11h34q68 0 118 -8t77 -20t43 -29.5t20 -32.5t4 -33v-4q0 -30 -20.5 -51.5t-55.5 -27.5q41 -10 66.5 -38t25.5 -74v-4q0 -163 -270 -163h-38z" />
    <glyph glyph-name="four.sub" horiz-adv-x="657" 
d="M52 25l140 142q62 62 140 143h179v-266h95v-113h-95v-93h-156v93h-303v94zM207 44h148v153z" />
    <glyph glyph-name="five.sub" horiz-adv-x="659" 
d="M315 -169q-62 0 -109 11.5t-72 27.5t-39.5 37.5t-18.5 37t-4 30.5v1h168q11 -30 100 -30q94 0 94 52v4q0 52 -97 52q-78 0 -97 -31h-159v286h489v-113h-330v-83q6 6 19.5 14t49.5 16.5t80 8.5h5q205 0 205 -146v-5q0 -170 -232 -170h-52z" />
    <glyph glyph-name="six.sub" horiz-adv-x="694" 
d="M335 -170q-65 0 -114.5 15t-78 38t-47 55.5t-24.5 63t-6 64.5v15q0 31 6 60t23.5 61.5t45.5 56.5t77.5 40t113.5 16h34q62 0 109 -10t73.5 -25t43 -35t21.5 -37t5 -34v-2h-164q-21 31 -103 31q-70 0 -97 -31t-27 -71v-2q48 40 171 40h8q68 0 115 -11t71.5 -32t34.5 -45
t10 -56v-5q0 -69 -59 -114.5t-202 -45.5h-40zM243 -7q0 -49 114 -49q113 0 113 49v1q0 46 -113 46q-114 0 -114 -46v-1z" />
    <glyph glyph-name="seven.sub" horiz-adv-x="654" 
d="M598 309v-114q-63 -80 -99 -133q-43 -64 -55 -109t-12 -109v-6h-181v49q0 52 21.5 92.5t83.5 111.5q9 11 20.5 24t18 20.5t14.5 16.5t12 14t8 10.5t5.5 9t1.5 5.5h-209v-94h-160v212h531z" />
    <glyph glyph-name="eight.sub" horiz-adv-x="685" 
d="M357 316q254 0 254 -128v-7q0 -36 -26.5 -61t-66.5 -34q46 -9 74.5 -36.5t28.5 -67.5v-9q0 -18 -4.5 -34.5t-21 -37t-43.5 -35.5t-77.5 -25t-117.5 -10h-28q-68 0 -118.5 10t-77.5 25t-43 35.5t-20.5 37t-4.5 34.5v9q0 39 29 67.5t74 36.5q-39 9 -65.5 34t-26.5 61v7
q0 17 3.5 31t18.5 33.5t40.5 32t74.5 22t116 9.5h28zM242 174q0 -12 5.5 -20t29 -14.5t66.5 -6.5t66 6.5t28.5 14t5.5 20.5v1q0 12 -5.5 19.5t-28.5 14t-66 6.5t-66.5 -6.5t-29 -14t-5.5 -19.5v-1zM231 -14q0 -45 112 -45q113 0 113 45v4q0 42 -113 42q-47 0 -73 -6.5
t-32.5 -15t-6.5 -20.5v-4z" />
    <glyph glyph-name="nine.sub" horiz-adv-x="694" 
d="M451 152q0 49 -114 49q-113 0 -113 -49v-1q0 -46 113 -46q114 0 114 46v1zM331 -170q-77 0 -131 15t-79 38.5t-34.5 45t-9.5 42.5v2h164q21 -31 103 -31q69 0 96.5 31.5t27.5 70.5v2q-1 0 -5.5 -3l-7.5 -5t-10 -5.5t-14 -6t-16.5 -6t-21 -5.5t-25.5 -4t-31 -3t-36 -1h-8
q-132 0 -183.5 38t-51.5 105v6q0 159 258 159h40q66 0 116 -14.5t79 -37.5t47.5 -54.5t24.5 -61.5t6 -63v-15q0 -31 -5.5 -60.5t-23.5 -63t-45.5 -58t-76.5 -41t-113 -16.5h-34z" />
    <glyph glyph-name="zero.sup" horiz-adv-x="713" 
d="M369 764q67 0 119 -16t81.5 -40.5t48 -57t24.5 -60.5t6 -57v-19q0 -29 -6 -57t-24.5 -61.5t-48 -58.5t-81.5 -41.5t-119 -16.5h-25q-67 0 -119 16.5t-81 41.5t-48 58.5t-25 61.5t-6 57v19q0 29 6 57t25 60.5t48 57t81 40.5t119 16h25zM356 406q67 0 96 34.5t29 79.5v9
q0 44 -28.5 76.5t-96.5 32.5t-96 -32.5t-28 -76.5v-9q0 -43 29 -78.5t95 -35.5z" />
    <glyph glyph-name="one.sup" horiz-adv-x="434" 
d="M345 757v-471h-161v267h-131v117q60 0 93.5 11t45.5 27t25 49h128z" />
    <glyph glyph-name="two.sup" horiz-adv-x="661" 
d="M60 286v55q0 30 4.5 52.5t20.5 50.5t43.5 49t77.5 41.5t119 34.5q64 15 83 23.5t19 24.5q0 37 -91 37q-42 0 -67 -10.5t-31 -21t-6 -20.5h-166v3q0 15 3.5 30t12 34.5t27 35.5t45 30.5t70 22.5t97.5 8h21q79 0 132 -12t79 -34.5t35.5 -46.5t9.5 -56v-6q0 -64 -51.5 -96
t-187.5 -52q-88 -14 -120.5 -24.5t-32.5 -22.5v-1h392v-129h-538z" />
    <glyph glyph-name="three.sup" horiz-adv-x="680" 
d="M311 279q-66 0 -116 13t-76 31.5t-42 43t-20 42.5t-4 36v5h171q0 -4 1.5 -9t8 -13t17.5 -14t32.5 -10.5t49.5 -4.5q47 0 73 7.5t32 16.5t6 21v2q0 32 -50 32h-139v109h134q49 0 49 28v2q0 11 -6.5 17.5t-32 12t-71.5 5.5q-45 0 -70.5 -8.5t-29 -14.5t-6.5 -16h-164v8
q0 16 3.5 31.5t18.5 37t40 37t73.5 26.5t113.5 11h34q68 0 118 -8t77 -20t43 -29.5t20 -32.5t4 -33v-4q0 -30 -20.5 -51.5t-55.5 -27.5q41 -10 66.5 -38t25.5 -74v-4q0 -163 -270 -163h-38z" />
    <glyph glyph-name="four.sup" horiz-adv-x="657" 
d="M52 473l140 142q62 62 140 143h179v-266h95v-113h-95v-93h-156v93h-303v94zM207 492h148v153z" />
    <glyph glyph-name="five.sup" horiz-adv-x="659" 
d="M315 279q-62 0 -109 11.5t-72 27.5t-39.5 37.5t-18.5 37t-4 30.5v1h168q11 -30 100 -30q94 0 94 52v4q0 52 -97 52q-78 0 -97 -31h-159v286h489v-113h-330v-83q6 6 19.5 14t49.5 16.5t80 8.5h5q205 0 205 -146v-5q0 -170 -232 -170h-52z" />
    <glyph glyph-name="six.sup" horiz-adv-x="694" 
d="M335 278q-65 0 -114.5 15t-78 38t-47 55.5t-24.5 63t-6 64.5v15q0 31 6 60t23.5 61.5t45.5 56.5t77.5 40t113.5 16h34q62 0 109 -10t73.5 -25t43 -35t21.5 -37t5 -34v-2h-164q-21 31 -103 31q-70 0 -97 -31t-27 -71v-2q48 40 171 40h8q68 0 115 -11t71.5 -32t34.5 -45
t10 -56v-5q0 -69 -59 -114.5t-202 -45.5h-40zM243 441q0 -49 114 -49q113 0 113 49v1q0 46 -113 46q-114 0 -114 -46v-1z" />
    <glyph glyph-name="seven.sup" horiz-adv-x="654" 
d="M598 757v-114q-63 -80 -99 -133q-43 -64 -55 -109t-12 -109v-6h-181v49q0 52 21.5 92.5t83.5 111.5q9 11 20.5 24t18 20.5t14.5 16.5t12 14t8 10.5t5.5 9t1.5 5.5h-209v-94h-160v212h531z" />
    <glyph glyph-name="eight.sup" horiz-adv-x="685" 
d="M357 764q254 0 254 -128v-7q0 -36 -26.5 -61t-66.5 -34q46 -9 74.5 -36.5t28.5 -67.5v-9q0 -18 -4.5 -34.5t-21 -37t-43.5 -35.5t-77.5 -25t-117.5 -10h-28q-68 0 -118.5 10t-77.5 25t-43 35.5t-20.5 37t-4.5 34.5v9q0 39 29 67.5t74 36.5q-39 9 -65.5 34t-26.5 61v7
q0 17 3.5 31t18.5 33.5t40.5 32t74.5 22t116 9.5h28zM242 622q0 -12 5.5 -20t29 -14.5t66.5 -6.5t66 6.5t28.5 14t5.5 20.5v1q0 12 -5.5 19.5t-28.5 14t-66 6.5t-66.5 -6.5t-29 -14t-5.5 -19.5v-1zM231 434q0 -45 112 -45q113 0 113 45v4q0 42 -113 42q-47 0 -73 -6.5
t-32.5 -15t-6.5 -20.5v-4z" />
    <glyph glyph-name="nine.sup" horiz-adv-x="694" 
d="M451 600q0 49 -114 49q-113 0 -113 -49v-1q0 -46 113 -46q114 0 114 46v1zM331 278q-77 0 -131 15t-79 38.5t-34.5 45t-9.5 42.5v2h164q21 -31 103 -31q69 0 96.5 31.5t27.5 70.5v2q-1 0 -5.5 -3l-7.5 -5t-10 -5.5t-14 -6t-16.5 -6t-21 -5.5t-25.5 -4t-31 -3t-36 -1h-8
q-132 0 -183.5 38t-51.5 105v6q0 159 258 159h40q66 0 116 -14.5t79 -37.5t47.5 -54.5t24.5 -61.5t6 -63v-15q0 -31 -5.5 -60.5t-23.5 -63t-45.5 -58t-76.5 -41t-113 -16.5h-34z" />
    <glyph glyph-name="space.tab" horiz-adv-x="460" 
 />
    <glyph glyph-name="comma.tab" horiz-adv-x="460" 
d="M162 -144q45 80 55 144h-104v194h233v-144q0 -102 -54 -194h-130z" />
    <glyph glyph-name="period.tab" horiz-adv-x="460" 
d="M346 0h-233v194h233v-194z" />
    <glyph glyph-name="colon.tab" horiz-adv-x="460" 
d="M346 0h-233v194h233v-194zM346 337h-233v194h233v-194z" />
    <glyph glyph-name="semicolon.tab" horiz-adv-x="460" 
d="M346 337h-233v194h233v-194zM162 -144q45 80 55 144h-104v194h233v-144q0 -102 -54 -194h-130z" />
    <glyph glyph-name="zero.lintab" 
d="M481 755q87 0 156.5 -25.5t110.5 -65t68 -90t37 -96t10 -89.5v-30q0 -43 -10 -88.5t-37 -97.5t-68 -91.5t-110.5 -66t-156.5 -26.5h-42q-87 0 -156 26t-110 66t-68.5 91.5t-37.5 97.5t-10 89v30q0 45 10 91t37.5 96.5t68.5 89t110 64t156 25.5h42zM651 384q0 30 -8 61
t-27.5 64.5t-59.5 55t-96 21.5q-46 0 -81.5 -15t-55.5 -36.5t-32.5 -50.5t-16.5 -53t-4 -47v-14q0 -30 8.5 -62t28 -66t59.5 -56t95 -22t94.5 21.5t59 56t28 66.5t8.5 62v14z" />
    <glyph glyph-name="one.lintab" 
d="M130 0v158h270v332h-211v143q128 0 182 23.5t78 87.5h156v-586h260v-158h-735z" />
    <glyph glyph-name="two.lintab" 
d="M69 0v120q0 30 2.5 50.5t12 48t30.5 49.5t54.5 46.5t87.5 48t127 45.5q11 4 128 35q70 17 94 34t24 44q0 37 -33.5 55t-121.5 18q-165 0 -174 -118h-219v7q0 35 8 68.5t32.5 71.5t63 65.5t106 46t154.5 18.5h45q193 0 275.5 -60.5t82.5 -169.5v-8q0 -97 -63 -146.5
t-220 -79.5l-146 -31q-69 -16 -107 -31.5t-48 -26t-10 -22.5h611v-178h-796z" />
    <glyph glyph-name="three.lintab" 
d="M427 -11q-91 0 -161 19t-109.5 46.5t-64.5 64t-33 66.5t-8 59v9h220q11 -98 182 -98q112 0 151 23.5t39 63.5q0 35 -20.5 51t-79.5 16h-246v151h245q55 0 73 14.5t18 45.5q0 17 -6.5 28.5t-24.5 22.5t-55.5 16.5t-95.5 5.5q-166 0 -176 -77h-214v11q0 24 6.5 50t29.5 59
t59 57.5t103 42t154 17.5h56q369 0 369 -191v-7q0 -108 -111 -138q58 -14 96 -55.5t38 -114.5v-7q0 -39 -10 -72.5t-36.5 -67t-69 -57.5t-113.5 -39t-163 -15h-42z" />
    <glyph glyph-name="four.lintab" 
d="M53 293l402 456h273v-427h154v-160h-154v-162h-204v162h-471v131zM524 608l-253 -286h253v286z" />
    <glyph glyph-name="five.lintab" 
d="M451 -11q-90 0 -159.5 16.5t-108.5 40.5t-64 55.5t-33 57t-8 49.5v14h217q3 -14 15.5 -27t55 -26.5t107.5 -13.5q185 0 185 92v6q0 46 -42.5 67.5t-142.5 21.5q-160 0 -180 -58h-204v460h722v-169h-518v-138q8 8 28 19t75 25t122 14h10q95 0 163.5 -19t104.5 -53
t51.5 -73t15.5 -86v-12q0 -39 -10 -74t-36.5 -70.5t-67.5 -61t-107 -41.5t-151 -16h-40z" />
    <glyph glyph-name="six.lintab" 
d="M448 -11q-98 0 -171.5 26t-114 63.5t-65.5 90t-32.5 95.5t-7.5 89v23q0 41 8 84.5t33.5 98t66 96t114 70t169.5 28.5h30q107 0 182.5 -21t112.5 -56.5t52 -71t15 -76.5v-1h-204q0 5 -2.5 11.5t-12.5 17t-27 18.5t-50 14t-77 6q-51 0 -89.5 -14t-59 -34.5t-33 -48
t-15.5 -49t-3 -43.5v-7q86 72 253 72h22q169 0 247 -59t78 -153v-17q0 -34 -7.5 -65t-32 -66.5t-63.5 -61t-107.5 -42.5t-159.5 -17h-49zM295 236q0 -35 39.5 -62t139.5 -27q181 0 181 88v6q0 84 -181 84q-179 0 -179 -84v-5z" />
    <glyph glyph-name="seven.lintab" 
d="M880 744v-154q-72 -106 -166 -249q-76 -115 -101 -180.5t-25 -140.5v-20h-225v48q0 90 32 156.5t130 176.5q15 17 37 41t36 39.5t31.5 35t28 32t20.5 24.5t14.5 19t4.5 10h-426v-129h-203v291h812z" />
    <glyph glyph-name="eight.lintab" 
d="M481 751q95 0 165 -14t107.5 -34t59 -49.5t27 -52t5.5 -50.5v-12q0 -57 -44.5 -97.5t-104.5 -51.5q72 -13 119.5 -57t47.5 -109v-13q0 -29 -6.5 -55t-30 -58t-63 -55t-112.5 -39t-170 -16h-42q-71 0 -129 8.5t-97 21.5t-68.5 32.5t-45.5 38.5t-26 42.5t-13 41.5t-3 38v13
q0 65 48 109t118 57q-60 11 -104 50t-44 99v12q0 27 5.5 50.5t27.5 52.5t59.5 49t107 34t164.5 14h42zM460 600q-168 0 -168 -69v-4q0 -65 168 -65q167 0 167 65v4q0 69 -167 69zM460 310q-186 0 -186 -75v-3q0 -84 186 -84t186 84v3q0 75 -186 75z" />
    <glyph glyph-name="nine.lintab" 
d="M625 506q0 35 -39.5 62t-139.5 27q-181 0 -181 -88v-6q0 -84 181 -84q179 0 179 84v5zM439 -11q-104 0 -179.5 22t-112 58t-52 71t-15.5 73v1h204q0 -4 2.5 -10.5t12.5 -16.5t27 -18.5t50 -14.5t77 -6q63 0 106 20t61.5 52.5t25.5 60t7 56.5v7q-85 -72 -253 -72h-22
q-167 0 -246 61t-79 152v16q0 35 7.5 66t31 66.5t62 61t106 42t156.5 16.5h61q95 0 167.5 -26t113 -64.5t65.5 -90.5t32.5 -95t7.5 -88v-23q0 -40 -8 -83t-33.5 -98t-66 -96.5t-113 -70.5t-166.5 -29h-37z" />
    <glyph glyph-name="Euro.lintab" 
d="M866 284q0 -50 -20 -99t-60 -94.5t-113 -73.5t-167 -28h-47q-84 0 -149.5 23t-106.5 63.5t-65.5 85t-37.5 96.5h-95v89h83v62h-83v89h97q13 51 38 94t66 81.5t106 60.5t147 22h47q93 0 165.5 -26.5t113 -70t61 -92.5t20.5 -101v-2h-213q-2 13 -9 29.5t-24 41t-54 40.5
t-88 16q-121 0 -161 -93h234v-89h-253q-1 -8 -1 -25v-14q0 -15 1 -23h253v-89h-232q43 -98 160 -98q51 0 88 16t54 41.5t23.5 41t8.5 29.5h213v-3z" />
    <glyph glyph-name="yen.lintab" 
d="M364 143h-257v89h257v62h-257v89h198l-295 361h240l219 -284l223 284h218l-285 -361h198v-89h-257v-62h257v-89h-257v-143h-202v143z" />
    <glyph glyph-name="sterling.lintab" 
d="M877 0h-837v153h63q94 0 94 79v2q0 35 -18 87h-139v101h108q-13 47 -13 87v8q0 105 79.5 170.5t250.5 65.5h36q345 0 345 -269v-2h-212q0 48 -35.5 83.5t-124.5 35.5q-75 0 -110 -32.5t-35 -85.5q0 -21 7 -61h321v-101h-303q4 -20 4 -49q0 -48 -21 -78t-46 -41h375v121
h211v-274z" />
    <glyph glyph-name="dollar.lintab" 
d="M276 543q0 -34 28.5 -54t105.5 -22v143q-76 -2 -105 -18.5t-29 -48.5zM646 228q0 37 -30 56.5t-109 21.5v-171q84 5 111.5 29.5t27.5 63.5zM410 -89v77q-75 3 -134 16t-95.5 33.5t-62 44t-37.5 52.5t-16.5 52t-4.5 48v11h215q2 -16 6.5 -29.5t17 -31.5t41 -30.5
t70.5 -17.5v172l-25 1q-171 6 -245 67.5t-74 155.5v9q0 42 14 76t49.5 65.5t106.5 50t174 20.5v78h97v-78q85 -2 147.5 -16.5t97.5 -35t56 -50t27.5 -56t6.5 -59.5v-11h-211q-4 21 -11.5 35t-36 29t-76.5 20v-145l29 -1q95 -3 160 -20t99.5 -48t48.5 -67.5t14 -85.5v-12
q0 -36 -7 -65.5t-29 -62.5t-59 -56.5t-102.5 -40t-153.5 -18.5v-76h-97z" />
    <glyph glyph-name="greater.lintab" 
d="M202 227l360 124l-360 123v148l521 -200v-143l-521 -202v150z" />
    <glyph glyph-name="less.lintab" 
d="M197 277v143l521 202v-150l-360 -124l360 -123v-148z" />
    <glyph glyph-name="plus.lintab" 
d="M535 287v-230h-150v230h-226v132h226v229h150v-229h226v-132h-226z" />
    <glyph glyph-name="minus.lintab" 
d="M753 421v-136h-586v136h586z" />
    <glyph glyph-name="multiply.lintab" 
d="M459 241l-166 -165l-98 95l167 165l-168 163l101 99l166 -164l167 165l98 -94l-168 -166l168 -165l-98 -98z" />
    <glyph glyph-name="divide.lintab" 
d="M562 523h-203v158h203v-158zM761 419v-132h-602v132h602zM562 21h-203v159h203v-159z" />
    <glyph glyph-name="equal.lintab" 
d="M748 523v-126h-576v126h576zM748 277v-126h-576v126h576z" />
    <glyph glyph-name="percent.lintab" 
d="M221 401q-55 0 -95.5 17t-61 44t-30 54t-9.5 55v14q0 64 46 116t150 52h16q104 0 150 -52t46 -116v-14q0 -28 -9.5 -55t-30 -54t-61 -44t-95.5 -17h-16zM859 744l-650 -744h-153l651 744h152zM313 581q0 32 -20.5 52t-63.5 20t-63.5 -20t-20.5 -52v-4q0 -31 20.5 -53
t63.5 -22t63.5 22t20.5 53v4zM683 -8q-55 0 -95.5 17t-61 44t-30 54t-9.5 55v14q0 64 46 116t150 52h16q104 0 150 -52t46 -116v-14q0 -28 -9.5 -55t-30 -54t-61 -44t-95.5 -17h-16zM775 172q0 32 -20.5 52t-63.5 20t-63.5 -20t-20.5 -52v-4q0 -31 20.5 -53t63.5 -22
t63.5 22t20.5 53v4z" />
    <glyph glyph-name="perthousand.lintab" 
d="M191 455q-47 0 -81.5 14t-51.5 37t-25 46.5t-8 46.5v12q0 24 8 46.5t25 45t51.5 36.5t81.5 14h14q47 0 81.5 -14t51.5 -36.5t25 -45t8 -46.5v-12q0 -23 -8 -46.5t-25 -46.5t-51.5 -37t-81.5 -14h-14zM264 608q0 55 -66 55t-66 -55v-3q0 -26 16 -42.5t50 -16.5t50 16.5
t16 42.5v3zM729 483l-704 -242v100l704 243v-101zM715 -8q-47 0 -81.5 14t-51.5 37t-25 46.5t-8 46.5v12q0 24 8 46.5t25 45t51.5 36.5t81.5 14h14q47 0 81.5 -14t51.5 -36.5t25 -45t8 -46.5v-12q0 -23 -8 -46.5t-25 -46.5t-51.5 -37t-81.5 -14h-14zM333 -8q-47 0 -81.5 14
t-51.5 37t-25 46.5t-8 46.5v12q0 24 8 46.5t25 45t51.5 36.5t81.5 14h14q47 0 81 -14t51.5 -36.5t25 -45t7.5 -46.5v-12q0 -54 -38.5 -99t-126.5 -45h-14zM788 145q0 55 -66 55t-66 -55v-3q0 -26 16 -42.5t50 -16.5t50 16.5t16 42.5v3zM405 145q0 55 -65 55q-66 0 -66 -55
v-3q0 -26 16 -42.5t50 -16.5q65 0 65 59v3z" />
    <glyph glyph-name="IJ.alt" horiz-adv-x="955" 
d="M298 0h-206v744h206v-744zM439 175h121q57 0 78 26.5t21 94.5v448h206v-495q0 -128 -52.5 -188.5t-173.5 -60.5h-200v175z" />
    <glyph glyph-name="a.alt2" horiz-adv-x="830" 
d="M398 421q-40 0 -69 -13t-44 -35t-22 -45t-7 -48v-3q0 -54 33.5 -97.5t108.5 -43.5h10q74 0 110 43t36 98v3q0 56 -35.5 98.5t-110.5 42.5h-10zM747 555v-555h-194v72q-75 -83 -207 -83h-13q-137 0 -207.5 84.5t-70.5 198.5v17q0 53 17 101t50.5 88t89 64t126.5 24h12
q129 0 202 -73v62h195z" />
    <glyph glyph-name="Jcircumflex.alt" horiz-adv-x="565" 
d="M49 175h121q57 0 78 26.5t21 94.5v448h206v-495q0 -128 -52.5 -188.5t-173.5 -60.5h-200v175zM625 803h-193l-63 63l-63 -63h-190l140 150h229z" />
    <glyph glyph-name="aacute.alt" horiz-adv-x="768" 
d="M343 111q77 0 115 37t38 77v43q-25 -10 -122 -26q-72 -12 -98 -25.5t-26 -42.5v-2q0 -61 93 -61zM502 78q-80 -89 -215 -89h-15q-109 0 -164 50.5t-55 125.5v4q0 75 56.5 117t192.5 54l152 13q23 2 32.5 10.5t9.5 25.5q0 16 -5.5 26t-33 19t-77.5 9q-112 0 -112 -61h-200
v2q0 21 4 40.5t21.5 47.5t47 47.5t87 34t135.5 14.5h31q79 0 136 -13t86 -31t46 -46t20.5 -48.5t3.5 -48.5v-196q0 -120 21 -185h-189q-14 31 -16 78zM370 766h218l-111 -149h-195z" />
    <glyph glyph-name="aacute.alt2" horiz-adv-x="830" 
d="M398 421q-40 0 -69 -13t-44 -35t-22 -45t-7 -48v-3q0 -54 33.5 -97.5t108.5 -43.5h10q74 0 110 43t36 98v3q0 56 -35.5 98.5t-110.5 42.5h-10zM747 555v-555h-194v72q-75 -83 -207 -83h-13q-137 0 -207.5 84.5t-70.5 198.5v17q0 53 17 101t50.5 88t89 64t126.5 24h12
q129 0 202 -73v62h195zM391 766h218l-111 -149h-195z" />
    <glyph glyph-name="abreve.alt" horiz-adv-x="768" 
d="M343 111q77 0 115 37t38 77v43q-25 -10 -122 -26q-72 -12 -98 -25.5t-26 -42.5v-2q0 -61 93 -61zM502 78q-80 -89 -215 -89h-15q-109 0 -164 50.5t-55 125.5v4q0 75 56.5 117t192.5 54l152 13q23 2 32.5 10.5t9.5 25.5q0 16 -5.5 26t-33 19t-77.5 9q-112 0 -112 -61h-200
v2q0 21 4 40.5t21.5 47.5t47 47.5t87 34t135.5 14.5h31q79 0 136 -13t86 -31t46 -46t20.5 -48.5t3.5 -48.5v-196q0 -120 21 -185h-189q-14 31 -16 78zM365 612q-56 0 -95.5 17t-58 44t-26 51t-7.5 48v3h147q0 -10 3 -20t16.5 -21.5t36.5 -11.5q21 0 34.5 11.5t16.5 22
t3 19.5h145v-3q0 -17 -5 -36.5t-18.5 -42t-33.5 -40t-53.5 -29.5t-74.5 -12h-30z" />
    <glyph glyph-name="abreve.alt2" horiz-adv-x="830" 
d="M398 421q-40 0 -69 -13t-44 -35t-22 -45t-7 -48v-3q0 -54 33.5 -97.5t108.5 -43.5h10q74 0 110 43t36 98v3q0 56 -35.5 98.5t-110.5 42.5h-10zM747 555v-555h-194v72q-75 -83 -207 -83h-13q-137 0 -207.5 84.5t-70.5 198.5v17q0 53 17 101t50.5 88t89 64t126.5 24h12
q129 0 202 -73v62h195zM395 612q-56 0 -95.5 17t-58 44t-26 51t-7.5 48v3h147q0 -10 3 -20t16.5 -21.5t36.5 -11.5q21 0 34.5 11.5t16.5 22t3 19.5h145v-3q0 -17 -5 -36.5t-18.5 -42t-33.5 -40t-53.5 -29.5t-74.5 -12h-30z" />
    <glyph glyph-name="acircumflex.alt" horiz-adv-x="768" 
d="M343 111q77 0 115 37t38 77v43q-25 -10 -122 -26q-72 -12 -98 -25.5t-26 -42.5v-2q0 -61 93 -61zM502 78q-80 -89 -215 -89h-15q-109 0 -164 50.5t-55 125.5v4q0 75 56.5 117t192.5 54l152 13q23 2 32.5 10.5t9.5 25.5q0 16 -5.5 26t-33 19t-77.5 9q-112 0 -112 -61h-200
v2q0 21 4 40.5t21.5 47.5t47 47.5t87 34t135.5 14.5h31q79 0 136 -13t86 -31t46 -46t20.5 -48.5t3.5 -48.5v-196q0 -120 21 -185h-189q-14 31 -16 78zM634 616h-195l-59 65l-59 -65h-191l136 150h231z" />
    <glyph glyph-name="acircumflex.alt2" horiz-adv-x="830" 
d="M398 421q-40 0 -69 -13t-44 -35t-22 -45t-7 -48v-3q0 -54 33.5 -97.5t108.5 -43.5h10q74 0 110 43t36 98v3q0 56 -35.5 98.5t-110.5 42.5h-10zM747 555v-555h-194v72q-75 -83 -207 -83h-13q-137 0 -207.5 84.5t-70.5 198.5v17q0 53 17 101t50.5 88t89 64t126.5 24h12
q129 0 202 -73v62h195zM664 616h-195l-59 65l-59 -65h-191l136 150h231z" />
    <glyph glyph-name="adieresis.alt" horiz-adv-x="768" 
d="M343 111q77 0 115 37t38 77v43q-25 -10 -122 -26q-72 -12 -98 -25.5t-26 -42.5v-2q0 -61 93 -61zM502 78q-80 -89 -215 -89h-15q-109 0 -164 50.5t-55 125.5v4q0 75 56.5 117t192.5 54l152 13q23 2 32.5 10.5t9.5 25.5q0 16 -5.5 26t-33 19t-77.5 9q-112 0 -112 -61h-200
v2q0 21 4 40.5t21.5 47.5t47 47.5t87 34t135.5 14.5h31q79 0 136 -13t86 -31t46 -46t20.5 -48.5t3.5 -48.5v-196q0 -120 21 -185h-189q-14 31 -16 78zM350 617h-191v140h191v-140zM601 617h-191v140h191v-140z" />
    <glyph glyph-name="adieresis.alt2" horiz-adv-x="830" 
d="M398 421q-40 0 -69 -13t-44 -35t-22 -45t-7 -48v-3q0 -54 33.5 -97.5t108.5 -43.5h10q74 0 110 43t36 98v3q0 56 -35.5 98.5t-110.5 42.5h-10zM747 555v-555h-194v72q-75 -83 -207 -83h-13q-137 0 -207.5 84.5t-70.5 198.5v17q0 53 17 101t50.5 88t89 64t126.5 24h12
q129 0 202 -73v62h195zM382 617h-191v140h191v-140zM633 617h-191v140h191v-140z" />
    <glyph glyph-name="agrave.alt" horiz-adv-x="768" 
d="M343 111q77 0 115 37t38 77v43q-25 -10 -122 -26q-72 -12 -98 -25.5t-26 -42.5v-2q0 -61 93 -61zM502 78q-80 -89 -215 -89h-15q-109 0 -164 50.5t-55 125.5v4q0 75 56.5 117t192.5 54l152 13q23 2 32.5 10.5t9.5 25.5q0 16 -5.5 26t-33 19t-77.5 9q-112 0 -112 -61h-200
v2q0 21 4 40.5t21.5 47.5t47 47.5t87 34t135.5 14.5h31q79 0 136 -13t86 -31t46 -46t20.5 -48.5t3.5 -48.5v-196q0 -120 21 -185h-189q-14 31 -16 78zM479 617h-195l-111 149h218z" />
    <glyph glyph-name="agrave.alt2" horiz-adv-x="830" 
d="M398 421q-40 0 -69 -13t-44 -35t-22 -45t-7 -48v-3q0 -54 33.5 -97.5t108.5 -43.5h10q74 0 110 43t36 98v3q0 56 -35.5 98.5t-110.5 42.5h-10zM747 555v-555h-194v72q-75 -83 -207 -83h-13q-137 0 -207.5 84.5t-70.5 198.5v17q0 53 17 101t50.5 88t89 64t126.5 24h12
q129 0 202 -73v62h195zM519 617h-195l-111 149h218z" />
    <glyph glyph-name="amacron.alt" horiz-adv-x="768" 
d="M343 111q77 0 115 37t38 77v43q-25 -10 -122 -26q-72 -12 -98 -25.5t-26 -42.5v-2q0 -61 93 -61zM502 78q-80 -89 -215 -89h-15q-109 0 -164 50.5t-55 125.5v4q0 75 56.5 117t192.5 54l152 13q23 2 32.5 10.5t9.5 25.5q0 16 -5.5 26t-33 19t-77.5 9q-112 0 -112 -61h-200
v2q0 21 4 40.5t21.5 47.5t47 47.5t87 34t135.5 14.5h31q79 0 136 -13t86 -31t46 -46t20.5 -48.5t3.5 -48.5v-196q0 -120 21 -185h-189q-14 31 -16 78zM197 748h366v-118h-366v118z" />
    <glyph glyph-name="amacron.alt2" horiz-adv-x="830" 
d="M398 421q-40 0 -69 -13t-44 -35t-22 -45t-7 -48v-3q0 -54 33.5 -97.5t108.5 -43.5h10q74 0 110 43t36 98v3q0 56 -35.5 98.5t-110.5 42.5h-10zM747 555v-555h-194v72q-75 -83 -207 -83h-13q-137 0 -207.5 84.5t-70.5 198.5v17q0 53 17 101t50.5 88t89 64t126.5 24h12
q129 0 202 -73v62h195zM227 748h366v-118h-366v118z" />
    <glyph glyph-name="aogonek.alt" horiz-adv-x="768" 
d="M343 111q77 0 115 37t38 77v43q-25 -10 -122 -26q-72 -12 -98 -25.5t-26 -42.5v-2q0 -61 93 -61zM502 78q-80 -89 -215 -89h-15q-109 0 -164 50.5t-55 125.5v4q0 75 56.5 117t192.5 54l152 13q23 2 32.5 10.5t9.5 25.5q0 16 -5.5 26t-33 19t-77.5 9q-112 0 -112 -61h-200
v2q0 21 4 40.5t21.5 47.5t47 47.5t87 34t135.5 14.5h31q79 0 136 -13t86 -31t46 -46t20.5 -48.5t3.5 -48.5v-196q0 -120 21 -185h-189q-14 31 -16 78zM576 -193q-131 0 -131 76v2q0 39 44 65t133 50h85q-39 -24 -55.5 -39t-16.5 -31q0 -25 38 -25h45v-98h-142z" />
    <glyph glyph-name="aogonek.alt2" horiz-adv-x="830" 
d="M398 421q-40 0 -69 -13t-44 -35t-22 -45t-7 -48v-3q0 -54 33.5 -97.5t108.5 -43.5h10q74 0 110 43t36 98v3q0 56 -35.5 98.5t-110.5 42.5h-10zM747 555v-555h-194v72q-75 -83 -207 -83h-13q-137 0 -207.5 84.5t-70.5 198.5v17q0 53 17 101t50.5 88t89 64t126.5 24h12
q129 0 202 -73v62h195zM616 -193q-131 0 -131 76v2q0 39 44 65t133 50h85q-39 -24 -55.5 -39t-16.5 -31q0 -25 38 -25h45v-98h-142z" />
    <glyph glyph-name="aring.alt" horiz-adv-x="768" 
d="M343 111q77 0 115 37t38 77v43q-25 -10 -122 -26q-72 -12 -98 -25.5t-26 -42.5v-2q0 -61 93 -61zM502 78q-80 -89 -215 -89h-15q-109 0 -164 50.5t-55 125.5v4q0 75 56.5 117t192.5 54l152 13q23 2 32.5 10.5t9.5 25.5q0 16 -5.5 26t-33 19t-77.5 9q-112 0 -112 -61h-200
v2q0 21 4 40.5t21.5 47.5t47 47.5t87 34t135.5 14.5h31q79 0 136 -13t86 -31t46 -46t20.5 -48.5t3.5 -48.5v-196q0 -120 21 -185h-189q-14 31 -16 78zM212 741q0 57 40 93t128 36t128.5 -36t40.5 -93q0 -58 -40 -94t-129 -36t-128.5 36t-39.5 94zM313 741q0 -24 17 -40
t50 -16t50.5 16t17.5 40t-17 39t-51 15q-67 0 -67 -54z" />
    <glyph glyph-name="aring.alt2" horiz-adv-x="830" 
d="M398 421q-40 0 -69 -13t-44 -35t-22 -45t-7 -48v-3q0 -54 33.5 -97.5t108.5 -43.5h10q74 0 110 43t36 98v3q0 56 -35.5 98.5t-110.5 42.5h-10zM747 555v-555h-194v72q-75 -83 -207 -83h-13q-137 0 -207.5 84.5t-70.5 198.5v17q0 53 17 101t50.5 88t89 64t126.5 24h12
q129 0 202 -73v62h195zM233 741q0 57 40 93t128 36t128.5 -36t40.5 -93q0 -58 -40 -94t-129 -36t-128.5 36t-39.5 94zM334 741q0 -24 17 -40t50 -16t50.5 16t17.5 40t-17 39t-51 15q-67 0 -67 -54z" />
    <glyph glyph-name="aringacute.alt" horiz-adv-x="768" 
d="M343 111q77 0 115 37t38 77v43q-25 -10 -122 -26q-72 -12 -98 -25.5t-26 -42.5v-2q0 -61 93 -61zM502 78q-80 -89 -215 -89h-15q-109 0 -164 50.5t-55 125.5v4q0 75 56.5 117t192.5 54l152 13q23 2 32.5 10.5t9.5 25.5q0 16 -5.5 26t-33 19t-77.5 9q-112 0 -112 -61h-200
v2q0 21 4 40.5t21.5 47.5t47 47.5t87 34t135.5 14.5h31q79 0 136 -13t86 -31t46 -46t20.5 -48.5t3.5 -48.5v-196q0 -120 21 -185h-189q-14 31 -16 78zM212 741q0 57 40 93t128 36t128.5 -36t40.5 -93q0 -58 -40 -94t-129 -36t-128.5 36t-39.5 94zM313 741q0 -24 17 -40
t50 -16t50.5 16t17.5 40t-17 39t-51 15q-67 0 -67 -54zM370 1054h218l-111 -149h-195z" />
    <glyph glyph-name="aringacute.alt2" horiz-adv-x="830" 
d="M398 421q-40 0 -69 -13t-44 -35t-22 -45t-7 -48v-3q0 -54 33.5 -97.5t108.5 -43.5h10q74 0 110 43t36 98v3q0 56 -35.5 98.5t-110.5 42.5h-10zM747 555v-555h-194v72q-75 -83 -207 -83h-13q-137 0 -207.5 84.5t-70.5 198.5v17q0 53 17 101t50.5 88t89 64t126.5 24h12
q129 0 202 -73v62h195zM233 741q0 57 40 93t128 36t128.5 -36t40.5 -93q0 -58 -40 -94t-129 -36t-128.5 36t-39.5 94zM334 741q0 -24 17 -40t50 -16t50.5 16t17.5 40t-17 39t-51 15q-67 0 -67 -54zM391 1054h218l-111 -149h-195z" />
    <glyph glyph-name="atilde.alt" horiz-adv-x="768" 
d="M343 111q77 0 115 37t38 77v43q-25 -10 -122 -26q-72 -12 -98 -25.5t-26 -42.5v-2q0 -61 93 -61zM502 78q-80 -89 -215 -89h-15q-109 0 -164 50.5t-55 125.5v4q0 75 56.5 117t192.5 54l152 13q23 2 32.5 10.5t9.5 25.5q0 16 -5.5 26t-33 19t-77.5 9q-112 0 -112 -61h-200
v2q0 21 4 40.5t21.5 47.5t47 47.5t87 34t135.5 14.5h31q79 0 136 -13t86 -31t46 -46t20.5 -48.5t3.5 -48.5v-196q0 -120 21 -185h-189q-14 31 -16 78zM567 718q0 -39 -19.5 -68.5t-66.5 -29.5h-2q-41 0 -110 35q-41 21 -50 21q-14 0 -14 -22v-40h-112v79q0 39 19.5 68.5
t66.5 29.5h2q41 0 110 -35q41 -21 50 -21q14 0 14 22v40h112v-79z" />
    <glyph glyph-name="atilde.alt2" horiz-adv-x="830" 
d="M398 421q-40 0 -69 -13t-44 -35t-22 -45t-7 -48v-3q0 -54 33.5 -97.5t108.5 -43.5h10q74 0 110 43t36 98v3q0 56 -35.5 98.5t-110.5 42.5h-10zM747 555v-555h-194v72q-75 -83 -207 -83h-13q-137 0 -207.5 84.5t-70.5 198.5v17q0 53 17 101t50.5 88t89 64t126.5 24h12
q129 0 202 -73v62h195zM596 718q0 -39 -19.5 -68.5t-66.5 -29.5h-2q-41 0 -110 35q-41 21 -50 21q-14 0 -14 -22v-40h-112v79q0 39 19.5 68.5t66.5 29.5h2q41 0 110 -35q41 -21 50 -21q14 0 14 22v40h112v-79z" />
    <glyph glyph-name="racute.alt" horiz-adv-x="539" 
d="M83 555h193v-115q69 127 224 127h2v-210q-18 5 -77 5q-147 0 -147 -113v-249h-195v555zM308 766h218l-111 -149h-195z" />
    <glyph glyph-name="rcaron.alt" horiz-adv-x="539" 
d="M83 555h193v-115q69 127 224 127h2v-210q-18 5 -77 5q-147 0 -147 -113v-249h-195v555zM56 766h195l59 -64l59 64h191l-136 -149h-231z" />
    <glyph glyph-name="rcommaaccent.alt" horiz-adv-x="539" 
d="M83 555h193v-115q69 127 224 127h2v-210q-18 5 -77 5q-147 0 -147 -113v-249h-195v555zM149 -280q22 44 29 84h-104v134h214v-111q0 -52 -30 -107h-109z" />
    <glyph glyph-name="space_uni0326.alt" horiz-adv-x="783" 
d="M424 835q-22 -44 -29 -84h104v-134h-214v111q0 52 30 107h109z" />
    <glyph glyph-name="ordfeminine.alt" horiz-adv-x="643" 
d="M282 402q55 0 87 28.5t32 71.5v15l-131 -22q-56 -9 -56 -48q0 -20 17 -32.5t51 -12.5zM407 377q-16 -25 -57.5 -47t-108.5 -22h-8q-87 0 -129.5 39.5t-42.5 99.5v5q0 58 41.5 87.5t125.5 38.5l147 13q15 2 20.5 7.5t5.5 16.5q0 38 -88 38h-7q-86 0 -86 -40h-150v1
q0 16 3.5 31.5t17 36t36 35t64.5 24.5t98 10h39q73 0 121 -12t69.5 -33.5t28.5 -42t7 -47.5v-157q0 -91 15 -144h-151q-9 28 -11 62z" />
    <glyph glyph-name="ordfeminine.alt2" horiz-adv-x="683" 
d="M327 636q-52 0 -75 -32t-23 -74v-1q0 -40 23 -74t75 -34h8q51 0 75 32.5t24 73.5v3q0 41 -25 73.5t-74 32.5h-8zM592 744v-429h-156v55q-47 -62 -148 -62h-9q-106 0 -161.5 64.5t-55.5 150.5v16q0 86 55.5 149t160.5 63h6q92 0 152 -52v45h156z" />
    <glyph glyph-name="caron.alt" horiz-adv-x="700" 
d="M277 766h164l-28 -149h-153z" />
    <glyph glyph-name="plus.uc" horiz-adv-x="673" 
d="M412 293v-191h-150v191h-188v132h188v190h150v-190h187v-132h-187z" />
    <glyph glyph-name="minus.uc" horiz-adv-x="656" 
d="M582 427v-136h-508v136h508z" />
    <glyph glyph-name="multiply.uc" horiz-adv-x="604" 
d="M301 251l-146 -145l-98 95l146 145l-147 143l101 99l146 -144l147 145l98 -94l-148 -146l148 -145l-98 -98z" />
    <glyph glyph-name="divide.uc" horiz-adv-x="673" 
d="M438 495h-203v158h203v-158zM599 425v-132h-525v132h525zM438 61h-203v159h203v-159z" />
    <glyph glyph-name="equal.uc" horiz-adv-x="666" 
d="M587 529v-126h-508v126h508zM587 317v-126h-508v126h508z" />
    <glyph glyph-name="less.uc" horiz-adv-x="605" 
d="M79 287v143l447 175v-150l-285 -97l285 -96v-148z" />
    <glyph glyph-name="greater.uc" horiz-adv-x="605" 
d="M79 262l285 96l-285 97v150l447 -175v-143l-447 -173v148z" />
    <glyph glyph-name="questiondown.uc" horiz-adv-x="806" 
d="M531 502v-50q0 -63 -29.5 -97t-118.5 -67l-48 -18q-47 -18 -63.5 -32.5t-16.5 -35.5q0 -18 9 -30t44 -21t98 -9q49 0 81.5 9.5t45 26t17 29.5t5.5 28v5h211v-12q0 -237 -332 -237h-56q-93 0 -160.5 17t-103.5 47t-52 64.5t-16 76.5v7q0 69 39.5 114.5t134.5 78.5l49 17
q40 15 54 29.5t14 46.5v13h194zM326 744h215v-177h-215v177z" />
    <glyph glyph-name="exclamdown.uc" horiz-adv-x="378" 
d="M77 0l64 502h95l65 -502h-224zM81 744h215v-177h-215v177z" />
    <glyph glyph-name="hyphen.uc" horiz-adv-x="477" 
d="M403 420v-163h-329v163h329z" />
    <glyph glyph-name="endash.uc" horiz-adv-x="804" 
d="M730 409v-140h-656v140h656z" />
    <glyph glyph-name="emdash.uc" horiz-adv-x="1219" 
d="M1145 409v-140h-1071v140h1071z" />
    <glyph glyph-name="guilsinglleft.uc" horiz-adv-x="388" 
d="M175 139l-136 183l137 180h174l-138 -180l134 -183h-171z" />
    <glyph glyph-name="guilsinglright.uc" horiz-adv-x="388" 
d="M42 139l134 183l-138 180h174l137 -180l-136 -183h-171z" />
    <glyph glyph-name="guillemotleft.uc" horiz-adv-x="641" 
d="M437 139l-126 183l128 180h164l-130 -180l125 -183h-161zM168 139l-129 183l127 180h165l-128 -180l127 -183h-162z" />
    <glyph glyph-name="guillemotright.uc" horiz-adv-x="640" 
d="M43 140l124 183l-129 180h164l128 -180l-126 -183h-161zM311 140l126 183l-127 180h165l126 -180l-128 -183h-162z" />
    <glyph glyph-name="parenleft.uc" horiz-adv-x="368" 
d="M212 370q0 -125 38.5 -242.5t94.5 -208.5h-110q-181 201 -181 451q0 245 181 446h110q-133 -216 -133 -446z" />
    <glyph glyph-name="parenright.uc" horiz-adv-x="369" 
d="M156 370q0 125 -38.5 241.5t-94.5 204.5h111q181 -201 181 -446q0 -250 -181 -451h-111q56 87 94.5 206t38.5 245z" />
    <glyph glyph-name="bracketleft.uc" horiz-adv-x="401" 
d="M82 817h276v-107h-122v-684h122v-107h-276v898z" />
    <glyph glyph-name="bracketright.uc" horiz-adv-x="401" 
d="M43 26h123v684h-123v107h276v-898h-276v107z" />
    <glyph glyph-name="braceleft.uc" horiz-adv-x="392" 
d="M225 -80q-74 0 -112.5 31.5t-38.5 89.5q0 42 37 127.5t37 110.5q0 20 -9 28t-30 8h-68v112h68q21 0 30 7t9 24q0 25 -37 109.5t-37 128.5q0 61 36 91t115 30h124v-107h-84q-39 0 -39 -39q0 -22 28 -93.5t28 -104.5q0 -42 -20.5 -66t-67.5 -35q47 -9 67.5 -29.5
t20.5 -56.5q0 -35 -28 -114.5t-28 -101.5q0 -43 45 -43h78v-107h-124z" />
    <glyph glyph-name="braceright.uc" horiz-adv-x="392" 
d="M43 -80v107h78q45 0 45 43q0 22 -28 101.5t-28 114.5q0 36 20.5 56.5t67.5 29.5q-47 11 -67.5 35t-20.5 66q0 33 28 104.5t28 93.5q0 39 -39 39h-84v107h124q79 0 115 -30t36 -91q0 -44 -37 -128.5t-37 -109.5q0 -17 9 -24t30 -7h68v-112h-68q-21 0 -30 -8t-9 -28
q0 -25 37 -110.5t37 -127.5q0 -58 -38.5 -89.5t-112.5 -31.5h-124z" />
    <glyph glyph-name="slash.uc" horiz-adv-x="471" 
d="M153 -81h-151l308 897h152z" />
    <glyph glyph-name="backslash.uc" horiz-adv-x="471" 
d="M317 -81l-307 897h153l305 -897h-151z" />
    <glyph glyph-name="bar.uc" horiz-adv-x="375" 
d="M258 -81h-141v897h141v-897z" />
    <glyph glyph-name="at.uc" horiz-adv-x="1217" 
d="M625 -112q-566 0 -566 452v12q0 74 16.5 137t56.5 120t101.5 96.5t157 63t218.5 23.5h11q109 0 196 -14.5t144 -37t98 -57.5t62.5 -67t33.5 -74.5t14.5 -71.5t2.5 -66v-11q0 -56 -14.5 -106.5t-46 -97t-91.5 -74.5t-141 -28h-14q-117 0 -147 77q-65 -77 -184 -77h-13
q-61 0 -106 23t-68.5 60.5t-33 81.5t-4.5 91l5 50q9 84 62.5 141t155.5 57h13q126 0 193 -77l7 65h190l-39 -356q-2 -17 5.5 -28t23.5 -11q55 0 90.5 58t35.5 156v3q0 35 -1.5 57.5t-10.5 56.5t-25 56t-48 47t-76.5 39.5t-113 24.5t-155.5 10h-11q-123 0 -208.5 -26
t-130.5 -75t-63.5 -106.5t-18.5 -134.5v-12q0 -350 437 -350q280 0 417 81l32 -101q-28 -17 -70.5 -32.5t-146 -31.5t-232.5 -16zM594 217q62 0 92 32t34 84l1 17q3 52 -24.5 82t-83.5 30q-106 0 -115 -100l-2 -22q-4 -51 19 -87t79 -36z" />
    <glyph glyph-name="grave.uc" horiz-adv-x="700" 
d="M194 953h222l91 -148h-207z" />
    <glyph glyph-name="dieresis.uc" horiz-adv-x="700" 
d="M319 805h-194v140h194v-140zM575 805h-194v140h194v-140z" />
    <glyph glyph-name="macron.uc" horiz-adv-x="711" 
d="M167 938h377v-118h-377v118z" />
    <glyph glyph-name="acute.uc" horiz-adv-x="700" 
d="M194 805l91 148h222l-106 -148h-207z" />
    <glyph glyph-name="circumflex.uc" horiz-adv-x="700" 
d="M605 803h-193l-63 63l-63 -63h-190l140 150h229z" />
    <glyph glyph-name="caron.uc" horiz-adv-x="700" 
d="M95 953h194l63 -64l63 64h191l-140 -148h-231z" />
    <glyph glyph-name="breve.uc" horiz-adv-x="711" 
d="M341 800q-56 0 -96 17t-59 44t-27 51.5t-8 47.5v3h146q10 -53 60 -53q47 0 57 53h145v-3q0 -22 -9.5 -47.5t-29.5 -51.5t-59 -43.5t-90 -17.5h-30z" />
    <glyph glyph-name="dotaccent.uc" horiz-adv-x="700" 
d="M449 805h-199v140h199v-140z" />
    <glyph glyph-name="ring.uc" horiz-adv-x="711" 
d="M187 926q0 58 40 94t128 36q89 0 129 -36t40 -94q0 -57 -40 -93.5t-129 -36.5q-88 0 -128 36.5t-40 93.5zM423 926q0 25 -17 40t-51 15t-50.5 -15t-16.5 -40q0 -24 17 -40t50 -16t50.5 16t17.5 40z" />
    <glyph glyph-name="tilde.uc" horiz-adv-x="711" 
d="M269 800h-112v78q0 40 19.5 69t67.5 29h2q37 0 124 -36q48 -20 57 -20q14 0 14 22v40h112v-78q0 -40 -19.5 -69t-67.5 -29h-2q-37 0 -124 36q-48 20 -57 20q-14 0 -14 -22v-40z" />
    <glyph glyph-name="hungarumlaut.uc" horiz-adv-x="700" 
d="M164 953h183l-64 -148h-181zM413 953h185l-72 -148h-180z" />
    <glyph glyph-name="emdash.altuc" horiz-adv-x="2289" 
d="M2215 269h-2141v140h2141v-140z" />
    <glyph glyph-name="f.short" horiz-adv-x="516" 
d="M477 636h-78q-23 0 -33.5 -10.5t-10.5 -35.5v-35h122v-140h-122v-415h-194v415h-123v140h123v45q0 78 37.5 117.5t135.5 39.5h143v-121z" />
    <glyph glyph-name="f_f.short" horiz-adv-x="954" 
d="M161 0v415h-123v140h123v45q0 78 37.5 117.5t135.5 39.5h147v-121h-82q-23 0 -33.5 -10.5t-10.5 -35.5v-35h244v45q0 78 37.5 117.5t135.5 39.5h143v-121h-78q-23 0 -33.5 -10.5t-10.5 -35.5v-35h122v-140h-122v-415h-194v415h-244v-415h-194z" />
    <glyph glyph-name="j.short" horiz-adv-x="361" 
d="M280 617h-199v140h199v-140zM44 -46q22 0 30.5 10t8.5 34v557h195v-604q0 -142 -116 -142h-163v145h45z" />
    <glyph glyph-name="divide.uctab" 
d="M562 529h-203v158h203v-158zM761 425v-132h-602v132h602zM562 27h-203v159h203v-159z" />
    <glyph glyph-name="equal.uctab" 
d="M748 529v-126h-576v126h576zM748 283v-126h-576v126h576z" />
    <glyph glyph-name="florin.tab" 
d="M530 327l-36 -518h-190l35 518h-212v139h221l8 112q6 85 45.5 125.5t136.5 40.5h252v-139h-185q-32 0 -44.5 -11.5t-14.5 -39.5l-6 -88h250v-139h-260z" />
    <glyph glyph-name="greater.uctab" 
d="M202 233l360 124l-360 123v148l521 -200v-143l-521 -202v150z" />
    <glyph glyph-name="less.uctab" 
d="M197 283v143l521 202v-150l-360 -124l360 -123v-148z" />
    <glyph glyph-name="minus.uctab" 
d="M753 427v-136h-586v136h586z" />
    <glyph glyph-name="multiply.uctab" 
d="M459 247l-166 -165l-98 95l167 165l-168 163l101 99l166 -164l167 165l98 -94l-168 -166l168 -165l-98 -98z" />
    <glyph glyph-name="plus.uctab" 
d="M535 293v-230h-150v230h-226v132h226v229h150v-229h226v-132h-226z" />
    </font>
</defs>
</svg>
