<?xml version="1.0" standalone="no"?>
<!DOCTYPE svg PUBLIC "-//W3C//DTD SVG 1.1//EN" "http://www.w3.org/Graphics/SVG/1.1/DTD/svg11.dtd" >
<svg xmlns="http://www.w3.org/2000/svg" xmlns:xlink="http://www.w3.org/1999/xlink" version="1.1">
<metadata>
Created by FontForge 20170731 at Fri Oct  4 17:45:10 2013
 By Aleksey,,,
(c) 2012 Klim Type Foundry. All rights reserved.
</metadata>
<defs>
<font id="FoundersGroteskText-Medium" horiz-adv-x="620" >
  <font-face 
    font-family="Founders Grotesk Text Medium"
    font-weight="600"
    font-stretch="normal"
    units-per-em="1000"
    panose-1="2 11 6 3 3 2 2 6 2 4"
    ascent="770"
    descent="-230"
    x-height="441"
    cap-height="630"
    bbox="-130 -230 1235 1009"
    underline-thickness="0"
    underline-position="0"
    unicode-range="U+0020-FB04"
  />
<missing-glyph horiz-adv-x="608" 
 />
    <glyph glyph-name="ff" unicode="ff" horiz-adv-x="683" 
d="M215 0h-119v356h-75v85h75v18q0 79 49 126t124 47q82 0 127 -45l-46 -68q-24 27 -62 27q-73 0 -73 -88v-17h197v27q0 79 52.5 126.5t135.5 47.5q122 0 163 -90l-68 -53q-20 57 -83 57q-38 0 -60 -23.5t-22 -68.5v-23h118v-85h-118v-356h-118v356h-197v-356z" />
    <glyph glyph-name="fi" unicode="fi" horiz-adv-x="602" 
d="M215 0h-119v356h-75v85h75v9q0 85 58.5 138.5t154.5 53.5q142 0 189 -95l-83 -48q-19 59 -97 59q-51 0 -77 -29t-26 -81v-7h317v-441h-120v356h-197v-356z" />
    <glyph glyph-name="fl" unicode="fl" horiz-adv-x="602" 
d="M412 630h120v-630h-120v630zM96 441v28q0 79 49 126t126 47q56 0 94 -24l-28 -81q-21 19 -53 19q-69 0 -69 -85v-30h112v-85h-112v-356h-119v356h-75v85h75z" />
    <glyph glyph-name="ffi" unicode="ffi" horiz-adv-x="918" 
d="M215 441h197v9q0 85 58.5 138.5t154.5 53.5q141 0 188 -95l-82 -48q-20 59 -98 59q-51 0 -77 -29t-26 -81v-7h317v-441h-120v356h-197v-356h-118v356h-197v-356h-119v356h-75v85h75v18q0 79 49 126t124 47q82 0 127 -45l-46 -68q-24 27 -62 27q-73 0 -73 -88v-17z" />
    <glyph glyph-name="ffl" unicode="ffl" horiz-adv-x="918" 
d="M727 630h120v-630h-120v630zM412 441v28q0 80 49 126.5t126 46.5q54 0 94 -24l-28 -81q-22 19 -53 19q-70 0 -70 -85v-30h113v-85h-113v-356h-118v356h-197v-356h-119v356h-75v85h75v18q0 79 49 126t124 47q82 0 127 -45l-46 -68q-24 27 -62 27q-73 0 -73 -88v-17h197z
" />
    <glyph glyph-name="f_b" unicode="fb" horiz-adv-x="931" 
d="M680 -12q-55 0 -96 26.5t-58 71.5l-26 -86h-88v630h120v-276q17 45 56 72t96 27q95 0 151 -66.5t56 -166.5t-56.5 -166t-154.5 -66zM21 441h75v28q0 79 49 126t126 47q52 0 91 -22l-19 -85q-21 21 -55 21q-73 0 -73 -88v-27h112v-85h-112v-356h-119v356h-75v85zM648 363
q-51 0 -85 -36.5t-34 -96.5v-19q0 -60 34 -96.5t85 -36.5q57 0 89 39t32 103t-32 103.5t-89 39.5z" />
    <glyph glyph-name="f_f_b" unicode="ffb" horiz-adv-x="1247" 
d="M842 86l-26 -86h-89v630h120v-276q18 45 57 72t96 27q95 0 151 -66.5t56 -166.5t-56.5 -166t-154.5 -66q-55 0 -96 26.5t-58 71.5zM844 230v-19q0 -59 34 -96t85 -37q57 0 89.5 39.5t32.5 102.5q0 64 -32.5 103.5t-89.5 39.5q-51 0 -85 -37t-34 -96zM215 441h197v28
q0 80 49 126.5t126 46.5q54 0 94 -24l-28 -81q-22 19 -53 19q-70 0 -70 -85v-30h113v-85h-113v-356h-118v356h-197v-356h-119v356h-75v85h75v18q0 79 49 126t124 47q82 0 127 -45l-46 -68q-24 27 -62 27q-73 0 -73 -88v-17z" />
    <glyph glyph-name="f_f_h" unicode="ffh" horiz-adv-x="1236" 
d="M847 630v-272q17 41 60 68t96 27q84 0 125.5 -49.5t41.5 -128.5v-275h-119v251q0 51 -24 79t-70 28q-49 0 -79.5 -36t-30.5 -94v-228h-119v630h119zM215 441h197v28q0 80 49 126.5t126 46.5q54 0 94 -24l-28 -81q-22 19 -53 19q-70 0 -70 -85v-30h113v-85h-113v-356h-118
v356h-197v-356h-119v356h-75v85h75v18q0 79 49 126t124 47q82 0 127 -45l-46 -68q-24 27 -62 27q-73 0 -73 -88v-17z" />
    <glyph glyph-name="f_f_idieresis" unicode="ff&#xef;" horiz-adv-x="813" 
d="M718 509v117h110v-117h-110zM355 357h-159v-357h-118v357h-66v84h66v34q0 73 40 115t110 42q61 0 112 -32l-25 -76q-30 20 -63 20q-56 0 -56 -66v-37h159v32q0 77 46.5 123t122.5 46q123 0 151 -108l-85 -28q-15 49 -60 49q-27 0 -41.5 -18.5t-14.5 -49.5v-46h279v-441
h-120v357h-159v-357h-119v357z" />
    <glyph glyph-name="f_f_j" unicode="ffj" horiz-adv-x="918" 
d="M215 441h197v9q0 85 58.5 138.5t154.5 53.5q141 0 188 -95l-82 -48q-20 59 -98 59q-51 0 -77 -29t-26 -81v-7h317v-480q0 -137 -138 -137q-65 0 -114 32l23 70q37 -21 70 -21q39 0 39 43v408h-197v-356h-118v356h-197v-356h-119v356h-75v85h75v18q0 79 49 126t124 47
q82 0 127 -45l-46 -68q-24 27 -62 27q-73 0 -73 -88v-17z" />
    <glyph glyph-name="f_f_k" unicode="ffk" horiz-adv-x="1215" 
d="M215 441h197v28q0 80 49 126.5t126 46.5q54 0 94 -24l-28 -81q-22 19 -53 19q-70 0 -70 -85v-30h113v-85h-113v-356h-118v356h-197v-356h-119v356h-75v85h75v18q0 79 49 126t124 47q82 0 127 -45l-46 -68q-24 27 -62 27q-73 0 -73 -88v-17zM847 137v-137h-120v630h120
v-383l213 194h135l-196 -172l204 -269h-137l-151 198z" />
    <glyph glyph-name="f_h" unicode="fh" horiz-adv-x="920" 
d="M21 441h75v28q0 79 49 126t126 47q56 0 94 -24l-28 -81q-21 19 -53 19q-69 0 -69 -85v-30h112v-85h-112v-356h-119v356h-75v85zM532 630v-272q16 41 59 68t96 27q84 0 125.5 -49.5t41.5 -128.5v-275h-119v251q0 51 -24 79t-70 28q-49 0 -79 -36t-30 -94v-228h-120v630
h120z" />
    <glyph glyph-name="f_idieresis" unicode="f&#xef;" horiz-adv-x="535" 
d="M441 509v117h110v-117h-110zM78 357h-66v84h66v32q0 78 46 123.5t122 45.5q122 0 152 -108l-86 -28q-15 49 -59 49q-27 0 -42 -18.5t-15 -49.5v-46h279v-441h-120v357h-159v-357h-118v357z" />
    <glyph glyph-name="f_j" unicode="fj" horiz-adv-x="602" 
d="M393 -176q-66 0 -113 32l22 70q37 -21 70 -21q40 0 40 43v408h-197v-356h-119v356h-75v85h75v9q0 85 58.5 138.5t154.5 53.5q142 0 189 -95l-83 -48q-19 59 -97 59q-51 0 -77 -29t-26 -81v-7h317v-480q0 -137 -139 -137z" />
    <glyph glyph-name="f_k" unicode="fk" horiz-adv-x="904" 
d="M21 441h75v28q0 79 49 126t126 47q56 0 94 -24l-28 -81q-21 19 -53 19q-69 0 -69 -85v-30h112v-85h-112v-356h-119v356h-75v85zM600 198l-68 -61v-137h-120v630h120v-383l213 194h135l-196 -172l204 -269h-137z" />
    <glyph glyph-name=".notdef" horiz-adv-x="608" 
 />
    <glyph glyph-name=".null" horiz-adv-x="0" 
 />
    <glyph glyph-name="nonmarkingreturn" horiz-adv-x="333" 
 />
    <glyph glyph-name="space" unicode=" " horiz-adv-x="256" 
 />
    <glyph glyph-name="exclam" unicode="!" horiz-adv-x="250" 
d="M61 630h128v-178l-29 -246h-70l-29 246v178zM58 0v134h134v-134h-134z" />
    <glyph glyph-name="quotedbl" unicode="&#x22;" horiz-adv-x="399" 
d="M240 360v270h99v-270h-99zM60 360v270h98v-270h-98z" />
    <glyph glyph-name="numbersign" unicode="#" horiz-adv-x="655" 
d="M382 244l34 142h-143l-34 -142h143zM324 0l40 166h-143l-40 -166h-94l40 166h-97l16 78h99l34 142h-108l16 78h110l40 166h94l-40 -166h143l40 166h94l-40 -166h97l-15 -78h-100l-34 -142h108l-16 -78h-110l-40 -166h-94z" />
    <glyph glyph-name="dollar" unicode="$" horiz-adv-x="613" 
d="M254 386l22 -5v163q-48 -3 -79.5 -26.5t-31.5 -60.5q0 -31 22 -46t67 -25zM370 246l-26 6v-166q55 5 87 26.5t32 58.5q0 33 -22.5 49t-70.5 26zM344 -110h-68v99q-83 7 -150.5 41.5t-107.5 89.5l77 86q29 -49 76.5 -79.5t104.5 -38.5v179l-56 12q-172 36 -172 171
q0 82 62.5 135t165.5 57v94h68v-97q138 -17 215 -117l-80 -79q-42 78 -135 97v-173l47 -10q94 -21 141.5 -61.5t47.5 -116.5q0 -82 -66.5 -132.5t-169.5 -57.5v-99z" />
    <glyph glyph-name="percent" unicode="%" horiz-adv-x="889" 
d="M210 642q70 0 119 -49.5t49 -118.5t-49 -118t-119 -49q-69 0 -118 49t-49 118t49 118.5t118 49.5zM204 0l393 630h88l-393 -630h-88zM210 566q-36 0 -62 -26.5t-26 -65.5q0 -38 26 -64t62 -26q37 0 63 26t26 64q0 39 -26 65.5t-63 26.5zM679 -12q-70 0 -119 49.5
t-49 118.5t49 118t119 49q69 0 118 -49t49 -118t-49 -118.5t-118 -49.5zM679 64q36 0 62 26.5t26 65.5q0 38 -26 64t-62 26q-37 0 -63 -26t-26 -64q0 -39 26 -65.5t63 -26.5z" />
    <glyph glyph-name="ampersand" unicode="&#x26;" horiz-adv-x="691" 
d="M220 483q0 -18 10 -36.5t18.5 -29t28.5 -30.5q52 23 71.5 45t19.5 58q0 29 -18.5 49t-52.5 20t-55.5 -20.5t-21.5 -55.5zM261 79q65 0 123 37l-152 158q-78 -41 -78 -107q0 -42 30 -65t77 -23zM584 -8q-66 0 -133 58q-88 -62 -192 -62q-99 0 -161.5 46.5t-62.5 129.5
q0 58 33.5 98.5t102.5 76.5q-65 72 -65 140q0 74 55 118.5t138 44.5q84 0 131.5 -42t47.5 -107q0 -55 -33 -93t-108 -75l127 -129q39 56 61 134l108 -6q-31 -111 -102 -197q25 -25 43.5 -35.5t45.5 -10.5q23 0 52 7v-75q-33 -21 -88 -21z" />
    <glyph glyph-name="quotesingle" unicode="'" horiz-adv-x="224" 
d="M60 360v270h104v-270h-104z" />
    <glyph glyph-name="parenleft" unicode="(" horiz-adv-x="334" 
d="M52 288q0 102 37 200.5t104 171.5h113q-135 -154 -135 -372t135 -372h-113q-67 73 -104 171.5t-37 200.5z" />
    <glyph glyph-name="parenright" unicode=")" horiz-adv-x="334" 
d="M141 660q66 -72 103 -170.5t37 -201.5t-37 -201.5t-103 -170.5h-113q135 154 135 372t-135 372h113z" />
    <glyph glyph-name="asterisk" unicode="*" horiz-adv-x="386" 
d="M22 482l24 73l109 -37v117h77v-116l109 37l24 -73l-110 -36l69 -93l-63 -45l-68 93l-67 -94l-62 46l68 93z" />
    <glyph glyph-name="plus" unicode="+" horiz-adv-x="634" 
d="M576 261h-209v-209h-100v209h-209v100h209v210h100v-210h209v-100z" />
    <glyph glyph-name="comma" unicode="," horiz-adv-x="256" 
d="M60 0v137h136v-150q0 -135 -144 -135v65q69 0 69 69v14h-61z" />
    <glyph glyph-name="hyphen" unicode="-" horiz-adv-x="370" 
d="M61 203v105h248v-105h-248z" />
    <glyph glyph-name="period" unicode="." horiz-adv-x="256" 
d="M60 0v137h136v-137h-136z" />
    <glyph glyph-name="slash" unicode="/" horiz-adv-x="375" 
d="M2 -83l248 742h112l-249 -742h-111z" />
    <glyph glyph-name="zero" unicode="0" horiz-adv-x="647" 
d="M596 315q0 -156 -72.5 -241.5t-200.5 -85.5q-127 0 -199.5 86t-72.5 241t72.5 241t199.5 86q128 0 200.5 -85.5t72.5 -241.5zM464 315q0 115 -34 170.5t-107 55.5q-72 0 -106 -55.5t-34 -170.5t34 -170.5t106 -55.5q73 0 107 55.5t34 170.5z" />
    <glyph glyph-name="one" unicode="1" horiz-adv-x="421" 
d="M322 0h-126v446h-163v91h47q74 0 104 20t46 75h92v-632z" />
    <glyph glyph-name="two" unicode="2" horiz-adv-x="565" 
d="M238 106h290v-106h-480v84l178 145q61 50 88 75.5t48.5 61t21.5 71.5q0 45 -26 72t-75 27q-53 0 -82.5 -32t-29.5 -88q0 -31 9 -55l-123 5q-8 32 -8 59q0 99 64.5 158t169.5 59q110 0 170 -55.5t60 -142.5q0 -75 -44 -131.5t-132 -126.5z" />
    <glyph glyph-name="three" unicode="3" horiz-adv-x="569" 
d="M164 418l-119 25q10 88 74.5 143.5t166.5 55.5q107 0 167 -49.5t60 -130.5q0 -58 -40.5 -97.5t-93.5 -45.5q64 -7 105 -48.5t41 -101.5q0 -83 -65.5 -132t-173.5 -49q-109 0 -177 51.5t-79 140.5l120 28q4 -55 41.5 -87t95.5 -32q48 0 79 23.5t31 66.5t-33 66.5t-84 23.5
q-22 0 -54 -6v102q32 -5 55 -5q47 0 77.5 21t30.5 66q0 43 -28 68.5t-78 25.5q-52 0 -84 -33.5t-35 -89.5z" />
    <glyph glyph-name="four" unicode="4" horiz-adv-x="628" 
d="M486 630v-374h110v-104h-110v-152h-121v152h-325v121l289 357h157zM365 528l-221 -272h221v272z" />
    <glyph glyph-name="five" unicode="5" horiz-adv-x="572" 
d="M36 187l125 20q2 -54 37 -86.5t93 -32.5q54 0 87 32.5t33 87.5q0 52 -32 86.5t-88 34.5q-75 0 -113 -56l-114 18q34 198 38 339h394q6 -52 -16.5 -83t-77.5 -31q-47 0 -207 16q-9 -129 -20 -173q21 27 58.5 44.5t83.5 17.5q97 0 154.5 -61t57.5 -152q0 -99 -67.5 -159.5
t-171.5 -60.5q-108 0 -177 54.5t-77 144.5z" />
    <glyph glyph-name="six" unicode="6" horiz-adv-x="599" 
d="M545 478l-115 -22q-18 86 -110 86q-80 0 -117 -67t-35 -176q18 50 63 80.5t113 30.5q92 0 150 -58t58 -148q0 -98 -65.5 -157t-171.5 -59q-127 0 -195.5 85t-68.5 234q0 151 70 243t201 92q89 0 148 -43t75 -121zM191 203q0 -52 33 -84t89 -32q55 0 87.5 32t32.5 84
q0 54 -32.5 85t-89.5 31q-56 0 -88 -31t-32 -85z" />
    <glyph glyph-name="seven" unicode="7" horiz-adv-x="538" 
d="M367 514h-332v116h468v-84q-113 -114 -156.5 -245t-45.5 -301h-139q4 299 205 514z" />
    <glyph glyph-name="eight" unicode="8" horiz-adv-x="597" 
d="M298 -12q-119 0 -186 48.5t-67 132.5q0 58 41 100t96 53q-53 18 -84 55t-31 90q0 81 64 128t167 47q104 0 168 -47t64 -128q0 -53 -31.5 -90t-84.5 -55q56 -11 96.5 -53t40.5 -100q0 -84 -67 -132.5t-186 -48.5zM298 365q49 0 78 23.5t29 66.5q0 46 -29 70.5t-78 24.5
t-77.5 -24.5t-28.5 -70.5q0 -43 28.5 -66.5t77.5 -23.5zM298 82q58 0 90.5 25.5t32.5 72.5t-32 71.5t-91 24.5t-91 -24.5t-32 -71.5t32.5 -72.5t90.5 -25.5z" />
    <glyph glyph-name="nine" unicode="9" horiz-adv-x="599" 
d="M408 427q0 52 -33 84t-89 32q-55 0 -87.5 -32t-32.5 -84q0 -54 32.5 -85t89.5 -31q56 0 88 31t32 85zM54 152l115 22q18 -86 110 -86q80 0 117 67t35 176q-18 -50 -63 -80.5t-113 -30.5q-93 0 -150.5 58t-57.5 148q0 98 65.5 157t171.5 59q127 0 195.5 -85t68.5 -234
q0 -151 -70 -243t-201 -92q-89 0 -148 43t-75 121z" />
    <glyph glyph-name="colon" unicode=":" horiz-adv-x="256" 
d="M60 293v137h136v-137h-136zM60 0v137h136v-137h-136z" />
    <glyph glyph-name="semicolon" unicode=";" horiz-adv-x="256" 
d="M60 293v137h136v-137h-136zM60 0v137h136v-150q0 -135 -144 -135v65q69 0 69 69v14h-61z" />
    <glyph glyph-name="less" unicode="&#x3c;" horiz-adv-x="486" 
d="M45 242v134l396 190v-115l-305 -142l305 -142v-116z" />
    <glyph glyph-name="equal" unicode="=" horiz-adv-x="652" 
d="M66 358v94h519v-94h-519zM66 172v93h519v-93h-519z" />
    <glyph glyph-name="greater" unicode="&#x3e;" horiz-adv-x="486" 
d="M441 376v-134l-395 -191v116l303 142l-303 142v115z" />
    <glyph glyph-name="question" unicode="?" horiz-adv-x="537" 
d="M325 197h-115q1 39 16.5 67t54.5 58q4 3 16.5 13t16.5 13.5t14 13t13.5 14.5t10.5 14t9.5 17t4.5 18.5t2 21.5q0 41 -25 67t-72 26q-54 0 -81.5 -33t-27.5 -91q0 -21 3 -39l-121 8q-4 28 -4 40q0 99 63.5 158t168.5 59q108 0 166.5 -54t58.5 -136q0 -40 -18.5 -74.5
t-40 -55t-61.5 -50.5q-30 -24 -40.5 -38t-11.5 -37zM199 0v128h134v-128h-134z" />
    <glyph glyph-name="at" unicode="@" horiz-adv-x="787" 
d="M571 99q48 0 76 43.5t28 131.5q0 103 -64 163t-181 60q-142 0 -227 -87t-85 -229q0 -120 76 -187t197 -67q113 0 206 45l22 -57q-95 -57 -229 -57q-155 0 -253 86t-98 238q0 167 107.5 276t283.5 109q148 0 235 -82t87 -211q0 -116 -58.5 -178t-141.5 -62q-84 0 -107 68
q-38 -68 -115 -68q-59 0 -94 37.5t-35 104.5q0 87 50 151.5t130 64.5q39 0 66.5 -16t38.5 -43l14 51h98l-59 -231q-12 -54 32 -54zM450 203l6 22q10 44 -5 70t-51 26q-41 0 -67.5 -43.5t-26.5 -96.5q0 -71 54 -71q31 0 55.5 23.5t34.5 69.5z" />
    <glyph glyph-name="A" unicode="A" horiz-adv-x="688" 
d="M336 494l-92 -242h190l-94 242h-4zM532 0l-60 155h-265l-59 -155h-126l250 630h141l253 -630h-134z" />
    <glyph glyph-name="B" unicode="B" horiz-adv-x="679" 
d="M469 327q68 -10 113 -50t45 -104q0 -82 -59.5 -127.5t-169.5 -45.5h-320v630h304q115 0 171 -45.5t56 -125.5q0 -52 -40 -88t-100 -44zM200 528v-162h176q54 0 80.5 22t26.5 59t-26.5 59t-80.5 22h-176zM386 275h-186v-173h186q57 0 86.5 22.5t29.5 63.5q0 40 -29.5 63.5
t-86.5 23.5z" />
    <glyph glyph-name="C" unicode="C" horiz-adv-x="695" 
d="M542 239l115 -46q-26 -95 -100 -150t-189 -55q-136 0 -228 91.5t-92 235.5t92 235.5t230 91.5q105 0 176.5 -48t102.5 -132l-111 -57q-37 127 -169 127q-86 0 -138.5 -59t-52.5 -158t52.5 -158t136.5 -59q145 0 175 141z" />
    <glyph glyph-name="D" unicode="D" horiz-adv-x="717" 
d="M78 0v630h254q156 0 247 -84t91 -231t-91 -231t-247 -84h-254zM204 101h117q105 0 161.5 56.5t56.5 158.5q0 101 -57 157t-161 56h-117v-428z" />
    <glyph glyph-name="E" unicode="E" horiz-adv-x="639" 
d="M587 107v-107h-509v630h500v-107h-377v-147h284v-106h-284v-163h386z" />
    <glyph glyph-name="F" unicode="F" horiz-adv-x="615" 
d="M203 0h-125v630h494v-107h-369v-157h284v-106h-284v-260z" />
    <glyph glyph-name="G" unicode="G" horiz-adv-x="741" 
d="M654 470l-109 -61q-14 56 -58 89.5t-114 33.5q-87 0 -141 -59.5t-54 -157.5q0 -101 54.5 -160.5t145.5 -59.5q71 0 116 36.5t58 99.5h-208v89h325v-320h-88l-17 97q-23 -51 -79 -80t-127 -29q-134 0 -222 91t-88 236q0 143 94.5 235t230.5 92q106 0 178.5 -45t102.5 -127
z" />
    <glyph glyph-name="H" unicode="H" horiz-adv-x="747" 
d="M204 0h-126v630h126v-251h339v251h126v-630h-126v270h-339v-270z" />
    <glyph glyph-name="I" unicode="I" horiz-adv-x="281" 
d="M78 630h126v-630h-126v630z" />
    <glyph glyph-name="J" unicode="J" horiz-adv-x="593" 
d="M396 630h127v-402q0 -114 -67 -177t-174 -63q-115 0 -180.5 69t-61.5 188l129 25q-9 -81 20.5 -127.5t93.5 -46.5q113 0 113 140v394z" />
    <glyph glyph-name="K" unicode="K" horiz-adv-x="684" 
d="M666 0h-154l-217 292l-91 -94v-198h-126v630h126v-295l288 295h150l-255 -256z" />
    <glyph glyph-name="L" unicode="L" horiz-adv-x="619" 
d="M78 630h126v-520h372v-110h-498v630z" />
    <glyph glyph-name="M" unicode="M" horiz-adv-x="848" 
d="M454 0h-67l-187 511h-4v-511h-118v630h197l150 -422h3l143 422h200v-630h-129v511h-4z" />
    <glyph glyph-name="N" unicode="N" horiz-adv-x="715" 
d="M219 630l302 -432v432h116v-630h-111l-333 467v-467h-115v630h141z" />
    <glyph glyph-name="O" unicode="O" horiz-adv-x="746" 
d="M698 315q0 -144 -92.5 -235.5t-232.5 -91.5q-139 0 -232 91.5t-93 235.5t93 235.5t232 91.5q140 0 232.5 -91.5t92.5 -235.5zM568 315q0 98 -54 157.5t-141 59.5t-141 -59.5t-54 -157.5t54 -157.5t141 -59.5t141 59.5t54 157.5z" />
    <glyph glyph-name="P" unicode="P" horiz-adv-x="653" 
d="M366 235h-163v-235h-125v630h288q120 0 186.5 -51.5t66.5 -145.5t-66.5 -146t-186.5 -52zM203 337h158q136 0 136 96q0 95 -136 95h-158v-191z" />
    <glyph glyph-name="Q" unicode="Q" horiz-adv-x="746" 
d="M471 -169q-70 0 -110 42.5t-36 117.5q-121 16 -199 104.5t-78 219.5q0 144 93 235.5t232 91.5q140 0 232.5 -91.5t92.5 -235.5q0 -128 -75 -216t-193 -107q-2 -31 15 -50t47 -19q44 0 78 36l23 -88q-48 -40 -122 -40zM568 315q0 98 -54 157.5t-141 59.5t-141 -59.5
t-54 -157.5t54 -157.5t141 -59.5t141 59.5t54 157.5z" />
    <glyph glyph-name="R" unicode="R" horiz-adv-x="681" 
d="M202 528v-176h161q133 0 133 88t-130 88h-164zM648 0h-147q-23 21 -33 124q-5 67 -31 99t-80 32h-155v-255h-124v630h306q117 0 177 -48t60 -133q0 -60 -47.5 -101.5t-114.5 -45.5q51 -10 83 -47t42 -94q20 -120 64 -154v-7z" />
    <glyph glyph-name="S" unicode="S" horiz-adv-x="631" 
d="M24 116l79 91q34 -56 92.5 -86.5t126.5 -30.5q62 0 101 22t39 62q0 32 -23 47.5t-69 25.5l-142 29q-172 36 -172 174q0 86 67.5 139t178.5 53q172 0 266 -120l-85 -82q-58 100 -181 100q-54 0 -87 -22t-33 -60q0 -31 21.5 -45.5t65.5 -24.5l131 -28q93 -20 140.5 -62.5
t47.5 -118.5q0 -89 -75.5 -140t-190.5 -51q-98 0 -175.5 34t-122.5 94z" />
    <glyph glyph-name="T" unicode="T" horiz-adv-x="702" 
d="M412 0h-125v520h-247v110h622v-110h-250v-520z" />
    <glyph glyph-name="U" unicode="U" horiz-adv-x="701" 
d="M350 -12q-121 0 -200.5 69.5t-79.5 200.5v372h126v-355q0 -86 40 -133t114 -47q75 0 115 47t40 133v355h125v-372q0 -131 -79.5 -200.5t-200.5 -69.5z" />
    <glyph glyph-name="V" unicode="V" horiz-adv-x="676" 
d="M405 0h-135l-247 630h138l179 -480h4l177 480h132z" />
    <glyph glyph-name="W" unicode="W" horiz-adv-x="922" 
d="M521 630l124 -463h4l122 463h121l-170 -630h-139l-121 454h-4l-121 -454h-138l-169 630h125l123 -462h4l123 462h116z" />
    <glyph glyph-name="X" unicode="X" horiz-adv-x="696" 
d="M651 630l-231 -300l252 -330h-150l-176 236l-178 -236h-143l250 326l-231 304h150l156 -211l159 211h142z" />
    <glyph glyph-name="Y" unicode="Y" horiz-adv-x="647" 
d="M329 378l157 252h138l-239 -367v-263h-122v263l-240 367h147z" />
    <glyph glyph-name="Z" unicode="Z" horiz-adv-x="648" 
d="M213 110h383v-110h-543v99l373 421h-369v110h530v-102z" />
    <glyph glyph-name="bracketleft" unicode="[" horiz-adv-x="331" 
d="M186 574v-572h103v-86h-212v744h212v-86h-103z" />
    <glyph glyph-name="backslash" unicode="\" horiz-adv-x="375" 
d="M125 659l248 -742h-111l-248 742h111z" />
    <glyph glyph-name="bracketright" unicode="]" horiz-adv-x="331" 
d="M144 2v572h-102v86h211v-744h-211v86h102z" />
    <glyph glyph-name="asciicircum" unicode="^" horiz-adv-x="410" 
d="M144 630h122l125 -206h-112l-74 126l-74 -126h-112z" />
    <glyph glyph-name="underscore" unicode="_" horiz-adv-x="400" 
d="M29 -134v92h341v-92h-341z" />
    <glyph glyph-name="grave" unicode="`" horiz-adv-x="519" 
d="M350 508h-79l-103 152h125z" />
    <glyph glyph-name="a" unicode="a" horiz-adv-x="548" 
d="M159 295l-105 30q24 58 80 93t138 35q179 0 179 -148v-194q0 -37 34 -37q26 0 49 18l8 -76q-43 -27 -89 -27t-77 26t-36 66q-18 -40 -60.5 -64.5t-99.5 -24.5q-63 0 -102.5 34t-39.5 92q0 56 42 86.5t121 49.5l137 33v23q0 56 -71 56q-43 0 -72 -20.5t-36 -50.5zM338 180
v45l-100 -26q-41 -11 -62 -26.5t-21 -44.5q0 -25 17 -40t46 -15q48 0 84 30.5t36 76.5z" />
    <glyph glyph-name="b" unicode="b" horiz-adv-x="590" 
d="M185 86l-26 -86h-88v630h119v-276q18 45 57 72t96 27q95 0 151 -66.5t56 -166.5t-56.5 -166t-154.5 -66q-55 0 -96 26.5t-58 71.5zM187 230v-19q0 -60 34.5 -96.5t85.5 -36.5q57 0 89 39t32 103t-32 103.5t-89 39.5q-51 0 -85.5 -36.5t-34.5 -96.5z" />
    <glyph glyph-name="c" unicode="c" horiz-adv-x="516" 
d="M382 168l102 -33q-17 -65 -72 -106t-139 -41q-105 0 -171 64t-66 168t66.5 168.5t171.5 64.5q79 0 132 -36t73 -97l-101 -38q-25 79 -100 79q-54 0 -86.5 -37.5t-32.5 -103.5q0 -65 32.5 -102.5t85.5 -37.5q81 0 105 88z" />
    <glyph glyph-name="d" unicode="d" horiz-adv-x="590" 
d="M403 211v19q0 59 -34 96t-85 37q-57 0 -89.5 -39.5t-32.5 -103.5t32.5 -103t89.5 -39q51 0 85 37t34 96zM400 0v87q-18 -45 -57 -72t-96 -27q-95 0 -151 66t-56 166t56 166.5t151 66.5q57 0 96 -27t57 -72v276h120v-630h-120z" />
    <glyph glyph-name="e" unicode="e" horiz-adv-x="533" 
d="M399 150l92 -35q-48 -127 -213 -127q-105 0 -171.5 62.5t-66.5 163.5q0 104 67 171.5t168 67.5q104 0 161 -63t57 -155v-32h-335q1 -56 35.5 -91t88.5 -35q86 0 117 73zM161 265h221q-2 44 -30 73t-77 29q-47 0 -77 -29t-37 -73z" />
    <glyph glyph-name="f" unicode="f" horiz-adv-x="368" 
d="M96 356h-75v85h75v27q0 79 52.5 126.5t136.5 47.5q123 0 162 -90l-68 -53q-20 57 -83 57q-37 0 -59 -23.5t-22 -68.5v-23h118v-85h-118v-356h-119v356z" />
    <glyph glyph-name="g" unicode="g" horiz-adv-x="555" 
d="M344 305q0 36 -22.5 57.5t-57.5 21.5t-57.5 -21.5t-22.5 -57.5t22.5 -57.5t57.5 -21.5t57.5 21.5t22.5 57.5zM534 -20q0 -52 -40.5 -88.5t-100 -52t-130.5 -15.5q-104 0 -170.5 28.5t-66.5 87.5q0 32 25.5 55t66.5 28q-31 9 -48.5 31t-17.5 50q0 62 75 89q-61 40 -61 112
q0 68 54.5 108t142.5 40q80 0 135 -36q20 37 57.5 60t86.5 17l9 -94q-28 7 -59.5 -0.5t-50.5 -23.5q21 -32 21 -71q0 -67 -55.5 -107t-143.5 -40q-46 0 -90 13q-28 -13 -28 -37q0 -33 50 -33h187q71 0 111.5 -33t40.5 -88zM131 -48q0 -63 133 -63q69 0 112.5 17.5t43.5 50.5
q0 44 -70 44h-156q-27 0 -45 -13t-18 -36z" />
    <glyph glyph-name="h" unicode="h" horiz-adv-x="579" 
d="M190 630v-272q17 41 60 68t96 27q84 0 125.5 -49.5t41.5 -128.5v-275h-119v251q0 51 -24 79t-70 28q-49 0 -79.5 -36t-30.5 -94v-228h-119v630h119z" />
    <glyph glyph-name="i" unicode="i" horiz-adv-x="261" 
d="M65 520v110h131v-110h-131zM71 441h119v-441h-119v441z" />
    <glyph glyph-name="j" unicode="j" horiz-adv-x="261" 
d="M196 520h-131v110h131v-110zM190 441v-480q0 -137 -138 -137q-66 0 -113 32l22 70q37 -21 70 -21q40 0 40 43v493h119z" />
    <glyph glyph-name="k" unicode="k" horiz-adv-x="559" 
d="M190 137v-137h-119v630h119v-383l213 194h136l-197 -172l204 -269h-136l-152 198z" />
    <glyph glyph-name="l" unicode="l" horiz-adv-x="261" 
d="M71 630h119v-630h-119v630z" />
    <glyph glyph-name="m" unicode="m" horiz-adv-x="883" 
d="M490 352q16 43 61 72t105 29q82 0 121.5 -49.5t39.5 -128.5v-275h-120v251q0 51 -23.5 79t-66.5 28q-46 0 -74.5 -36t-28.5 -94v-228h-120v251q0 51 -23.5 79t-66.5 28q-46 0 -75 -36t-29 -94v-228h-119v441h119v-83q16 40 59 67.5t94 27.5q116 0 147 -101z" />
    <glyph glyph-name="n" unicode="n" horiz-adv-x="579" 
d="M190 228v-228h-119v441h119v-83q17 41 60 68t96 27q84 0 125.5 -49.5t41.5 -128.5v-275h-119v251q0 51 -24 79t-70 28q-49 0 -79.5 -36t-30.5 -94z" />
    <glyph glyph-name="o" unicode="o" horiz-adv-x="563" 
d="M523 220q0 -101 -69 -166.5t-173 -65.5q-103 0 -172 65.5t-69 166.5q0 102 69 167.5t172 65.5q104 0 173 -65.5t69 -167.5zM163 220q0 -65 31.5 -104t86.5 -39t87 39.5t32 103.5q0 65 -32 104.5t-87 39.5t-86.5 -39.5t-31.5 -104.5z" />
    <glyph glyph-name="p" unicode="p" horiz-adv-x="590" 
d="M187 230v-19q0 -60 34.5 -96.5t85.5 -36.5q57 0 89 39t32 103t-32 103.5t-89 39.5q-51 0 -85.5 -36.5t-34.5 -96.5zM190 87v-251h-119v605h119v-87q18 45 57 72t96 27q95 0 151 -66.5t56 -166.5t-56 -166t-151 -66q-57 0 -96 27t-57 72z" />
    <glyph glyph-name="q" unicode="q" horiz-adv-x="590" 
d="M400 -164v251q-18 -45 -57 -72t-96 -27q-95 0 -151 66t-56 166t56 166.5t151 66.5q57 0 96 -27t57 -72v87h119v-605h-119zM403 211v19q0 60 -34.5 96.5t-85.5 36.5q-57 0 -89 -39.5t-32 -103.5t32 -103t89 -39q51 0 85.5 36.5t34.5 96.5z" />
    <glyph glyph-name="r" unicode="r" horiz-adv-x="499" 
d="M301 353q-50 0 -80.5 -42.5t-30.5 -106.5v-204h-120v441h120v-98q18 46 55.5 78t90.5 32q64 0 99.5 -41.5t35.5 -109.5q0 -12 -2 -16l-99 -37q2 7 2 27q0 77 -71 77z" />
    <glyph glyph-name="s" unicode="s" horiz-adv-x="501" 
d="M30 87l74 60q21 -36 64 -56t90 -20q87 0 87 47q0 33 -58 46l-95 20q-139 29 -139 132q0 60 51.5 98.5t131.5 38.5q138 0 203 -89l-69 -55q-46 61 -134 61q-30 0 -51 -12t-21 -32q0 -32 50 -44l116 -26q126 -29 126 -125q0 -66 -54 -104.5t-143 -38.5q-72 0 -135 26
t-94 73z" />
    <glyph glyph-name="t" unicode="t" horiz-adv-x="461" 
d="M21 441h86v114l116 27v-141h173v-85h-173v-196q0 -36 18.5 -55.5t48.5 -19.5q33 0 51 16t39 55l59 -74q-22 -40 -65.5 -67t-101.5 -27q-72 0 -118.5 41t-46.5 121v206h-86v85z" />
    <glyph glyph-name="u" unicode="u" horiz-adv-x="577" 
d="M386 213v228h120v-441h-120v83q-16 -41 -59 -68t-96 -27q-84 0 -124.5 49.5t-40.5 128.5v275h120v-251q0 -107 91 -107q49 0 79 36t30 94z" />
    <glyph glyph-name="v" unicode="v" horiz-adv-x="524" 
d="M325 0h-126l-181 441h125l123 -315h4l124 315h112z" />
    <glyph glyph-name="w" unicode="w" horiz-adv-x="733" 
d="M419 441l93 -295h4l88 295h110l-136 -441h-117l-92 292h-4l-92 -292h-117l-137 441h118l88 -295h4l92 295h98z" />
    <glyph glyph-name="x" unicode="x" horiz-adv-x="526" 
d="M488 441l-162 -210l180 -231h-135l-113 147l-112 -147h-126l177 226l-163 215h135l96 -130l97 130h126z" />
    <glyph glyph-name="y" unicode="y" horiz-adv-x="524" 
d="M201 -28l11 25l-195 444h131l124 -307h4l116 307h114l-180 -440q-36 -88 -77.5 -132.5t-108.5 -44.5q-56 0 -90.5 31.5t-40.5 81.5l87 45q0 -66 48 -66q33 0 57 56z" />
    <glyph glyph-name="z" unicode="z" horiz-adv-x="497" 
d="M58 441h383v-83l-245 -268h251v-90h-395v84l242 267h-236v90z" />
    <glyph glyph-name="braceleft" unicode="{" horiz-adv-x="364" 
d="M40 246v84h25q30 0 38.5 15t8.5 58v139q0 118 111 118h99v-86h-69q-31 0 -31 -37v-139q0 -50 -17.5 -76.5t-59.5 -33.5q42 -7 59.5 -33.5t17.5 -76.5v-139q0 -37 31 -37h69v-86h-99q-111 0 -111 118v139q0 43 -8.5 58t-38.5 15h-25z" />
    <glyph glyph-name="bar" unicode="|" horiz-adv-x="261" 
d="M78 -83v742h105v-742h-105z" />
    <glyph glyph-name="braceright" unicode="}" horiz-adv-x="364" 
d="M324 330v-84h-25q-30 0 -38.5 -15t-8.5 -58v-139q0 -118 -111 -118h-98v86h68q19 0 25 9t6 28v139q0 50 18 76.5t60 33.5q-42 7 -60 33.5t-18 76.5v139q0 19 -6 28t-25 9h-68v86h98q111 0 111 -118v-139q0 -43 8.5 -58t38.5 -15h25z" />
    <glyph glyph-name="asciitilde" unicode="~" horiz-adv-x="417" 
d="M116 206h-65q0 64 23 101.5t68 37.5q28 0 66 -25t55 -25q34 0 37 47h66q0 -64 -23.5 -102t-68.5 -38q-28 0 -66 25.5t-55 25.5q-33 0 -37 -47z" />
    <glyph glyph-name="uni00A0" unicode="&#xa0;" horiz-adv-x="180" 
 />
    <glyph glyph-name="exclamdown" unicode="&#xa1;" horiz-adv-x="250" 
d="M58 384v134h134v-134h-134zM189 -112h-128v178l29 246h70l29 -246v-178z" />
    <glyph glyph-name="cent" unicode="&#xa2;" horiz-adv-x="533" 
d="M503 135q-20 -59 -66.5 -98t-118.5 -47v-86h-65v86q-95 9 -154 71.5t-59 158.5q0 95 58.5 158t154.5 73v89h65v-89q68 -7 114 -43t66 -88l-87 -36q-10 30 -35 50.5t-58 26.5v-281q35 8 61 31t36 56zM149 222q0 -58 28 -95t76 -47v280q-48 -10 -76 -45.5t-28 -92.5z" />
    <glyph glyph-name="sterling" unicode="&#xa3;" horiz-adv-x="628" 
d="M458 -12q-81 0 -174 77q-46 -77 -140 -77q-54 0 -88.5 30t-34.5 81q0 49 34.5 79t89.5 30q36 0 75 -17q-4 44 -30 90h-122v69h79q-27 50 -27 98q0 87 63 140.5t163 53.5q99 0 159 -47t72 -132l-110 -39q-4 57 -35.5 88t-82.5 31q-48 0 -75.5 -28t-27.5 -76q0 -39 23 -89
h147v-69h-116q17 -43 17 -84q0 -32 -6 -59q68 -42 123 -42q42 0 60 25.5t18 78.5l97 -8q7 -101 -33.5 -152.5t-117.5 -51.5zM147 54q52 0 67 67q-38 24 -68 24q-23 0 -36.5 -12.5t-13.5 -33.5q0 -19 15 -32t36 -13z" />
    <glyph glyph-name="yen" unicode="&#xa5;" horiz-adv-x="649" 
d="M558 132h-173v-132h-121v132h-172v66h172v61l-7 11h-165v66h122l-190 294h139l167 -267l161 267h134l-190 -294h123v-66h-166l-7 -11v-61h173v-66z" />
    <glyph glyph-name="section" unicode="&#xa7;" horiz-adv-x="512" 
d="M324 182q4 -1 8 -4q39 19 39 58q0 46 -59 72l-125 57q-4 1 -8 4q-38 -19 -38 -55q0 -48 59 -75zM258 -95q-71 0 -125.5 25t-82.5 70l75 51q45 -63 125 -63q37 0 58 14.5t21 38.5q0 34 -46 54l-116 49q-66 28 -99 65t-33 95q0 33 18.5 64t48.5 50q-31 33 -31 81
q0 62 51 102.5t131 40.5q71 0 125.5 -25t83.5 -70l-76 -51q-45 63 -124 63q-37 0 -59 -15.5t-21 -39.5q0 -32 47 -52l116 -49q66 -28 98.5 -65t32.5 -95q0 -34 -18.5 -64.5t-48.5 -49.5q31 -33 31 -81q0 -61 -51 -102t-131 -41z" />
    <glyph glyph-name="dieresis" unicode="&#xa8;" horiz-adv-x="519" 
d="M295 518v108h104v-108h-104zM119 518v108h104v-108h-104z" />
    <glyph glyph-name="copyright" unicode="&#xa9;" horiz-adv-x="743" 
d="M44 315q0 141 95 234t232 93t232 -93t95 -234t-95 -234t-232 -93t-232 93t-95 234zM93 315q0 -120 81 -200t197 -80q117 0 198 80t81 200t-81 200t-198 80q-116 0 -197 -80t-81 -200zM178 315q0 88 55.5 144t139.5 56q70 0 115 -34t61 -91l-76 -27q-19 74 -98 74
q-48 0 -76 -33t-28 -90q0 -56 28 -88.5t76 -32.5q81 0 99 79l77 -27q-16 -61 -61 -96t-117 -35q-84 0 -139.5 56t-55.5 145z" />
    <glyph glyph-name="ordfeminine" unicode="&#xaa;" horiz-adv-x="415" 
d="M134 526l-84 23q16 42 56 66.5t99 24.5q129 0 129 -107v-124q0 -22 21 -22q19 0 34 13l7 -57q-34 -21 -69 -21q-32 0 -54 17t-27 44q-27 -58 -108 -58q-44 0 -71.5 22.5t-27.5 62.5q0 39 28 59t81 32l95 26v10q0 36 -43 36q-28 0 -46 -13.5t-20 -33.5zM243 454v26
l-64 -17q-46 -14 -46 -43q0 -15 10 -24t27 -9q30 0 51.5 18.5t21.5 48.5zM61 245h302v-63h-302v63z" />
    <glyph glyph-name="guillemotleft" unicode="&#xab;" horiz-adv-x="492" 
d="M267 170v104l177 132v-109l-99 -75l99 -75v-110zM48 170v104l177 132v-109l-99 -75l99 -75v-110z" />
    <glyph glyph-name="registered" unicode="&#xae;" horiz-adv-x="517" 
d="M477 421q0 -94 -64 -157t-155 -63t-154.5 63t-63.5 157q0 95 63.5 158t154.5 63t155 -63t64 -158zM437 421q0 80 -51.5 132t-127.5 52t-127 -52t-51 -132q0 -79 51 -130.5t127 -51.5t127.5 51.5t51.5 130.5zM224 432h38q42 0 42 29q0 30 -42 30h-38v-59zM372 307h-62
q-7 9 -12 43q-3 20 -10.5 27.5t-25.5 7.5h-38v-78h-59v231h112q44 0 66.5 -18.5t22.5 -52.5q0 -24 -18.5 -39t-47.5 -18q44 -8 51 -46q8 -44 21 -57z" />
    <glyph glyph-name="macron" unicode="&#xaf;" horiz-adv-x="519" 
d="M126 522v73h277v-73h-277z" />
    <glyph glyph-name="degree" unicode="&#xb0;" horiz-adv-x="372" 
d="M39 500q0 60 42.5 101t104.5 41t104.5 -41t42.5 -101q0 -61 -42.5 -102t-104.5 -41t-104.5 41t-42.5 102zM116 500q0 -31 19 -51.5t51 -20.5t51 20.5t19 51.5t-19 51t-51 20t-51 -20t-19 -51z" />
    <glyph glyph-name="plusminus" unicode="&#xb1;" horiz-adv-x="642" 
d="M575 347h-205v-165h-99v165h-204v99h204v165h99v-165h205v-99zM67 29v99h508v-99h-508z" />
    <glyph glyph-name="twosuperior" unicode="&#xb2;" horiz-adv-x="395" 
d="M183 314h169v-75h-303v62l111 89q53 42 73 65.5t20 53.5q0 24 -14.5 39t-40.5 15q-30 0 -46 -18.5t-16 -48.5q0 -23 5 -34l-88 3q-5 22 -5 37q0 62 41.5 99.5t108.5 37.5q69 0 108 -35t39 -90q0 -47 -25.5 -80t-79.5 -75z" />
    <glyph glyph-name="threesuperior" unicode="&#xb3;" horiz-adv-x="396" 
d="M130 497l-85 15q5 56 46.5 91.5t107.5 35.5q67 0 105.5 -31.5t38.5 -81.5q0 -36 -25.5 -60.5t-58.5 -27.5q40 -5 65.5 -30.5t25.5 -62.5q0 -53 -41 -83t-111 -30q-69 0 -112 32t-50 88l86 18q2 -31 23 -48.5t54 -17.5q25 0 42 12.5t17 35.5q0 24 -18 37t-46 13
q-18 0 -31 -4v71q21 -3 32 -3q25 0 42 12t17 37q0 24 -15.5 37.5t-42.5 13.5q-29 0 -46.5 -19t-19.5 -50z" />
    <glyph glyph-name="acute" unicode="&#xb4;" horiz-adv-x="519" 
d="M247 508h-79l57 152h125z" />
    <glyph glyph-name="paragraph" unicode="&#xb6;" horiz-adv-x="603" 
d="M265 -85v343q-111 0 -172 49.5t-61 136.5t61 136.5t172 49.5h260v-715h-83v633h-94v-633h-83z" />
    <glyph glyph-name="periodcentered" unicode="&#xb7;" horiz-adv-x="259" 
d="M62 189v137h136v-137h-136z" />
    <glyph glyph-name="cedilla" unicode="&#xb8;" horiz-adv-x="713" 
d="M467 -122q0 -42 -33 -63.5t-81 -21.5q-69 0 -113 38l17 41q39 -30 89 -30q45 0 45 33q0 23 -27.5 29.5t-50.5 -5.5l-28 12l63 100h47l-42 -64q44 7 79 -11.5t35 -57.5z" />
    <glyph glyph-name="onesuperior" unicode="&#xb9;" horiz-adv-x="311" 
d="M231 239h-90v269h-100v65h30q44 0 62.5 13t29.5 46h68v-393z" />
    <glyph glyph-name="ordmasculine" unicode="&#xba;" horiz-adv-x="420" 
d="M378 482q0 -70 -47.5 -114.5t-120.5 -44.5t-121 44.5t-48 114.5q0 69 48 114t121 45q72 0 120 -45t48 -114zM139 482q0 -41 19 -65.5t52 -24.5t52 24.5t19 65.5t-19 65t-52 24t-52 -24t-19 -65zM361 245v-63h-302v63h302z" />
    <glyph glyph-name="guillemotright" unicode="&#xbb;" horiz-adv-x="492" 
d="M444 274v-104l-177 -133v110l99 75l-99 75v109zM225 274v-104l-177 -133v110l99 75l-99 75v109z" />
    <glyph glyph-name="onequarter" unicode="&#xbc;" horiz-adv-x="899" 
d="M231 239h-90v269h-100v65h30q44 0 62.5 13t29.5 46h68v-393zM658 630l-393 -630h-87l393 630h87zM789 392v-231h65v-71h-65v-90h-84v90h-206v83l178 219h112zM705 319l-130 -158h130v158z" />
    <glyph glyph-name="onehalf" unicode="&#xbd;" horiz-adv-x="891" 
d="M231 239h-90v269h-100v65h30q44 0 62.5 13t29.5 46h68v-393zM658 630l-393 -630h-87l393 630h87zM686 75h169v-75h-303v63l110 88q54 44 74 66.5t20 52.5q0 24 -14 39t-41 15q-30 0 -46.5 -18.5t-16.5 -48.5q0 -19 6 -34l-88 3q-5 22 -5 37q0 62 41.5 99.5t108.5 37.5
q69 0 108 -35t39 -89q0 -47 -25.5 -80.5t-79.5 -75.5z" />
    <glyph glyph-name="threequarters" unicode="&#xbe;" horiz-adv-x="961" 
d="M730 630l-393 -630h-87l393 630h87zM851 392v-231h65v-71h-65v-90h-84v90h-206v83l178 219h112zM130 497l-85 15q5 56 46.5 91.5t107.5 35.5q67 0 105.5 -31.5t38.5 -81.5q0 -36 -25.5 -60.5t-58.5 -27.5q40 -5 65.5 -30.5t25.5 -62.5q0 -53 -41 -83t-111 -30
q-69 0 -112 32t-50 88l86 18q2 -31 23 -48.5t54 -17.5q25 0 42 12.5t17 35.5q0 24 -18 37t-46 13q-18 0 -31 -4v71q21 -3 32 -3q25 0 42 12t17 37q0 24 -15.5 37.5t-42.5 13.5q-29 0 -46.5 -19t-19.5 -50zM767 319l-130 -158h130v158z" />
    <glyph glyph-name="questiondown" unicode="&#xbf;" horiz-adv-x="537" 
d="M338 518v-128h-134v128h134zM212 321h115q-1 -39 -16.5 -67t-54.5 -58q-4 -3 -16.5 -13t-16.5 -13.5t-14 -13t-13.5 -14.5t-10.5 -14t-9.5 -17t-4.5 -18.5t-2 -21.5q0 -41 25 -67t72 -26q54 0 81.5 33t27.5 91q0 21 -3 39l121 -8q4 -28 4 -40q0 -99 -63.5 -158
t-168.5 -59q-108 0 -166.5 54t-58.5 136q0 40 18.5 74.5t40 55t61.5 50.5q30 24 40.5 38t11.5 37z" />
    <glyph glyph-name="Agrave" unicode="&#xc0;" horiz-adv-x="688" 
d="M388 696h-85l-97 134h128zM336 494l-92 -242h190l-94 242h-4zM532 0l-60 155h-265l-59 -155h-126l250 630h141l253 -630h-134z" />
    <glyph glyph-name="Aacute" unicode="&#xc1;" horiz-adv-x="688" 
d="M380 696h-85l54 134h128zM336 494l-92 -242h190l-94 242h-4zM532 0l-60 155h-265l-59 -155h-126l250 630h141l253 -630h-134z" />
    <glyph glyph-name="Acircumflex" unicode="&#xc2;" horiz-adv-x="688" 
d="M278 830h122l89 -134h-80l-70 72l-70 -72h-79zM336 494l-92 -242h190l-94 242h-4zM532 0l-60 155h-265l-59 -155h-126l250 630h141l253 -630h-134z" />
    <glyph glyph-name="Atilde" unicode="&#xc3;" horiz-adv-x="688" 
d="M247 696h-67q0 59 24.5 93.5t67.5 34.5q27 0 68.5 -25t58.5 -25q31 0 34 47h68q0 -59 -25 -93.5t-68 -34.5q-27 0 -68.5 25t-58.5 25q-31 0 -34 -47zM336 494l-92 -242h190l-94 242h-4zM532 0l-60 155h-265l-59 -155h-126l250 630h141l253 -630h-134z" />
    <glyph glyph-name="Adieresis" unicode="&#xc4;" horiz-adv-x="688" 
d="M199 699v108h104v-108h-104zM375 699v108h104v-108h-104zM336 494l-92 -242h190l-94 242h-4zM532 0l-60 155h-265l-59 -155h-126l250 630h141l253 -630h-134z" />
    <glyph glyph-name="Aring" unicode="&#xc5;" horiz-adv-x="688" 
d="M235 777q0 43 28.5 71.5t75.5 28.5t76 -28.5t29 -71.5q0 -44 -29 -72.5t-76 -28.5t-75.5 28.5t-28.5 72.5zM291 777q0 -22 12.5 -35.5t35.5 -13.5q24 0 36.5 13.5t12.5 35.5t-12.5 35.5t-36.5 13.5q-23 0 -35.5 -13.5t-12.5 -35.5zM336 494l-92 -242h190l-94 242h-4z
M532 0l-60 155h-265l-59 -155h-126l250 630h141l253 -630h-134z" />
    <glyph glyph-name="AE" unicode="&#xc6;" horiz-adv-x="1054" 
d="M493 536l-179 -284h179v284zM493 0v155h-240l-97 -155h-134l401 630h570v-107h-377v-147h284v-106h-284v-163h386v-107h-509z" />
    <glyph glyph-name="Ccedilla" unicode="&#xc7;" horiz-adv-x="695" 
d="M347 -207q-69 0 -113 38l17 41q39 -30 89 -30q45 0 45 33q0 23 -27.5 29.5t-50.5 -5.5l-28 12l50 79q-122 14 -201.5 103t-79.5 222q0 144 92 235.5t230 91.5q105 0 176.5 -48t102.5 -132l-111 -57q-37 127 -169 127q-86 0 -138.5 -59t-52.5 -158t52.5 -158t136.5 -59
q145 0 175 141l115 -46q-25 -95 -98.5 -150t-184.5 -55l-27 -41q44 7 79 -11.5t35 -57.5q0 -42 -33 -63.5t-81 -21.5z" />
    <glyph glyph-name="Egrave" unicode="&#xc8;" horiz-adv-x="639" 
d="M376 696h-85l-97 134h128zM587 107v-107h-509v630h500v-107h-377v-147h284v-106h-284v-163h386z" />
    <glyph glyph-name="Eacute" unicode="&#xc9;" horiz-adv-x="639" 
d="M368 696h-85l54 134h128zM587 107v-107h-509v630h500v-107h-377v-147h284v-106h-284v-163h386z" />
    <glyph glyph-name="Ecircumflex" unicode="&#xca;" horiz-adv-x="639" 
d="M267 830h122l89 -134h-80l-70 72l-70 -72h-79zM587 107v-107h-509v630h500v-107h-377v-147h284v-106h-284v-163h386z" />
    <glyph glyph-name="Edieresis" unicode="&#xcb;" horiz-adv-x="639" 
d="M188 699v108h104v-108h-104zM364 699v108h104v-108h-104zM587 107v-107h-509v630h500v-107h-377v-147h284v-106h-284v-163h386z" />
    <glyph glyph-name="Igrave" unicode="&#xcc;" horiz-adv-x="281" 
d="M188 696h-85l-97 134h128zM78 630h126v-630h-126v630z" />
    <glyph glyph-name="Iacute" unicode="&#xcd;" horiz-adv-x="281" 
d="M180 696h-85l54 134h128zM78 630h126v-630h-126v630z" />
    <glyph glyph-name="Icircumflex" unicode="&#xce;" horiz-adv-x="281" 
d="M79 830h122l89 -134h-80l-70 72l-70 -72h-79zM78 630h126v-630h-126v630z" />
    <glyph glyph-name="Idieresis" unicode="&#xcf;" horiz-adv-x="281" 
d="M0 699v108h104v-108h-104zM176 699v108h104v-108h-104zM78 630h126v-630h-126v630z" />
    <glyph glyph-name="Eth" unicode="&#xd0;" horiz-adv-x="735" 
d="M350 0h-254v271h-74v102h74v257h254q156 0 247 -84t91 -231t-91 -231t-247 -84zM222 101h117q105 0 161.5 56.5t56.5 158.5q0 101 -57 157t-161 56h-117v-156h144v-102h-144v-170z" />
    <glyph glyph-name="Ntilde" unicode="&#xd1;" horiz-adv-x="715" 
d="M263 696h-67q0 59 24.5 93.5t67.5 34.5q27 0 68.5 -25t58.5 -25q31 0 34 47h68q0 -59 -25 -93.5t-68 -34.5q-27 0 -68.5 25t-58.5 25q-31 0 -34 -47zM219 630l302 -432v432h116v-630h-111l-333 467v-467h-115v630h141z" />
    <glyph glyph-name="Ograve" unicode="&#xd2;" horiz-adv-x="746" 
d="M421 696h-85l-97 134h128zM698 315q0 -144 -92.5 -235.5t-232.5 -91.5q-139 0 -232 91.5t-93 235.5t93 235.5t232 91.5q140 0 232.5 -91.5t92.5 -235.5zM568 315q0 98 -54 157.5t-141 59.5t-141 -59.5t-54 -157.5t54 -157.5t141 -59.5t141 59.5t54 157.5z" />
    <glyph glyph-name="Oacute" unicode="&#xd3;" horiz-adv-x="746" 
d="M413 696h-85l54 134h128zM698 315q0 -144 -92.5 -235.5t-232.5 -91.5q-139 0 -232 91.5t-93 235.5t93 235.5t232 91.5q140 0 232.5 -91.5t92.5 -235.5zM568 315q0 98 -54 157.5t-141 59.5t-141 -59.5t-54 -157.5t54 -157.5t141 -59.5t141 59.5t54 157.5z" />
    <glyph glyph-name="Ocircumflex" unicode="&#xd4;" horiz-adv-x="746" 
d="M312 830h122l89 -134h-80l-70 72l-70 -72h-79zM698 315q0 -144 -92.5 -235.5t-232.5 -91.5q-139 0 -232 91.5t-93 235.5t93 235.5t232 91.5q140 0 232.5 -91.5t92.5 -235.5zM568 315q0 98 -54 157.5t-141 59.5t-141 -59.5t-54 -157.5t54 -157.5t141 -59.5t141 59.5
t54 157.5z" />
    <glyph glyph-name="Otilde" unicode="&#xd5;" horiz-adv-x="746" 
d="M280 696h-67q0 59 24.5 93.5t67.5 34.5q27 0 68.5 -25t58.5 -25q31 0 34 47h68q0 -59 -25 -93.5t-68 -34.5q-27 0 -68.5 25t-58.5 25q-31 0 -34 -47zM698 315q0 -144 -92.5 -235.5t-232.5 -91.5q-139 0 -232 91.5t-93 235.5t93 235.5t232 91.5q140 0 232.5 -91.5
t92.5 -235.5zM568 315q0 98 -54 157.5t-141 59.5t-141 -59.5t-54 -157.5t54 -157.5t141 -59.5t141 59.5t54 157.5z" />
    <glyph glyph-name="Odieresis" unicode="&#xd6;" horiz-adv-x="746" 
d="M233 699v108h104v-108h-104zM409 699v108h104v-108h-104zM698 315q0 -144 -92.5 -235.5t-232.5 -91.5q-139 0 -232 91.5t-93 235.5t93 235.5t232 91.5q140 0 232.5 -91.5t92.5 -235.5zM568 315q0 98 -54 157.5t-141 59.5t-141 -59.5t-54 -157.5t54 -157.5t141 -59.5
t141 59.5t54 157.5z" />
    <glyph glyph-name="multiply" unicode="&#xd7;" horiz-adv-x="549" 
d="M206 309l-152 151l69 69l151 -153l151 153l69 -69l-152 -151l152 -152l-69 -69l-151 152l-151 -152l-69 69z" />
    <glyph glyph-name="Oslash" unicode="&#xd8;" horiz-adv-x="746" 
d="M178 315q0 -76 33 -129l280 308q-49 38 -118 38q-87 0 -141 -59.5t-54 -157.5zM373 98q87 0 141 59.5t54 157.5q0 71 -30 125l-279 -307q47 -35 114 -35zM373 -12q-107 0 -192 58l-66 -73l-58 43l71 78q-80 90 -80 221q0 144 93 235.5t232 91.5q112 0 196 -61l62 68
l57 -43l-66 -73q76 -89 76 -218q0 -144 -92.5 -235.5t-232.5 -91.5z" />
    <glyph glyph-name="Ugrave" unicode="&#xd9;" horiz-adv-x="701" 
d="M398 696h-85l-97 134h128zM350 -12q-121 0 -200.5 69.5t-79.5 200.5v372h126v-355q0 -86 40 -133t114 -47q75 0 115 47t40 133v355h125v-372q0 -131 -79.5 -200.5t-200.5 -69.5z" />
    <glyph glyph-name="Uacute" unicode="&#xda;" horiz-adv-x="701" 
d="M390 696h-85l54 134h128zM350 -12q-121 0 -200.5 69.5t-79.5 200.5v372h126v-355q0 -86 40 -133t114 -47q75 0 115 47t40 133v355h125v-372q0 -131 -79.5 -200.5t-200.5 -69.5z" />
    <glyph glyph-name="Ucircumflex" unicode="&#xdb;" horiz-adv-x="701" 
d="M289 830h122l89 -134h-80l-70 72l-70 -72h-79zM350 -12q-121 0 -200.5 69.5t-79.5 200.5v372h126v-355q0 -86 40 -133t114 -47q75 0 115 47t40 133v355h125v-372q0 -131 -79.5 -200.5t-200.5 -69.5z" />
    <glyph glyph-name="Udieresis" unicode="&#xdc;" horiz-adv-x="701" 
d="M210 699v108h104v-108h-104zM386 699v108h104v-108h-104zM350 -12q-121 0 -200.5 69.5t-79.5 200.5v372h126v-355q0 -86 40 -133t114 -47q75 0 115 47t40 133v355h125v-372q0 -131 -79.5 -200.5t-200.5 -69.5z" />
    <glyph glyph-name="Yacute" unicode="&#xdd;" horiz-adv-x="647" 
d="M363 696h-85l54 134h128zM329 378l157 252h138l-239 -367v-263h-122v263l-240 367h147z" />
    <glyph glyph-name="Thorn" unicode="&#xde;" horiz-adv-x="653" 
d="M366 126h-163v-126h-125v630h125v-110h163q120 0 186.5 -51.5t66.5 -145.5t-66.5 -145.5t-186.5 -51.5zM203 228h158q136 0 136 95t-136 95h-158v-190z" />
    <glyph glyph-name="germandbls" unicode="&#xdf;" horiz-adv-x="575" 
d="M502 480q0 -49 -26.5 -82t-69.5 -46q59 -14 94 -57t35 -110q0 -89 -55 -139t-139 -50q-38 0 -78 12v91q28 -10 55 -10q45 0 73 27.5t28 79.5q0 49 -30 77t-80 27q-26 0 -42 -1v93q12 -2 35 -2q86 0 86 85q0 35 -23 57.5t-65 22.5q-51 0 -80.5 -36t-29.5 -98v-421h-119
v425q0 96 63.5 156.5t165.5 60.5q93 0 147.5 -43.5t54.5 -118.5z" />
    <glyph glyph-name="agrave" unicode="&#xe0;" horiz-adv-x="548" 
d="M318 508h-79l-103 152h125zM159 295l-105 30q24 58 80 93t138 35q179 0 179 -148v-194q0 -37 34 -37q26 0 49 18l8 -76q-43 -27 -89 -27t-77 26t-36 66q-18 -40 -60.5 -64.5t-99.5 -24.5q-63 0 -102.5 34t-39.5 92q0 56 42 86.5t121 49.5l137 33v23q0 56 -71 56
q-43 0 -72 -20.5t-36 -50.5zM338 180v45l-100 -26q-41 -11 -62 -26.5t-21 -44.5q0 -25 17 -40t46 -15q48 0 84 30.5t36 76.5z" />
    <glyph glyph-name="aacute" unicode="&#xe1;" horiz-adv-x="548" 
d="M305 508h-79l57 152h125zM159 295l-105 30q24 58 80 93t138 35q179 0 179 -148v-194q0 -37 34 -37q26 0 49 18l8 -76q-43 -27 -89 -27t-77 26t-36 66q-18 -40 -60.5 -64.5t-99.5 -24.5q-63 0 -102.5 34t-39.5 92q0 56 42 86.5t121 49.5l137 33v23q0 56 -71 56
q-43 0 -72 -20.5t-36 -50.5zM338 180v45l-100 -26q-41 -11 -62 -26.5t-21 -44.5q0 -25 17 -40t46 -15q48 0 84 30.5t36 76.5z" />
    <glyph glyph-name="acircumflex" unicode="&#xe2;" horiz-adv-x="548" 
d="M211 656h117l90 -148h-79l-70 86l-70 -86h-79zM159 295l-105 30q24 58 80 93t138 35q179 0 179 -148v-194q0 -37 34 -37q26 0 49 18l8 -76q-43 -27 -89 -27t-77 26t-36 66q-18 -40 -60.5 -64.5t-99.5 -24.5q-63 0 -102.5 34t-39.5 92q0 56 42 86.5t121 49.5l137 33v23
q0 56 -71 56q-43 0 -72 -20.5t-36 -50.5zM338 180v45l-100 -26q-41 -11 -62 -26.5t-21 -44.5q0 -25 17 -40t46 -15q48 0 84 30.5t36 76.5z" />
    <glyph glyph-name="atilde" unicode="&#xe3;" horiz-adv-x="548" 
d="M179 513h-67q0 59 24.5 95.5t67.5 36.5q27 0 68.5 -27t58.5 -27q31 0 34 51h68q0 -59 -25 -95.5t-68 -36.5q-27 0 -68.5 27t-58.5 27q-31 0 -34 -51zM159 295l-105 30q24 58 80 93t138 35q179 0 179 -148v-194q0 -37 34 -37q26 0 49 18l8 -76q-43 -27 -89 -27t-77 26
t-36 66q-18 -40 -60.5 -64.5t-99.5 -24.5q-63 0 -102.5 34t-39.5 92q0 56 42 86.5t121 49.5l137 33v23q0 56 -71 56q-43 0 -72 -20.5t-36 -50.5zM338 180v45l-100 -26q-41 -11 -62 -26.5t-21 -44.5q0 -25 17 -40t46 -15q48 0 84 30.5t36 76.5z" />
    <glyph glyph-name="adieresis" unicode="&#xe4;" horiz-adv-x="548" 
d="M307 518v108h104v-108h-104zM131 518v108h104v-108h-104zM159 295l-105 30q24 58 80 93t138 35q179 0 179 -148v-194q0 -37 34 -37q26 0 49 18l8 -76q-43 -27 -89 -27t-77 26t-36 66q-18 -40 -60.5 -64.5t-99.5 -24.5q-63 0 -102.5 34t-39.5 92q0 56 42 86.5t121 49.5
l137 33v23q0 56 -71 56q-43 0 -72 -20.5t-36 -50.5zM338 180v45l-100 -26q-41 -11 -62 -26.5t-21 -44.5q0 -25 17 -40t46 -15q48 0 84 30.5t36 76.5z" />
    <glyph glyph-name="aring" unicode="&#xe5;" horiz-adv-x="548" 
d="M167 600q0 43 28.5 71.5t75.5 28.5t76 -28.5t29 -71.5t-29 -71.5t-76 -28.5t-75.5 28.5t-28.5 71.5zM223 600q0 -22 12.5 -35.5t35.5 -13.5q24 0 36.5 13.5t12.5 35.5t-12.5 35.5t-36.5 13.5q-23 0 -35.5 -13.5t-12.5 -35.5zM159 295l-105 30q24 58 80 93t138 35
q179 0 179 -148v-194q0 -37 34 -37q26 0 49 18l8 -76q-43 -27 -89 -27t-77 26t-36 66q-18 -40 -60.5 -64.5t-99.5 -24.5q-63 0 -102.5 34t-39.5 92q0 56 42 86.5t121 49.5l137 33v23q0 56 -71 56q-43 0 -72 -20.5t-36 -50.5zM338 180v45l-100 -26q-41 -11 -62 -26.5
t-21 -44.5q0 -25 17 -40t46 -15q48 0 84 30.5t36 76.5z" />
    <glyph glyph-name="ae" unicode="&#xe6;" horiz-adv-x="817" 
d="M561 -12q-129 0 -193 95q-61 -91 -188 -91q-64 0 -103 33t-39 92q0 56 41.5 85.5t121.5 48.5l137 34v25q0 56 -71 56q-43 0 -72 -20.5t-36 -50.5l-105 30q24 58 79.5 93t133.5 35q98 0 141 -62q62 62 150 62q104 0 161 -63t57 -155v-32h-334q0 -56 34.5 -91t88.5 -35
q87 0 117 73l92 -35q-47 -127 -213 -127zM445 265h220q-2 44 -30 73t-77 29q-47 0 -77 -29t-36 -73zM338 180v43l-100 -26q-42 -11 -62.5 -26t-20.5 -44q0 -25 16.5 -39.5t46.5 -14.5q48 0 84 30.5t36 76.5z" />
    <glyph glyph-name="ccedilla" unicode="&#xe7;" horiz-adv-x="516" 
d="M261 -207q-69 0 -113 38l17 41q39 -30 89 -30q45 0 45 33q0 23 -27.5 29.5t-50.5 -5.5l-28 12l49 79q-92 9 -149 71.5t-57 158.5q0 104 66.5 168.5t171.5 64.5q79 0 132 -36t73 -97l-101 -38q-25 79 -100 79q-54 0 -86.5 -37.5t-32.5 -103.5q0 -65 32.5 -102.5
t85.5 -37.5q81 0 105 88l102 -33q-16 -62 -67 -102.5t-129 -44.5l-27 -41q44 7 79 -11.5t35 -57.5q0 -42 -33 -63.5t-81 -21.5z" />
    <glyph glyph-name="egrave" unicode="&#xe8;" horiz-adv-x="533" 
d="M326 508h-79l-103 152h125zM399 150l92 -35q-48 -127 -213 -127q-105 0 -171.5 62.5t-66.5 163.5q0 104 67 171.5t168 67.5q104 0 161 -63t57 -155v-32h-335q1 -56 35.5 -91t88.5 -35q86 0 117 73zM161 265h221q-2 44 -30 73t-77 29q-47 0 -77 -29t-37 -73z" />
    <glyph glyph-name="eacute" unicode="&#xe9;" horiz-adv-x="533" 
d="M313 508h-79l57 152h125zM399 150l92 -35q-48 -127 -213 -127q-105 0 -171.5 62.5t-66.5 163.5q0 104 67 171.5t168 67.5q104 0 161 -63t57 -155v-32h-335q1 -56 35.5 -91t88.5 -35q86 0 117 73zM161 265h221q-2 44 -30 73t-77 29q-47 0 -77 -29t-37 -73z" />
    <glyph glyph-name="ecircumflex" unicode="&#xea;" horiz-adv-x="533" 
d="M221 656h117l90 -148h-79l-70 86l-70 -86h-79zM399 150l92 -35q-48 -127 -213 -127q-105 0 -171.5 62.5t-66.5 163.5q0 104 67 171.5t168 67.5q104 0 161 -63t57 -155v-32h-335q1 -56 35.5 -91t88.5 -35q86 0 117 73zM161 265h221q-2 44 -30 73t-77 29q-47 0 -77 -29
t-37 -73z" />
    <glyph glyph-name="edieresis" unicode="&#xeb;" horiz-adv-x="533" 
d="M315 518v108h104v-108h-104zM139 518v108h104v-108h-104zM399 150l92 -35q-48 -127 -213 -127q-105 0 -171.5 62.5t-66.5 163.5q0 104 67 171.5t168 67.5q104 0 161 -63t57 -155v-32h-335q1 -56 35.5 -91t88.5 -35q86 0 117 73zM161 265h221q-2 44 -30 73t-77 29
q-47 0 -77 -29t-37 -73z" />
    <glyph glyph-name="igrave" unicode="&#xec;" horiz-adv-x="261" 
d="M177 508h-79l-103 152h125zM71 441h119v-441h-119v441z" />
    <glyph glyph-name="iacute" unicode="&#xed;" horiz-adv-x="261" 
d="M164 508h-79l57 152h125zM71 441h119v-441h-119v441z" />
    <glyph glyph-name="icircumflex" unicode="&#xee;" horiz-adv-x="261" 
d="M72 656h117l90 -148h-79l-70 86l-70 -86h-79zM71 441h119v-441h-119v441z" />
    <glyph glyph-name="idieresis" unicode="&#xef;" horiz-adv-x="261" 
d="M166 518v108h104v-108h-104zM-10 518v108h104v-108h-104zM71 441h119v-441h-119v441z" />
    <glyph glyph-name="eth" unicode="&#xf0;" horiz-adv-x="563" 
d="M283 -12q-106 0 -174.5 61.5t-68.5 163.5q0 99 65.5 157t159.5 58q81 0 127 -58q-21 56 -110 131l-134 -45l-19 50l102 34q-49 37 -101 65l101 37q60 -31 107 -66l98 33l19 -50l-69 -23q137 -129 137 -302q0 -116 -65.5 -181t-174.5 -65zM283 79q55 0 86.5 36.5
t31.5 96.5t-31.5 97t-86.5 37t-86.5 -37t-31.5 -97t31.5 -96.5t86.5 -36.5z" />
    <glyph glyph-name="ntilde" unicode="&#xf1;" horiz-adv-x="579" 
d="M196 513h-67q0 59 24.5 95.5t67.5 36.5q27 0 68.5 -27t58.5 -27q31 0 34 51h68q0 -59 -25 -95.5t-68 -36.5q-27 0 -68.5 27t-58.5 27q-31 0 -34 -51zM190 228v-228h-119v441h119v-83q17 41 60 68t96 27q84 0 125.5 -49.5t41.5 -128.5v-275h-119v251q0 51 -24 79t-70 28
q-49 0 -79.5 -36t-30.5 -94z" />
    <glyph glyph-name="ograve" unicode="&#xf2;" horiz-adv-x="563" 
d="M328 508h-79l-103 152h125zM523 220q0 -101 -69 -166.5t-173 -65.5q-103 0 -172 65.5t-69 166.5q0 102 69 167.5t172 65.5q104 0 173 -65.5t69 -167.5zM163 220q0 -65 31.5 -104t86.5 -39t87 39.5t32 103.5q0 65 -32 104.5t-87 39.5t-86.5 -39.5t-31.5 -104.5z" />
    <glyph glyph-name="oacute" unicode="&#xf3;" horiz-adv-x="563" 
d="M315 508h-79l57 152h125zM523 220q0 -101 -69 -166.5t-173 -65.5q-103 0 -172 65.5t-69 166.5q0 102 69 167.5t172 65.5q104 0 173 -65.5t69 -167.5zM163 220q0 -65 31.5 -104t86.5 -39t87 39.5t32 103.5q0 65 -32 104.5t-87 39.5t-86.5 -39.5t-31.5 -104.5z" />
    <glyph glyph-name="ocircumflex" unicode="&#xf4;" horiz-adv-x="563" 
d="M223 656h117l90 -148h-79l-70 86l-70 -86h-79zM523 220q0 -101 -69 -166.5t-173 -65.5q-103 0 -172 65.5t-69 166.5q0 102 69 167.5t172 65.5q104 0 173 -65.5t69 -167.5zM163 220q0 -65 31.5 -104t86.5 -39t87 39.5t32 103.5q0 65 -32 104.5t-87 39.5t-86.5 -39.5
t-31.5 -104.5z" />
    <glyph glyph-name="otilde" unicode="&#xf5;" horiz-adv-x="563" 
d="M188 513h-67q0 59 24.5 95.5t67.5 36.5q27 0 68.5 -27t58.5 -27q31 0 34 51h68q0 -59 -25 -95.5t-68 -36.5q-27 0 -68.5 27t-58.5 27q-31 0 -34 -51zM523 220q0 -101 -69 -166.5t-173 -65.5q-103 0 -172 65.5t-69 166.5q0 102 69 167.5t172 65.5q104 0 173 -65.5
t69 -167.5zM163 220q0 -65 31.5 -104t86.5 -39t87 39.5t32 103.5q0 65 -32 104.5t-87 39.5t-86.5 -39.5t-31.5 -104.5z" />
    <glyph glyph-name="odieresis" unicode="&#xf6;" horiz-adv-x="563" 
d="M317 518v108h104v-108h-104zM141 518v108h104v-108h-104zM523 220q0 -101 -69 -166.5t-173 -65.5q-103 0 -172 65.5t-69 166.5q0 102 69 167.5t172 65.5q104 0 173 -65.5t69 -167.5zM163 220q0 -65 31.5 -104t86.5 -39t87 39.5t32 103.5q0 65 -32 104.5t-87 39.5
t-86.5 -39.5t-31.5 -104.5z" />
    <glyph glyph-name="divide" unicode="&#xf7;" horiz-adv-x="634" 
d="M253 462v125h130v-125h-130zM58 261v100h518v-100h-518zM253 36v123h130v-123h-130z" />
    <glyph glyph-name="oslash" unicode="&#xf8;" horiz-adv-x="563" 
d="M161 220q0 -40 13 -72l180 193q-30 25 -73 25q-56 0 -88 -40t-32 -106zM281 75q56 0 88.5 40t32.5 105q0 43 -13 72l-179 -193q29 -24 71 -24zM281 -12q-77 0 -138 39l-57 -62l-47 37l59 63q-58 63 -58 155q0 102 69 167.5t172 65.5q80 0 140 -40l55 60l47 -36l-57 -62
q57 -63 57 -155q0 -101 -69 -166.5t-173 -65.5z" />
    <glyph glyph-name="ugrave" unicode="&#xf9;" horiz-adv-x="577" 
d="M332 508h-79l-103 152h125zM386 213v228h120v-441h-120v83q-16 -41 -59 -68t-96 -27q-84 0 -124.5 49.5t-40.5 128.5v275h120v-251q0 -107 91 -107q49 0 79 36t30 94z" />
    <glyph glyph-name="uacute" unicode="&#xfa;" horiz-adv-x="577" 
d="M318 508h-79l57 152h125zM386 213v228h120v-441h-120v83q-16 -41 -59 -68t-96 -27q-84 0 -124.5 49.5t-40.5 128.5v275h120v-251q0 -107 91 -107q49 0 79 36t30 94z" />
    <glyph glyph-name="ucircumflex" unicode="&#xfb;" horiz-adv-x="577" 
d="M226 656h117l90 -148h-79l-70 86l-70 -86h-79zM386 213v228h120v-441h-120v83q-16 -41 -59 -68t-96 -27q-84 0 -124.5 49.5t-40.5 128.5v275h120v-251q0 -107 91 -107q49 0 79 36t30 94z" />
    <glyph glyph-name="udieresis" unicode="&#xfc;" horiz-adv-x="577" 
d="M320 518v108h104v-108h-104zM144 518v108h104v-108h-104zM386 213v228h120v-441h-120v83q-16 -41 -59 -68t-96 -27q-84 0 -124.5 49.5t-40.5 128.5v275h120v-251q0 -107 91 -107q49 0 79 36t30 94z" />
    <glyph glyph-name="yacute" unicode="&#xfd;" horiz-adv-x="524" 
d="M306 508h-79l57 152h125zM201 -28l11 25l-195 444h131l124 -307h4l116 307h114l-180 -440q-36 -88 -77.5 -132.5t-108.5 -44.5q-56 0 -90.5 31.5t-40.5 81.5l87 45q0 -66 48 -66q33 0 57 56z" />
    <glyph glyph-name="thorn" unicode="&#xfe;" horiz-adv-x="590" 
d="M187 230v-19q0 -60 34.5 -96.5t85.5 -36.5q57 0 89 39t32 103t-32 103.5t-89 39.5q-51 0 -85.5 -36.5t-34.5 -96.5zM190 87v-251h-119v794h119v-276q18 45 57 72t96 27q95 0 151 -66.5t56 -166.5t-56 -166t-151 -66q-57 0 -96 27t-57 72z" />
    <glyph glyph-name="ydieresis" unicode="&#xff;" horiz-adv-x="524" 
d="M307 518v108h104v-108h-104zM131 518v108h104v-108h-104zM201 -28l11 25l-195 444h131l124 -307h4l116 307h114l-180 -440q-36 -88 -77.5 -132.5t-108.5 -44.5q-56 0 -90.5 31.5t-40.5 81.5l87 45q0 -66 48 -66q33 0 57 56z" />
    <glyph glyph-name="Amacron" unicode="&#x100;" horiz-adv-x="688" 
d="M199 701v74h282v-74h-282zM336 494l-92 -242h190l-94 242h-4zM532 0l-60 155h-265l-59 -155h-126l250 630h141l253 -630h-134z" />
    <glyph glyph-name="amacron" unicode="&#x101;" horiz-adv-x="548" 
d="M131 522v73h277v-73h-277zM159 295l-105 30q24 58 80 93t138 35q179 0 179 -148v-194q0 -37 34 -37q26 0 49 18l8 -76q-43 -27 -89 -27t-77 26t-36 66q-18 -40 -60.5 -64.5t-99.5 -24.5q-63 0 -102.5 34t-39.5 92q0 56 42 86.5t121 49.5l137 33v23q0 56 -71 56
q-43 0 -72 -20.5t-36 -50.5zM338 180v45l-100 -26q-41 -11 -62 -26.5t-21 -44.5q0 -25 17 -40t46 -15q48 0 84 30.5t36 76.5z" />
    <glyph glyph-name="Abreve" unicode="&#x102;" horiz-adv-x="688" 
d="M339 693q-60 0 -94 35t-34 100h70q0 -65 58 -65q59 0 59 65h70q0 -65 -34 -100t-95 -35zM336 494l-92 -242h190l-94 242h-4zM532 0l-60 155h-265l-59 -155h-126l250 630h141l253 -630h-134z" />
    <glyph glyph-name="abreve" unicode="&#x103;" horiz-adv-x="548" 
d="M271 502q-59 0 -94.5 41t-35.5 108h69q0 -34 16 -56.5t45 -22.5q30 0 46 22.5t16 56.5h69q0 -67 -35.5 -108t-95.5 -41zM159 295l-105 30q24 58 80 93t138 35q179 0 179 -148v-194q0 -37 34 -37q26 0 49 18l8 -76q-43 -27 -89 -27t-77 26t-36 66q-18 -40 -60.5 -64.5
t-99.5 -24.5q-63 0 -102.5 34t-39.5 92q0 56 42 86.5t121 49.5l137 33v23q0 56 -71 56q-43 0 -72 -20.5t-36 -50.5zM338 180v45l-100 -26q-41 -11 -62 -26.5t-21 -44.5q0 -25 17 -40t46 -15q48 0 84 30.5t36 76.5z" />
    <glyph glyph-name="Aogonek" unicode="&#x104;" horiz-adv-x="688" 
d="M336 494l-92 -242h190l-94 242h-4zM632 -154q-42 -29 -86 -29q-39 0 -62 19.5t-23 52.5q0 29 17.5 54t53.5 57l-60 155h-265l-59 -155h-126l250 630h141l253 -630h-64q-35 -34 -47.5 -52t-12.5 -36q0 -28 33 -28q19 0 57 20v-58z" />
    <glyph glyph-name="aogonek" unicode="&#x105;" horiz-adv-x="548" 
d="M453 -183q-39 0 -62 19.5t-23 52.5q0 46 61 102q-36 7 -60 31.5t-29 58.5q-18 -40 -60.5 -64.5t-99.5 -24.5q-63 0 -102.5 34t-39.5 92q0 56 42 86.5t121 49.5l137 33v23q0 56 -71 56q-43 0 -72 -20.5t-36 -50.5l-105 30q24 58 80 93t138 35q179 0 179 -148v-194
q0 -37 34 -37q26 0 49 18l8 -76q-17 -11 -34 -17q-34 -33 -46.5 -51t-12.5 -36q0 -28 33 -28q19 0 57 20v-58q-42 -29 -86 -29zM338 180v45l-100 -26q-41 -11 -62 -26.5t-21 -44.5q0 -25 17 -40t46 -15q48 0 84 30.5t36 76.5z" />
    <glyph glyph-name="Cacute" unicode="&#x106;" horiz-adv-x="695" 
d="M414 696h-85l54 134h128zM542 239l115 -46q-26 -95 -100 -150t-189 -55q-136 0 -228 91.5t-92 235.5t92 235.5t230 91.5q105 0 176.5 -48t102.5 -132l-111 -57q-37 127 -169 127q-86 0 -138.5 -59t-52.5 -158t52.5 -158t136.5 -59q145 0 175 141z" />
    <glyph glyph-name="cacute" unicode="&#x107;" horiz-adv-x="516" 
d="M312 508h-79l57 152h125zM382 168l102 -33q-17 -65 -72 -106t-139 -41q-105 0 -171 64t-66 168t66.5 168.5t171.5 64.5q79 0 132 -36t73 -97l-101 -38q-25 79 -100 79q-54 0 -86.5 -37.5t-32.5 -103.5q0 -65 32.5 -102.5t85.5 -37.5q81 0 105 88z" />
    <glyph glyph-name="Ccircumflex" unicode="&#x108;" horiz-adv-x="695" 
d="M312 830h122l89 -134h-80l-70 72l-70 -72h-79zM542 239l115 -46q-26 -95 -100 -150t-189 -55q-136 0 -228 91.5t-92 235.5t92 235.5t230 91.5q105 0 176.5 -48t102.5 -132l-111 -57q-37 127 -169 127q-86 0 -138.5 -59t-52.5 -158t52.5 -158t136.5 -59q145 0 175 141z
" />
    <glyph glyph-name="ccircumflex" unicode="&#x109;" horiz-adv-x="516" 
d="M220 656h117l90 -148h-79l-70 86l-70 -86h-79zM382 168l102 -33q-17 -65 -72 -106t-139 -41q-105 0 -171 64t-66 168t66.5 168.5t171.5 64.5q79 0 132 -36t73 -97l-101 -38q-25 79 -100 79q-54 0 -86.5 -37.5t-32.5 -103.5q0 -65 32.5 -102.5t85.5 -37.5q81 0 105 88z
" />
    <glyph glyph-name="Cdotaccent" unicode="&#x10a;" horiz-adv-x="695" 
d="M439 699h-130v109h130v-109zM542 239l115 -46q-26 -95 -100 -150t-189 -55q-136 0 -228 91.5t-92 235.5t92 235.5t230 91.5q105 0 176.5 -48t102.5 -132l-111 -57q-37 127 -169 127q-86 0 -138.5 -59t-52.5 -158t52.5 -158t136.5 -59q145 0 175 141z" />
    <glyph glyph-name="cdotaccent" unicode="&#x10b;" horiz-adv-x="516" 
d="M343 520h-130v110h130v-110zM382 168l102 -33q-17 -65 -72 -106t-139 -41q-105 0 -171 64t-66 168t66.5 168.5t171.5 64.5q79 0 132 -36t73 -97l-101 -38q-25 79 -100 79q-54 0 -86.5 -37.5t-32.5 -103.5q0 -65 32.5 -102.5t85.5 -37.5q81 0 105 88z" />
    <glyph glyph-name="Ccaron" unicode="&#x10c;" horiz-adv-x="695" 
d="M434 696h-122l-88 134h79l70 -71l70 71h80zM542 239l115 -46q-26 -95 -100 -150t-189 -55q-136 0 -228 91.5t-92 235.5t92 235.5t230 91.5q105 0 176.5 -48t102.5 -132l-111 -57q-37 127 -169 127q-86 0 -138.5 -59t-52.5 -158t52.5 -158t136.5 -59q145 0 175 141z" />
    <glyph glyph-name="ccaron" unicode="&#x10d;" horiz-adv-x="516" 
d="M220 503l-91 149h79l70 -86l70 86h79l-90 -149h-117zM382 168l102 -33q-17 -65 -72 -106t-139 -41q-105 0 -171 64t-66 168t66.5 168.5t171.5 64.5q79 0 132 -36t73 -97l-101 -38q-25 79 -100 79q-54 0 -86.5 -37.5t-32.5 -103.5q0 -65 32.5 -102.5t85.5 -37.5
q81 0 105 88z" />
    <glyph glyph-name="Dcaron" unicode="&#x10e;" horiz-adv-x="717" 
d="M382 696h-122l-88 134h79l70 -71l70 71h80zM78 0v630h254q156 0 247 -84t91 -231t-91 -231t-247 -84h-254zM204 101h117q105 0 161.5 56.5t56.5 158.5q0 101 -57 157t-161 56h-117v-428z" />
    <glyph glyph-name="dcaron" unicode="&#x10f;" horiz-adv-x="590" 
d="M658 482h-65l22 172h122zM403 211v19q0 59 -34 96t-85 37q-57 0 -89.5 -39.5t-32.5 -103.5t32.5 -103t89.5 -39q51 0 85 37t34 96zM400 0v87q-18 -45 -57 -72t-96 -27q-95 0 -151 66t-56 166t56 166.5t151 66.5q57 0 96 -27t57 -72v276h120v-630h-120z" />
    <glyph glyph-name="Dcroat" unicode="&#x110;" horiz-adv-x="735" 
d="M350 0h-254v271h-74v102h74v257h254q156 0 247 -84t91 -231t-91 -231t-247 -84zM222 101h117q105 0 161.5 56.5t56.5 158.5q0 101 -57 157t-161 56h-117v-156h144v-102h-144v-170z" />
    <glyph glyph-name="dcroat" unicode="&#x111;" horiz-adv-x="602" 
d="M403 211v19q0 59 -34 96t-85 37q-57 0 -89.5 -39.5t-32.5 -103.5t32.5 -103t89.5 -39q51 0 85 37t34 96zM400 87q-18 -45 -57 -72t-96 -27q-95 0 -151 66t-56 166t56 166.5t151 66.5q57 0 96 -27t57 -72v148h-131v61h131v67h120v-67h68v-61h-68v-502h-120v87z" />
    <glyph glyph-name="Emacron" unicode="&#x112;" horiz-adv-x="639" 
d="M188 701v74h282v-74h-282zM587 107v-107h-509v630h500v-107h-377v-147h284v-106h-284v-163h386z" />
    <glyph glyph-name="emacron" unicode="&#x113;" horiz-adv-x="533" 
d="M141 522v73h277v-73h-277zM399 150l92 -35q-48 -127 -213 -127q-105 0 -171.5 62.5t-66.5 163.5q0 104 67 171.5t168 67.5q104 0 161 -63t57 -155v-32h-335q1 -56 35.5 -91t88.5 -35q86 0 117 73zM161 265h221q-2 44 -30 73t-77 29q-47 0 -77 -29t-37 -73z" />
    <glyph glyph-name="Ebreve" unicode="&#x114;" horiz-adv-x="639" 
d="M328 693q-60 0 -94 35t-34 100h70q0 -65 58 -65q59 0 59 65h70q0 -65 -34 -100t-95 -35zM587 107v-107h-509v630h500v-107h-377v-147h284v-106h-284v-163h386z" />
    <glyph glyph-name="ebreve" unicode="&#x115;" horiz-adv-x="533" 
d="M279 502q-59 0 -94.5 41t-35.5 108h69q0 -34 16 -56.5t45 -22.5q30 0 46 22.5t16 56.5h69q0 -67 -35.5 -108t-95.5 -41zM399 150l92 -35q-48 -127 -213 -127q-105 0 -171.5 62.5t-66.5 163.5q0 104 67 171.5t168 67.5q104 0 161 -63t57 -155v-32h-335q1 -56 35.5 -91
t88.5 -35q86 0 117 73zM161 265h221q-2 44 -30 73t-77 29q-47 0 -77 -29t-37 -73z" />
    <glyph glyph-name="Edotaccent" unicode="&#x116;" horiz-adv-x="639" 
d="M393 699h-130v109h130v-109zM587 107v-107h-509v630h500v-107h-377v-147h284v-106h-284v-163h386z" />
    <glyph glyph-name="edotaccent" unicode="&#x117;" horiz-adv-x="533" 
d="M344 520h-130v110h130v-110zM399 150l92 -35q-48 -127 -213 -127q-105 0 -171.5 62.5t-66.5 163.5q0 104 67 171.5t168 67.5q104 0 161 -63t57 -155v-32h-335q1 -56 35.5 -91t88.5 -35q86 0 117 73zM161 265h221q-2 44 -30 73t-77 29q-47 0 -77 -29t-37 -73z" />
    <glyph glyph-name="Eogonek" unicode="&#x118;" horiz-adv-x="639" 
d="M547 -154q-42 -29 -86 -29q-39 0 -62 19.5t-23 52.5q0 29 17 54t53 57h-368v630h500v-107h-377v-147h284v-106h-284v-163h386v-107h-70q-35 -34 -47.5 -52t-12.5 -36q0 -28 33 -28q19 0 57 20v-58z" />
    <glyph glyph-name="eogonek" unicode="&#x119;" horiz-adv-x="533" 
d="M322 -183q-39 0 -62 19.5t-23 52.5q0 44 58 99h-17q-105 0 -171.5 62.5t-66.5 163.5q0 104 67 171.5t168 67.5q104 0 161 -63t57 -155v-32h-335q1 -56 35.5 -91t88.5 -35q86 0 117 73l92 -35q-30 -77 -105 -108q-40 -38 -54 -57t-14 -38q0 -28 33 -28q19 0 57 20v-58
q-42 -29 -86 -29zM161 265h221q-2 44 -30 73t-77 29q-47 0 -77 -29t-37 -73z" />
    <glyph glyph-name="Ecaron" unicode="&#x11a;" horiz-adv-x="639" 
d="M389 696h-122l-88 134h79l70 -71l70 71h80zM587 107v-107h-509v630h500v-107h-377v-147h284v-106h-284v-163h386z" />
    <glyph glyph-name="ecaron" unicode="&#x11b;" horiz-adv-x="533" 
d="M221 503l-91 149h79l70 -86l70 86h79l-90 -149h-117zM399 150l92 -35q-48 -127 -213 -127q-105 0 -171.5 62.5t-66.5 163.5q0 104 67 171.5t168 67.5q104 0 161 -63t57 -155v-32h-335q1 -56 35.5 -91t88.5 -35q86 0 117 73zM161 265h221q-2 44 -30 73t-77 29
q-47 0 -77 -29t-37 -73z" />
    <glyph glyph-name="Gcircumflex" unicode="&#x11c;" horiz-adv-x="741" 
d="M318 830h122l89 -134h-80l-70 72l-70 -72h-79zM654 470l-109 -61q-14 56 -58 89.5t-114 33.5q-87 0 -141 -59.5t-54 -157.5q0 -101 54.5 -160.5t145.5 -59.5q71 0 116 36.5t58 99.5h-208v89h325v-320h-88l-17 97q-23 -51 -79 -80t-127 -29q-134 0 -222 91t-88 236
q0 143 94.5 235t230.5 92q106 0 178.5 -45t102.5 -127z" />
    <glyph glyph-name="gcircumflex" unicode="&#x11d;" horiz-adv-x="555" 
d="M220 656h117l90 -148h-79l-70 86l-70 -86h-79zM344 305q0 36 -22.5 57.5t-57.5 21.5t-57.5 -21.5t-22.5 -57.5t22.5 -57.5t57.5 -21.5t57.5 21.5t22.5 57.5zM534 -20q0 -52 -40.5 -88.5t-100 -52t-130.5 -15.5q-104 0 -170.5 28.5t-66.5 87.5q0 32 25.5 55t66.5 28
q-31 9 -48.5 31t-17.5 50q0 62 75 89q-61 40 -61 112q0 68 54.5 108t142.5 40q80 0 135 -36q20 37 57.5 60t86.5 17l9 -94q-28 7 -59.5 -0.5t-50.5 -23.5q21 -32 21 -71q0 -67 -55.5 -107t-143.5 -40q-46 0 -90 13q-28 -13 -28 -37q0 -33 50 -33h187q71 0 111.5 -33
t40.5 -88zM131 -48q0 -63 133 -63q69 0 112.5 17.5t43.5 50.5q0 44 -70 44h-156q-27 0 -45 -13t-18 -36z" />
    <glyph glyph-name="Gbreve" unicode="&#x11e;" horiz-adv-x="741" 
d="M379 693q-60 0 -94 35t-34 100h70q0 -65 58 -65q59 0 59 65h70q0 -65 -34 -100t-95 -35zM654 470l-109 -61q-14 56 -58 89.5t-114 33.5q-87 0 -141 -59.5t-54 -157.5q0 -101 54.5 -160.5t145.5 -59.5q71 0 116 36.5t58 99.5h-208v89h325v-320h-88l-17 97q-23 -51 -79 -80
t-127 -29q-134 0 -222 91t-88 236q0 143 94.5 235t230.5 92q106 0 178.5 -45t102.5 -127z" />
    <glyph glyph-name="gbreve" unicode="&#x11f;" horiz-adv-x="555" 
d="M278 502q-59 0 -94.5 41t-35.5 108h69q0 -34 16 -56.5t45 -22.5q30 0 46 22.5t16 56.5h69q0 -67 -35.5 -108t-95.5 -41zM344 305q0 36 -22.5 57.5t-57.5 21.5t-57.5 -21.5t-22.5 -57.5t22.5 -57.5t57.5 -21.5t57.5 21.5t22.5 57.5zM534 -20q0 -52 -40.5 -88.5t-100 -52
t-130.5 -15.5q-104 0 -170.5 28.5t-66.5 87.5q0 32 25.5 55t66.5 28q-31 9 -48.5 31t-17.5 50q0 62 75 89q-61 40 -61 112q0 68 54.5 108t142.5 40q80 0 135 -36q20 37 57.5 60t86.5 17l9 -94q-28 7 -59.5 -0.5t-50.5 -23.5q21 -32 21 -71q0 -67 -55.5 -107t-143.5 -40
q-46 0 -90 13q-28 -13 -28 -37q0 -33 50 -33h187q71 0 111.5 -33t40.5 -88zM131 -48q0 -63 133 -63q69 0 112.5 17.5t43.5 50.5q0 44 -70 44h-156q-27 0 -45 -13t-18 -36z" />
    <glyph glyph-name="Gdotaccent" unicode="&#x120;" horiz-adv-x="741" 
d="M445 699h-130v109h130v-109zM654 470l-109 -61q-14 56 -58 89.5t-114 33.5q-87 0 -141 -59.5t-54 -157.5q0 -101 54.5 -160.5t145.5 -59.5q71 0 116 36.5t58 99.5h-208v89h325v-320h-88l-17 97q-23 -51 -79 -80t-127 -29q-134 0 -222 91t-88 236q0 143 94.5 235t230.5 92
q106 0 178.5 -45t102.5 -127z" />
    <glyph glyph-name="gdotaccent" unicode="&#x121;" horiz-adv-x="555" 
d="M343 520h-130v110h130v-110zM344 305q0 36 -22.5 57.5t-57.5 21.5t-57.5 -21.5t-22.5 -57.5t22.5 -57.5t57.5 -21.5t57.5 21.5t22.5 57.5zM534 -20q0 -52 -40.5 -88.5t-100 -52t-130.5 -15.5q-104 0 -170.5 28.5t-66.5 87.5q0 32 25.5 55t66.5 28q-31 9 -48.5 31
t-17.5 50q0 62 75 89q-61 40 -61 112q0 68 54.5 108t142.5 40q80 0 135 -36q20 37 57.5 60t86.5 17l9 -94q-28 7 -59.5 -0.5t-50.5 -23.5q21 -32 21 -71q0 -67 -55.5 -107t-143.5 -40q-46 0 -90 13q-28 -13 -28 -37q0 -33 50 -33h187q71 0 111.5 -33t40.5 -88zM131 -48
q0 -63 133 -63q69 0 112.5 17.5t43.5 50.5q0 44 -70 44h-156q-27 0 -45 -13t-18 -36z" />
    <glyph glyph-name="uni0122" unicode="&#x122;" horiz-adv-x="741" 
d="M654 470l-109 -61q-14 56 -58 89.5t-114 33.5q-87 0 -141 -59.5t-54 -157.5q0 -101 54.5 -160.5t145.5 -59.5q71 0 116 36.5t58 99.5h-208v89h325v-320h-88l-17 97q-23 -51 -79 -80t-127 -29q-134 0 -222 91t-88 236q0 143 94.5 235t230.5 92q106 0 178.5 -45t102.5 -127
zM322 -132v83h115v-74q0 -107 -117 -107v43q49 0 49 55h-47z" />
    <glyph glyph-name="uni0123" unicode="&#x123;" horiz-adv-x="555" 
d="M336 591v-83h-115v74q0 107 117 107v-43q-49 0 -49 -55h47zM344 305q0 36 -22.5 57.5t-57.5 21.5t-57.5 -21.5t-22.5 -57.5t22.5 -57.5t57.5 -21.5t57.5 21.5t22.5 57.5zM534 -20q0 -52 -40.5 -88.5t-100 -52t-130.5 -15.5q-104 0 -170.5 28.5t-66.5 87.5q0 32 25.5 55
t66.5 28q-31 9 -48.5 31t-17.5 50q0 62 75 89q-61 40 -61 112q0 68 54.5 108t142.5 40q80 0 135 -36q20 37 57.5 60t86.5 17l9 -94q-28 7 -59.5 -0.5t-50.5 -23.5q21 -32 21 -71q0 -67 -55.5 -107t-143.5 -40q-46 0 -90 13q-28 -13 -28 -37q0 -33 50 -33h187q71 0 111.5 -33
t40.5 -88zM131 -48q0 -63 133 -63q69 0 112.5 17.5t43.5 50.5q0 44 -70 44h-156q-27 0 -45 -13t-18 -36z" />
    <glyph glyph-name="Hcircumflex" unicode="&#x124;" horiz-adv-x="747" 
d="M312 830h122l89 -134h-80l-70 72l-70 -72h-79zM204 0h-126v630h126v-251h339v251h126v-630h-126v270h-339v-270z" />
    <glyph glyph-name="hcircumflex" unicode="&#x125;" horiz-adv-x="579" 
d="M231 813h122l89 -134h-80l-70 72l-70 -72h-79zM190 630v-272q17 41 60 68t96 27q84 0 125.5 -49.5t41.5 -128.5v-275h-119v251q0 51 -24 79t-70 28q-49 0 -79.5 -36t-30.5 -94v-228h-119v630h119z" />
    <glyph glyph-name="Hbar" unicode="&#x126;" horiz-adv-x="783" 
d="M222 323h339v100h-339v-100zM222 214v-214h-127v423h-73v102h73v105h127v-105h339v105h126v-105h74v-102h-74v-423h-126v214h-339z" />
    <glyph glyph-name="hbar" unicode="&#x127;" horiz-adv-x="591" 
d="M202 228v-228h-119v502h-69v61h69v67h119v-67h130v-61h-130v-144q17 41 60 68t96 27q84 0 125.5 -49.5t41.5 -128.5v-275h-119v251q0 51 -24 79t-70 28q-49 0 -79.5 -36t-30.5 -94z" />
    <glyph glyph-name="Itilde" unicode="&#x128;" horiz-adv-x="281" 
d="M47 696h-67q0 59 24.5 93.5t67.5 34.5q27 0 68.5 -25t58.5 -25q31 0 34 47h68q0 -59 -25 -93.5t-68 -34.5q-27 0 -68.5 25t-58.5 25q-31 0 -34 -47zM78 630h126v-630h-126v630z" />
    <glyph glyph-name="itilde" unicode="&#x129;" horiz-adv-x="261" 
d="M54 513h-65q0 59 22.5 93.5t60.5 34.5q26 0 60 -25t44 -25q29 0 31 47h65q0 -59 -22.5 -93.5t-60.5 -34.5q-25 0 -59 25t-45 25q-28 0 -31 -47zM71 441h119v-441h-119v441z" />
    <glyph glyph-name="Imacron" unicode="&#x12a;" horiz-adv-x="281" 
d="M-1 701v74h282v-74h-282zM78 630h126v-630h-126v630z" />
    <glyph glyph-name="imacron" unicode="&#x12b;" horiz-adv-x="261" 
d="M6 522v73h248v-73h-248zM71 441h119v-441h-119v441z" />
    <glyph glyph-name="Ibreve" unicode="&#x12c;" horiz-adv-x="281" 
d="M140 693q-60 0 -94 35t-34 100h70q0 -65 58 -65q59 0 59 65h70q0 -65 -34 -100t-95 -35zM78 630h126v-630h-126v630z" />
    <glyph glyph-name="ibreve" unicode="&#x12d;" horiz-adv-x="261" 
d="M130 502q-59 0 -94.5 41t-35.5 108h69q0 -34 16 -56.5t45 -22.5q30 0 46 22.5t16 56.5h69q0 -67 -35.5 -108t-95.5 -41zM71 441h119v-441h-119v441z" />
    <glyph glyph-name="Iogonek" unicode="&#x12e;" horiz-adv-x="281" 
d="M213 -154q-42 -29 -86 -29q-39 0 -62 19.5t-23 52.5q0 29 17 54t53 57h-34v630h126v-630h-21q-35 -34 -47.5 -52t-12.5 -36q0 -28 33 -28q19 0 57 20v-58z" />
    <glyph glyph-name="iogonek" unicode="&#x12f;" horiz-adv-x="261" 
d="M65 520v110h131v-110h-131zM202 -154q-42 -29 -86 -29q-39 0 -62 19.5t-23 52.5q0 29 17 54t53 57h-30v441h119v-441h-18q-35 -34 -47.5 -52t-12.5 -36q0 -28 33 -28q19 0 57 20v-58z" />
    <glyph glyph-name="Idotaccent" unicode="&#x130;" horiz-adv-x="281" 
d="M205 699h-130v109h130v-109zM78 630h126v-630h-126v630z" />
    <glyph glyph-name="dotlessi" unicode="&#x131;" horiz-adv-x="261" 
d="M71 441h119v-441h-119v441z" />
    <glyph glyph-name="IJ" unicode="&#x132;" horiz-adv-x="854" 
d="M78 630h126v-630h-126v630zM657 630h127v-402q0 -114 -67 -177t-174 -63q-115 0 -180.5 69t-61.5 188l129 25q-9 -81 20.5 -127.5t93.5 -46.5q113 0 113 140v394z" />
    <glyph glyph-name="ij" unicode="&#x133;" horiz-adv-x="522" 
d="M457 520h-131v110h131v-110zM65 520v110h131v-110h-131zM71 441h119v-441h-119v441zM451 441v-480q0 -137 -138 -137q-66 0 -113 32l22 70q37 -21 70 -21q40 0 40 43v493h119z" />
    <glyph glyph-name="Jcircumflex" unicode="&#x134;" horiz-adv-x="593" 
d="M393 830h122l89 -134h-80l-70 72l-70 -72h-79zM396 630h127v-402q0 -114 -67 -177t-174 -63q-115 0 -180.5 69t-61.5 188l129 25q-9 -81 20.5 -127.5t93.5 -46.5q113 0 113 140v394z" />
    <glyph glyph-name="jcircumflex" unicode="&#x135;" horiz-adv-x="261" 
d="M69 656h117l90 -148h-79l-70 86l-70 -86h-79zM190 441v-480q0 -137 -138 -137q-66 0 -113 32l22 70q37 -21 70 -21q40 0 40 43v493h119z" />
    <glyph glyph-name="uni0136" unicode="&#x136;" horiz-adv-x="684" 
d="M666 0h-154l-217 292l-91 -94v-198h-126v630h126v-295l288 295h150l-255 -256zM273 -132v83h115v-74q0 -107 -117 -107v43q49 0 49 55h-47z" />
    <glyph glyph-name="uni0137" unicode="&#x137;" horiz-adv-x="559" 
d="M190 137v-137h-119v630h119v-383l213 194h136l-197 -172l204 -269h-136l-152 198zM225 -132v83h115v-74q0 -107 -117 -107v43q49 0 49 55h-47z" />
    <glyph glyph-name="kgreenlandic" unicode="&#x138;" horiz-adv-x="559" 
d="M190 137v-137h-119v441h119v-194l213 194h136l-197 -172l204 -269h-136l-152 198z" />
    <glyph glyph-name="Lacute" unicode="&#x139;" horiz-adv-x="619" 
d="M189 696h-85l54 134h128zM78 630h126v-520h372v-110h-498v630z" />
    <glyph glyph-name="lacute" unicode="&#x13a;" horiz-adv-x="261" 
d="M170 696h-85l54 134h128zM71 630h119v-630h-119v630z" />
    <glyph glyph-name="uni013B" unicode="&#x13b;" horiz-adv-x="619" 
d="M78 630h126v-520h372v-110h-498v630zM269 -132v83h115v-74q0 -107 -117 -107v43q49 0 49 55h-47z" />
    <glyph glyph-name="uni013C" unicode="&#x13c;" horiz-adv-x="261" 
d="M71 630h119v-630h-119v630zM73 -132v83h115v-74q0 -107 -117 -107v43q49 0 49 55h-47z" />
    <glyph glyph-name="Lcaron" unicode="&#x13d;" horiz-adv-x="619" 
d="M78 630h126v-520h372v-110h-498v630zM440 458h-65l22 172h122z" />
    <glyph glyph-name="lcaron" unicode="&#x13e;" horiz-adv-x="261" 
d="M328 482h-65l22 172h122zM71 630h119v-630h-119v630z" />
    <glyph glyph-name="Ldot" unicode="&#x13f;" horiz-adv-x="619" 
d="M78 630h126v-520h372v-110h-498v630zM525 289h-131v133h131v-133z" />
    <glyph glyph-name="ldot" unicode="&#x140;" horiz-adv-x="428" 
d="M71 630h119v-630h-119v630zM409 260h-131v133h131v-133z" />
    <glyph glyph-name="Lslash" unicode="&#x141;" horiz-adv-x="637" 
d="M594 0h-498v262l-74 -26v101l74 26v267h126v-231l177 63v-101l-177 -63v-188h372v-110z" />
    <glyph glyph-name="lslash" unicode="&#x142;" horiz-adv-x="325" 
d="M222 0h-119v292l-79 -40v76l79 39v263h119v-216l79 39v-76l-79 -39v-338z" />
    <glyph glyph-name="Nacute" unicode="&#x143;" horiz-adv-x="715" 
d="M395 696h-85l54 134h128zM219 630l302 -432v432h116v-630h-111l-333 467v-467h-115v630h141z" />
    <glyph glyph-name="nacute" unicode="&#x144;" horiz-adv-x="579" 
d="M323 508h-79l57 152h125zM190 228v-228h-119v441h119v-83q17 41 60 68t96 27q84 0 125.5 -49.5t41.5 -128.5v-275h-119v251q0 51 -24 79t-70 28q-49 0 -79.5 -36t-30.5 -94z" />
    <glyph glyph-name="uni0145" unicode="&#x145;" horiz-adv-x="715" 
d="M219 630l302 -432v432h116v-630h-111l-333 467v-467h-115v630h141zM298 -132v83h115v-74q0 -107 -117 -107v43q49 0 49 55h-47z" />
    <glyph glyph-name="uni0146" unicode="&#x146;" horiz-adv-x="579" 
d="M190 228v-228h-119v441h119v-83q17 41 60 68t96 27q84 0 125.5 -49.5t41.5 -128.5v-275h-119v251q0 51 -24 79t-70 28q-49 0 -79.5 -36t-30.5 -94zM232 -132v83h115v-74q0 -107 -117 -107v43q49 0 49 55h-47z" />
    <glyph glyph-name="Ncaron" unicode="&#x147;" horiz-adv-x="715" 
d="M416 696h-122l-88 134h79l70 -71l70 71h80zM219 630l302 -432v432h116v-630h-111l-333 467v-467h-115v630h141z" />
    <glyph glyph-name="ncaron" unicode="&#x148;" horiz-adv-x="579" 
d="M231 503l-91 149h79l70 -86l70 86h79l-90 -149h-117zM190 228v-228h-119v441h119v-83q17 41 60 68t96 27q84 0 125.5 -49.5t41.5 -128.5v-275h-119v251q0 51 -24 79t-70 28q-49 0 -79.5 -36t-30.5 -94z" />
    <glyph glyph-name="Eng" unicode="&#x14a;" horiz-adv-x="715" 
d="M466 -176q-50 0 -91 20t-63 52l58 72q34 -43 84 -43q33 0 48.5 19.5t17.5 62.5l-327 460v-467h-115v630h141l302 -432v432h116v-616q0 -95 -44.5 -142.5t-126.5 -47.5z" />
    <glyph glyph-name="eng" unicode="&#x14b;" horiz-adv-x="579" 
d="M375 -176q-66 0 -113 32l22 70q37 -21 70 -21q40 0 40 43v303q0 51 -24 79t-70 28q-49 0 -79.5 -36t-30.5 -94v-228h-119v441h119v-83q17 41 60 68t96 27q84 0 125.5 -49.5t41.5 -128.5v-314q0 -137 -138 -137z" />
    <glyph glyph-name="Omacron" unicode="&#x14c;" horiz-adv-x="746" 
d="M232 701v74h282v-74h-282zM698 315q0 -144 -92.5 -235.5t-232.5 -91.5q-139 0 -232 91.5t-93 235.5t93 235.5t232 91.5q140 0 232.5 -91.5t92.5 -235.5zM568 315q0 98 -54 157.5t-141 59.5t-141 -59.5t-54 -157.5t54 -157.5t141 -59.5t141 59.5t54 157.5z" />
    <glyph glyph-name="omacron" unicode="&#x14d;" horiz-adv-x="563" 
d="M143 522v73h277v-73h-277zM523 220q0 -101 -69 -166.5t-173 -65.5q-103 0 -172 65.5t-69 166.5q0 102 69 167.5t172 65.5q104 0 173 -65.5t69 -167.5zM163 220q0 -65 31.5 -104t86.5 -39t87 39.5t32 103.5q0 65 -32 104.5t-87 39.5t-86.5 -39.5t-31.5 -104.5z" />
    <glyph glyph-name="Obreve" unicode="&#x14e;" horiz-adv-x="746" 
d="M373 693q-60 0 -94 35t-34 100h70q0 -65 58 -65q59 0 59 65h70q0 -65 -34 -100t-95 -35zM698 315q0 -144 -92.5 -235.5t-232.5 -91.5q-139 0 -232 91.5t-93 235.5t93 235.5t232 91.5q140 0 232.5 -91.5t92.5 -235.5zM568 315q0 98 -54 157.5t-141 59.5t-141 -59.5
t-54 -157.5t54 -157.5t141 -59.5t141 59.5t54 157.5z" />
    <glyph glyph-name="obreve" unicode="&#x14f;" horiz-adv-x="563" 
d="M281 502q-59 0 -94.5 41t-35.5 108h69q0 -34 16 -56.5t45 -22.5q30 0 46 22.5t16 56.5h69q0 -67 -35.5 -108t-95.5 -41zM523 220q0 -101 -69 -166.5t-173 -65.5q-103 0 -172 65.5t-69 166.5q0 102 69 167.5t172 65.5q104 0 173 -65.5t69 -167.5zM163 220q0 -65 31.5 -104
t86.5 -39t87 39.5t32 103.5q0 65 -32 104.5t-87 39.5t-86.5 -39.5t-31.5 -104.5z" />
    <glyph glyph-name="Ohungarumlaut" unicode="&#x150;" horiz-adv-x="746" 
d="M483 696h-71l46 134h119zM324 696h-71l46 134h120zM698 315q0 -144 -92.5 -235.5t-232.5 -91.5q-139 0 -232 91.5t-93 235.5t93 235.5t232 91.5q140 0 232.5 -91.5t92.5 -235.5zM568 315q0 98 -54 157.5t-141 59.5t-141 -59.5t-54 -157.5t54 -157.5t141 -59.5t141 59.5
t54 157.5z" />
    <glyph glyph-name="ohungarumlaut" unicode="&#x151;" horiz-adv-x="563" 
d="M396 503h-71l48 152h116zM225 503h-70l47 152h117zM523 220q0 -101 -69 -166.5t-173 -65.5q-103 0 -172 65.5t-69 166.5q0 102 69 167.5t172 65.5q104 0 173 -65.5t69 -167.5zM163 220q0 -65 31.5 -104t86.5 -39t87 39.5t32 103.5q0 65 -32 104.5t-87 39.5t-86.5 -39.5
t-31.5 -104.5z" />
    <glyph glyph-name="OE" unicode="&#x152;" horiz-adv-x="1076" 
d="M386 0q-156 0 -247 84t-91 231t91 231t247 84h629v-107h-377v-147h284v-106h-284v-163h386v-107h-638zM514 529h-117q-105 0 -162 -56.5t-57 -158.5q0 -101 57 -157t162 -56h117v428z" />
    <glyph glyph-name="oe" unicode="&#x153;" horiz-adv-x="884" 
d="M842 115q-24 -62 -78 -94.5t-131 -32.5q-108 0 -179 78q-71 -78 -173 -78q-103 0 -172 65.5t-69 166.5q0 102 69 167.5t172 65.5q102 0 176 -81q70 81 168 81q104 0 161.5 -63t57.5 -155v-32h-335q0 -56 34.5 -91t88.5 -35q87 0 117 73zM512 265h220q-2 44 -30 73t-77 29
q-47 0 -77 -29t-36 -73zM163 220q0 -65 31.5 -104t86.5 -39t87 39.5t32 103.5q0 65 -32 104.5t-87 39.5t-86.5 -39.5t-31.5 -104.5z" />
    <glyph glyph-name="Racute" unicode="&#x154;" horiz-adv-x="681" 
d="M372 696h-85l54 134h128zM202 528v-176h161q133 0 133 88t-130 88h-164zM648 0h-147q-23 21 -33 124q-5 67 -31 99t-80 32h-155v-255h-124v630h306q117 0 177 -48t60 -133q0 -60 -47.5 -101.5t-114.5 -45.5q51 -10 83 -47t42 -94q20 -120 64 -154v-7z" />
    <glyph glyph-name="racute" unicode="&#x155;" horiz-adv-x="499" 
d="M306 508h-79l57 152h125zM301 353q-50 0 -80.5 -42.5t-30.5 -106.5v-204h-120v441h120v-98q18 46 55.5 78t90.5 32q64 0 99.5 -41.5t35.5 -109.5q0 -12 -2 -16l-99 -37q2 7 2 27q0 77 -71 77z" />
    <glyph glyph-name="uni0156" unicode="&#x156;" horiz-adv-x="681" 
d="M202 528v-176h161q133 0 133 88t-130 88h-164zM648 0h-147q-23 21 -33 124q-5 67 -31 99t-80 32h-155v-255h-124v630h306q117 0 177 -48t60 -133q0 -60 -47.5 -101.5t-114.5 -45.5q51 -10 83 -47t42 -94q20 -120 64 -154v-7zM275 -132v83h115v-74q0 -107 -117 -107v43
q49 0 49 55h-47z" />
    <glyph glyph-name="uni0157" unicode="&#x157;" horiz-adv-x="499" 
d="M301 353q-50 0 -80.5 -42.5t-30.5 -106.5v-204h-120v441h120v-98q18 46 55.5 78t90.5 32q64 0 99.5 -41.5t35.5 -109.5q0 -12 -2 -16l-99 -37q2 7 2 27q0 77 -71 77zM71 -132v83h115v-74q0 -107 -117 -107v43q49 0 49 55h-47z" />
    <glyph glyph-name="Rcaron" unicode="&#x158;" horiz-adv-x="681" 
d="M393 696h-122l-88 134h79l70 -71l70 71h80zM202 528v-176h161q133 0 133 88t-130 88h-164zM648 0h-147q-23 21 -33 124q-5 67 -31 99t-80 32h-155v-255h-124v630h306q117 0 177 -48t60 -133q0 -60 -47.5 -101.5t-114.5 -45.5q51 -10 83 -47t42 -94q20 -120 64 -154v-7z
" />
    <glyph glyph-name="rcaron" unicode="&#x159;" horiz-adv-x="499" 
d="M214 503l-91 149h79l70 -86l70 86h79l-90 -149h-117zM301 353q-50 0 -80.5 -42.5t-30.5 -106.5v-204h-120v441h120v-98q18 46 55.5 78t90.5 32q64 0 99.5 -41.5t35.5 -109.5q0 -12 -2 -16l-99 -37q2 7 2 27q0 77 -71 77z" />
    <glyph glyph-name="Sacute" unicode="&#x15a;" horiz-adv-x="631" 
d="M352 696h-85l54 134h128zM24 116l79 91q34 -56 92.5 -86.5t126.5 -30.5q62 0 101 22t39 62q0 32 -23 47.5t-69 25.5l-142 29q-172 36 -172 174q0 86 67.5 139t178.5 53q172 0 266 -120l-85 -82q-58 100 -181 100q-54 0 -87 -22t-33 -60q0 -31 21.5 -45.5t65.5 -24.5
l131 -28q93 -20 140.5 -62.5t47.5 -118.5q0 -89 -75.5 -140t-190.5 -51q-98 0 -175.5 34t-122.5 94z" />
    <glyph glyph-name="sacute" unicode="&#x15b;" horiz-adv-x="501" 
d="M285 508h-79l57 152h125zM30 87l74 60q21 -36 64 -56t90 -20q87 0 87 47q0 33 -58 46l-95 20q-139 29 -139 132q0 60 51.5 98.5t131.5 38.5q138 0 203 -89l-69 -55q-46 61 -134 61q-30 0 -51 -12t-21 -32q0 -32 50 -44l116 -26q126 -29 126 -125q0 -66 -54 -104.5
t-143 -38.5q-72 0 -135 26t-94 73z" />
    <glyph glyph-name="Scircumflex" unicode="&#x15c;" horiz-adv-x="631" 
d="M250 830h122l89 -134h-80l-70 72l-70 -72h-79zM24 116l79 91q34 -56 92.5 -86.5t126.5 -30.5q62 0 101 22t39 62q0 32 -23 47.5t-69 25.5l-142 29q-172 36 -172 174q0 86 67.5 139t178.5 53q172 0 266 -120l-85 -82q-58 100 -181 100q-54 0 -87 -22t-33 -60
q0 -31 21.5 -45.5t65.5 -24.5l131 -28q93 -20 140.5 -62.5t47.5 -118.5q0 -89 -75.5 -140t-190.5 -51q-98 0 -175.5 34t-122.5 94z" />
    <glyph glyph-name="scircumflex" unicode="&#x15d;" horiz-adv-x="501" 
d="M193 656h117l90 -148h-79l-70 86l-70 -86h-79zM30 87l74 60q21 -36 64 -56t90 -20q87 0 87 47q0 33 -58 46l-95 20q-139 29 -139 132q0 60 51.5 98.5t131.5 38.5q138 0 203 -89l-69 -55q-46 61 -134 61q-30 0 -51 -12t-21 -32q0 -32 50 -44l116 -26q126 -29 126 -125
q0 -66 -54 -104.5t-143 -38.5q-72 0 -135 26t-94 73z" />
    <glyph glyph-name="uni015E" unicode="&#x15e;" horiz-adv-x="631" 
d="M299 -207q-69 0 -113 38l17 41q39 -30 89 -30q45 0 45 33q0 23 -27.5 29.5t-50.5 -5.5l-28 12l50 79q-173 14 -257 126l79 91q34 -56 92.5 -86.5t126.5 -30.5q62 0 101 22t39 62q0 32 -23 47.5t-69 25.5l-142 29q-172 36 -172 174q0 86 67.5 139t178.5 53q172 0 266 -120
l-85 -82q-58 100 -181 100q-54 0 -87 -22t-33 -60q0 -31 21.5 -45.5t65.5 -24.5l131 -28q93 -20 140.5 -62.5t47.5 -118.5q0 -89 -75 -140t-187 -51l-27 -41q44 7 79 -11.5t35 -57.5q0 -42 -33 -63.5t-81 -21.5z" />
    <glyph glyph-name="uni015F" unicode="&#x15f;" horiz-adv-x="501" 
d="M230 -207q-69 0 -113 38l17 41q39 -30 89 -30q45 0 45 33q0 23 -28 29.5t-50 -5.5l-28 12l50 80q-59 8 -108 32.5t-74 63.5l74 60q21 -36 64 -56t90 -20q87 0 87 47q0 33 -58 46l-95 20q-139 29 -139 132q0 60 51.5 98.5t131.5 38.5q138 0 203 -89l-69 -55
q-46 61 -134 61q-30 0 -51 -12t-21 -32q0 -32 50 -44l116 -26q126 -29 126 -125q0 -66 -54 -104.5t-143 -38.5h-2l-27 -41q44 7 79 -11.5t35 -57.5q0 -42 -33 -63.5t-81 -21.5z" />
    <glyph glyph-name="Scaron" unicode="&#x160;" horiz-adv-x="631" 
d="M372 696h-122l-88 134h79l70 -71l70 71h80zM24 116l79 91q34 -56 92.5 -86.5t126.5 -30.5q62 0 101 22t39 62q0 32 -23 47.5t-69 25.5l-142 29q-172 36 -172 174q0 86 67.5 139t178.5 53q172 0 266 -120l-85 -82q-58 100 -181 100q-54 0 -87 -22t-33 -60
q0 -31 21.5 -45.5t65.5 -24.5l131 -28q93 -20 140.5 -62.5t47.5 -118.5q0 -89 -75.5 -140t-190.5 -51q-98 0 -175.5 34t-122.5 94z" />
    <glyph glyph-name="scaron" unicode="&#x161;" horiz-adv-x="501" 
d="M193 503l-91 149h79l70 -86l70 86h79l-90 -149h-117zM30 87l74 60q21 -36 64 -56t90 -20q87 0 87 47q0 33 -58 46l-95 20q-139 29 -139 132q0 60 51.5 98.5t131.5 38.5q138 0 203 -89l-69 -55q-46 61 -134 61q-30 0 -51 -12t-21 -32q0 -32 50 -44l116 -26
q126 -29 126 -125q0 -66 -54 -104.5t-143 -38.5q-72 0 -135 26t-94 73z" />
    <glyph glyph-name="uni0162" unicode="&#x162;" horiz-adv-x="702" 
d="M346 -207q-69 0 -113 38l17 41q39 -30 89 -30q45 0 45 33q0 23 -28 29.5t-50 -5.5l-28 12l56 89h-47v520h-247v110h622v-110h-250v-520h-31l-35 -53q44 7 79 -11.5t35 -57.5q0 -42 -33 -63.5t-81 -21.5z" />
    <glyph glyph-name="uni0163" unicode="&#x163;" horiz-adv-x="461" 
d="M273 -207q-69 0 -113 38l17 41q39 -30 89 -30q45 0 45 33q0 23 -27.5 29.5t-50.5 -5.5l-28 12l49 78q-66 5 -106.5 45.5t-40.5 115.5v206h-86v85h86v114l116 27v-141h173v-85h-173v-196q0 -36 18.5 -55.5t48.5 -19.5q33 0 51 16t39 55l59 -74q-20 -35 -55.5 -60.5
t-82.5 -31.5l-28 -43q44 7 79 -11.5t35 -57.5q0 -42 -33 -63.5t-81 -21.5z" />
    <glyph glyph-name="Tcaron" unicode="&#x164;" horiz-adv-x="702" 
d="M412 696h-122l-88 134h79l70 -71l70 71h80zM412 0h-125v520h-247v110h622v-110h-250v-520z" />
    <glyph glyph-name="tcaron" unicode="&#x165;" horiz-adv-x="461" 
d="M367 523h-65l22 172h122zM21 441h86v114l116 27v-141h173v-85h-173v-196q0 -36 18.5 -55.5t48.5 -19.5q33 0 51 16t39 55l59 -74q-22 -40 -65.5 -67t-101.5 -27q-72 0 -118.5 41t-46.5 121v206h-86v85z" />
    <glyph glyph-name="Tbar" unicode="&#x166;" horiz-adv-x="702" 
d="M541 260h-129v-260h-125v260h-128v102h128v158h-247v110h622v-110h-250v-158h129v-102z" />
    <glyph glyph-name="tbar" unicode="&#x167;" horiz-adv-x="485" 
d="M454 82q-22 -40 -65.5 -67t-101.5 -27q-72 0 -118.5 41t-46.5 121v65h-86v62h86v79h-86v85h86v114l116 27v-141h173v-85h-173v-79h173v-62h-173v-55q0 -36 18.5 -55.5t48.5 -19.5q33 0 51 16t39 55z" />
    <glyph glyph-name="Utilde" unicode="&#x168;" horiz-adv-x="701" 
d="M257 696h-67q0 59 24.5 93.5t67.5 34.5q27 0 68.5 -25t58.5 -25q31 0 34 47h68q0 -59 -25 -93.5t-68 -34.5q-27 0 -68.5 25t-58.5 25q-31 0 -34 -47zM350 -12q-121 0 -200.5 69.5t-79.5 200.5v372h126v-355q0 -86 40 -133t114 -47q75 0 115 47t40 133v355h125v-372
q0 -131 -79.5 -200.5t-200.5 -69.5z" />
    <glyph glyph-name="utilde" unicode="&#x169;" horiz-adv-x="577" 
d="M192 513h-67q0 59 24.5 95.5t67.5 36.5q27 0 68.5 -27t58.5 -27q31 0 34 51h68q0 -59 -25 -95.5t-68 -36.5q-27 0 -68.5 27t-58.5 27q-31 0 -34 -51zM386 213v228h120v-441h-120v83q-16 -41 -59 -68t-96 -27q-84 0 -124.5 49.5t-40.5 128.5v275h120v-251q0 -107 91 -107
q49 0 79 36t30 94z" />
    <glyph glyph-name="Umacron" unicode="&#x16a;" horiz-adv-x="701" 
d="M210 701v74h282v-74h-282zM350 -12q-121 0 -200.5 69.5t-79.5 200.5v372h126v-355q0 -86 40 -133t114 -47q75 0 115 47t40 133v355h125v-372q0 -131 -79.5 -200.5t-200.5 -69.5z" />
    <glyph glyph-name="umacron" unicode="&#x16b;" horiz-adv-x="577" 
d="M146 522v73h277v-73h-277zM386 213v228h120v-441h-120v83q-16 -41 -59 -68t-96 -27q-84 0 -124.5 49.5t-40.5 128.5v275h120v-251q0 -107 91 -107q49 0 79 36t30 94z" />
    <glyph glyph-name="Ubreve" unicode="&#x16c;" horiz-adv-x="701" 
d="M350 693q-60 0 -94 35t-34 100h70q0 -65 58 -65q59 0 59 65h70q0 -65 -34 -100t-95 -35zM350 -12q-121 0 -200.5 69.5t-79.5 200.5v372h126v-355q0 -86 40 -133t114 -47q75 0 115 47t40 133v355h125v-372q0 -131 -79.5 -200.5t-200.5 -69.5z" />
    <glyph glyph-name="ubreve" unicode="&#x16d;" horiz-adv-x="577" 
d="M284 502q-59 0 -94.5 41t-35.5 108h69q0 -34 16 -56.5t45 -22.5q30 0 46 22.5t16 56.5h69q0 -67 -35.5 -108t-95.5 -41zM386 213v228h120v-441h-120v83q-16 -41 -59 -68t-96 -27q-84 0 -124.5 49.5t-40.5 128.5v275h120v-251q0 -107 91 -107q49 0 79 36t30 94z" />
    <glyph glyph-name="Uring" unicode="&#x16e;" horiz-adv-x="701" 
d="M246 777q0 43 28.5 71.5t75.5 28.5t76 -28.5t29 -71.5q0 -44 -29 -72.5t-76 -28.5t-75.5 28.5t-28.5 72.5zM302 777q0 -22 12.5 -35.5t35.5 -13.5q24 0 36.5 13.5t12.5 35.5t-12.5 35.5t-36.5 13.5q-23 0 -35.5 -13.5t-12.5 -35.5zM350 -12q-121 0 -200.5 69.5
t-79.5 200.5v372h126v-355q0 -86 40 -133t114 -47q75 0 115 47t40 133v355h125v-372q0 -131 -79.5 -200.5t-200.5 -69.5z" />
    <glyph glyph-name="uring" unicode="&#x16f;" horiz-adv-x="577" 
d="M180 600q0 43 28.5 71.5t75.5 28.5t76 -28.5t29 -71.5t-29 -71.5t-76 -28.5t-75.5 28.5t-28.5 71.5zM236 600q0 -22 12.5 -35.5t35.5 -13.5q24 0 36.5 13.5t12.5 35.5t-12.5 35.5t-36.5 13.5q-23 0 -35.5 -13.5t-12.5 -35.5zM386 213v228h120v-441h-120v83
q-16 -41 -59 -68t-96 -27q-84 0 -124.5 49.5t-40.5 128.5v275h120v-251q0 -107 91 -107q49 0 79 36t30 94z" />
    <glyph glyph-name="Uhungarumlaut" unicode="&#x170;" horiz-adv-x="701" 
d="M460 696h-71l46 134h119zM301 696h-71l46 134h120zM350 -12q-121 0 -200.5 69.5t-79.5 200.5v372h126v-355q0 -86 40 -133t114 -47q75 0 115 47t40 133v355h125v-372q0 -131 -79.5 -200.5t-200.5 -69.5z" />
    <glyph glyph-name="uhungarumlaut" unicode="&#x171;" horiz-adv-x="577" 
d="M399 503h-71l48 152h116zM228 503h-70l47 152h117zM386 213v228h120v-441h-120v83q-16 -41 -59 -68t-96 -27q-84 0 -124.5 49.5t-40.5 128.5v275h120v-251q0 -107 91 -107q49 0 79 36t30 94z" />
    <glyph glyph-name="Uogonek" unicode="&#x172;" horiz-adv-x="701" 
d="M396 -183q-39 0 -62 19.5t-23 52.5q0 44 58 99h-19q-121 0 -200.5 69.5t-79.5 200.5v372h126v-355q0 -86 40 -133t114 -47q75 0 115 47t40 133v355h125v-372q0 -99 -47 -163.5t-126 -90.5q-37 -35 -51 -54t-14 -38q0 -28 33 -28q19 0 57 20v-58q-42 -29 -86 -29z" />
    <glyph glyph-name="uogonek" unicode="&#x173;" horiz-adv-x="577" 
d="M488 -154q-42 -29 -86 -29q-39 0 -62 19.5t-23 52.5q0 29 17 54t53 57h-1v83q-16 -41 -59 -68t-96 -27q-84 0 -124.5 49.5t-40.5 128.5v275h120v-251q0 -107 91 -107q49 0 79 36t30 94v228h120v-441h-48q-35 -34 -47.5 -52t-12.5 -36q0 -28 33 -28q19 0 57 20v-58z" />
    <glyph glyph-name="Wcircumflex" unicode="&#x174;" horiz-adv-x="922" 
d="M399 830h122l89 -134h-80l-70 72l-70 -72h-79zM521 630l124 -463h4l122 463h121l-170 -630h-139l-121 454h-4l-121 -454h-138l-169 630h125l123 -462h4l123 462h116z" />
    <glyph glyph-name="wcircumflex" unicode="&#x175;" horiz-adv-x="733" 
d="M308 656h117l90 -148h-79l-70 86l-70 -86h-79zM419 441l93 -295h4l88 295h110l-136 -441h-117l-92 292h-4l-92 -292h-117l-137 441h118l88 -295h4l92 295h98z" />
    <glyph glyph-name="Ycircumflex" unicode="&#x176;" horiz-adv-x="647" 
d="M262 830h122l89 -134h-80l-70 72l-70 -72h-79zM329 378l157 252h138l-239 -367v-263h-122v263l-240 367h147z" />
    <glyph glyph-name="ycircumflex" unicode="&#x177;" horiz-adv-x="524" 
d="M213 656h117l90 -148h-79l-70 86l-70 -86h-79zM201 -28l11 25l-195 444h131l124 -307h4l116 307h114l-180 -440q-36 -88 -77.5 -132.5t-108.5 -44.5q-56 0 -90.5 31.5t-40.5 81.5l87 45q0 -66 48 -66q33 0 57 56z" />
    <glyph glyph-name="Ydieresis" unicode="&#x178;" horiz-adv-x="647" 
d="M183 699v108h104v-108h-104zM359 699v108h104v-108h-104zM329 378l157 252h138l-239 -367v-263h-122v263l-240 367h147z" />
    <glyph glyph-name="Zacute" unicode="&#x179;" horiz-adv-x="648" 
d="M365 696h-85l54 134h128zM213 110h383v-110h-543v99l373 421h-369v110h530v-102z" />
    <glyph glyph-name="zacute" unicode="&#x17a;" horiz-adv-x="497" 
d="M286 508h-79l57 152h125zM58 441h383v-83l-245 -268h251v-90h-395v84l242 267h-236v90z" />
    <glyph glyph-name="Zdotaccent" unicode="&#x17b;" horiz-adv-x="648" 
d="M390 699h-130v109h130v-109zM213 110h383v-110h-543v99l373 421h-369v110h530v-102z" />
    <glyph glyph-name="zdotaccent" unicode="&#x17c;" horiz-adv-x="497" 
d="M317 520h-130v110h130v-110zM58 441h383v-83l-245 -268h251v-90h-395v84l242 267h-236v90z" />
    <glyph glyph-name="Zcaron" unicode="&#x17d;" horiz-adv-x="648" 
d="M386 696h-122l-88 134h79l70 -71l70 71h80zM213 110h383v-110h-543v99l373 421h-369v110h530v-102z" />
    <glyph glyph-name="zcaron" unicode="&#x17e;" horiz-adv-x="497" 
d="M193 503l-91 149h79l70 -86l70 86h79l-90 -149h-117zM58 441h383v-83l-245 -268h251v-90h-395v84l242 267h-236v90z" />
    <glyph glyph-name="uni0192" unicode="&#x192;" horiz-adv-x="452" 
d="M57 -118q-20 0 -48 5v88q10 -2 26 -2q35 0 51.5 21.5t25.5 67.5l47 227h-76v87h95l24 117q14 69 58.5 108.5t109.5 39.5q23 0 56 -7v-88q-15 3 -29 3q-35 0 -53.5 -22.5t-27.5 -65.5l-18 -85h94v-87h-112l-55 -259q-31 -148 -168 -148z" />
    <glyph glyph-name="Aringacute" unicode="&#x1fa;" horiz-adv-x="688" 
d="M477 1009l-97 -108h-85l54 108h128zM343 861q49 0 79.5 -26t30.5 -67q0 -40 -30.5 -66.5t-79.5 -26.5q-48 0 -78.5 26.5t-30.5 66.5q0 41 30.5 67t78.5 26zM343 813q-24 0 -37.5 -12.5t-13.5 -32.5t13.5 -32t37.5 -12q51 0 51 44q0 45 -51 45zM336 494l-92 -242h190
l-94 242h-4zM532 0l-60 155h-265l-59 -155h-126l250 630h141l253 -630h-134z" />
    <glyph glyph-name="aringacute" unicode="&#x1fb;" horiz-adv-x="548" 
d="M406 822l-97 -108h-85l54 108h128zM163 582q0 40 30 66.5t79 26.5t79.5 -26.5t30.5 -66.5t-30.5 -67t-79.5 -27t-79 27t-30 67zM221 582q0 -20 13.5 -32.5t37.5 -12.5q25 0 38 12.5t13 32.5q0 44 -51 44q-24 0 -37.5 -12t-13.5 -32zM159 295l-105 30q24 58 80 93t138 35
q179 0 179 -148v-194q0 -37 34 -37q26 0 49 18l8 -76q-43 -27 -89 -27t-77 26t-36 66q-18 -40 -60.5 -64.5t-99.5 -24.5q-63 0 -102.5 34t-39.5 92q0 56 42 86.5t121 49.5l137 33v23q0 56 -71 56q-43 0 -72 -20.5t-36 -50.5zM338 180v45l-100 -26q-41 -11 -62 -26.5
t-21 -44.5q0 -25 17 -40t46 -15q48 0 84 30.5t36 76.5z" />
    <glyph glyph-name="AEacute" unicode="&#x1fc;" horiz-adv-x="1054" 
d="M717 696h-85l54 134h128zM493 536l-179 -284h179v284zM493 0v155h-240l-97 -155h-134l401 630h570v-107h-377v-147h284v-106h-284v-163h386v-107h-509z" />
    <glyph glyph-name="aeacute" unicode="&#x1fd;" horiz-adv-x="817" 
d="M441 508h-79l57 152h125zM561 -12q-129 0 -193 95q-61 -91 -188 -91q-64 0 -103 33t-39 92q0 56 41.5 85.5t121.5 48.5l137 34v25q0 56 -71 56q-43 0 -72 -20.5t-36 -50.5l-105 30q24 58 79.5 93t133.5 35q98 0 141 -62q62 62 150 62q104 0 161 -63t57 -155v-32h-334
q0 -56 34.5 -91t88.5 -35q87 0 117 73l92 -35q-47 -127 -213 -127zM445 265h220q-2 44 -30 73t-77 29q-47 0 -77 -29t-36 -73zM338 180v43l-100 -26q-42 -11 -62.5 -26t-20.5 -44q0 -25 16.5 -39.5t46.5 -14.5q48 0 84 30.5t36 76.5z" />
    <glyph glyph-name="Oslashacute" unicode="&#x1fe;" horiz-adv-x="746" 
d="M413 696h-85l54 134h128zM178 315q0 -76 33 -129l280 308q-49 38 -118 38q-87 0 -141 -59.5t-54 -157.5zM373 98q87 0 141 59.5t54 157.5q0 71 -30 125l-279 -307q47 -35 114 -35zM373 -12q-107 0 -192 58l-66 -73l-58 43l71 78q-80 90 -80 221q0 144 93 235.5t232 91.5
q112 0 196 -61l62 68l57 -43l-66 -73q76 -89 76 -218q0 -144 -92.5 -235.5t-232.5 -91.5z" />
    <glyph glyph-name="oslashacute" unicode="&#x1ff;" horiz-adv-x="563" 
d="M315 508h-79l57 152h125zM161 220q0 -40 13 -72l180 193q-30 25 -73 25q-56 0 -88 -40t-32 -106zM281 75q56 0 88.5 40t32.5 105q0 43 -13 72l-179 -193q29 -24 71 -24zM281 -12q-77 0 -138 39l-57 -62l-47 37l59 63q-58 63 -58 155q0 102 69 167.5t172 65.5
q80 0 140 -40l55 60l47 -36l-57 -62q57 -63 57 -155q0 -101 -69 -166.5t-173 -65.5z" />
    <glyph glyph-name="uni0218" unicode="&#x218;" horiz-adv-x="631" 
d="M24 116l79 91q34 -56 92.5 -86.5t126.5 -30.5q62 0 101 22t39 62q0 32 -23 47.5t-69 25.5l-142 29q-172 36 -172 174q0 86 67.5 139t178.5 53q172 0 266 -120l-85 -82q-58 100 -181 100q-54 0 -87 -22t-33 -60q0 -31 21.5 -45.5t65.5 -24.5l131 -28q93 -20 140.5 -62.5
t47.5 -118.5q0 -89 -75.5 -140t-190.5 -51q-98 0 -175.5 34t-122.5 94zM254 -132v83h115v-74q0 -107 -117 -107v43q49 0 49 55h-47z" />
    <glyph glyph-name="uni0219" unicode="&#x219;" horiz-adv-x="501" 
d="M30 87l74 60q21 -36 64 -56t90 -20q87 0 87 47q0 33 -58 46l-95 20q-139 29 -139 132q0 60 51.5 98.5t131.5 38.5q138 0 203 -89l-69 -55q-46 61 -134 61q-30 0 -51 -12t-21 -32q0 -32 50 -44l116 -26q126 -29 126 -125q0 -66 -54 -104.5t-143 -38.5q-72 0 -135 26
t-94 73zM194 -132v83h115v-74q0 -107 -117 -107v43q49 0 49 55h-47z" />
    <glyph glyph-name="uni021A" unicode="&#x21a;" horiz-adv-x="702" 
d="M412 0h-125v520h-247v110h622v-110h-250v-520zM294 -132v83h115v-74q0 -107 -117 -107v43q49 0 49 55h-47z" />
    <glyph glyph-name="uni021B" unicode="&#x21b;" horiz-adv-x="461" 
d="M21 441h86v114l116 27v-141h173v-85h-173v-196q0 -36 18.5 -55.5t48.5 -19.5q33 0 51 16t39 55l59 -74q-22 -40 -65.5 -67t-101.5 -27q-72 0 -118.5 41t-46.5 121v206h-86v85zM185 -132v83h115v-74q0 -107 -117 -107v43q49 0 49 55h-47z" />
    <glyph glyph-name="uni0237" unicode="&#x237;" horiz-adv-x="261" 
d="M190 441v-480q0 -137 -138 -137q-66 0 -113 32l22 70q37 -21 70 -21q40 0 40 43v493h119z" />
    <glyph glyph-name="circumflex" unicode="&#x2c6;" horiz-adv-x="519" 
d="M201 656h117l90 -148h-79l-70 86l-70 -86h-79z" />
    <glyph glyph-name="caron" unicode="&#x2c7;" horiz-adv-x="519" 
d="M201 503l-91 149h79l70 -86l70 86h79l-90 -149h-117z" />
    <glyph glyph-name="breve" unicode="&#x2d8;" horiz-adv-x="519" 
d="M259 502q-59 0 -94.5 41t-35.5 108h69q0 -34 16 -56.5t45 -22.5q30 0 46 22.5t16 56.5h69q0 -67 -35.5 -108t-95.5 -41z" />
    <glyph glyph-name="dotaccent" unicode="&#x2d9;" horiz-adv-x="519" 
d="M324 520h-130v110h130v-110z" />
    <glyph glyph-name="ring" unicode="&#x2da;" horiz-adv-x="519" 
d="M155 600q0 43 28.5 71.5t75.5 28.5t76 -28.5t29 -71.5t-29 -71.5t-76 -28.5t-75.5 28.5t-28.5 71.5zM211 600q0 -22 12.5 -35.5t35.5 -13.5q24 0 36.5 13.5t12.5 35.5t-12.5 35.5t-36.5 13.5q-23 0 -35.5 -13.5t-12.5 -35.5z" />
    <glyph glyph-name="ogonek" unicode="&#x2db;" horiz-adv-x="519" 
d="M260 12h70q-43 -40 -58 -60.5t-15 -39.5q0 -28 33 -28q19 0 57 20v-58q-42 -29 -86 -29q-39 0 -62 19.5t-23 52.5q0 32 20 58t64 65z" />
    <glyph glyph-name="tilde" unicode="&#x2dc;" horiz-adv-x="519" 
d="M172 513h-67q0 59 24.5 95.5t67.5 36.5q27 0 68.5 -27t58.5 -27q31 0 34 51h68q0 -59 -25 -95.5t-68 -36.5q-27 0 -68.5 27t-58.5 27q-31 0 -34 -51z" />
    <glyph glyph-name="hungarumlaut" unicode="&#x2dd;" horiz-adv-x="519" 
d="M333 503h-71l48 152h116zM162 503h-70l47 152h117z" />
    <glyph glyph-name="Wgrave" unicode="&#x1e80;" horiz-adv-x="922" 
d="M509 696h-85l-97 134h128zM521 630l124 -463h4l122 463h121l-170 -630h-139l-121 454h-4l-121 -454h-138l-169 630h125l123 -462h4l123 462h116z" />
    <glyph glyph-name="wgrave" unicode="&#x1e81;" horiz-adv-x="733" 
d="M409 508h-79l-103 152h125zM419 441l93 -295h4l88 295h110l-136 -441h-117l-92 292h-4l-92 -292h-117l-137 441h118l88 -295h4l92 295h98z" />
    <glyph glyph-name="Wacute" unicode="&#x1e82;" horiz-adv-x="922" 
d="M501 696h-85l54 134h128zM521 630l124 -463h4l122 463h121l-170 -630h-139l-121 454h-4l-121 -454h-138l-169 630h125l123 -462h4l123 462h116z" />
    <glyph glyph-name="wacute" unicode="&#x1e83;" horiz-adv-x="733" 
d="M401 508h-79l57 152h125zM419 441l93 -295h4l88 295h110l-136 -441h-117l-92 292h-4l-92 -292h-117l-137 441h118l88 -295h4l92 295h98z" />
    <glyph glyph-name="Wdieresis" unicode="&#x1e84;" horiz-adv-x="922" 
d="M320 699v108h104v-108h-104zM496 699v108h104v-108h-104zM521 630l124 -463h4l122 463h121l-170 -630h-139l-121 454h-4l-121 -454h-138l-169 630h125l123 -462h4l123 462h116z" />
    <glyph glyph-name="wdieresis" unicode="&#x1e85;" horiz-adv-x="733" 
d="M403 518v108h104v-108h-104zM227 518v108h104v-108h-104zM419 441l93 -295h4l88 295h110l-136 -441h-117l-92 292h-4l-92 -292h-117l-137 441h118l88 -295h4l92 295h98z" />
    <glyph glyph-name="Ygrave" unicode="&#x1ef2;" horiz-adv-x="647" 
d="M371 696h-85l-97 134h128zM329 378l157 252h138l-239 -367v-263h-122v263l-240 367h147z" />
    <glyph glyph-name="ygrave" unicode="&#x1ef3;" horiz-adv-x="524" 
d="M319 508h-79l-103 152h125zM201 -28l11 25l-195 444h131l124 -307h4l116 307h114l-180 -440q-36 -88 -77.5 -132.5t-108.5 -44.5q-56 0 -90.5 31.5t-40.5 81.5l87 45q0 -66 48 -66q33 0 57 56z" />
    <glyph glyph-name="uni2009" unicode="&#x2009;" horiz-adv-x="60" 
 />
    <glyph glyph-name="endash" unicode="&#x2013;" horiz-adv-x="518" 
d="M61 214v82h395v-82h-395z" />
    <glyph glyph-name="emdash" unicode="&#x2014;" horiz-adv-x="1019" 
d="M61 214v82h897v-82h-897z" />
    <glyph glyph-name="quoteleft" unicode="&#x2018;" horiz-adv-x="263" 
d="M201 494v-131h-137v145q0 134 144 134v-65q-69 0 -69 -69v-14h62z" />
    <glyph glyph-name="quoteright" unicode="&#x2019;" horiz-adv-x="263" 
d="M62 499v131h137v-145q0 -134 -144 -134v65q69 0 69 69v14h-62z" />
    <glyph glyph-name="quotesinglbase" unicode="&#x201a;" horiz-adv-x="263" 
d="M62 10v131h137v-145q0 -134 -144 -134v65q69 0 69 69v14h-62z" />
    <glyph glyph-name="quotedblleft" unicode="&#x201c;" horiz-adv-x="479" 
d="M201 494v-131h-137v145q0 134 144 134v-65q-69 0 -69 -69v-14h62zM417 494v-131h-137v145q0 134 144 134v-65q-69 0 -69 -69v-14h62z" />
    <glyph glyph-name="quotedblright" unicode="&#x201d;" horiz-adv-x="479" 
d="M62 499v131h137v-145q0 -134 -144 -134v65q69 0 69 69v14h-62zM278 499v131h137v-145q0 -134 -144 -134v65q69 0 69 69v14h-62z" />
    <glyph glyph-name="quotedblbase" unicode="&#x201e;" horiz-adv-x="479" 
d="M62 10v131h137v-145q0 -134 -144 -134v65q69 0 69 69v14h-62zM278 10v131h137v-145q0 -134 -144 -134v65q69 0 69 69v14h-62z" />
    <glyph glyph-name="dagger" unicode="&#x2020;" horiz-adv-x="347" 
d="M311 467h-98v-206h-79v206h-99v76h99v92h79v-92h98v-76z" />
    <glyph glyph-name="daggerdbl" unicode="&#x2021;" horiz-adv-x="357" 
d="M141 261v80h-101v70h101v73h-101v71h101v80h75v-80h100v-71h-100v-73h100v-70h-100v-80h-75z" />
    <glyph glyph-name="bullet" unicode="&#x2022;" horiz-adv-x="383" 
d="M336 257q0 -62 -42 -102.5t-103 -40.5q-60 0 -101.5 40.5t-41.5 102.5q0 63 41.5 103.5t101.5 40.5q61 0 103 -40.5t42 -103.5z" />
    <glyph glyph-name="ellipsis" unicode="&#x2026;" horiz-adv-x="858" 
d="M60 0v137h136v-137h-136zM361 0v137h136v-137h-136zM662 0v137h136v-137h-136z" />
    <glyph glyph-name="perthousand" unicode="&#x2030;" horiz-adv-x="1278" 
d="M210 642q70 0 119 -49.5t49 -118.5t-49 -118t-119 -49q-69 0 -118 49t-49 118t49 118.5t118 49.5zM204 0l393 630h88l-393 -630h-88zM210 566q-36 0 -62 -26.5t-26 -65.5q0 -38 26 -64t62 -26q37 0 63 26t26 64q0 39 -26 65.5t-63 26.5zM679 -12q-70 0 -119 49.5
t-49 118.5t49 118t119 49q69 0 118 -49t49 -118t-49 -118.5t-118 -49.5zM1235 156q0 -69 -49.5 -118.5t-118.5 -49.5t-118 49.5t-49 118.5t49 118t118 49t118.5 -49t49.5 -118zM679 64q36 0 62 26.5t26 65.5q0 38 -26 64t-62 26q-37 0 -63 -26t-26 -64q0 -39 26 -65.5
t63 -26.5zM979 156q0 -39 25.5 -65.5t62.5 -26.5t63 26.5t26 65.5q0 38 -26 64t-63 26t-62.5 -26t-25.5 -64z" />
    <glyph glyph-name="guilsinglleft" unicode="&#x2039;" horiz-adv-x="273" 
d="M48 170v104l177 132v-109l-99 -75l99 -75v-110z" />
    <glyph glyph-name="guilsinglright" unicode="&#x203a;" horiz-adv-x="273" 
d="M225 274v-104l-177 -133v110l99 75l-99 75v109z" />
    <glyph glyph-name="fraction" unicode="&#x2044;" horiz-adv-x="219" 
d="M350 630l-393 -630h-87l393 630h87z" />
    <glyph glyph-name="uni2070" unicode="&#x2070;" horiz-adv-x="446" 
d="M396 435q0 -96 -46.5 -149.5t-126.5 -53.5t-126.5 53.5t-46.5 149.5q0 97 46.5 150.5t126.5 53.5t126.5 -53.5t46.5 -150.5zM301 435q0 68 -18.5 99.5t-59.5 31.5t-59.5 -32t-18.5 -99t18.5 -99t59.5 -32t59.5 31.5t18.5 99.5z" />
    <glyph glyph-name="uni2074" unicode="&#x2074;" horiz-adv-x="439" 
d="M334 631v-231h65v-71h-65v-90h-84v90h-206v83l178 219h112zM250 558l-130 -158h130v158z" />
    <glyph glyph-name="uni2075" unicode="&#x2075;" horiz-adv-x="396" 
d="M40 355l90 13q1 -30 20.5 -47.5t51.5 -17.5q30 0 48 17.5t18 47.5q0 29 -18 48.5t-50 19.5q-42 0 -63 -30l-80 11q21 130 24 214h252q5 -36 -11.5 -58.5t-54.5 -22.5q-18 0 -120 11q-5 -72 -11 -96q27 36 84 36q60 0 96 -38t36 -95q0 -62 -43 -99t-108 -37
q-69 0 -112.5 34t-48.5 89z" />
    <glyph glyph-name="uni2076" unicode="&#x2076;" horiz-adv-x="414" 
d="M362 534l-83 -13q-10 46 -60 46q-86 0 -84 -135q24 62 105 62q56 0 91.5 -35.5t35.5 -91.5q0 -62 -41.5 -98.5t-108.5 -36.5q-81 0 -124 53t-43 147q0 93 44 150t126 57q58 0 95 -27.5t47 -77.5zM149 366q0 -28 18 -46t48 -18q31 0 48.5 18t17.5 46q0 30 -17.5 47.5
t-48.5 17.5t-48.5 -17.5t-17.5 -47.5z" />
    <glyph glyph-name="uni2077" unicode="&#x2077;" horiz-adv-x="378" 
d="M240 548h-200v83h298v-59q-71 -70 -96 -148.5t-26 -184.5h-100q3 179 124 309z" />
    <glyph glyph-name="uni2078" unicode="&#x2078;" horiz-adv-x="417" 
d="M209 232q-77 0 -119.5 30t-42.5 83q0 36 25.5 62.5t60.5 33.5q-73 24 -73 89q0 50 41 79.5t108 29.5q66 0 107 -29.5t41 -79.5q0 -65 -73 -89q35 -7 60.5 -33.5t25.5 -62.5q0 -53 -42.5 -83t-118.5 -30zM209 471q27 0 42.5 13t15.5 37q0 25 -15.5 38.5t-42.5 13.5
t-43 -13.5t-16 -38.5q0 -24 16 -37t43 -13zM209 299q32 0 50 14.5t18 40.5q0 54 -68 54q-69 0 -69 -54q0 -55 69 -55z" />
    <glyph glyph-name="uni2079" unicode="&#x2079;" horiz-adv-x="414" 
d="M266 504q0 28 -18.5 46t-48.5 18q-31 0 -48.5 -17.5t-17.5 -46.5q0 -30 17.5 -47.5t49.5 -17.5q30 0 48 17.5t18 47.5zM53 337l82 12q10 -46 61 -46q84 0 84 136q-26 -63 -105 -63q-57 0 -92 35.5t-35 92.5q0 62 41.5 98.5t108.5 36.5q80 0 123 -53t43 -147t-44 -150.5
t-126 -56.5q-57 0 -94.5 27.5t-46.5 77.5z" />
    <glyph glyph-name="uni2080" unicode="&#x2080;" horiz-adv-x="446" 
d="M396 96q0 -96 -46.5 -149.5t-126.5 -53.5t-126.5 53.5t-46.5 149.5t46.5 150t126.5 54t126.5 -53.5t46.5 -150.5zM301 96q0 68 -18.5 99.5t-59.5 31.5q-40 0 -58.5 -32t-18.5 -99t18.5 -99t58.5 -32q41 0 59.5 31.5t18.5 99.5z" />
    <glyph glyph-name="uni2081" unicode="&#x2081;" horiz-adv-x="311" 
d="M231 -100h-90v269h-100v65h30q45 0 63.5 13t28.5 46h68v-393z" />
    <glyph glyph-name="uni2082" unicode="&#x2082;" horiz-adv-x="395" 
d="M183 -25h169v-75h-303v63l110 88q54 44 74 66.5t20 52.5q0 24 -14 39t-41 15q-30 0 -46.5 -18.5t-16.5 -48.5q0 -19 6 -34l-88 3q-5 22 -5 37q0 62 41.5 99.5t108.5 37.5q69 0 108 -35t39 -89q0 -47 -25.5 -80.5t-79.5 -75.5z" />
    <glyph glyph-name="uni2083" unicode="&#x2083;" horiz-adv-x="396" 
d="M130 158l-85 15q5 56 46.5 91.5t107.5 35.5q68 0 106 -31t38 -82q0 -36 -25.5 -60.5t-58.5 -27.5q40 -5 65.5 -30.5t25.5 -62.5q0 -53 -41.5 -83t-109.5 -30q-70 0 -113 32t-50 88l86 17q2 -30 23 -47.5t54 -17.5q25 0 42 13t17 35q0 24 -18 37t-46 13q-19 0 -31 -4v71
q21 -3 32 -3q25 0 42 12t17 37q0 24 -15.5 37.5t-42.5 13.5q-29 0 -46.5 -19t-19.5 -50z" />
    <glyph glyph-name="uni2084" unicode="&#x2084;" horiz-adv-x="439" 
d="M334 292v-231h65v-71h-65v-90h-84v90h-206v83l178 219h112zM250 219l-130 -158h130v158z" />
    <glyph glyph-name="uni2085" unicode="&#x2085;" horiz-adv-x="396" 
d="M39 16l90 13q1 -29 21 -46.5t52 -17.5q30 0 48 17t18 47q0 29 -18 48t-50 19q-44 0 -63 -29l-80 11q21 130 24 214h252q4 -37 -12 -59t-54 -22q-40 0 -119 11q-10 -86 -12 -96q28 36 84 36q60 0 96 -38t36 -95q0 -62 -43 -99t-108 -37q-69 0 -112.5 33.5t-49.5 89.5z" />
    <glyph glyph-name="uni2086" unicode="&#x2086;" horiz-adv-x="414" 
d="M362 194l-83 -12q-10 46 -60 46q-86 0 -84 -136q24 63 104 63q57 0 92 -35.5t35 -91.5q0 -62 -41 -98.5t-108 -36.5q-80 0 -123.5 53t-43.5 146q0 94 44 151t127 57q57 0 94 -27.5t47 -78.5zM149 27q0 -28 18 -46t48 -18q31 0 49 18t18 46q0 30 -18 47.5t-49 17.5
t-48.5 -17.5t-17.5 -47.5z" />
    <glyph glyph-name="uni2087" unicode="&#x2087;" horiz-adv-x="378" 
d="M241 209h-200v83h297v-59q-71 -70 -96 -148.5t-25 -184.5h-101q1 174 125 309z" />
    <glyph glyph-name="uni2088" unicode="&#x2088;" horiz-adv-x="417" 
d="M208 -107q-76 0 -118.5 30.5t-42.5 82.5q0 36 25.5 62t60.5 33q-73 26 -73 90q0 50 41 79.5t107 29.5q67 0 108 -29.5t41 -79.5q0 -64 -73 -90q35 -7 60.5 -33t25.5 -62q0 -52 -42.5 -82.5t-119.5 -30.5zM208 132q27 0 43 13t16 37q0 25 -16 38.5t-43 13.5t-42.5 -13.5
t-15.5 -38.5q0 -24 15.5 -37t42.5 -13zM208 -40q69 0 69 55q0 54 -69 54q-68 0 -68 -54q0 -26 18 -40.5t50 -14.5z" />
    <glyph glyph-name="uni2089" unicode="&#x2089;" horiz-adv-x="414" 
d="M266 165q0 28 -18.5 46t-48.5 18t-48 -17.5t-18 -46.5t18 -46.5t49 -17.5t48.5 17.5t17.5 46.5zM53 -2l82 12q10 -46 60 -46q45 0 65.5 37.5t18.5 98.5q-24 -63 -104 -63q-57 0 -92 35.5t-35 92.5q0 62 41.5 98.5t108.5 36.5q80 0 123 -53t43 -147t-44 -150.5t-126 -56.5
q-57 0 -94 27.5t-47 77.5z" />
    <glyph glyph-name="Euro" unicode="&#x20ac;" horiz-adv-x="659" 
d="M629 193q-21 -94 -88.5 -150t-169.5 -56q-111 0 -183.5 62.5t-94.5 173.5h-66v60h59q-1 10 -1 32q0 21 1 31h-59v61h66q22 111 94.5 173t183.5 62q100 0 165.5 -52.5t88.5 -140.5l-113 -50q-10 61 -46.5 99.5t-96.5 38.5q-119 0 -151 -130h174l-10 -61h-173
q-1 -10 -1 -31q0 -22 1 -32h165l-10 -60h-146q32 -130 151 -130q61 0 97.5 37t46.5 101z" />
    <glyph glyph-name="uni2117" unicode="&#x2117;" horiz-adv-x="743" 
d="M44 315q0 141 95 234t232 93t232 -93t95 -234t-95 -234t-232 -93t-232 93t-95 234zM93 315q0 -120 81 -200t197 -80q117 0 198 80t81 200t-81 200t-198 80q-116 0 -197 -80t-81 -200zM325 251v-126h-84v377h158q72 0 111.5 -33.5t39.5 -91.5q0 -59 -39 -92.5t-112 -33.5
h-74zM325 320h64q77 0 77 56t-77 56h-64v-112z" />
    <glyph glyph-name="trademark" unicode="&#x2122;" horiz-adv-x="803" 
d="M209 329h-82v230h-101v71h286v-71h-103v-230zM571 329h-59l-64 221h-2v-221h-76v301h123l52 -206h3l56 206h113v-301h-80v221h-2z" />
    <glyph glyph-name="uni2153" unicode="&#x2153;" horiz-adv-x="895" 
d="M231 239h-90v269h-100v65h30q44 0 62.5 13t29.5 46h68v-393zM658 630l-393 -630h-87l393 630h87zM634 258l-85 15q5 56 46.5 91.5t107.5 35.5q68 0 106 -31t38 -82q0 -36 -25.5 -60.5t-58.5 -27.5q40 -5 65.5 -30.5t25.5 -62.5q0 -53 -41.5 -83t-109.5 -30q-70 0 -113 32
t-50 88l86 17q2 -30 23 -47.5t54 -17.5q25 0 42 13t17 35q0 24 -18 37t-46 13q-19 0 -31 -4v71q21 -3 32 -3q25 0 42 12t17 37q0 24 -15.5 37.5t-42.5 13.5q-29 0 -46.5 -19t-19.5 -50z" />
    <glyph glyph-name="uni2154" unicode="&#x2154;" horiz-adv-x="984" 
d="M183 314h169v-75h-303v62l111 89q53 42 73 65.5t20 53.5q0 24 -14.5 39t-40.5 15q-30 0 -46 -18.5t-16 -48.5q0 -23 5 -34l-88 3q-5 22 -5 37q0 62 41.5 99.5t108.5 37.5q69 0 108 -35t39 -90q0 -47 -25.5 -80t-79.5 -75zM747 630l-393 -630h-87l393 630h87zM723 258
l-85 15q5 56 46.5 91.5t107.5 35.5q68 0 106 -31t38 -82q0 -36 -25.5 -60.5t-58.5 -27.5q40 -5 65.5 -30.5t25.5 -62.5q0 -53 -41.5 -83t-109.5 -30q-70 0 -113 32t-50 88l86 17q2 -30 23.5 -47.5t53.5 -17.5q25 0 42 13t17 35q0 24 -18 37t-46 13q-19 0 -31 -4v71
q21 -3 32 -3q25 0 42 12t17 37q0 24 -15.5 37.5t-42.5 13.5q-29 0 -46.5 -19t-19.5 -50z" />
    <glyph glyph-name="uni215B" unicode="&#x215b;" horiz-adv-x="908" 
d="M231 239h-90v269h-100v65h30q44 0 62.5 13t29.5 46h68v-393zM658 630l-393 -630h-87l393 630h87zM706 -7q-76 0 -118.5 30.5t-42.5 82.5q0 36 25.5 62t60.5 33q-73 26 -73 90q0 50 41 79.5t107 29.5q67 0 108 -29.5t41 -79.5q0 -64 -73 -90q35 -7 60.5 -33t25.5 -62
q0 -52 -42.5 -82.5t-119.5 -30.5zM706 232q27 0 43 13t16 37q0 25 -16 38.5t-43 13.5t-42.5 -13.5t-15.5 -38.5q0 -24 15.5 -37t42.5 -13zM706 60q69 0 69 55q0 54 -69 54q-68 0 -68 -54q0 -26 18 -40.5t50 -14.5z" />
    <glyph glyph-name="uni215C" unicode="&#x215c;" horiz-adv-x="981" 
d="M730 630l-393 -630h-87l393 630h87zM778 -8q-76 0 -118.5 30.5t-42.5 82.5q0 36 25.5 62t60.5 33q-73 26 -73 90q0 50 41 79.5t107 29.5q67 0 108 -29.5t41 -79.5q0 -64 -73 -90q35 -7 60.5 -33t25.5 -62q0 -52 -42.5 -82.5t-119.5 -30.5zM130 497l-85 15q5 56 46.5 91.5
t107.5 35.5q67 0 105.5 -31.5t38.5 -81.5q0 -36 -25.5 -60.5t-58.5 -27.5q40 -5 65.5 -30.5t25.5 -62.5q0 -53 -41 -83t-111 -30q-69 0 -112 32t-50 88l86 18q2 -31 23 -48.5t54 -17.5q25 0 42 12.5t17 35.5q0 24 -18 37t-46 13q-18 0 -31 -4v71q21 -3 32 -3q25 0 42 12
t17 37q0 24 -15.5 37.5t-42.5 13.5q-29 0 -46.5 -19t-19.5 -50zM778 231q27 0 43 13t16 37q0 25 -16 38.5t-43 13.5t-42.5 -13.5t-15.5 -38.5q0 -24 15.5 -37t42.5 -13zM778 59q69 0 69 55q0 54 -69 54q-68 0 -68 -54q0 -26 18 -40.5t50 -14.5z" />
    <glyph glyph-name="uni215D" unicode="&#x215d;" horiz-adv-x="982" 
d="M731 630l-393 -630h-87l393 630h87zM780 -8q-76 0 -118.5 30.5t-42.5 82.5q0 36 25.5 62t60.5 33q-73 26 -73 90q0 50 41 79.5t107 29.5q67 0 108 -29.5t41 -79.5q0 -64 -73 -90q35 -7 60.5 -33t25.5 -62q0 -52 -42.5 -82.5t-119.5 -30.5zM40 355l90 13q1 -30 20.5 -47.5
t51.5 -17.5q30 0 48 17.5t18 47.5q0 29 -18 48.5t-50 19.5q-42 0 -63 -30l-80 11q21 130 24 214h252q5 -36 -11.5 -58.5t-54.5 -22.5q-18 0 -120 11q-5 -72 -11 -96q27 36 84 36q60 0 96 -38t36 -95q0 -62 -43 -99t-108 -37q-69 0 -112.5 34t-48.5 89zM780 231q27 0 43 13
t16 37q0 25 -16 38.5t-43 13.5t-42.5 -13.5t-15.5 -38.5q0 -24 15.5 -37t42.5 -13zM780 59q69 0 69 55q0 54 -69 54q-68 0 -68 -54q0 -26 18 -40.5t50 -14.5z" />
    <glyph glyph-name="uni215E" unicode="&#x215e;" horiz-adv-x="895" 
d="M240 548h-200v83h298v-59q-71 -70 -96 -148.5t-26 -184.5h-100q3 179 124 309zM644 630l-393 -630h-87l393 630h87zM693 -8q-76 0 -118.5 30.5t-42.5 82.5q0 36 25.5 62t60.5 33q-73 26 -73 90q0 50 41 79.5t107 29.5q67 0 108 -29.5t41 -79.5q0 -64 -73 -90
q35 -7 60.5 -33t25.5 -62q0 -52 -42.5 -82.5t-119.5 -30.5zM693 231q27 0 43 13t16 37q0 25 -16 38.5t-43 13.5t-42.5 -13.5t-15.5 -38.5q0 -24 15.5 -37t42.5 -13zM693 59q69 0 69 55q0 54 -69 54q-68 0 -68 -54q0 -26 18 -40.5t50 -14.5z" />
    <glyph glyph-name="minus" unicode="&#x2212;" horiz-adv-x="634" 
d="M58 261v100h518v-100h-518z" />
    <glyph glyph-name="approxequal" unicode="&#x2248;" horiz-adv-x="652" 
d="M66 328v95q73 46 140 46q45 0 118.5 -22.5t118.5 -22.5q70 0 142 47v-95q-72 -47 -142 -47q-45 0 -119 23t-118 23q-67 0 -140 -47zM66 155v94q73 47 140 47q44 0 118 -23t119 -23q70 0 142 47v-95q-72 -46 -142 -46q-45 0 -118.5 22.5t-118.5 22.5q-67 0 -140 -46z" />
    <glyph glyph-name="notequal" unicode="&#x2260;" horiz-adv-x="652" 
d="M585 173h-310l-82 -119h-91l82 119h-118v91h181l66 95h-247v91h310l83 120h91l-83 -120h118v-91h-181l-66 -95h247v-91z" />
    <glyph glyph-name="lessequal" unicode="&#x2264;" horiz-adv-x="495" 
d="M50 321v127l395 157v-110l-293 -110l293 -111v-109zM50 29v99h395v-99h-395z" />
    <glyph glyph-name="greaterequal" unicode="&#x2265;" horiz-adv-x="495" 
d="M445 448v-127l-395 -156v109l292 111l-292 110v110zM445 128v-99h-395v99h395z" />
    <glyph glyph-name="i.dot" horiz-adv-x="261" 
d="M195 520h-130v110h130v-110zM71 441h119v-441h-119v441z" />
    <glyph glyph-name="space_uni0326" horiz-adv-x="519" 
d="M202 -132v83h115v-74q0 -107 -117 -107v43q49 0 49 55h-47z" />
    <glyph glyph-name="space_uni0326.alt" horiz-adv-x="519" 
d="M317 591v-83h-115v74q0 107 117 107v-43q-49 0 -49 -55h47z" />
    <glyph glyph-name="space_dotbelowcomb" horiz-adv-x="519" 
d="M196 -174v109h126v-109h-126z" />
    <glyph glyph-name="CR" horiz-adv-x="221" 
 />
    <glyph glyph-name="Euro.lt" 
d="M594 178q-22 -88 -83.5 -139t-156.5 -51q-105 0 -174 62.5t-89 172.5h-61v60h54q-1 10 -1 32q0 21 1 31h-54v61h61q20 110 89 172.5t174 62.5q96 0 156.5 -50.5t82.5 -138.5l-109 -49q-9 60 -41 95.5t-89 35.5q-114 0 -141 -128h177l-10 -61h-175q-1 -10 -1 -31
q0 -22 1 -32h167l-10 -60h-149q27 -128 141 -128q110 0 130 127z" />
    <glyph glyph-name="a.ord" horiz-adv-x="415" 
d="M134 459l-84 23q16 42 56 67t99 25q129 0 129 -108v-124q0 -22 21 -22q19 0 34 13l7 -57q-34 -21 -69 -21q-32 0 -54 17.5t-27 43.5q-27 -58 -108 -58q-44 0 -71.5 22.5t-27.5 62.5q0 39 28 59t81 33l95 25v10q0 36 -43 36q-28 0 -46 -13.5t-20 -33.5zM243 387v27
l-64 -18q-46 -14 -46 -43q0 -15 10 -24t27 -9q30 0 51.5 18.5t21.5 48.5z" />
    <glyph glyph-name="approxequal.lt" 
d="M50 328v95q73 46 140 46q44 0 118 -22.5t119 -22.5q70 0 142 47v-95q-72 -47 -142 -47q-45 0 -119 23t-118 23q-67 0 -140 -47zM50 155v94q73 47 140 47q44 0 118 -23t119 -23q70 0 142 47v-95q-72 -46 -142 -46q-45 0 -119 22.5t-118 22.5q-67 0 -140 -46z" />
    <glyph glyph-name="at.cap" horiz-adv-x="787" 
d="M571 194q48 0 76 43.5t28 131.5q0 103 -64 163t-181 60q-142 0 -227 -87t-85 -229q0 -120 76 -187t197 -67q113 0 206 45l22 -57q-95 -57 -229 -57q-155 0 -253 86t-98 238q0 167 107.5 276t283.5 109q148 0 235 -82t87 -211q0 -116 -58.5 -178t-141.5 -62q-84 0 -107 68
q-38 -68 -115 -68q-59 0 -94 37.5t-35 104.5q0 87 50 151.5t130 64.5q39 0 66.5 -16t38.5 -43l14 51h98l-59 -231q-12 -54 32 -54zM450 298l6 22q10 44 -5 70t-51 26q-41 0 -67.5 -43.5t-26.5 -96.5q0 -71 54 -71q31 0 55.5 23.5t34.5 69.5z" />
    <glyph glyph-name="b.ord" horiz-adv-x="441" 
d="M152 319l-20 -56h-71v430h96v-184q28 65 102 65q65 0 103 -45.5t38 -114.5t-38.5 -114t-105.5 -45q-37 0 -65 17.5t-39 46.5zM155 420v-12q0 -37 21 -59.5t53 -22.5q34 0 54.5 25t20.5 63q0 39 -20 63.5t-55 24.5q-32 0 -53 -22.5t-21 -59.5z" />
    <glyph glyph-name="backslash.cap" horiz-adv-x="374" 
d="M122 630l243 -630h-113l-243 630h113z" />
    <glyph glyph-name="bar.cap" horiz-adv-x="261" 
d="M78 0v630h105v-630h-105z" />
    <glyph glyph-name="braceleft.cap" horiz-adv-x="364" 
d="M40 266v84h25q30 0 38.5 15t8.5 58v139q0 118 111 118h99v-86h-69q-31 0 -31 -37v-139q0 -50 -17.5 -76.5t-59.5 -33.5q42 -7 59.5 -33.5t17.5 -76.5v-139q0 -37 31 -37h69v-86h-99q-111 0 -111 118v139q0 43 -8.5 58t-38.5 15h-25z" />
    <glyph glyph-name="braceright.cap" horiz-adv-x="364" 
d="M324 350v-84h-25q-30 0 -38.5 -15t-8.5 -58v-139q0 -118 -111 -118h-98v86h68q19 0 25 9t6 28v139q0 50 18 76.5t60 33.5q-42 7 -60 33.5t-18 76.5v139q0 19 -6 28t-25 9h-68v86h98q111 0 111 -118v-139q0 -43 8.5 -58t38.5 -15h25z" />
    <glyph glyph-name="bracketleft.cap" horiz-adv-x="331" 
d="M186 594v-572h103v-86h-212v744h212v-86h-103z" />
    <glyph glyph-name="bracketright.cap" horiz-adv-x="331" 
d="M144 22v572h-102v86h211v-744h-211v86h102z" />
    <glyph glyph-name="bullet.cap" horiz-adv-x="383" 
d="M336 317q0 -62 -42 -102.5t-103 -40.5q-60 0 -101.5 40.5t-41.5 102.5q0 63 41.5 103.5t101.5 40.5q61 0 103 -40.5t42 -103.5z" />
    <glyph glyph-name="c.ord" horiz-adv-x="388" 
d="M274 383l82 -22q-11 -48 -50 -77t-100 -29q-73 0 -119 43.5t-46 115.5t46 116t119 44q57 0 95 -26.5t52 -70.5l-82 -25q-15 50 -61 50q-32 0 -51.5 -23t-19.5 -65t19.5 -64.5t51.5 -22.5q49 0 64 56z" />
    <glyph glyph-name="cent.lt" 
d="M544 135q-20 -59 -66.5 -98t-118.5 -47v-86h-65v86q-95 9 -154 71.5t-59 158.5q0 95 58.5 158t154.5 73v89h65v-89q68 -7 114 -43t66 -88l-87 -36q-22 62 -93 77v-281q35 8 61 31t36 56zM189 222q0 -58 28.5 -95t76.5 -47v280q-48 -9 -76.5 -45t-28.5 -93z" />
    <glyph glyph-name="colon.tab" horiz-adv-x="310" 
d="M87 293v137h136v-137h-136zM87 0v137h136v-137h-136z" />
    <glyph glyph-name="comma.tab" horiz-adv-x="310" 
d="M87 0v137h136v-150q0 -135 -144 -135v65q69 0 69 69v14h-61z" />
    <glyph glyph-name="d.ord" horiz-adv-x="441" 
d="M287 408v12q0 37 -21 59.5t-53 22.5q-35 0 -55 -24.5t-20 -63.5t20 -63.5t55 -24.5q32 0 53 22.5t21 59.5zM285 263v56q-28 -64 -102 -64q-65 0 -103.5 45t-38.5 114t38.5 114.5t103.5 45.5q74 0 102 -65v184h95v-430h-95z" />
    <glyph glyph-name="divide.lt" 
d="M243 457v130h136v-130h-136zM51 261v100h518v-100h-518zM243 36v129h136v-129h-136z" />
    <glyph glyph-name="dollar.lt" 
d="M262 386l22 -5v163q-47 -3 -77.5 -26t-30.5 -61q0 -31 21 -46t65 -25zM376 246l-25 6v-166q115 12 115 85q0 33 -22 49t-68 26zM351 -110h-67v99q-82 7 -147.5 41.5t-106.5 89.5l77 86q28 -49 75 -79.5t102 -38.5v179l-56 12q-170 37 -170 171q0 82 62 135t164 57v94h67
v-97q135 -17 210 -117l-79 -79q-40 78 -131 97v-173l46 -10q92 -21 139 -61.5t47 -116.5q0 -82 -65.5 -132.5t-166.5 -57.5v-99z" />
    <glyph glyph-name="e.ord" horiz-adv-x="399" 
d="M282 366l75 -23q-31 -88 -150 -88q-74 0 -120 43t-46 112q0 71 46.5 117.5t117.5 46.5q73 0 113 -43.5t40 -107.5v-24h-223q1 -33 22 -54t54 -21q53 0 71 42zM138 445h132q-2 26 -19 44t-46 18t-46 -17.5t-21 -44.5z" />
    <glyph glyph-name="eight.dnom" horiz-adv-x="417" 
d="M208 -7q-76 0 -118.5 30.5t-42.5 82.5q0 36 25.5 62t60.5 33q-73 26 -73 90q0 50 41 79.5t107 29.5q67 0 108 -29.5t41 -79.5q0 -64 -73 -90q35 -7 60.5 -33t25.5 -62q0 -52 -42.5 -82.5t-119.5 -30.5zM208 232q27 0 43 13t16 37q0 25 -16 38.5t-43 13.5t-42.5 -13.5
t-15.5 -38.5q0 -24 15.5 -37t42.5 -13zM208 60q69 0 69 55q0 54 -69 54q-68 0 -68 -54q0 -26 18 -40.5t50 -14.5z" />
    <glyph glyph-name="eight.lt" horiz-adv-x="619" 
d="M310 -12q-119 0 -186 48.5t-67 132.5q0 58 40.5 100t96.5 53q-53 18 -84.5 55t-31.5 90q0 80 64.5 127.5t167.5 47.5t167.5 -47.5t64.5 -127.5q0 -53 -31.5 -90t-84.5 -55q56 -11 96.5 -53t40.5 -100q0 -84 -67 -132.5t-186 -48.5zM310 365q49 0 77.5 23.5t28.5 66.5
q0 46 -28.5 70.5t-77.5 24.5t-77.5 -24.5t-28.5 -70.5q0 -43 28.5 -66.5t77.5 -23.5zM310 82q58 0 90.5 25.5t32.5 72.5t-32 71.5t-91 24.5t-91 -24.5t-32 -71.5t32.5 -72.5t90.5 -25.5z" />
    <glyph glyph-name="emdash.cap" horiz-adv-x="1019" 
d="M61 274v82h897v-82h-897z" />
    <glyph glyph-name="endash.cap" horiz-adv-x="518" 
d="M61 274v82h395v-82h-395z" />
    <glyph glyph-name="equal.lt" 
d="M50 358v94h519v-94h-519zM50 172v93h519v-93h-519z" />
    <glyph glyph-name="exclamdown.cap" horiz-adv-x="224" 
d="M32 496v134h134v-134h-134zM163 0h-128v178l29 246h70l29 -246v-178z" />
    <glyph glyph-name="f.ord" horiz-adv-x="295" 
d="M81 499h-51v66h51v14q0 56 37.5 89t97.5 33q87 0 117 -62l-52 -42q-12 36 -55 36q-23 0 -37 -14t-14 -42v-12h79v-66h-79v-236h-94v236z" />
    <glyph glyph-name="five.dnom" horiz-adv-x="396" 
d="M39 116l90 13q1 -29 21 -46.5t52 -17.5q30 0 48 17t18 47q0 29 -18 48t-50 19q-44 0 -63 -29l-80 11q21 130 24 214h252q4 -37 -12 -59t-54 -22q-40 0 -119 11q-10 -86 -12 -96q28 36 84 36q60 0 96 -38t36 -95q0 -62 -43 -99t-108 -37q-69 0 -112.5 33.5t-49.5 89.5z
" />
    <glyph glyph-name="five.lt" 
d="M58 187l125 20q2 -54 37.5 -86.5t93.5 -32.5q54 0 87 33t33 87q0 52 -32.5 86.5t-88.5 34.5q-74 0 -112 -56l-114 18q34 198 38 339h394q6 -52 -16.5 -83t-77.5 -31q-47 0 -207 16q-9 -118 -20 -173q47 62 142 62q97 0 154.5 -61t57.5 -152q0 -99 -67.5 -159.5
t-171.5 -60.5q-109 0 -178 54.5t-77 144.5z" />
    <glyph glyph-name="florin.lt" horiz-adv-x="619" 
d="M149 -118q-20 0 -48 5v88q9 -2 25 -2q35 0 51.5 21.5t26.5 67.5l47 227h-77v87h96l24 117q14 69 58.5 108.5t108.5 39.5q22 0 57 -7v-88q-16 3 -29 3q-35 0 -53.5 -22t-28.5 -66l-18 -85h94v-87h-112l-54 -259q-31 -148 -168 -148z" />
    <glyph glyph-name="four.dnom" horiz-adv-x="439" 
d="M334 392v-231h65v-71h-65v-90h-84v90h-206v83l178 219h112zM250 319l-130 -158h130v158z" />
    <glyph glyph-name="four.lt" horiz-adv-x="619" 
d="M481 630v-374h100v-104h-100v-152h-123v152h-316v116l288 362h151zM358 520l-208 -264h208v264z" />
    <glyph glyph-name="g.ord" horiz-adv-x="418" 
d="M246 473q0 22 -12.5 35t-34.5 13q-21 0 -34 -13t-13 -35t13 -35.5t34 -13.5q22 0 34.5 13t12.5 36zM389 253q0 -53 -56 -81t-136 -28q-165 0 -165 77q0 21 17 36t44 18q-21 6 -33 21.5t-12 35.5q0 45 55 63q-46 27 -46 78q0 46 39 73.5t102 27.5q56 0 96 -24
q14 26 40 42.5t61 11.5l7 -72q-37 10 -75 -13q14 -22 14 -46q0 -46 -40 -73.5t-103 -27.5q-31 0 -60 8q-18 -9 -18 -23q0 -20 31 -20h135q49 0 76 -23t27 -61zM113 230q0 -38 85 -38q44 0 72.5 10.5t28.5 29.5q0 25 -39 25h-113q-15 0 -24.5 -7.5t-9.5 -19.5z" />
    <glyph glyph-name="greater.lt" 
d="M508 376v-134l-396 -191v116l304 142l-304 142v115z" />
    <glyph glyph-name="greaterequal.lt" 
d="M508 448v-127l-396 -156v109l293 111l-293 110v110zM508 128v-99h-396v99h396z" />
    <glyph glyph-name="guillemotleft.cap" horiz-adv-x="492" 
d="M267 254v104l177 132v-109l-99 -75l99 -75v-109zM48 254v104l177 132v-109l-99 -75l99 -75v-109z" />
    <glyph glyph-name="guillemotright.cap" horiz-adv-x="492" 
d="M444 358v-104l-177 -132v109l99 75l-99 75v109zM225 358v-104l-177 -132v109l99 75l-99 75v109z" />
    <glyph glyph-name="guilsinglleft.cap" horiz-adv-x="273" 
d="M48 254v104l177 132v-109l-99 -75l99 -75v-109z" />
    <glyph glyph-name="guilsinglright.cap" horiz-adv-x="273" 
d="M225 358v-104l-177 -132v109l99 75l-99 75v109z" />
    <glyph glyph-name="h.ord" horiz-adv-x="435" 
d="M157 693v-182q11 27 40.5 45t64.5 18q58 0 87 -34.5t29 -87.5v-189h-96v168q0 68 -58 68q-30 0 -48.5 -23t-18.5 -60v-153h-96v430h96z" />
    <glyph glyph-name="hyphen.cap" horiz-adv-x="370" 
d="M61 263v105h248v-105h-248z" />
    <glyph glyph-name="i.ord" horiz-adv-x="218" 
d="M58 611v82h102v-82h-102zM61 565h96v-302h-96v302z" />
    <glyph glyph-name="j.ord" horiz-adv-x="218" 
d="M160 611h-102v82h102v-82zM157 565v-321q0 -100 -103 -100q-47 0 -83 22l16 55q26 -13 47 -13q27 0 27 27v330h96z" />
    <glyph glyph-name="k.ord" horiz-adv-x="425" 
d="M157 350v-87h-96v430h96v-256l136 128h105l-131 -118l135 -184h-108l-94 128z" />
    <glyph glyph-name="l.ord" horiz-adv-x="218" 
d="M61 693h96v-430h-96v430z" />
    <glyph glyph-name="less.lt" 
d="M112 242v134l396 190v-115l-305 -142l305 -142v-116z" />
    <glyph glyph-name="lessequal.lt" 
d="M112 321v127l396 157v-110l-294 -110l294 -111v-109zM112 29v99h396v-99h-396z" />
    <glyph glyph-name="m.ord" horiz-adv-x="643" 
d="M362 506q11 29 41.5 48.5t71.5 19.5q56 0 83.5 -34.5t27.5 -87.5v-189h-96v168q0 68 -55 68q-29 0 -46.5 -23t-17.5 -60v-153h-96v168q0 68 -55 68q-29 0 -46 -23t-17 -60v-153h-96v302h96v-54q10 27 40 45t64 18q78 0 101 -68z" />
    <glyph glyph-name="minus.lt" 
d="M51 261v100h518v-100h-518z" />
    <glyph glyph-name="multiply.lt" 
d="M242 309l-153 151l69 69l151 -153l152 153l69 -69l-152 -151l152 -152l-69 -69l-152 152l-151 -152l-69 69z" />
    <glyph glyph-name="n.ord" horiz-adv-x="435" 
d="M157 416v-153h-96v302h96v-54q11 27 40.5 45t64.5 18q58 0 87 -34.5t29 -87.5v-189h-96v168q0 68 -58 68q-30 0 -48.5 -23t-18.5 -60z" />
    <glyph glyph-name="nine.dnom" horiz-adv-x="414" 
d="M266 265q0 28 -18.5 46t-48.5 18t-48 -17.5t-18 -46.5t18 -46.5t49 -17.5t48.5 17.5t17.5 46.5zM53 98l82 12q10 -46 60 -46q45 0 65.5 37.5t18.5 98.5q-24 -63 -104 -63q-57 0 -92 35.5t-35 92.5q0 62 41.5 98.5t108.5 36.5q80 0 123 -53t43 -147t-44 -150.5t-126 -56.5
q-57 0 -94 27.5t-47 77.5z" />
    <glyph glyph-name="nine.lt" 
d="M417 427q0 52 -33 84t-89 32q-55 0 -87.5 -32t-32.5 -84q0 -54 32.5 -85t89.5 -31q56 0 88 31t32 85zM63 152l115 22q18 -86 110 -86q80 0 117 67t35 176q-18 -50 -63 -80.5t-113 -30.5q-92 0 -150 58t-58 148q0 98 65.5 157t171.5 59q127 0 195.5 -85t68.5 -234
q0 -151 -70 -243t-201 -92q-89 0 -148 43t-75 121z" />
    <glyph glyph-name="notequal.lt" 
d="M569 173h-310l-82 -119h-91l82 119h-118v91h181l66 95h-247v91h310l83 120h91l-83 -120h118v-91h-181l-66 -95h247v-91z" />
    <glyph glyph-name="o.ord" horiz-adv-x="420" 
d="M379 414q0 -69 -48 -114t-121 -45t-121 45t-48 114q0 70 48 115t121 45t121 -45t48 -115zM139 414q0 -40 19 -64.5t52 -24.5t52 24.5t19 64.5q0 41 -19 65.5t-52 24.5t-52 -24.5t-19 -65.5z" />
    <glyph glyph-name="one.dnom" horiz-adv-x="311" 
d="M231 0h-90v269h-100v65h30q45 0 63.5 13t28.5 46h68v-393z" />
    <glyph glyph-name="one.lt" 
d="M562 0h-482v104h187v342h-167v91h51q73 0 103 20t46 75h92v-528h170v-104z" />
    <glyph glyph-name="p.ord" horiz-adv-x="441" 
d="M155 420v-12q0 -37 21 -59.5t53 -22.5q34 0 54.5 25t20.5 63q0 39 -20 63.5t-55 24.5q-32 0 -53 -22.5t-21 -59.5zM157 319v-167h-96v413h96v-56q28 65 102 65q65 0 103 -45.5t38 -114.5t-38 -114t-103 -45q-74 0 -102 64z" />
    <glyph glyph-name="parenleft.cap" horiz-adv-x="334" 
d="M52 308q0 102 37 200.5t104 171.5h113q-135 -154 -135 -372t135 -372h-113q-67 73 -104 171.5t-37 200.5z" />
    <glyph glyph-name="parenright.cap" horiz-adv-x="334" 
d="M141 680q66 -72 103 -170.5t37 -201.5t-37 -201.5t-103 -170.5h-113q135 154 135 372t-135 372h113z" />
    <glyph glyph-name="percent.lt" horiz-adv-x="820" 
d="M41 476q0 73 47 120t112 47q67 0 114 -47t47 -120t-47 -120t-114 -47q-66 0 -112.5 47t-46.5 120zM634 630l-366 -630h-83l366 630h83zM120 476q0 -44 23 -69t57 -25q35 0 58 25t23 69t-23 69t-58 25q-34 0 -57 -25t-23 -69zM778 154q0 -73 -47 -120t-113 -47t-113 47
t-47 120t47 120t113 47t113 -47t47 -120zM698 154q0 44 -23 69t-57 25q-35 0 -57.5 -25t-22.5 -69t22.5 -69t57.5 -25q34 0 57 25t23 69z" />
    <glyph glyph-name="period.tab" horiz-adv-x="310" 
d="M87 0v137h136v-137h-136z" />
    <glyph glyph-name="periodcentered.cap" horiz-adv-x="259" 
d="M62 249v137h136v-137h-136z" />
    <glyph glyph-name="perthousand.lt" horiz-adv-x="1220" 
d="M58 476q0 72 47 119.5t113 47.5q67 0 114 -47t47 -120t-47 -120t-114 -47q-66 0 -113 47t-47 120zM652 630l-367 -630h-82l366 630h83zM138 476q0 -44 23 -69t57 -25q35 0 58 25t23 69t-23 69t-58 25q-34 0 -57 -25t-23 -69zM796 154q0 -73 -47 -120t-113 -47
q-67 0 -113.5 47t-46.5 120t46.5 120t113.5 47q66 0 113 -47t47 -120zM1162 154q0 -73 -47 -120t-113 -47q-67 0 -113.5 47t-46.5 120t46.5 120t113.5 47q66 0 113 -47t47 -120zM716 154q0 44 -23 69t-57 25q-35 0 -57.5 -25t-22.5 -69t22.5 -69t57.5 -25q34 0 57 25t23 69z
M921 154q0 -44 23 -69t58 -25q34 0 57 25t23 69t-23 69t-57 25q-35 0 -58 -25t-23 -69z" />
    <glyph glyph-name="plus.lt" 
d="M569 261h-209v-209h-100v209h-209v100h209v210h100v-210h209v-100z" />
    <glyph glyph-name="plusminus.lt" 
d="M564 347h-205v-165h-99v165h-205v99h205v165h99v-165h205v-99zM55 29v99h509v-99h-509z" />
    <glyph glyph-name="q.ord" horiz-adv-x="441" 
d="M285 152v167q-28 -64 -102 -64q-65 0 -103.5 45t-38.5 114t38.5 114.5t103.5 45.5q74 0 102 -65v56h95v-413h-95zM287 408v12q0 37 -21 59.5t-53 22.5q-35 0 -55 -24.5t-20 -63.5t20 -63.5t55 -24.5q32 0 53 22.5t21 59.5z" />
    <glyph glyph-name="questiondown.cap" horiz-adv-x="537" 
d="M338 630v-128h-134v128h134zM212 433h115q-1 -39 -16.5 -67t-54.5 -58q-4 -3 -16.5 -13t-16.5 -13.5t-14 -13t-13.5 -14.5t-10.5 -14t-9.5 -17t-4.5 -18.5t-2 -21.5q0 -41 25 -67t72 -26q54 0 81.5 33t27.5 91q0 21 -3 39l121 -8q4 -28 4 -40q0 -99 -63.5 -158
t-168.5 -59q-108 0 -166.5 54t-58.5 136q0 40 18.5 74.5t40 55t61.5 50.5q30 24 40.5 38t11.5 37z" />
    <glyph glyph-name="r.ord" horiz-adv-x="383" 
d="M349 461l-78 -31q2 10 2 17q0 48 -47 48q-33 0 -51.5 -28t-18.5 -71v-133h-95v302h95v-64q33 73 100 73q45 0 69.5 -29.5t24.5 -77.5q0 -4 -1 -6z" />
    <glyph glyph-name="s.ord" horiz-adv-x="379" 
d="M33 322l59 44q14 -22 43 -34.5t59 -12.5q52 0 52 25q0 19 -36 26l-62 14q-97 19 -97 93q0 42 35.5 69.5t93.5 27.5q105 0 149 -67l-59 -37q-31 40 -90 40q-41 0 -41 -25q0 -17 27 -24l77 -18q91 -21 91 -88q0 -46 -37.5 -73t-101.5 -27q-50 0 -95 17.5t-67 49.5z" />
    <glyph glyph-name="semicolon.tab" horiz-adv-x="310" 
d="M87 293v137h136v-137h-136zM87 0v137h136v-150q0 -135 -144 -135v65q69 0 69 69v14h-61z" />
    <glyph glyph-name="seven.dnom" horiz-adv-x="378" 
d="M241 309h-200v83h297v-59q-71 -70 -96 -148.5t-25 -184.5h-101q1 174 125 309z" />
    <glyph glyph-name="seven.lt" horiz-adv-x="619" 
d="M410 517h-342v113h480v-91q-113 -114 -154.5 -241.5t-43.5 -297.5h-137q4 312 197 517z" />
    <glyph glyph-name="six.dnom" horiz-adv-x="414" 
d="M362 294l-83 -12q-10 46 -60 46q-86 0 -84 -136q24 63 104 63q57 0 92 -35.5t35 -91.5q0 -62 -41 -98.5t-108 -36.5q-80 0 -123.5 53t-43.5 146q0 94 44 151t127 57q57 0 94 -27.5t47 -78.5zM149 127q0 -28 18 -46t48 -18q31 0 49 18t18 46q0 30 -18 47.5t-49 17.5
t-48.5 -17.5t-17.5 -47.5z" />
    <glyph glyph-name="six.lt" 
d="M557 478l-115 -22q-18 86 -110 86q-80 0 -117 -67t-35 -176q18 50 63 80.5t113 30.5q92 0 150 -58t58 -148q0 -98 -65.5 -157t-171.5 -59q-127 0 -195.5 85t-68.5 234q0 151 70 243t201 92q89 0 148 -43t75 -121zM203 203q0 -52 33 -84t89 -32q55 0 87.5 32t32.5 84
q0 54 -32.5 85t-89.5 31q-56 0 -88 -31t-32 -85z" />
    <glyph glyph-name="slash.cap" horiz-adv-x="374" 
d="M9 0l243 630h113l-243 -630h-113z" />
    <glyph glyph-name="space.tab" horiz-adv-x="310" 
 />
    <glyph glyph-name="sterling.lt" 
d="M443 -11q-47 0 -84.5 20.5t-78.5 56.5q-47 -77 -136 -77q-51 0 -84 30.5t-33 81.5q0 48 33 78t85 30q37 0 75 -18q-3 44 -29 90h-120v69h78q-27 50 -27 99q0 87 59.5 140t154.5 53t152 -47t68 -131l-104 -40q-2 57 -32 88t-80 31q-46 0 -71 -27.5t-25 -75.5q0 -39 22 -90
h139v-69h-109q16 -44 16 -84q0 -31 -6 -60q64 -40 115 -40q41 0 57.5 25t16.5 79l92 -8q7 -101 -32 -152.5t-112 -51.5zM148 55q50 0 66 66q-37 25 -67 25q-22 0 -35 -12t-13 -34q0 -19 14.5 -32t34.5 -13z" />
    <glyph glyph-name="t.ord" horiz-adv-x="355" 
d="M29 565h57v75l93 20v-95h113v-66h-113v-121q0 -22 11 -34t31 -12q21 0 32.5 9.5t26.5 34.5l46 -56q-43 -65 -121 -65q-53 0 -86 29t-33 86v129h-57v66z" />
    <glyph glyph-name="three.dnom" horiz-adv-x="396" 
d="M130 258l-85 15q5 56 46.5 91.5t107.5 35.5q68 0 106 -31t38 -82q0 -36 -25.5 -60.5t-58.5 -27.5q40 -5 65.5 -30.5t25.5 -62.5q0 -53 -41.5 -83t-109.5 -30q-70 0 -113 32t-50 88l86 17q2 -30 23 -47.5t54 -17.5q25 0 42 13t17 35q0 24 -18 37t-46 13q-19 0 -31 -4v71
q21 -3 32 -3q25 0 42 12t17 37q0 24 -15.5 37.5t-42.5 13.5q-29 0 -46.5 -19t-19.5 -50z" />
    <glyph glyph-name="three.lt" horiz-adv-x="619" 
d="M189 418l-118 25q9 88 73.5 143.5t166.5 55.5q107 0 167 -49.5t60 -130.5q0 -58 -40.5 -97.5t-93.5 -45.5q64 -7 105 -48.5t41 -101.5q0 -83 -65 -132t-173 -49q-109 0 -177.5 51.5t-79.5 140.5l120 28q4 -55 41.5 -87t95.5 -32q48 0 79 23.5t31 66.5t-32.5 66.5
t-84.5 23.5q-23 0 -53 -6v102q30 -5 54 -5q47 0 77.5 21t30.5 66q0 43 -27.5 68.5t-78.5 25.5q-52 0 -84 -33.5t-35 -89.5z" />
    <glyph glyph-name="two.dnom" horiz-adv-x="395" 
d="M183 75h169v-75h-303v63l110 88q54 44 74 66.5t20 52.5q0 24 -14 39t-41 15q-30 0 -46.5 -18.5t-16.5 -48.5q0 -19 6 -34l-88 3q-5 22 -5 37q0 62 41.5 99.5t108.5 37.5q69 0 108 -35t39 -89q0 -47 -25.5 -80.5t-79.5 -75.5z" />
    <glyph glyph-name="two.lt" horiz-adv-x="619" 
d="M259 106h287v-106h-474v84l176 145q85 71 119 113.5t34 94.5q0 45 -25.5 72t-74.5 27q-51 0 -78 -32t-27 -88q0 -31 9 -55l-124 5q-8 32 -8 59q0 99 63.5 158t168.5 59q108 0 167.5 -55.5t59.5 -142.5q0 -75 -44 -131.5t-131 -126.5z" />
    <glyph glyph-name="u.ord" horiz-adv-x="433" 
d="M277 413v152h95v-302h-95v55q-11 -27 -40.5 -45t-64.5 -18q-59 0 -86.5 34t-27.5 87v189h95v-167q0 -69 57 -69q30 0 48.5 23.5t18.5 60.5z" />
    <glyph glyph-name="v.ord" horiz-adv-x="397" 
d="M250 263h-103l-121 302h100l76 -205h3l78 205h88z" />
    <glyph glyph-name="w.ord" horiz-adv-x="538" 
d="M311 565l56 -187h3l53 187h88l-91 -302h-93l-57 186h-2l-57 -186h-93l-91 302h94l54 -187h2l56 187h78z" />
    <glyph glyph-name="x.ord" horiz-adv-x="399" 
d="M360 565l-110 -143l121 -159h-106l-69 92l-69 -92h-100l120 155l-110 147h106l59 -80l59 80h99z" />
    <glyph glyph-name="y.ord" horiz-adv-x="399" 
d="M152 248l5 12l-132 305h105l76 -198h3l74 198h90l-120 -291q-26 -64 -57 -97t-80 -33q-41 0 -66 23t-30 59l67 34q0 -43 31 -43q20 0 34 31z" />
    <glyph glyph-name="yen.lt" horiz-adv-x="619" 
d="M537 120h-167v-120h-121v120h-166v78h166v61h-166v77h121l-171 294h136l146 -260l140 260h132l-172 -294h122v-77h-167v-61h167v-78z" />
    <glyph glyph-name="z.ord" horiz-adv-x="379" 
d="M55 565h270v-65l-160 -167h164v-70h-278v66l157 166h-153v70z" />
    <glyph glyph-name="zero.dnom" horiz-adv-x="446" 
d="M396 196q0 -96 -46.5 -149.5t-126.5 -53.5t-126.5 53.5t-46.5 149.5t46.5 150t126.5 54t126.5 -53.5t46.5 -150.5zM301 196q0 68 -18.5 99.5t-59.5 31.5q-40 0 -58.5 -32t-18.5 -99t18.5 -99t58.5 -32q41 0 59.5 31.5t18.5 99.5z" />
    <glyph glyph-name="zero.lt" 
d="M577 315q0 -156 -70 -241.5t-197 -85.5q-126 0 -196.5 85.5t-70.5 241.5t70.5 241.5t196.5 85.5q127 0 197 -85.5t70 -241.5zM445 315q0 116 -32 171t-103 55q-70 0 -102 -55t-32 -171t32 -171t102 -55q71 0 103 55t32 171z" />
    </font>
</defs>
</svg>
