<?xml version="1.0" standalone="no"?>
<!DOCTYPE svg PUBLIC "-//W3C//DTD SVG 1.1//EN" "http://www.w3.org/Graphics/SVG/1.1/DTD/svg11.dtd" >
<svg xmlns="http://www.w3.org/2000/svg" xmlns:xlink="http://www.w3.org/1999/xlink" version="1.1">
<metadata>
Created by FontForge 20170731 at Fri Oct  4 17:45:10 2013
 By Aleksey,,,
(c) 2012 Klim Type Foundry. All rights reserved.
</metadata>
<defs>
<font id="FoundersGroteskText-Light" horiz-adv-x="520" >
  <font-face 
    font-family="Founders Grotesk Text Light"
    font-weight="600"
    font-stretch="normal"
    units-per-em="1000"
    panose-1="2 11 3 3 3 2 2 6 2 4"
    ascent="770"
    descent="-230"
    x-height="434"
    cap-height="630"
    bbox="-145 -208 1153 993"
    underline-thickness="0"
    underline-position="0"
    unicode-range="U+0020-FB04"
  />
<missing-glyph horiz-adv-x="608" 
 />
    <glyph glyph-name="ff" unicode="ff" horiz-adv-x="625" 
d="M160 0h-61v385h-77v49h77v37q0 73 43.5 117t111.5 44q73 0 112 -46l-29 -43q-30 40 -83 40q-44 0 -69 -29t-25 -86v-34h247v46q0 75 45 118.5t117 43.5q107 0 135 -88l-46 -29q-19 68 -89 68q-46 0 -73.5 -29.5t-27.5 -86.5v-43h125v-49h-125v-385h-61v385h-247v-385z
" />
    <glyph glyph-name="fi" unicode="fi" horiz-adv-x="552" 
d="M160 0h-61v385h-77v49h77v14q0 87 48.5 140.5t134.5 53.5q65 0 107.5 -27t57.5 -74l-46 -26q-10 37 -41 57.5t-78 20.5q-66 0 -94 -37.5t-28 -110.5v-11h308v-434h-61v385h-247v-385z" />
    <glyph glyph-name="fl" unicode="fl" horiz-adv-x="552" 
d="M407 630h61v-630h-61v630zM99 434v47q0 73 43.5 117t111.5 44q60 0 100 -34l-27 -44q-29 29 -73 29t-69 -29t-25 -86v-44h125v-49h-125v-385h-61v385h-77v49h77z" />
    <glyph glyph-name="ffi" unicode="ffi" horiz-adv-x="860" 
d="M160 434h247v14q0 87 48.5 140.5t134.5 53.5q65 0 107.5 -27t57.5 -74l-46 -26q-10 37 -41 57.5t-78 20.5q-66 0 -94 -37.5t-28 -110.5v-11h308v-434h-61v385h-247v-385h-61v385h-247v-385h-61v385h-77v49h77v37q0 73 43.5 117t111.5 44q73 0 112 -46l-29 -43
q-30 40 -83 40q-44 0 -69 -29t-25 -86v-34z" />
    <glyph glyph-name="ffl" unicode="ffl" horiz-adv-x="860" 
d="M715 630h61v-630h-61v630zM407 434v47q0 73 43.5 117t111.5 44q60 0 100 -34l-27 -44q-29 29 -73 29t-69 -29t-25 -86v-44h125v-49h-125v-385h-61v385h-247v-385h-61v385h-77v49h77v37q0 73 43.5 117t111.5 44q73 0 112 -46l-29 -43q-30 40 -83 40q-44 0 -69 -29t-25 -86
v-34h247z" />
    <glyph glyph-name="f_b" unicode="fb" horiz-adv-x="884" 
d="M628 -12q-60 0 -101.5 30.5t-58.5 78.5l-17 -97h-44v630h61v-295q17 49 58.5 80t101.5 31q94 0 150 -65t56 -164t-56 -164t-150 -65zM22 434h77v47q0 73 43.5 117t111.5 44q60 0 100 -34l-27 -44q-29 29 -73 29t-69 -29t-25 -86v-44h125v-49h-125v-385h-61v385h-77v49z
M615 397q-63 0 -106.5 -47t-43.5 -123v-20q0 -76 43.5 -123t106.5 -47q72 0 113.5 48.5t41.5 131.5t-41.5 131.5t-113.5 48.5z" />
    <glyph glyph-name="f_f_b" unicode="ffb" horiz-adv-x="1192" 
d="M776 97l-17 -97h-44v630h61v-295q17 49 58.5 80t101.5 31q94 0 150 -65t56 -164t-56 -164t-150 -65q-60 0 -101.5 30.5t-58.5 78.5zM773 227v-20q0 -76 43.5 -123t106.5 -47q72 0 113.5 48.5t41.5 131.5t-41.5 131.5t-113.5 48.5q-63 0 -106.5 -47t-43.5 -123zM160 434
h247v47q0 73 43.5 117t111.5 44q60 0 100 -34l-27 -44q-29 29 -73 29t-69 -29t-25 -86v-44h125v-49h-125v-385h-61v385h-247v-385h-61v385h-77v49h77v37q0 73 43.5 117t111.5 44q73 0 112 -46l-29 -43q-30 40 -83 40q-44 0 -69 -29t-25 -86v-34z" />
    <glyph glyph-name="f_f_h" unicode="ffh" horiz-adv-x="1177" 
d="M777 630v-288q16 44 58.5 74t99.5 30q82 0 122 -47.5t40 -129.5v-269h-61v265q0 59 -31 93t-88 34q-60 0 -100 -42t-40 -109v-241h-61v630h61zM160 434h247v47q0 73 43.5 117t111.5 44q60 0 100 -34l-27 -44q-29 29 -73 29t-69 -29t-25 -86v-44h125v-49h-125v-385h-61
v385h-247v-385h-61v385h-77v49h77v37q0 73 43.5 117t111.5 44q73 0 112 -46l-29 -43q-30 40 -83 40q-44 0 -69 -29t-25 -86v-34z" />
    <glyph glyph-name="f_f_idieresis" unicode="ff&#xef;" horiz-adv-x="730" 
d="M659 539v81h65v-81h-65zM343 389h-195v-389h-61v389h-67v45h67v56q0 64 37.5 103t96.5 39q55 0 102 -32l-20 -42q-37 27 -78 27q-77 0 -77 -95v-56h195v61q0 66 35.5 106.5t100.5 40.5q100 0 130 -96l-53 -20q-19 69 -77 69q-75 0 -75 -92v-69h256v-434h-61v389h-195
v-389h-61v389z" />
    <glyph glyph-name="f_f_j" unicode="ffj" horiz-adv-x="860" 
d="M160 434h247v14q0 87 48.5 140.5t134.5 53.5q65 0 107.5 -27t57.5 -74l-46 -26q-10 37 -41 57.5t-78 20.5q-66 0 -94 -37.5t-28 -110.5v-11h308v-507q0 -109 -102 -109q-52 0 -89 32l19 40q35 -23 69 -23q42 0 42 50v468h-247v-385h-61v385h-247v-385h-61v385h-77v49h77
v37q0 73 43.5 117t111.5 44q73 0 112 -46l-29 -43q-30 40 -83 40q-44 0 -69 -29t-25 -86v-34z" />
    <glyph glyph-name="f_f_k" unicode="ffk" horiz-adv-x="1139" 
d="M160 434h247v47q0 73 43.5 117t111.5 44q60 0 100 -34l-27 -44q-29 29 -73 29t-69 -29t-25 -86v-44h125v-49h-125v-385h-61v385h-247v-385h-61v385h-77v49h77v37q0 73 43.5 117t111.5 44q73 0 112 -46l-29 -43q-30 40 -83 40q-44 0 -69 -29t-25 -86v-34zM776 163v-163
h-61v630h61v-406l252 210h81l-209 -170l219 -264h-73l-191 228z" />
    <glyph glyph-name="f_h" unicode="fh" horiz-adv-x="868" 
d="M22 434h77v47q0 73 43.5 117t111.5 44q60 0 100 -34l-27 -44q-29 29 -73 29t-69 -29t-25 -86v-44h125v-49h-125v-385h-61v385h-77v49zM468 630v-288q16 44 58.5 74t99.5 30q82 0 122 -47.5t40 -129.5v-269h-61v265q0 59 -31 93t-88 34q-60 0 -100 -42t-40 -109v-241h-61
v630h61z" />
    <glyph glyph-name="f_idieresis" unicode="f&#xef;" horiz-adv-x="474" 
d="M403 539v81h65v-81h-65zM87 389h-67v45h67v61q0 66 35.5 106.5t100.5 40.5q100 0 130 -96l-53 -20q-19 69 -77 69q-75 0 -75 -92v-69h256v-434h-61v389h-195v-389h-61v389z" />
    <glyph glyph-name="f_j" unicode="fj" horiz-adv-x="552" 
d="M366 -182q-52 0 -89 32l19 40q35 -23 69 -23q42 0 42 50v468h-247v-385h-61v385h-77v49h77v14q0 87 48.5 140.5t134.5 53.5q65 0 107.5 -27t57.5 -74l-46 -26q-10 37 -41 57.5t-78 20.5q-66 0 -94 -37.5t-28 -110.5v-11h308v-507q0 -109 -102 -109z" />
    <glyph glyph-name="f_k" unicode="fk" horiz-adv-x="842" 
d="M22 434h77v47q0 73 43.5 117t111.5 44q60 0 100 -34l-27 -44q-29 29 -73 29t-69 -29t-25 -86v-44h125v-49h-125v-385h-61v385h-77v49zM548 228l-79 -65v-163h-61v630h61v-406l252 210h81l-209 -170l219 -264h-73z" />
    <glyph glyph-name=".notdef" horiz-adv-x="608" 
 />
    <glyph glyph-name=".null" horiz-adv-x="0" 
 />
    <glyph glyph-name="nonmarkingreturn" horiz-adv-x="333" 
 />
    <glyph glyph-name="space" unicode=" " horiz-adv-x="250" 
 />
    <glyph glyph-name="exclam" unicode="!" horiz-adv-x="220" 
d="M77 630h66v-200l-22 -258h-22l-22 258v200zM70 0v80h80v-80h-80z" />
    <glyph glyph-name="quotedbl" unicode="&#x22;" horiz-adv-x="317" 
d="M202 387v243h55v-243h-55zM60 387v243h55v-243h-55z" />
    <glyph glyph-name="numbersign" unicode="#" horiz-adv-x="626" 
d="M372 214l48 203h-166l-48 -203h166zM321 0l40 167h-166l-40 -167h-56l40 167h-109l8 47h112l48 203h-125l8 47h128l40 166h56l-40 -166h166l40 166h56l-40 -166h109l-8 -47h-112l-48 -203h125l-8 -47h-128l-40 -167h-56z" />
    <glyph glyph-name="dollar" unicode="$" horiz-adv-x="589" 
d="M258 359l15 -3v234q-70 -2 -111.5 -34t-41.5 -89q0 -47 34 -70t104 -38zM357 276l-35 8v-244q73 3 120 36t47 90q0 45 -32 70t-100 40zM322 -123h-49v113q-85 7 -153.5 47.5t-93.5 103.5l44 49q25 -63 80 -101.5t123 -46.5v252l-54 12q-160 35 -160 161q0 76 60.5 125.5
t153.5 49.5v107h49v-109q73 -9 125.5 -42.5t78.5 -81.5l-46 -47q-19 45 -61 76.5t-97 40.5v-241l54 -11q81 -18 127.5 -55.5t46.5 -112.5q0 -79 -63.5 -126.5t-164.5 -51.5v-111z" />
    <glyph glyph-name="percent" unicode="%" horiz-adv-x="833" 
d="M204 644q64 0 109.5 -45.5t45.5 -109.5t-45.5 -109t-109.5 -45q-63 0 -108.5 45t-45.5 109t45.5 109.5t108.5 45.5zM181 0l414 630h57l-414 -630h-57zM204 593q-41 0 -71 -30.5t-30 -73.5t29.5 -73t71.5 -30q43 0 72.5 30t29.5 73q0 44 -29.5 74t-72.5 30zM629 -14
q-64 0 -109.5 45.5t-45.5 109.5t45.5 109t109.5 45q63 0 108.5 -45t45.5 -109t-45.5 -109.5t-108.5 -45.5zM629 37q41 0 71 30.5t30 73.5t-29.5 73t-71.5 30q-43 0 -72.5 -30t-29.5 -73q0 -44 29.5 -74t72.5 -30z" />
    <glyph glyph-name="ampersand" unicode="&#x26;" horiz-adv-x="650" 
d="M182 492q0 -31 15.5 -57t47.5 -63q69 33 95.5 61.5t26.5 72.5q0 35 -23 60.5t-66 25.5q-42 0 -69 -26t-27 -74zM247 40q88 0 156 60q-2 3 -7 8t-7 8l-169 192q-55 -29 -81 -61.5t-26 -86.5t37.5 -87t96.5 -33zM568 -8q-35 0 -64 16t-67 55q-83 -75 -190 -75
q-85 0 -141 46.5t-56 124.5q0 62 35.5 105t103.5 80q-68 80 -68 148q0 66 43 108t113 42q69 0 108 -38t39 -99q0 -54 -36.5 -92.5t-111.5 -76.5l167 -195q59 75 79 177l54 -5q-30 -126 -100 -209q54 -61 105 -61q30 0 49 5v-42q-27 -14 -62 -14z" />
    <glyph glyph-name="quotesingle" unicode="'" horiz-adv-x="175" 
d="M60 387v243h55v-243h-55z" />
    <glyph glyph-name="parenleft" unicode="(" horiz-adv-x="293" 
d="M50 288q0 103 36 201.5t102 170.5h65q-135 -154 -135 -372t135 -372h-65q-66 72 -102 170.5t-36 201.5z" />
    <glyph glyph-name="parenright" unicode=")" horiz-adv-x="293" 
d="M105 660q66 -72 102 -170.5t36 -201.5t-36 -201.5t-102 -170.5h-65q135 154 135 372t-135 372h65z" />
    <glyph glyph-name="asterisk" unicode="*" horiz-adv-x="373" 
d="M25 507l16 44l122 -42v133h47v-133l124 44l14 -45l-125 -39l79 -106l-39 -27l-76 105l-76 -107l-37 29l77 104z" />
    <glyph glyph-name="plus" unicode="+" horiz-adv-x="640" 
d="M573 286h-227v-227h-52v227h-227v52h227v228h52v-228h227v-52z" />
    <glyph glyph-name="comma" unicode="," horiz-adv-x="228" 
d="M70 0v88h88v-109q0 -111 -106 -111v46q34 0 47.5 14t13.5 51v21h-43z" />
    <glyph glyph-name="hyphen" unicode="-" horiz-adv-x="360" 
d="M70 227v55h220v-55h-220z" />
    <glyph glyph-name="period" unicode="." horiz-adv-x="228" 
d="M70 0v88h88v-88h-88z" />
    <glyph glyph-name="slash" unicode="/" horiz-adv-x="359" 
d="M20 -83l260 742h59l-260 -742h-59z" />
    <glyph glyph-name="zero" unicode="0" horiz-adv-x="626" 
d="M568 315q0 -157 -66.5 -242t-188.5 -85t-188.5 85t-66.5 242t66.5 242t188.5 85t188.5 -85t66.5 -242zM502 315q0 276 -189 276t-189 -276t189 -276t189 276z" />
    <glyph glyph-name="one" unicode="1" horiz-adv-x="370" 
d="M264 0h-63v494h-171v48h44q81 0 111.5 18t43.5 75h35v-635z" />
    <glyph glyph-name="two" unicode="2" horiz-adv-x="546" 
d="M156 56h350v-56h-456v30l180 157q43 38 59.5 53t48 47.5t44 53t24 50t11.5 58.5q0 64 -37.5 102t-106.5 38q-72 0 -111.5 -41.5t-39.5 -118.5q0 -31 11 -59l-64 4q-10 29 -10 59q0 96 58 152.5t156 56.5q104 0 157 -53.5t53 -136.5q0 -41 -17.5 -81t-54 -81t-60.5 -64
t-68 -61z" />
    <glyph glyph-name="three" unicode="3" horiz-adv-x="555" 
d="M121 429l-60 27q11 84 70 135t151 51q100 0 155.5 -47.5t55.5 -127.5q0 -59 -39.5 -100t-92.5 -49q61 -5 102.5 -48t41.5 -105q0 -77 -60 -127t-161 -50t-166 50t-75 139l60 25q4 -77 53.5 -120t128.5 -43q72 0 114.5 34t42.5 97q0 57 -46.5 89t-115.5 32q-19 0 -64 -6
v65q38 -5 64 -5q64 0 107 27.5t43 90.5q0 58 -38 93t-110 35q-71 0 -114 -42.5t-47 -119.5z" />
    <glyph glyph-name="four" unicode="4" horiz-adv-x="581" 
d="M438 630v-401h115v-51h-115v-178h-62v178h-337v61l321 391h78zM376 572l-282 -343h282v343z" />
    <glyph glyph-name="five" unicode="5" horiz-adv-x="570" 
d="M48 189l62 17q3 -76 50 -121.5t129 -45.5q75 0 119.5 46.5t44.5 123.5q0 71 -43.5 116t-115.5 45q-97 0 -147 -78l-68 14q32 191 36 324h361q3 -31 -8.5 -46.5t-46.5 -15.5q-82 0 -258 14q-1 -29 -10.5 -118.5t-15.5 -114.5q25 32 68 53t96 21q102 0 159 -61.5t57 -151.5
q0 -97 -64.5 -159.5t-165.5 -62.5q-102 0 -167.5 55.5t-71.5 145.5z" />
    <glyph glyph-name="six" unicode="6" horiz-adv-x="590" 
d="M530 495l-57 -27q-28 124 -151 124q-72 0 -121 -44.5t-69.5 -117t-17.5 -165.5q16 64 67.5 104.5t132.5 40.5q100 0 160.5 -58.5t60.5 -150.5q0 -95 -60.5 -154t-164.5 -59q-122 0 -187 83.5t-65 228.5q0 154 68.5 248t195.5 94q80 0 135 -39t73 -108zM138 199
q0 -71 47 -115t125 -44q74 0 118.5 44t44.5 115q0 72 -44.5 114t-122.5 42t-123 -42t-45 -114z" />
    <glyph glyph-name="seven" unicode="7" 
d="M410 572h-367v58h434v-48q-218 -230 -221 -582h-68q2 166 63 318t159 254z" />
    <glyph glyph-name="eight" unicode="8" horiz-adv-x="564" 
d="M282 -12q-108 0 -170 48t-62 130q0 59 39 99.5t94 50.5q-51 18 -80.5 57t-29.5 94q0 80 59 127.5t150 47.5t150 -47.5t59 -127.5q0 -55 -29.5 -94t-80.5 -57q55 -10 94 -50.5t39 -99.5q0 -82 -62 -130t-170 -48zM282 339q66 0 106 33t40 92q0 63 -39.5 96.5t-106.5 33.5
t-106.5 -33.5t-39.5 -96.5q0 -59 40 -92t106 -33zM282 36q79 0 122 34t43 95t-42.5 92.5t-122.5 31.5t-122.5 -31.5t-42.5 -92.5t43 -95t122 -34z" />
    <glyph glyph-name="nine" unicode="9" horiz-adv-x="590" 
d="M452 431q0 71 -47 115t-125 44q-74 0 -118.5 -44t-44.5 -115q0 -72 44.5 -114t122.5 -42t123 42t45 114zM60 135l57 27q28 -124 151 -124q72 0 121 44.5t69.5 117t17.5 165.5q-16 -64 -67.5 -104.5t-132.5 -40.5q-100 0 -160.5 58.5t-60.5 150.5q0 95 60.5 154t164.5 59
q122 0 187 -83.5t65 -228.5q0 -154 -68.5 -248t-195.5 -94q-80 0 -135 39t-73 108z" />
    <glyph glyph-name="colon" unicode=":" horiz-adv-x="228" 
d="M70 331v88h88v-88h-88zM70 0v88h88v-88h-88z" />
    <glyph glyph-name="semicolon" unicode=";" horiz-adv-x="228" 
d="M70 331v88h88v-88h-88zM70 0v88h88v-109q0 -111 -106 -111v46q34 0 47.5 14t13.5 51v21h-43z" />
    <glyph glyph-name="less" unicode="&#x3c;" horiz-adv-x="480" 
d="M53 279v63l386 219v-61l-339 -190l339 -189v-62z" />
    <glyph glyph-name="equal" unicode="=" horiz-adv-x="651" 
d="M72 356v53h507v-53h-507zM72 211v53h507v-53h-507z" />
    <glyph glyph-name="greater" unicode="&#x3e;" horiz-adv-x="480" 
d="M427 342v-63l-386 -220v62l338 189l-338 190v61z" />
    <glyph glyph-name="question" unicode="?" horiz-adv-x="498" 
d="M267 166h-57q0 45 17.5 76t59.5 65q5 4 28.5 22t31 25.5t21.5 24.5t19 35.5t5 42.5q0 60 -35.5 97t-102.5 37q-71 0 -111 -42.5t-40 -119.5q0 -23 4 -43l-64 4q-3 22 -3 43q0 96 58 152.5t156 56.5q103 0 153.5 -52t50.5 -133q0 -72 -66 -134q-16 -15 -72 -60
q-30 -25 -41.5 -45t-11.5 -52zM195 0v80h80v-80h-80z" />
    <glyph glyph-name="at" unicode="@" horiz-adv-x="775" 
d="M562 83q52 0 85.5 48t33.5 143q0 109 -70 177.5t-190 68.5q-144 0 -233.5 -92.5t-89.5 -236.5q0 -129 85 -206.5t211 -77.5q113 0 206 45l21 -35q-95 -57 -228 -57q-150 0 -249 89t-99 244q0 162 103.5 268t272.5 106q146 0 230 -81.5t84 -211.5q0 -116 -52 -178
t-128 -62q-39 0 -62.5 20.5t-29.5 52.5q-18 -33 -52 -53t-76 -20q-58 0 -93 37t-35 102q0 84 52 151.5t137 67.5q41 0 71 -18.5t41 -47.5l16 58h59l-61 -241q-8 -33 2.5 -46.5t37.5 -13.5zM476 201l7 26q13 51 -10.5 85t-71.5 34q-58 0 -94 -53t-36 -121q0 -87 75 -87
q42 0 78.5 30.5t51.5 85.5z" />
    <glyph glyph-name="A" unicode="A" horiz-adv-x="649" 
d="M316 562l-118 -306h244l-122 306h-4zM544 0l-80 201h-287l-77 -201h-64l249 630h72l256 -630h-69z" />
    <glyph glyph-name="B" unicode="B" horiz-adv-x="655" 
d="M443 327q65 -10 108 -50t43 -104q0 -82 -58 -127.5t-167 -45.5h-281v630h273q111 0 163 -44t52 -122q0 -53 -38.5 -90.5t-94.5 -46.5zM151 575v-222h220q143 0 143 111t-143 111h-220zM374 300h-223v-245h223q77 0 118 31t41 90t-41 91.5t-118 32.5z" />
    <glyph glyph-name="C" unicode="C" horiz-adv-x="689" 
d="M584 211l55 -40q-28 -86 -98.5 -134.5t-175.5 -48.5q-131 0 -220 92t-89 235q0 144 89.5 235.5t223.5 91.5q93 0 159.5 -41.5t98.5 -116.5l-51 -42q-22 68 -75.5 106.5t-131.5 38.5q-109 0 -177 -73.5t-68 -198.5q0 -124 67.5 -198t173.5 -74q180 0 219 168z" />
    <glyph glyph-name="D" unicode="D" horiz-adv-x="704" 
d="M88 0v630h222q155 0 246.5 -84t91.5 -231t-91.5 -231t-246.5 -84h-222zM153 55h148q135 0 207 68t72 192t-72 192t-207 68h-148v-520z" />
    <glyph glyph-name="E" unicode="E" horiz-adv-x="617" 
d="M554 55v-55h-466v630h457v-55h-394v-219h301v-56h-301v-245h403z" />
    <glyph glyph-name="F" unicode="F" horiz-adv-x="583" 
d="M152 0h-64v630h447v-55h-383v-219h300v-56h-300v-300z" />
    <glyph glyph-name="G" unicode="G" horiz-adv-x="731" 
d="M628 484l-52 -43q-21 69 -75.5 107.5t-138.5 38.5q-106 0 -172 -74t-66 -199t67.5 -198t176.5 -73q100 0 160 58t65 152h-266v53h322v-306h-48l-11 124q-19 -63 -82 -99.5t-143 -36.5q-135 0 -222 90.5t-87 236.5q0 144 87.5 235.5t218.5 91.5q203 0 266 -158z" />
    <glyph glyph-name="H" unicode="H" horiz-adv-x="720" 
d="M153 0h-65v630h65v-275h414v275h65v-630h-65v300h-414v-300z" />
    <glyph glyph-name="I" unicode="I" horiz-adv-x="241" 
d="M88 630h65v-630h-65v630z" />
    <glyph glyph-name="J" unicode="J" horiz-adv-x="526" 
d="M383 630h65v-417q0 -105 -52 -165t-143 -60q-99 0 -154 70.5t-44 181.5l66 18q-12 -97 22 -155t110 -58q130 0 130 166v419z" />
    <glyph glyph-name="K" unicode="K" horiz-adv-x="644" 
d="M624 0h-81l-269 329l-121 -122v-207h-65v630h65v-351l352 351h82l-265 -262z" />
    <glyph glyph-name="L" unicode="L" horiz-adv-x="601" 
d="M88 630h65v-575h400v-55h-465v630z" />
    <glyph glyph-name="M" unicode="M" horiz-adv-x="797" 
d="M417 0h-33l-232 573h-4v-573h-60v630h103l211 -528h3l200 528h104v-630h-64v573h-4z" />
    <glyph glyph-name="N" unicode="N" horiz-adv-x="688" 
d="M158 630l382 -521v521h60v-630h-50l-402 545v-545h-60v630h70z" />
    <glyph glyph-name="O" unicode="O" horiz-adv-x="744" 
d="M688 315q0 -145 -88.5 -236t-227.5 -91t-227.5 91t-88.5 236t88.5 236t227.5 91t227.5 -91t88.5 -236zM620 315q0 124 -68 198t-180 74t-180 -74t-68 -198t68 -198t180 -74t180 74t68 198z" />
    <glyph glyph-name="P" unicode="P" horiz-adv-x="640" 
d="M353 262h-201v-262h-64v630h265q114 0 177 -49t63 -135t-63 -135t-177 -49zM152 317h201q176 0 176 129t-176 129h-201v-258z" />
    <glyph glyph-name="Q" unicode="Q" horiz-adv-x="744" 
d="M469 -165q-58 0 -94.5 43t-28.5 111q-129 9 -209.5 98.5t-80.5 227.5q0 145 88.5 236t227.5 91t227.5 -91t88.5 -236q0 -136 -79 -225.5t-205 -100.5q-6 -46 11.5 -73t54.5 -27q54 0 89 50l19 -52q-17 -24 -47 -38t-62 -14zM620 315q0 124 -68 198t-180 74t-180 -74
t-68 -198t68 -198t180 -74t180 74t68 198z" />
    <glyph glyph-name="R" unicode="R" horiz-adv-x="654" 
d="M152 575v-233h190q87 0 128.5 28.5t41.5 88.5q0 116 -162 116h-198zM624 0h-80q-36 9 -47 129q-7 83 -37 121t-100 38h-208v-288h-64v630h262q115 0 172 -45.5t57 -125.5q0 -57 -43.5 -97.5t-104.5 -45.5q101 -15 120 -146q12 -79 28 -113.5t45 -49.5v-7z" />
    <glyph glyph-name="S" unicode="S" horiz-adv-x="601" 
d="M32 141l44 51q28 -71 94 -110.5t143 -39.5q78 0 129 32t51 92q0 45 -32 70t-100 40l-136 30q-160 35 -160 161q0 77 61.5 126t158.5 49q88 0 152.5 -35t94.5 -91l-46 -49q-23 54 -77.5 87.5t-123.5 33.5q-73 0 -115 -31.5t-42 -89.5q0 -47 34 -70t104 -38l116 -25
q81 -18 127.5 -55.5t46.5 -112.5q0 -82 -68.5 -130t-174.5 -48q-94 0 -173.5 41.5t-107.5 111.5z" />
    <glyph glyph-name="T" unicode="T" horiz-adv-x="672" 
d="M367 0h-65v575h-262v55h592v-55h-265v-575z" />
    <glyph glyph-name="U" unicode="U" horiz-adv-x="670" 
d="M335 -12q-109 0 -183 70.5t-74 201.5v370h65v-370q0 -104 51.5 -159.5t140.5 -55.5t141.5 55.5t52.5 159.5v370h63v-370q0 -131 -74 -201.5t-183 -70.5z" />
    <glyph glyph-name="V" unicode="V" horiz-adv-x="640" 
d="M357 0h-74l-247 630h70l215 -561h4l212 561h67z" />
    <glyph glyph-name="W" unicode="W" horiz-adv-x="886" 
d="M476 630l152 -558h4l153 558h61l-176 -630h-81l-143 532h-4l-145 -532h-81l-176 630h63l156 -555h4l149 555h64z" />
    <glyph glyph-name="X" unicode="X" horiz-adv-x="655" 
d="M593 630l-229 -299l253 -331h-76l-215 283l-215 -283h-73l252 328l-230 302h76l192 -254l193 254h72z" />
    <glyph glyph-name="Y" unicode="Y" horiz-adv-x="612" 
d="M309 328l196 302h69l-237 -361v-269h-62v269l-237 361h74z" />
    <glyph glyph-name="Z" unicode="Z" horiz-adv-x="628" 
d="M135 55h440v-55h-521v44l430 531h-425v55h505v-47z" />
    <glyph glyph-name="bracketleft" unicode="[" horiz-adv-x="315" 
d="M135 610v-644h120v-50h-180v744h180v-50h-120z" />
    <glyph glyph-name="backslash" unicode="\" horiz-adv-x="359" 
d="M79 659l260 -742h-59l-260 742h59z" />
    <glyph glyph-name="bracketright" unicode="]" horiz-adv-x="315" 
d="M180 -34v644h-120v50h180v-744h-180v50h120z" />
    <glyph glyph-name="asciicircum" unicode="^" horiz-adv-x="388" 
d="M168 630h52l148 -200h-65l-109 149l-109 -149h-65z" />
    <glyph glyph-name="underscore" unicode="_" horiz-adv-x="401" 
d="M30 -111v49h341v-49h-341z" />
    <glyph glyph-name="grave" unicode="`" 
d="M329 518h-42l-97 152h77z" />
    <glyph glyph-name="a" unicode="a" horiz-adv-x="511" 
d="M119 305l-55 25q24 51 75 83.5t120 32.5q71 0 110 -31t39 -89v-228q0 -52 41 -52q26 0 48 14l3 -53q-27 -16 -57 -16q-41 0 -66 28t-27 71q-15 -43 -60 -71t-105 -28q-61 0 -99 35t-38 92q0 55 44.5 87.5t130.5 51.5l127 28v42q0 26 -21 46t-70 20q-53 0 -89 -25t-51 -63
zM350 173v65l-117 -27q-64 -15 -93.5 -34.5t-29.5 -58.5q0 -33 21.5 -54t62.5 -21q63 0 109.5 40t46.5 90z" />
    <glyph glyph-name="b" unicode="b" horiz-adv-x="561" 
d="M145 97l-17 -97h-44v630h61v-295q17 49 58.5 80t101.5 31q94 0 150 -65t56 -164t-56 -164t-150 -65q-60 0 -101.5 30.5t-58.5 78.5zM142 227v-20q0 -76 43.5 -123t106.5 -47q72 0 113.5 48.5t41.5 131.5t-41.5 131.5t-113.5 48.5q-63 0 -106.5 -47t-43.5 -123z" />
    <glyph glyph-name="c" unicode="c" horiz-adv-x="497" 
d="M400 144l48 -35q-21 -53 -68.5 -87t-118.5 -34q-97 0 -158.5 64t-61.5 165q0 100 62.5 164.5t160.5 64.5q127 0 178 -108l-47 -42q-16 43 -49.5 70t-81.5 27q-72 0 -115.5 -48t-43.5 -128t43 -128t113 -48q53 0 88.5 28.5t50.5 74.5z" />
    <glyph glyph-name="d" unicode="d" horiz-adv-x="561" 
d="M419 207v20q0 76 -43.5 123t-106.5 47q-72 0 -113.5 -48.5t-41.5 -131.5t41.5 -131.5t113.5 -48.5q63 0 106.5 47t43.5 123zM416 0v99q-17 -49 -58.5 -80t-101.5 -31q-94 0 -150 65t-56 164t56 164t150 65q60 0 101.5 -31t58.5 -80v295h61v-630h-61z" />
    <glyph glyph-name="e" unicode="e" 
d="M422 145l46 -39q-57 -118 -198 -118q-96 0 -158 62t-62 161q0 102 61.5 168.5t154.5 66.5q97 0 150.5 -61.5t53.5 -150.5v-23h-360q0 -77 47 -124.5t114 -47.5q113 0 151 106zM113 260h297q-3 56 -41 95t-103 39q-62 0 -103 -39t-50 -95z" />
    <glyph glyph-name="f" unicode="f" horiz-adv-x="317" 
d="M99 385h-77v49h77v46q0 75 45 118.5t117 43.5q107 0 135 -88l-46 -29q-19 68 -89 68q-46 0 -73.5 -29.5t-27.5 -86.5v-43h125v-49h-125v-385h-61v385z" />
    <glyph glyph-name="g" unicode="g" horiz-adv-x="521" 
d="M361 298q0 45 -32 73.5t-78 28.5t-78 -28.5t-32 -73.5t32 -73.5t78 -28.5t78 28.5t32 73.5zM494 -33q0 -51 -37 -86t-88.5 -49t-112.5 -14q-94 0 -159 33t-65 94q0 36 29 62.5t72 31.5q-64 19 -64 74q0 50 59 78q-46 41 -46 107q0 67 47 107.5t122 40.5t120 -39
q19 34 53 54t77 14l8 -60q-33 6 -65.5 -3.5t-46.5 -32.5q23 -35 23 -81q0 -67 -47 -107.5t-122 -40.5q-54 0 -93 21q-34 -19 -34 -49q0 -40 62 -40h153q71 0 113 -32t42 -83zM95 -45q0 -43 45 -65.5t116 -22.5q80 0 130 24.5t50 73.5q0 64 -109 64h-127q-43 0 -74 -20
t-31 -54z" />
    <glyph glyph-name="h" unicode="h" horiz-adv-x="545" 
d="M145 630v-288q16 44 58.5 74t99.5 30q82 0 122 -47.5t40 -129.5v-269h-61v265q0 59 -31 93t-88 34q-60 0 -100 -42t-40 -109v-241h-61v630h61z" />
    <glyph glyph-name="i" unicode="i" horiz-adv-x="229" 
d="M77 549v81h75v-81h-75zM84 434h61v-434h-61v434z" />
    <glyph glyph-name="j" unicode="j" horiz-adv-x="229" 
d="M152 549h-75v81h75v-81zM145 434v-507q0 -109 -102 -109q-52 0 -89 32l19 40q35 -23 69 -23q42 0 42 50v517h61z" />
    <glyph glyph-name="k" unicode="k" horiz-adv-x="508" 
d="M145 163v-163h-61v630h61v-406l252 210h81l-209 -170l219 -264h-73l-191 228z" />
    <glyph glyph-name="l" unicode="l" horiz-adv-x="229" 
d="M84 630h61v-630h-61v630z" />
    <glyph glyph-name="m" unicode="m" horiz-adv-x="843" 
d="M443 338q15 45 58.5 76.5t104.5 31.5q78 0 117.5 -48t39.5 -129v-269h-61v265q0 59 -29.5 93t-84.5 34q-57 0 -95.5 -42t-38.5 -109v-241h-61v265q0 59 -29.5 93t-84.5 34q-57 0 -95.5 -42t-38.5 -109v-241h-61v434h61v-92q15 44 56 74t96 30q117 0 146 -108z" />
    <glyph glyph-name="n" unicode="n" horiz-adv-x="545" 
d="M145 241v-241h-61v434h61v-92q16 44 58.5 74t99.5 30q82 0 122 -47.5t40 -129.5v-269h-61v265q0 59 -31 93t-88 34q-60 0 -100 -42t-40 -109z" />
    <glyph glyph-name="o" unicode="o" horiz-adv-x="547" 
d="M497 217q0 -100 -65 -164.5t-159 -64.5t-158.5 64.5t-64.5 164.5t64.5 164.5t158.5 64.5t159 -64.5t65 -164.5zM114 217q0 -80 43.5 -128.5t115.5 -48.5q73 0 116.5 48.5t43.5 128.5t-43.5 128.5t-116.5 48.5q-72 0 -115.5 -48.5t-43.5 -128.5z" />
    <glyph glyph-name="p" unicode="p" horiz-adv-x="561" 
d="M142 227v-20q0 -76 43.5 -123t106.5 -47q72 0 113.5 48.5t41.5 131.5t-41.5 131.5t-113.5 48.5q-63 0 -106.5 -47t-43.5 -123zM145 99v-269h-61v604h61v-99q17 49 58.5 80t101.5 31q94 0 150 -65t56 -164t-56 -164t-150 -65q-60 0 -101.5 31t-58.5 80z" />
    <glyph glyph-name="q" unicode="q" horiz-adv-x="561" 
d="M416 -170v269q-17 -49 -58.5 -80t-101.5 -31q-94 0 -150 65t-56 164t56 164t150 65q60 0 101.5 -31t58.5 -80v99h61v-604h-61zM419 207v20q0 76 -43.5 123t-106.5 47q-72 0 -113.5 -48.5t-41.5 -131.5t41.5 -131.5t113.5 -48.5q63 0 106.5 47t43.5 123z" />
    <glyph glyph-name="r" unicode="r" horiz-adv-x="455" 
d="M278 390q-54 0 -94.5 -46.5t-40.5 -111.5v-232h-61v434h61v-108q14 50 52 85t95 35q59 0 93 -38.5t34 -97.5q0 -24 -5 -36l-54 -13q4 14 4 32q0 97 -84 97z" />
    <glyph glyph-name="s" unicode="s" horiz-adv-x="479" 
d="M45 88l34 53q23 -48 69 -74t101 -26q115 0 115 72q0 49 -75 67l-100 25q-55 14 -86 40.5t-31 76.5q0 56 46.5 90t114.5 34q61 0 107.5 -24t68.5 -66l-43 -41q-16 36 -52 57t-81 21q-44 0 -73 -18t-29 -48q0 -27 18.5 -43t59.5 -26l108 -27q107 -27 107 -116
q0 -58 -49.5 -92.5t-124.5 -34.5q-68 0 -123.5 27.5t-81.5 72.5z" />
    <glyph glyph-name="t" unicode="t" horiz-adv-x="426" 
d="M24 434h95v126l60 23v-149h194v-49h-194v-251q0 -46 24 -69.5t57 -23.5q38 0 60.5 20.5t42.5 64.5l32 -49q-13 -36 -50 -62.5t-85 -26.5q-60 0 -100.5 37t-40.5 105v255h-95v49z" />
    <glyph glyph-name="u" unicode="u" horiz-adv-x="543" 
d="M398 193v241h61v-434h-61v92q-16 -44 -58.5 -74t-99.5 -30q-81 0 -120.5 47.5t-39.5 129.5v269h61v-265q0 -59 30 -93t87 -34q60 0 100 42t40 109z" />
    <glyph glyph-name="v" unicode="v" horiz-adv-x="491" 
d="M270 0h-49l-194 434h64l155 -353h4l151 353h63z" />
    <glyph glyph-name="w" unicode="w" horiz-adv-x="696" 
d="M376 434l117 -354h4l113 354h59l-144 -434h-58l-117 348h-4l-116 -348h-58l-145 434h61l114 -354h4l115 354h55z" />
    <glyph glyph-name="x" unicode="x" horiz-adv-x="492" 
d="M439 434l-161 -206l184 -228h-74l-146 184l-144 -184h-68l179 225l-166 209h74l128 -163l126 163h68z" />
    <glyph glyph-name="y" unicode="y" horiz-adv-x="482" 
d="M205 -45l20 48l-198 431h67l159 -354h4l136 354h62l-192 -480q-27 -66 -57.5 -101t-83.5 -35q-46 0 -72.5 25.5t-32.5 67.5l55 30q0 -71 56 -71q24 0 41 19.5t36 65.5z" />
    <glyph glyph-name="z" unicode="z" horiz-adv-x="465" 
d="M62 434h345v-46l-279 -335h286v-53h-361v46l274 335h-265v53z" />
    <glyph glyph-name="braceleft" unicode="{" horiz-adv-x="339" 
d="M35 263v50h25q30 0 38.5 15t8.5 58v183q0 46 18 68.5t61 22.5h93v-50h-80q-31 0 -31 -37v-187q0 -85 -66 -98q66 -13 66 -98v-187q0 -37 31 -37h80v-50h-93q-43 0 -61 22.5t-18 68.5v183q0 43 -8.5 58t-38.5 15h-25z" />
    <glyph glyph-name="bar" unicode="|" horiz-adv-x="232" 
d="M88 -83v742h56v-742h-56z" />
    <glyph glyph-name="braceright" unicode="}" horiz-adv-x="339" 
d="M304 313v-50h-25q-30 0 -38.5 -15t-8.5 -58v-183q0 -46 -18 -68.5t-61 -22.5h-93v50h80q31 0 31 37v187q0 85 66 98q-66 13 -66 98v187q0 37 -31 37h-80v50h93q43 0 61 -22.5t18 -68.5v-183q0 -43 8.5 -58t38.5 -15h25z" />
    <glyph glyph-name="asciitilde" unicode="~" horiz-adv-x="409" 
d="M103 208h-43q0 113 81 113q30 0 69.5 -32t57.5 -32q22 0 29 14.5t9 46.5h43q0 -113 -81 -113q-30 0 -69.5 32t-57.5 32q-22 0 -29 -14.5t-9 -46.5z" />
    <glyph glyph-name="uni00A0" unicode="&#xa0;" horiz-adv-x="180" 
 />
    <glyph glyph-name="exclamdown" unicode="&#xa1;" horiz-adv-x="220" 
d="M70 438v80h80v-80h-80zM143 -112h-66v200l22 258h22l22 -258v-200z" />
    <glyph glyph-name="cent" unicode="&#xa2;" horiz-adv-x="523" 
d="M473 109q-20 -49 -63.5 -81.5t-107.5 -38.5v-88h-49v88q-91 8 -147 71t-56 157q0 92 56 155t147 73v98h49v-98q116 -8 164 -107l-39 -42q-35 86 -125 96v-350q96 11 131 102zM109 217q0 -73 39 -120t105 -55v349q-67 -8 -105.5 -54.5t-38.5 -119.5z" />
    <glyph glyph-name="sterling" unicode="&#xa3;" horiz-adv-x="593" 
d="M423 -12q-36 0 -71 15t-54 29.5t-51 42.5q-30 -87 -119 -87q-45 0 -75 25t-30 69q0 42 30.5 69.5t78.5 27.5q36 0 74 -19v1q0 56 -34 132h-104v48h84q-24 61 -24 111q0 85 51.5 137.5t143.5 52.5q89 0 143 -47.5t60 -133.5l-60 -14q-2 71 -39 107.5t-104 36.5
q-68 0 -102 -38.5t-34 -100.5q0 -46 24 -111h160v-48h-141q31 -79 31 -132q0 -12 -2 -36q4 -3 21 -16.5t22.5 -17.5t20.5 -14.5t24 -14.5t23 -10t27.5 -8t27.5 -2q84 0 84 129l57 -9q0 -80 -38 -127t-105 -47zM129 30q62 0 74 80q-36 26 -71 26q-60 0 -60 -53
q0 -24 15.5 -38.5t41.5 -14.5z" />
    <glyph glyph-name="yen" unicode="&#xa5;" horiz-adv-x="594" 
d="M497 147h-170v-147h-60v147h-170v48h170v77h-170v48h138l-205 310h69l202 -310l196 310h67l-205 -310h138v-48h-170v-77h170v-48z" />
    <glyph glyph-name="section" unicode="&#xa7;" horiz-adv-x="445" 
d="M168 215l122 -58q70 23 70 80q0 33 -20.5 53.5t-63.5 40.5l-122 58q-70 -23 -70 -80q0 -33 20.5 -53.5t63.5 -40.5zM222 -96q-61 0 -107.5 24t-68.5 66l43 41q16 -36 52.5 -57.5t80.5 -21.5q47 0 76 22t29 56q0 24 -11.5 40t-42.5 30l-134 62q-55 25 -82.5 58t-27.5 85
q0 34 21 64t54 45q-43 36 -43 93q0 59 46.5 95t114.5 36q61 0 107.5 -24t68.5 -66l-43 -41q-16 36 -52.5 57.5t-80.5 21.5q-47 0 -76 -22t-29 -56q0 -24 11.5 -40t42.5 -30l134 -62q55 -25 82.5 -58t27.5 -85q0 -34 -21 -64t-54 -45q43 -36 43 -93q0 -59 -46.5 -95
t-114.5 -36z" />
    <glyph glyph-name="dieresis" unicode="&#xa8;" 
d="M300 540v81h65v-81h-65zM155 540v81h65v-81h-65z" />
    <glyph glyph-name="copyright" unicode="&#xa9;" horiz-adv-x="744" 
d="M45 315q0 141 95 234t232 93t232 -93t95 -234t-95 -234t-232 -93t-232 93t-95 234zM91 315q0 -122 81.5 -202t199.5 -80t199.5 80t81.5 202t-81.5 202t-199.5 80t-199.5 -80t-81.5 -202zM185 314q0 87 53.5 142.5t133.5 55.5q64 0 106.5 -29t60.5 -80l-47 -26
q-11 39 -41.5 62t-76.5 23q-58 0 -93 -40t-35 -108t35 -107.5t93 -39.5q50 0 81 26.5t40 71.5l48 -28q-16 -57 -60 -89t-111 -32q-80 0 -133.5 55.5t-53.5 142.5z" />
    <glyph glyph-name="ordfeminine" unicode="&#xaa;" horiz-adv-x="389" 
d="M106 533l-49 21q14 39 50.5 63t88.5 24q109 0 109 -89v-147q0 -32 26 -32q19 0 33 11l3 -42q-24 -14 -46 -14q-29 0 -48 18.5t-21 47.5q-11 -29 -41 -47t-70 -18q-42 0 -68.5 23.5t-26.5 62.5t29.5 60t87.5 34l89 21v24q0 17 -13.5 29.5t-43.5 12.5q-37 0 -60 -17.5
t-29 -45.5zM252 455v39l-76 -18q-26 -6 -40 -11.5t-24 -17t-10 -29.5q0 -20 13.5 -33t38.5 -13q40 0 69 25t29 58zM61 233h273v-48h-273v48z" />
    <glyph glyph-name="guillemotleft" unicode="&#xab;" horiz-adv-x="448" 
d="M235 192v48l153 143v-72l-102 -95l102 -95v-72zM60 192v48l153 143v-72l-102 -95l102 -95v-72z" />
    <glyph glyph-name="registered" unicode="&#xae;" horiz-adv-x="504" 
d="M464 429q0 -92 -61.5 -152.5t-150.5 -60.5t-150.5 60.5t-61.5 152.5t61.5 152.5t150.5 60.5t150.5 -60.5t61.5 -152.5zM425 429q0 77 -50 127t-123 50t-123 -50t-50 -127t49.5 -126.5t123.5 -49.5t123.5 49.5t49.5 126.5zM208 441h51q46 0 46 34q0 33 -46 33h-51v-67z
M358 322h-48q-9 12 -13 45q-5 40 -37 40h-52v-85h-43v221h100q84 0 84 -66q0 -23 -19 -38t-42 -17q48 -8 52 -45q5 -42 18 -55z" />
    <glyph glyph-name="macron" unicode="&#xaf;" 
d="M134 536v51h251v-51h-251z" />
    <glyph glyph-name="degree" unicode="&#xb0;" horiz-adv-x="350" 
d="M40 509q0 56 39 94.5t96 38.5t96 -38.5t39 -94.5t-39 -94.5t-96 -38.5t-96 38.5t-39 94.5zM92 509q0 -37 23 -61.5t60 -24.5t60 24.5t23 61.5t-23 61.5t-60 24.5t-60 -24.5t-23 -61.5z" />
    <glyph glyph-name="plusminus" unicode="&#xb1;" horiz-adv-x="635" 
d="M575 352h-232v-200h-51v200h-232v51h232v200h51v-200h232v-51zM60 46v52h515v-52h-515z" />
    <glyph glyph-name="twosuperior" unicode="&#xb2;" horiz-adv-x="389" 
d="M143 288h200v-49h-291v34l112 95q40 34 57.5 51t34 43.5t16.5 52.5q0 34 -20 54.5t-57 20.5q-40 0 -61.5 -23t-21.5 -65q0 -20 7 -35l-57 2q-6 19 -6 37q0 61 38 97t101 36q66 0 101.5 -34t35.5 -87q0 -33 -20 -66.5t-41.5 -54t-56.5 -49.5z" />
    <glyph glyph-name="threesuperior" unicode="&#xb3;" horiz-adv-x="394" 
d="M110 503l-55 16q7 54 45.5 87t98.5 33q64 0 100 -30.5t36 -80.5q0 -36 -25 -61t-58 -30q39 -4 64.5 -30t25.5 -64q0 -50 -38.5 -80.5t-103.5 -30.5t-106.5 31.5t-48.5 86.5l55 16q2 -41 29.5 -64.5t70.5 -23.5q38 0 61 18t23 51q0 32 -25 49.5t-63 17.5q-18 0 -36 -4v51
q24 -3 37 -3q34 0 57.5 15.5t23.5 49.5q0 31 -21 50t-59 19q-39 0 -62.5 -23.5t-25.5 -65.5z" />
    <glyph glyph-name="acute" unicode="&#xb4;" 
d="M232 518h-42l62 152h77z" />
    <glyph glyph-name="paragraph" unicode="&#xb6;" horiz-adv-x="549" 
d="M253 -86v370q-103 0 -160 46t-57 127t57 127t160 46h208v-716h-55v663h-99v-663h-54z" />
    <glyph glyph-name="periodcentered" unicode="&#xb7;" horiz-adv-x="228" 
d="M70 215v88h88v-88h-88z" />
    <glyph glyph-name="cedilla" unicode="&#xb8;" 
d="M366 -127q0 -41 -29.5 -61t-74.5 -20q-65 0 -112 45l17 33q40 -40 95 -40q24 0 38.5 10.5t14.5 28.5q0 29 -32.5 36.5t-58.5 -7.5l-20 14l59 99h36l-44 -73q39 9 75 -8.5t36 -56.5z" />
    <glyph glyph-name="onesuperior" unicode="&#xb9;" horiz-adv-x="289" 
d="M203 239h-57v294h-104v42h28q48 0 67 12t28 47h38v-395z" />
    <glyph glyph-name="ordmasculine" unicode="&#xba;" horiz-adv-x="409" 
d="M361 485q0 -69 -45 -113t-112 -44q-66 0 -111 44t-45 113q0 68 45 112.5t111 44.5q67 0 112 -44.5t45 -112.5zM105 485q0 -51 27 -82t72 -31t72 31t27 82t-27 81.5t-72 30.5t-72 -31t-27 -81zM341 233v-48h-273v48h273z" />
    <glyph glyph-name="guillemotright" unicode="&#xbb;" horiz-adv-x="448" 
d="M388 240v-48l-153 -143v72l102 95l-102 95v72zM213 240v-48l-153 -143v72l102 95l-102 95v72z" />
    <glyph glyph-name="onequarter" unicode="&#xbc;" horiz-adv-x="838" 
d="M203 239h-57v294h-104v42h28q48 0 67 12t28 47h38v-395zM622 630l-414 -630h-57l414 630h57zM730 392v-244h69v-45h-69v-103h-53v103h-211v53l196 236h68zM677 343l-161 -195h161v195z" />
    <glyph glyph-name="onehalf" unicode="&#xbd;" horiz-adv-x="847" 
d="M203 239h-57v294h-104v42h28q48 0 67 12t28 47h38v-395zM622 630l-414 -630h-57l414 630h57zM617 49h200v-49h-291v34l112 95q40 34 57.5 51t34 43.5t16.5 52.5q0 34 -20 54.5t-57 20.5q-40 0 -61.5 -23t-21.5 -65q0 -20 7 -35l-57 2q-6 19 -6 37q0 61 38 97t101 36
q66 0 101.5 -34t35.5 -87q0 -33 -20 -66.5t-41.5 -54t-56.5 -49.5z" />
    <glyph glyph-name="threequarters" unicode="&#xbe;" horiz-adv-x="918" 
d="M712 630l-414 -630h-57l414 630h57zM810 392v-244h69v-45h-69v-103h-53v103h-211v53l196 236h68zM110 503l-55 16q7 54 45.5 87t98.5 33q64 0 100 -30.5t36 -80.5q0 -36 -25 -61t-58 -30q39 -4 64.5 -30t25.5 -64q0 -50 -38.5 -80.5t-103.5 -30.5t-106.5 31.5t-48.5 86.5
l55 16q2 -41 29.5 -64.5t70.5 -23.5q38 0 61 18t23 51q0 32 -25 49.5t-63 17.5q-18 0 -36 -4v51q24 -3 37 -3q34 0 57.5 15.5t23.5 49.5q0 31 -21 50t-59 19q-39 0 -62.5 -23.5t-25.5 -65.5zM757 343l-161 -195h161v195z" />
    <glyph glyph-name="questiondown" unicode="&#xbf;" horiz-adv-x="498" 
d="M303 518v-80h-80v80h80zM231 352h57q0 -45 -17.5 -76t-59.5 -65q-5 -4 -28.5 -22t-31 -25.5t-21.5 -24.5t-19 -35.5t-5 -42.5q0 -60 35.5 -97t102.5 -37q71 0 111 42.5t40 119.5q0 23 -4 43l64 -4q3 -23 3 -43q0 -96 -58 -152.5t-156 -56.5q-103 0 -153.5 52t-50.5 133
q0 40 20 75.5t39 53t67 55.5q8 7 12 10q30 25 41.5 45t11.5 52z" />
    <glyph glyph-name="Agrave" unicode="&#xc0;" horiz-adv-x="649" 
d="M352 708h-42l-97 122h85zM316 562l-118 -306h244l-122 306h-4zM544 0l-80 201h-287l-77 -201h-64l249 630h72l256 -630h-69z" />
    <glyph glyph-name="Aacute" unicode="&#xc1;" horiz-adv-x="649" 
d="M337 708h-42l54 122h85zM316 562l-118 -306h244l-122 306h-4zM544 0l-80 201h-287l-77 -201h-64l249 630h72l256 -630h-69z" />
    <glyph glyph-name="Acircumflex" unicode="&#xc2;" horiz-adv-x="649" 
d="M280 830h80l79 -122h-49l-70 80l-70 -80h-49zM316 562l-118 -306h244l-122 306h-4zM544 0l-80 201h-287l-77 -201h-64l249 630h72l256 -630h-69z" />
    <glyph glyph-name="Atilde" unicode="&#xc3;" horiz-adv-x="649" 
d="M219 707h-43q0 113 81 113q30 0 69.5 -32t57.5 -32q22 0 29 14.5t9 46.5h43q0 -113 -81 -113q-30 0 -69.5 32t-57.5 32q-22 0 -29 -14.5t-9 -46.5zM316 562l-118 -306h244l-122 306h-4zM544 0l-80 201h-287l-77 -201h-64l249 630h72l256 -630h-69z" />
    <glyph glyph-name="Adieresis" unicode="&#xc4;" horiz-adv-x="649" 
d="M215 714v81h65v-81h-65zM360 714v81h65v-81h-65zM316 562l-118 -306h244l-122 306h-4zM544 0l-80 201h-287l-77 -201h-64l249 630h72l256 -630h-69z" />
    <glyph glyph-name="Aring" unicode="&#xc5;" horiz-adv-x="649" 
d="M227 778q0 39 26 64.5t67 25.5q42 0 68 -25.5t26 -64.5t-26 -64.5t-68 -25.5q-41 0 -67 25.5t-26 64.5zM269 778q0 -23 13.5 -37t37.5 -14t37.5 14t13.5 37t-13.5 37t-37.5 14t-37.5 -14t-13.5 -37zM316 562l-118 -306h244l-122 306h-4zM544 0l-80 201h-287l-77 -201h-64
l249 630h72l256 -630h-69z" />
    <glyph glyph-name="AE" unicode="&#xc6;" horiz-adv-x="1020" 
d="M491 582l-216 -326h216v326zM491 0v201h-253l-133 -201h-69l423 630h489v-55h-394v-219h301v-56h-301v-245h403v-55h-466z" />
    <glyph glyph-name="Ccedilla" unicode="&#xc7;" horiz-adv-x="689" 
d="M349 -208q-65 0 -112 45l17 33q40 -40 95 -40q24 0 38.5 10.5t14.5 28.5q0 29 -32.5 36.5t-58.5 -7.5l-20 14l46 77q-121 11 -201 101t-80 225q0 144 89.5 235.5t223.5 91.5q93 0 159.5 -41.5t98.5 -116.5l-51 -42q-22 68 -75.5 106.5t-131.5 38.5q-109 0 -177 -73.5
t-68 -198.5q0 -124 67.5 -198t173.5 -74q180 0 219 168l55 -40q-27 -85 -96 -133.5t-171 -49.5l-30 -50q39 9 75 -8.5t36 -56.5q0 -41 -29.5 -61t-74.5 -20z" />
    <glyph glyph-name="Egrave" unicode="&#xc8;" horiz-adv-x="617" 
d="M342 708h-42l-97 122h85zM554 55v-55h-466v630h457v-55h-394v-219h301v-56h-301v-245h403z" />
    <glyph glyph-name="Eacute" unicode="&#xc9;" horiz-adv-x="617" 
d="M327 708h-42l54 122h85zM554 55v-55h-466v630h457v-55h-394v-219h301v-56h-301v-245h403z" />
    <glyph glyph-name="Ecircumflex" unicode="&#xca;" horiz-adv-x="617" 
d="M270 830h80l79 -122h-49l-70 80l-70 -80h-49zM554 55v-55h-466v630h457v-55h-394v-219h301v-56h-301v-245h403z" />
    <glyph glyph-name="Edieresis" unicode="&#xcb;" horiz-adv-x="617" 
d="M205 714v81h65v-81h-65zM350 714v81h65v-81h-65zM554 55v-55h-466v630h457v-55h-394v-219h301v-56h-301v-245h403z" />
    <glyph glyph-name="Igrave" unicode="&#xcc;" horiz-adv-x="241" 
d="M151 708h-42l-97 122h85zM88 630h65v-630h-65v630z" />
    <glyph glyph-name="Iacute" unicode="&#xcd;" horiz-adv-x="241" 
d="M136 708h-42l54 122h85zM88 630h65v-630h-65v630z" />
    <glyph glyph-name="Icircumflex" unicode="&#xce;" horiz-adv-x="241" 
d="M79 830h80l79 -122h-49l-70 80l-70 -80h-49zM88 630h65v-630h-65v630z" />
    <glyph glyph-name="Idieresis" unicode="&#xcf;" horiz-adv-x="241" 
d="M14 714v81h65v-81h-65zM159 714v81h65v-81h-65zM88 630h65v-630h-65v630z" />
    <glyph glyph-name="Eth" unicode="&#xd0;" horiz-adv-x="719" 
d="M325 0h-222v307h-78v51h78v272h222q155 0 246.5 -84t91.5 -231t-91.5 -231t-246.5 -84zM168 55h148q135 0 207 68t72 192t-72 192t-207 68h-148v-217h158v-51h-158v-252z" />
    <glyph glyph-name="Ntilde" unicode="&#xd1;" horiz-adv-x="688" 
d="M246 707h-43q0 113 81 113q30 0 69.5 -32t57.5 -32q22 0 29 14.5t9 46.5h43q0 -113 -81 -113q-30 0 -69.5 32t-57.5 32q-22 0 -29 -14.5t-9 -46.5zM158 630l382 -521v521h60v-630h-50l-402 545v-545h-60v630h70z" />
    <glyph glyph-name="Ograve" unicode="&#xd2;" horiz-adv-x="744" 
d="M404 708h-42l-97 122h85zM688 315q0 -145 -88.5 -236t-227.5 -91t-227.5 91t-88.5 236t88.5 236t227.5 91t227.5 -91t88.5 -236zM620 315q0 124 -68 198t-180 74t-180 -74t-68 -198t68 -198t180 -74t180 74t68 198z" />
    <glyph glyph-name="Oacute" unicode="&#xd3;" horiz-adv-x="744" 
d="M389 708h-42l54 122h85zM688 315q0 -145 -88.5 -236t-227.5 -91t-227.5 91t-88.5 236t88.5 236t227.5 91t227.5 -91t88.5 -236zM620 315q0 124 -68 198t-180 74t-180 -74t-68 -198t68 -198t180 -74t180 74t68 198z" />
    <glyph glyph-name="Ocircumflex" unicode="&#xd4;" horiz-adv-x="744" 
d="M332 830h80l79 -122h-49l-70 80l-70 -80h-49zM688 315q0 -145 -88.5 -236t-227.5 -91t-227.5 91t-88.5 236t88.5 236t227.5 91t227.5 -91t88.5 -236zM620 315q0 124 -68 198t-180 74t-180 -74t-68 -198t68 -198t180 -74t180 74t68 198z" />
    <glyph glyph-name="Otilde" unicode="&#xd5;" horiz-adv-x="744" 
d="M271 707h-43q0 113 81 113q30 0 69.5 -32t57.5 -32q22 0 29 14.5t9 46.5h43q0 -113 -81 -113q-30 0 -69.5 32t-57.5 32q-22 0 -29 -14.5t-9 -46.5zM688 315q0 -145 -88.5 -236t-227.5 -91t-227.5 91t-88.5 236t88.5 236t227.5 91t227.5 -91t88.5 -236zM620 315
q0 124 -68 198t-180 74t-180 -74t-68 -198t68 -198t180 -74t180 74t68 198z" />
    <glyph glyph-name="Odieresis" unicode="&#xd6;" horiz-adv-x="744" 
d="M267 714v81h65v-81h-65zM412 714v81h65v-81h-65zM688 315q0 -145 -88.5 -236t-227.5 -91t-227.5 91t-88.5 236t88.5 236t227.5 91t227.5 -91t88.5 -236zM620 315q0 124 -68 198t-180 74t-180 -74t-68 -198t68 -198t180 -74t180 74t68 198z" />
    <glyph glyph-name="multiply" unicode="&#xd7;" horiz-adv-x="548" 
d="M238 308l-167 167l37 37l165 -169l165 169l37 -37l-167 -167l167 -167l-37 -37l-165 169l-165 -169l-37 37z" />
    <glyph glyph-name="Oslash" unicode="&#xd8;" horiz-adv-x="744" 
d="M124 315q0 -112 56 -184l359 395q-67 61 -167 61q-112 0 -180 -74t-68 -198zM372 43q112 0 180 74t68 198q0 104 -48 174l-357 -394q63 -52 157 -52zM372 -12q-114 0 -197 64l-70 -78l-39 31l73 80q-83 91 -83 230q0 145 88.5 236t227.5 91q121 0 207 -72l60 67l39 -31
l-64 -71q74 -88 74 -220q0 -145 -88.5 -236t-227.5 -91z" />
    <glyph glyph-name="Ugrave" unicode="&#xd9;" horiz-adv-x="670" 
d="M367 708h-42l-97 122h85zM335 -12q-109 0 -183 70.5t-74 201.5v370h65v-370q0 -104 51.5 -159.5t140.5 -55.5t141.5 55.5t52.5 159.5v370h63v-370q0 -131 -74 -201.5t-183 -70.5z" />
    <glyph glyph-name="Uacute" unicode="&#xda;" horiz-adv-x="670" 
d="M352 708h-42l54 122h85zM335 -12q-109 0 -183 70.5t-74 201.5v370h65v-370q0 -104 51.5 -159.5t140.5 -55.5t141.5 55.5t52.5 159.5v370h63v-370q0 -131 -74 -201.5t-183 -70.5z" />
    <glyph glyph-name="Ucircumflex" unicode="&#xdb;" horiz-adv-x="670" 
d="M295 830h80l79 -122h-49l-70 80l-70 -80h-49zM335 -12q-109 0 -183 70.5t-74 201.5v370h65v-370q0 -104 51.5 -159.5t140.5 -55.5t141.5 55.5t52.5 159.5v370h63v-370q0 -131 -74 -201.5t-183 -70.5z" />
    <glyph glyph-name="Udieresis" unicode="&#xdc;" horiz-adv-x="670" 
d="M230 714v81h65v-81h-65zM375 714v81h65v-81h-65zM335 -12q-109 0 -183 70.5t-74 201.5v370h65v-370q0 -104 51.5 -159.5t140.5 -55.5t141.5 55.5t52.5 159.5v370h63v-370q0 -131 -74 -201.5t-183 -70.5z" />
    <glyph glyph-name="Yacute" unicode="&#xdd;" horiz-adv-x="612" 
d="M323 708h-42l54 122h85zM309 328l196 302h69l-237 -361v-269h-62v269l-237 361h74z" />
    <glyph glyph-name="Thorn" unicode="&#xde;" horiz-adv-x="640" 
d="M353 136h-201v-136h-64v630h64v-126h201q114 0 177 -49t63 -135t-63 -135t-177 -49zM152 191h201q176 0 176 129t-176 129h-201v-258z" />
    <glyph glyph-name="germandbls" unicode="&#xdf;" horiz-adv-x="546" 
d="M455 489q0 -57 -32 -92.5t-78 -42.5q70 -9 110.5 -55.5t40.5 -113.5q0 -90 -56.5 -140t-137.5 -50q-30 0 -71 13v48q39 -13 67 -13q60 0 97.5 36t37.5 106q0 64 -42.5 103t-112.5 38q-24 0 -42 -1v51q13 -2 42 -2q57 0 86.5 29.5t29.5 84.5q0 48 -29.5 77.5t-84.5 29.5
q-60 0 -97.5 -38.5t-37.5 -106.5v-450h-61v455q0 81 54.5 134t141.5 53q82 0 128.5 -41t46.5 -112z" />
    <glyph glyph-name="agrave" unicode="&#xe0;" horiz-adv-x="511" 
d="M287 518h-42l-97 152h77zM119 305l-55 25q24 51 75 83.5t120 32.5q71 0 110 -31t39 -89v-228q0 -52 41 -52q26 0 48 14l3 -53q-27 -16 -57 -16q-41 0 -66 28t-27 71q-15 -43 -60 -71t-105 -28q-61 0 -99 35t-38 92q0 55 44.5 87.5t130.5 51.5l127 28v42q0 26 -21 46
t-70 20q-53 0 -89 -25t-51 -63zM350 173v65l-117 -27q-64 -15 -93.5 -34.5t-29.5 -58.5q0 -33 21.5 -54t62.5 -21q63 0 109.5 40t46.5 90z" />
    <glyph glyph-name="aacute" unicode="&#xe1;" horiz-adv-x="511" 
d="M274 518h-42l62 152h77zM119 305l-55 25q24 51 75 83.5t120 32.5q71 0 110 -31t39 -89v-228q0 -52 41 -52q26 0 48 14l3 -53q-27 -16 -57 -16q-41 0 -66 28t-27 71q-15 -43 -60 -71t-105 -28q-61 0 -99 35t-38 92q0 55 44.5 87.5t130.5 51.5l127 28v42q0 26 -21 46
t-70 20q-53 0 -89 -25t-51 -63zM350 173v65l-117 -27q-64 -15 -93.5 -34.5t-29.5 -58.5q0 -33 21.5 -54t62.5 -21q63 0 109.5 40t46.5 90z" />
    <glyph glyph-name="acircumflex" unicode="&#xe2;" horiz-adv-x="511" 
d="M216 662h70l82 -144h-47l-70 102l-70 -102h-47zM119 305l-55 25q24 51 75 83.5t120 32.5q71 0 110 -31t39 -89v-228q0 -52 41 -52q26 0 48 14l3 -53q-27 -16 -57 -16q-41 0 -66 28t-27 71q-15 -43 -60 -71t-105 -28q-61 0 -99 35t-38 92q0 55 44.5 87.5t130.5 51.5
l127 28v42q0 26 -21 46t-70 20q-53 0 -89 -25t-51 -63zM350 173v65l-117 -27q-64 -15 -93.5 -34.5t-29.5 -58.5q0 -33 21.5 -54t62.5 -21q63 0 109.5 40t46.5 90z" />
    <glyph glyph-name="atilde" unicode="&#xe3;" horiz-adv-x="511" 
d="M156 525h-43q0 54 20.5 88.5t60.5 34.5q30 0 69.5 -37t57.5 -37q21 0 28.5 18.5t9.5 52.5h43q0 -54 -20.5 -88.5t-60.5 -34.5q-30 0 -69.5 37t-57.5 37q-21 0 -28.5 -18.5t-9.5 -52.5zM119 305l-55 25q24 51 75 83.5t120 32.5q71 0 110 -31t39 -89v-228q0 -52 41 -52
q26 0 48 14l3 -53q-27 -16 -57 -16q-41 0 -66 28t-27 71q-15 -43 -60 -71t-105 -28q-61 0 -99 35t-38 92q0 55 44.5 87.5t130.5 51.5l127 28v42q0 26 -21 46t-70 20q-53 0 -89 -25t-51 -63zM350 173v65l-117 -27q-64 -15 -93.5 -34.5t-29.5 -58.5q0 -33 21.5 -54t62.5 -21
q63 0 109.5 40t46.5 90z" />
    <glyph glyph-name="adieresis" unicode="&#xe4;" horiz-adv-x="511" 
d="M297 540v81h65v-81h-65zM152 540v81h65v-81h-65zM119 305l-55 25q24 51 75 83.5t120 32.5q71 0 110 -31t39 -89v-228q0 -52 41 -52q26 0 48 14l3 -53q-27 -16 -57 -16q-41 0 -66 28t-27 71q-15 -43 -60 -71t-105 -28q-61 0 -99 35t-38 92q0 55 44.5 87.5t130.5 51.5
l127 28v42q0 26 -21 46t-70 20q-53 0 -89 -25t-51 -63zM350 173v65l-117 -27q-64 -15 -93.5 -34.5t-29.5 -58.5q0 -33 21.5 -54t62.5 -21q63 0 109.5 40t46.5 90z" />
    <glyph glyph-name="aring" unicode="&#xe5;" horiz-adv-x="511" 
d="M164 593q0 39 26 64.5t67 25.5q42 0 68 -25.5t26 -64.5t-26 -64.5t-68 -25.5q-41 0 -67 25.5t-26 64.5zM206 593q0 -23 13.5 -37t37.5 -14t37.5 14t13.5 37t-13.5 37t-37.5 14t-37.5 -14t-13.5 -37zM119 305l-55 25q24 51 75 83.5t120 32.5q71 0 110 -31t39 -89v-228
q0 -52 41 -52q26 0 48 14l3 -53q-27 -16 -57 -16q-41 0 -66 28t-27 71q-15 -43 -60 -71t-105 -28q-61 0 -99 35t-38 92q0 55 44.5 87.5t130.5 51.5l127 28v42q0 26 -21 46t-70 20q-53 0 -89 -25t-51 -63zM350 173v65l-117 -27q-64 -15 -93.5 -34.5t-29.5 -58.5
q0 -33 21.5 -54t62.5 -21q63 0 109.5 40t46.5 90z" />
    <glyph glyph-name="ae" unicode="&#xe6;" horiz-adv-x="816" 
d="M566 -12q-65 0 -116 29.5t-78 82.5q-21 -45 -69 -77t-118 -32q-61 0 -99 33.5t-38 90.5t43 87t132 50l127 28v47q0 26 -21 46t-70 20q-53 0 -89 -25t-51 -63l-55 25q24 51 75 83.5t120 32.5q112 0 137 -79q63 79 166 79q97 0 150.5 -61.5t53.5 -150.5v-23h-360
q0 -77 47 -124.5t114 -47.5q113 0 151 106l46 -39q-57 -118 -198 -118zM409 260h297q-3 56 -41 95t-103 39q-62 0 -103 -39t-50 -95zM350 173v60l-117 -27q-46 -11 -67.5 -18.5t-38.5 -25.5t-17 -47q0 -32 21.5 -52t62.5 -20q63 0 109.5 40t46.5 90z" />
    <glyph glyph-name="ccedilla" unicode="&#xe7;" horiz-adv-x="497" 
d="M256 -208q-65 0 -112 45l17 33q40 -40 95 -40q24 0 38.5 10.5t14.5 28.5q0 29 -32.5 36.5t-58.5 -7.5l-20 14l46 77q-90 6 -146.5 69t-56.5 159q0 100 62.5 164.5t160.5 64.5q127 0 178 -108l-47 -42q-16 43 -49.5 70t-81.5 27q-72 0 -115.5 -48t-43.5 -128t43 -128
t113 -48q53 0 88.5 28.5t50.5 74.5l48 -35q-19 -49 -62 -82.5t-106 -37.5l-31 -51q39 9 75 -8.5t36 -56.5q0 -41 -29.5 -61t-74.5 -20z" />
    <glyph glyph-name="egrave" unicode="&#xe8;" 
d="M303 518h-42l-97 152h77zM422 145l46 -39q-57 -118 -198 -118q-96 0 -158 62t-62 161q0 102 61.5 168.5t154.5 66.5q97 0 150.5 -61.5t53.5 -150.5v-23h-360q0 -77 47 -124.5t114 -47.5q113 0 151 106zM113 260h297q-3 56 -41 95t-103 39q-62 0 -103 -39t-50 -95z" />
    <glyph glyph-name="eacute" unicode="&#xe9;" 
d="M290 518h-42l62 152h77zM422 145l46 -39q-57 -118 -198 -118q-96 0 -158 62t-62 161q0 102 61.5 168.5t154.5 66.5q97 0 150.5 -61.5t53.5 -150.5v-23h-360q0 -77 47 -124.5t114 -47.5q113 0 151 106zM113 260h297q-3 56 -41 95t-103 39q-62 0 -103 -39t-50 -95z" />
    <glyph glyph-name="ecircumflex" unicode="&#xea;" 
d="M238 662h70l82 -144h-47l-70 102l-70 -102h-47zM422 145l46 -39q-57 -118 -198 -118q-96 0 -158 62t-62 161q0 102 61.5 168.5t154.5 66.5q97 0 150.5 -61.5t53.5 -150.5v-23h-360q0 -77 47 -124.5t114 -47.5q113 0 151 106zM113 260h297q-3 56 -41 95t-103 39
q-62 0 -103 -39t-50 -95z" />
    <glyph glyph-name="edieresis" unicode="&#xeb;" 
d="M313 540v81h65v-81h-65zM168 540v81h65v-81h-65zM422 145l46 -39q-57 -118 -198 -118q-96 0 -158 62t-62 161q0 102 61.5 168.5t154.5 66.5q97 0 150.5 -61.5t53.5 -150.5v-23h-360q0 -77 47 -124.5t114 -47.5q113 0 151 106zM113 260h297q-3 56 -41 95t-103 39
q-62 0 -103 -39t-50 -95z" />
    <glyph glyph-name="igrave" unicode="&#xec;" horiz-adv-x="229" 
d="M145 518h-42l-97 152h77zM84 434h61v-434h-61v434z" />
    <glyph glyph-name="iacute" unicode="&#xed;" horiz-adv-x="229" 
d="M132 518h-42l62 152h77zM84 434h61v-434h-61v434z" />
    <glyph glyph-name="icircumflex" unicode="&#xee;" horiz-adv-x="229" 
d="M80 662h70l82 -144h-47l-70 102l-70 -102h-48zM84 434h61v-434h-61v434z" />
    <glyph glyph-name="idieresis" unicode="&#xef;" horiz-adv-x="229" 
d="M155 540v81h65v-81h-65zM10 540v81h65v-81h-65zM84 434h61v-434h-61v434z" />
    <glyph glyph-name="eth" unicode="&#xf0;" horiz-adv-x="547" 
d="M275 -12q-97 0 -161 62.5t-64 161.5t64 162t161 63t153 -86q-31 88 -133 172l-124 -49l-16 36l103 40q-42 31 -89 56l31 37q61 -33 113 -71l77 30l17 -35l-59 -23q149 -130 149 -317q0 -114 -61.5 -176.5t-160.5 -62.5zM275 38q75 0 117 47.5t42 126.5q0 80 -42 127.5
t-117 47.5t-117 -47.5t-42 -127.5q0 -79 42 -126.5t117 -47.5z" />
    <glyph glyph-name="ntilde" unicode="&#xf1;" horiz-adv-x="545" 
d="M173 525h-43q0 54 20.5 88.5t60.5 34.5q30 0 69.5 -37t57.5 -37q21 0 28.5 18.5t9.5 52.5h43q0 -54 -20.5 -88.5t-60.5 -34.5q-30 0 -69.5 37t-57.5 37q-21 0 -28.5 -18.5t-9.5 -52.5zM145 241v-241h-61v434h61v-92q16 44 58.5 74t99.5 30q82 0 122 -47.5t40 -129.5v-269
h-61v265q0 59 -31 93t-88 34q-60 0 -100 -42t-40 -109z" />
    <glyph glyph-name="ograve" unicode="&#xf2;" horiz-adv-x="547" 
d="M304 518h-42l-97 152h77zM497 217q0 -100 -65 -164.5t-159 -64.5t-158.5 64.5t-64.5 164.5t64.5 164.5t158.5 64.5t159 -64.5t65 -164.5zM114 217q0 -80 43.5 -128.5t115.5 -48.5q73 0 116.5 48.5t43.5 128.5t-43.5 128.5t-116.5 48.5q-72 0 -115.5 -48.5t-43.5 -128.5z
" />
    <glyph glyph-name="oacute" unicode="&#xf3;" horiz-adv-x="547" 
d="M291 518h-42l62 152h77zM497 217q0 -100 -65 -164.5t-159 -64.5t-158.5 64.5t-64.5 164.5t64.5 164.5t158.5 64.5t159 -64.5t65 -164.5zM114 217q0 -80 43.5 -128.5t115.5 -48.5q73 0 116.5 48.5t43.5 128.5t-43.5 128.5t-116.5 48.5q-72 0 -115.5 -48.5t-43.5 -128.5z
" />
    <glyph glyph-name="ocircumflex" unicode="&#xf4;" horiz-adv-x="547" 
d="M239 662h70l82 -144h-47l-70 102l-70 -102h-47zM497 217q0 -100 -65 -164.5t-159 -64.5t-158.5 64.5t-64.5 164.5t64.5 164.5t158.5 64.5t159 -64.5t65 -164.5zM114 217q0 -80 43.5 -128.5t115.5 -48.5q73 0 116.5 48.5t43.5 128.5t-43.5 128.5t-116.5 48.5
q-72 0 -115.5 -48.5t-43.5 -128.5z" />
    <glyph glyph-name="otilde" unicode="&#xf5;" horiz-adv-x="547" 
d="M172 525h-43q0 54 20.5 88.5t60.5 34.5q30 0 69.5 -37t57.5 -37q21 0 28.5 18.5t9.5 52.5h43q0 -54 -20.5 -88.5t-60.5 -34.5q-30 0 -69.5 37t-57.5 37q-21 0 -28.5 -18.5t-9.5 -52.5zM497 217q0 -100 -65 -164.5t-159 -64.5t-158.5 64.5t-64.5 164.5t64.5 164.5
t158.5 64.5t159 -64.5t65 -164.5zM114 217q0 -80 43.5 -128.5t115.5 -48.5q73 0 116.5 48.5t43.5 128.5t-43.5 128.5t-116.5 48.5q-72 0 -115.5 -48.5t-43.5 -128.5z" />
    <glyph glyph-name="odieresis" unicode="&#xf6;" horiz-adv-x="547" 
d="M314 540v81h65v-81h-65zM169 540v81h65v-81h-65zM497 217q0 -100 -65 -164.5t-159 -64.5t-158.5 64.5t-64.5 164.5t64.5 164.5t158.5 64.5t159 -64.5t65 -164.5zM114 217q0 -80 43.5 -128.5t115.5 -48.5q73 0 116.5 48.5t43.5 128.5t-43.5 128.5t-116.5 48.5
q-72 0 -115.5 -48.5t-43.5 -128.5z" />
    <glyph glyph-name="divide" unicode="&#xf7;" horiz-adv-x="640" 
d="M279 477v84h84v-84h-84zM67 286v52h506v-52h-506zM279 63v84h84v-84h-84z" />
    <glyph glyph-name="oslash" unicode="&#xf8;" horiz-adv-x="547" 
d="M114 217q0 -68 31 -113l228 257q-42 33 -100 33q-72 0 -115.5 -48.5t-43.5 -128.5zM273 40q73 0 116.5 48.5t43.5 128.5q0 65 -30 112l-227 -258q39 -31 97 -31zM273 -12q-76 0 -133 43l-58 -66l-34 28l59 67q-57 65 -57 157q0 100 64.5 164.5t158.5 64.5q77 0 135 -44
l55 62l34 -28l-56 -64q56 -62 56 -155q0 -100 -65 -164.5t-159 -64.5z" />
    <glyph glyph-name="ugrave" unicode="&#xf9;" horiz-adv-x="543" 
d="M296 518h-42l-97 152h77zM398 193v241h61v-434h-61v92q-16 -44 -58.5 -74t-99.5 -30q-81 0 -120.5 47.5t-39.5 129.5v269h61v-265q0 -59 30 -93t87 -34q60 0 100 42t40 109z" />
    <glyph glyph-name="uacute" unicode="&#xfa;" horiz-adv-x="543" 
d="M283 518h-42l62 152h77zM398 193v241h61v-434h-61v92q-16 -44 -58.5 -74t-99.5 -30q-81 0 -120.5 47.5t-39.5 129.5v269h61v-265q0 -59 30 -93t87 -34q60 0 100 42t40 109z" />
    <glyph glyph-name="ucircumflex" unicode="&#xfb;" horiz-adv-x="543" 
d="M231 662h70l82 -144h-47l-70 102l-70 -102h-47zM398 193v241h61v-434h-61v92q-16 -44 -58.5 -74t-99.5 -30q-81 0 -120.5 47.5t-39.5 129.5v269h61v-265q0 -59 30 -93t87 -34q60 0 100 42t40 109z" />
    <glyph glyph-name="udieresis" unicode="&#xfc;" horiz-adv-x="543" 
d="M306 540v81h65v-81h-65zM161 540v81h65v-81h-65zM398 193v241h61v-434h-61v92q-16 -44 -58.5 -74t-99.5 -30q-81 0 -120.5 47.5t-39.5 129.5v269h61v-265q0 -59 30 -93t87 -34q60 0 100 42t40 109z" />
    <glyph glyph-name="yacute" unicode="&#xfd;" horiz-adv-x="482" 
d="M265 518h-42l62 152h77zM205 -45l20 48l-198 431h67l159 -354h4l136 354h62l-192 -480q-27 -66 -57.5 -101t-83.5 -35q-46 0 -72.5 25.5t-32.5 67.5l55 30q0 -71 56 -71q24 0 41 19.5t36 65.5z" />
    <glyph glyph-name="thorn" unicode="&#xfe;" horiz-adv-x="561" 
d="M142 227v-20q0 -76 43.5 -123t106.5 -47q72 0 113.5 48.5t41.5 131.5t-41.5 131.5t-113.5 48.5q-63 0 -106.5 -47t-43.5 -123zM145 99v-269h-61v800h61v-295q17 49 58.5 80t101.5 31q94 0 150 -65t56 -164t-56 -164t-150 -65q-60 0 -101.5 31t-58.5 80z" />
    <glyph glyph-name="ydieresis" unicode="&#xff;" horiz-adv-x="482" 
d="M288 540v81h65v-81h-65zM143 540v81h65v-81h-65zM205 -45l20 48l-198 431h67l159 -354h4l136 354h62l-192 -480q-27 -66 -57.5 -101t-83.5 -35q-46 0 -72.5 25.5t-32.5 67.5l55 30q0 -71 56 -71q24 0 41 19.5t36 65.5z" />
    <glyph glyph-name="Amacron" unicode="&#x100;" horiz-adv-x="649" 
d="M195 714v51h251v-51h-251zM316 562l-118 -306h244l-122 306h-4zM544 0l-80 201h-287l-77 -201h-64l249 630h72l256 -630h-69z" />
    <glyph glyph-name="amacron" unicode="&#x101;" horiz-adv-x="511" 
d="M126 536v51h251v-51h-251zM119 305l-55 25q24 51 75 83.5t120 32.5q71 0 110 -31t39 -89v-228q0 -52 41 -52q26 0 48 14l3 -53q-27 -16 -57 -16q-41 0 -66 28t-27 71q-15 -43 -60 -71t-105 -28q-61 0 -99 35t-38 92q0 55 44.5 87.5t130.5 51.5l127 28v42q0 26 -21 46
t-70 20q-53 0 -89 -25t-51 -63zM350 173v65l-117 -27q-64 -15 -93.5 -34.5t-29.5 -58.5q0 -33 21.5 -54t62.5 -21q63 0 109.5 40t46.5 90z" />
    <glyph glyph-name="Abreve" unicode="&#x102;" horiz-adv-x="649" 
d="M320 705q-109 0 -109 125h49q0 -77 60 -77t60 77h49q0 -125 -109 -125zM316 562l-118 -306h244l-122 306h-4zM544 0l-80 201h-287l-77 -201h-64l249 630h72l256 -630h-69z" />
    <glyph glyph-name="abreve" unicode="&#x103;" horiz-adv-x="511" 
d="M257 505q-51 0 -82.5 40t-31.5 104h47q0 -45 17 -70.5t50 -25.5t50 25.5t17 70.5h47q0 -64 -31.5 -104t-82.5 -40zM119 305l-55 25q24 51 75 83.5t120 32.5q71 0 110 -31t39 -89v-228q0 -52 41 -52q26 0 48 14l3 -53q-27 -16 -57 -16q-41 0 -66 28t-27 71
q-15 -43 -60 -71t-105 -28q-61 0 -99 35t-38 92q0 55 44.5 87.5t130.5 51.5l127 28v42q0 26 -21 46t-70 20q-53 0 -89 -25t-51 -63zM350 173v65l-117 -27q-64 -15 -93.5 -34.5t-29.5 -58.5q0 -33 21.5 -54t62.5 -21q63 0 109.5 40t46.5 90z" />
    <glyph glyph-name="Aogonek" unicode="&#x104;" horiz-adv-x="649" 
d="M316 562l-118 -306h244l-122 306h-4zM602 -153q-34 -22 -73 -22q-32 0 -51.5 17t-19.5 49q0 30 22 55.5t63 56.5l-79 198h-287l-77 -201h-64l249 630h72l256 -630h-33q-39 -35 -55.5 -57.5t-16.5 -43.5q0 -31 39 -31q21 0 55 17v-38z" />
    <glyph glyph-name="aogonek" unicode="&#x105;" horiz-adv-x="511" 
d="M426 -175q-32 0 -51.5 17t-19.5 49q0 47 71 101q-34 7 -54 33.5t-22 64.5q-15 -43 -60 -71t-105 -28q-61 0 -99 35t-38 92q0 55 44.5 87.5t130.5 51.5l127 28v42q0 26 -21 46t-70 20q-53 0 -89 -25t-51 -63l-55 25q24 51 75 83.5t120 32.5q71 0 110 -31t39 -89v-228
q0 -52 41 -52q26 0 48 14l3 -53q-16 -10 -29 -13q-66 -59 -66 -95q0 -31 39 -31q21 0 55 17v-38q-34 -22 -73 -22zM350 173v65l-117 -27q-64 -15 -93.5 -34.5t-29.5 -58.5q0 -33 21.5 -54t62.5 -21q63 0 109.5 40t46.5 90z" />
    <glyph glyph-name="Cacute" unicode="&#x106;" horiz-adv-x="689" 
d="M388 708h-42l54 122h85zM584 211l55 -40q-28 -86 -98.5 -134.5t-175.5 -48.5q-131 0 -220 92t-89 235q0 144 89.5 235.5t223.5 91.5q93 0 159.5 -41.5t98.5 -116.5l-51 -42q-22 68 -75.5 106.5t-131.5 38.5q-109 0 -177 -73.5t-68 -198.5q0 -124 67.5 -198t173.5 -74
q180 0 219 168z" />
    <glyph glyph-name="cacute" unicode="&#x107;" horiz-adv-x="497" 
d="M295 518h-42l62 152h77zM400 144l48 -35q-21 -53 -68.5 -87t-118.5 -34q-97 0 -158.5 64t-61.5 165q0 100 62.5 164.5t160.5 64.5q127 0 178 -108l-47 -42q-16 43 -49.5 70t-81.5 27q-72 0 -115.5 -48t-43.5 -128t43 -128t113 -48q53 0 88.5 28.5t50.5 74.5z" />
    <glyph glyph-name="Ccircumflex" unicode="&#x108;" horiz-adv-x="689" 
d="M331 830h80l79 -122h-49l-70 80l-70 -80h-49zM584 211l55 -40q-28 -86 -98.5 -134.5t-175.5 -48.5q-131 0 -220 92t-89 235q0 144 89.5 235.5t223.5 91.5q93 0 159.5 -41.5t98.5 -116.5l-51 -42q-22 68 -75.5 106.5t-131.5 38.5q-109 0 -177 -73.5t-68 -198.5
q0 -124 67.5 -198t173.5 -74q180 0 219 168z" />
    <glyph glyph-name="ccircumflex" unicode="&#x109;" horiz-adv-x="497" 
d="M243 662h70l82 -144h-47l-70 102l-70 -102h-47zM400 144l48 -35q-21 -53 -68.5 -87t-118.5 -34q-97 0 -158.5 64t-61.5 165q0 100 62.5 164.5t160.5 64.5q127 0 178 -108l-47 -42q-16 43 -49.5 70t-81.5 27q-72 0 -115.5 -48t-43.5 -128t43 -128t113 -48q53 0 88.5 28.5
t50.5 74.5z" />
    <glyph glyph-name="Cdotaccent" unicode="&#x10a;" horiz-adv-x="689" 
d="M409 714h-75v81h75v-81zM584 211l55 -40q-28 -86 -98.5 -134.5t-175.5 -48.5q-131 0 -220 92t-89 235q0 144 89.5 235.5t223.5 91.5q93 0 159.5 -41.5t98.5 -116.5l-51 -42q-22 68 -75.5 106.5t-131.5 38.5q-109 0 -177 -73.5t-68 -198.5q0 -124 67.5 -198t173.5 -74
q180 0 219 168z" />
    <glyph glyph-name="cdotaccent" unicode="&#x10b;" horiz-adv-x="497" 
d="M316 549h-75v81h75v-81zM400 144l48 -35q-21 -53 -68.5 -87t-118.5 -34q-97 0 -158.5 64t-61.5 165q0 100 62.5 164.5t160.5 64.5q127 0 178 -108l-47 -42q-16 43 -49.5 70t-81.5 27q-72 0 -115.5 -48t-43.5 -128t43 -128t113 -48q53 0 88.5 28.5t50.5 74.5z" />
    <glyph glyph-name="Ccaron" unicode="&#x10c;" horiz-adv-x="689" 
d="M411 708h-80l-79 122h49l70 -80l70 80h49zM584 211l55 -40q-28 -86 -98.5 -134.5t-175.5 -48.5q-131 0 -220 92t-89 235q0 144 89.5 235.5t223.5 91.5q93 0 159.5 -41.5t98.5 -116.5l-51 -42q-22 68 -75.5 106.5t-131.5 38.5q-109 0 -177 -73.5t-68 -198.5
q0 -124 67.5 -198t173.5 -74q180 0 219 168z" />
    <glyph glyph-name="ccaron" unicode="&#x10d;" horiz-adv-x="497" 
d="M243 508l-82 144h47l70 -102l70 102h47l-82 -144h-70zM400 144l48 -35q-21 -53 -68.5 -87t-118.5 -34q-97 0 -158.5 64t-61.5 165q0 100 62.5 164.5t160.5 64.5q127 0 178 -108l-47 -42q-16 43 -49.5 70t-81.5 27q-72 0 -115.5 -48t-43.5 -128t43 -128t113 -48
q53 0 88.5 28.5t50.5 74.5z" />
    <glyph glyph-name="Dcaron" unicode="&#x10e;" horiz-adv-x="704" 
d="M360 708h-80l-79 122h49l70 -80l70 80h49zM88 0v630h222q155 0 246.5 -84t91.5 -231t-91.5 -231t-246.5 -84h-222zM153 55h148q135 0 207 68t72 192t-72 192t-207 68h-148v-520z" />
    <glyph glyph-name="dcaron" unicode="&#x10f;" horiz-adv-x="561" 
d="M603 483h-32l16 147h75zM419 207v20q0 76 -43.5 123t-106.5 47q-72 0 -113.5 -48.5t-41.5 -131.5t41.5 -131.5t113.5 -48.5q63 0 106.5 47t43.5 123zM416 0v99q-17 -49 -58.5 -80t-101.5 -31q-94 0 -150 65t-56 164t56 164t150 65q60 0 101.5 -31t58.5 -80v295h61v-630
h-61z" />
    <glyph glyph-name="Dcroat" unicode="&#x110;" horiz-adv-x="719" 
d="M325 0h-222v307h-78v51h78v272h222q155 0 246.5 -84t91.5 -231t-91.5 -231t-246.5 -84zM168 55h148q135 0 207 68t72 192t-72 192t-207 68h-148v-217h158v-51h-158v-252z" />
    <glyph glyph-name="dcroat" unicode="&#x111;" horiz-adv-x="575" 
d="M419 207v20q0 76 -43.5 123t-106.5 47q-72 0 -113.5 -48.5t-41.5 -131.5t41.5 -131.5t113.5 -48.5q63 0 106.5 47t43.5 123zM416 99q-17 -49 -58.5 -80t-101.5 -31q-94 0 -150 65t-56 164t56 164t150 65q60 0 101.5 -31t58.5 -80v172h-142v46h142v77h61v-77h78v-46h-78
v-507h-61v99z" />
    <glyph glyph-name="Emacron" unicode="&#x112;" horiz-adv-x="617" 
d="M185 714v51h251v-51h-251zM554 55v-55h-466v630h457v-55h-394v-219h301v-56h-301v-245h403z" />
    <glyph glyph-name="emacron" unicode="&#x113;" 
d="M148 536v51h251v-51h-251zM422 145l46 -39q-57 -118 -198 -118q-96 0 -158 62t-62 161q0 102 61.5 168.5t154.5 66.5q97 0 150.5 -61.5t53.5 -150.5v-23h-360q0 -77 47 -124.5t114 -47.5q113 0 151 106zM113 260h297q-3 56 -41 95t-103 39q-62 0 -103 -39t-50 -95z" />
    <glyph glyph-name="Ebreve" unicode="&#x114;" horiz-adv-x="617" 
d="M310 705q-109 0 -109 125h49q0 -77 60 -77t60 77h49q0 -125 -109 -125zM554 55v-55h-466v630h457v-55h-394v-219h301v-56h-301v-245h403z" />
    <glyph glyph-name="ebreve" unicode="&#x115;" 
d="M273 505q-51 0 -82.5 40t-31.5 104h47q0 -45 17 -70.5t50 -25.5t50 25.5t17 70.5h47q0 -64 -31.5 -104t-82.5 -40zM422 145l46 -39q-57 -118 -198 -118q-96 0 -158 62t-62 161q0 102 61.5 168.5t154.5 66.5q97 0 150.5 -61.5t53.5 -150.5v-23h-360q0 -77 47 -124.5
t114 -47.5q113 0 151 106zM113 260h297q-3 56 -41 95t-103 39q-62 0 -103 -39t-50 -95z" />
    <glyph glyph-name="Edotaccent" unicode="&#x116;" horiz-adv-x="617" 
d="M348 714h-75v81h75v-81zM554 55v-55h-466v630h457v-55h-394v-219h301v-56h-301v-245h403z" />
    <glyph glyph-name="edotaccent" unicode="&#x117;" 
d="M311 549h-75v81h75v-81zM422 145l46 -39q-57 -118 -198 -118q-96 0 -158 62t-62 161q0 102 61.5 168.5t154.5 66.5q97 0 150.5 -61.5t53.5 -150.5v-23h-360q0 -77 47 -124.5t114 -47.5q113 0 151 106zM113 260h297q-3 56 -41 95t-103 39q-62 0 -103 -39t-50 -95z" />
    <glyph glyph-name="Eogonek" unicode="&#x118;" horiz-adv-x="617" 
d="M512 -153q-34 -22 -73 -22q-32 0 -51.5 17t-19.5 49q0 30 20.5 54.5t59.5 54.5h-360v630h457v-55h-394v-219h301v-56h-301v-245h403v-55h-64q-39 -35 -55.5 -57.5t-16.5 -43.5q0 -31 39 -31q21 0 55 17v-38z" />
    <glyph glyph-name="eogonek" unicode="&#x119;" 
d="M312 -175q-32 0 -51.5 17t-19.5 49q0 43 68 100q-18 -3 -39 -3q-96 0 -158 62t-62 161q0 102 61.5 168.5t154.5 66.5q97 0 150.5 -61.5t53.5 -150.5v-23h-360q0 -77 47 -124.5t114 -47.5q113 0 151 106l46 -39q-32 -66 -93 -96q-47 -41 -65.5 -64.5t-18.5 -46.5
q0 -31 39 -31q21 0 55 17v-38q-34 -22 -73 -22zM113 260h297q-3 56 -41 95t-103 39q-62 0 -103 -39t-50 -95z" />
    <glyph glyph-name="Ecaron" unicode="&#x11a;" horiz-adv-x="617" 
d="M350 708h-80l-79 122h49l70 -80l70 80h49zM554 55v-55h-466v630h457v-55h-394v-219h301v-56h-301v-245h403z" />
    <glyph glyph-name="ecaron" unicode="&#x11b;" 
d="M238 508l-82 144h47l70 -102l70 102h47l-82 -144h-70zM422 145l46 -39q-57 -118 -198 -118q-96 0 -158 62t-62 161q0 102 61.5 168.5t154.5 66.5q97 0 150.5 -61.5t53.5 -150.5v-23h-360q0 -77 47 -124.5t114 -47.5q113 0 151 106zM113 260h297q-3 56 -41 95t-103 39
q-62 0 -103 -39t-50 -95z" />
    <glyph glyph-name="Gcircumflex" unicode="&#x11c;" horiz-adv-x="731" 
d="M330 830h80l79 -122h-49l-70 80l-70 -80h-49zM628 484l-52 -43q-21 69 -75.5 107.5t-138.5 38.5q-106 0 -172 -74t-66 -199t67.5 -198t176.5 -73q100 0 160 58t65 152h-266v53h322v-306h-48l-11 124q-19 -63 -82 -99.5t-143 -36.5q-135 0 -222 90.5t-87 236.5
q0 144 87.5 235.5t218.5 91.5q203 0 266 -158z" />
    <glyph glyph-name="gcircumflex" unicode="&#x11d;" horiz-adv-x="521" 
d="M228 662h70l82 -144h-47l-70 102l-70 -102h-47zM361 298q0 45 -32 73.5t-78 28.5t-78 -28.5t-32 -73.5t32 -73.5t78 -28.5t78 28.5t32 73.5zM494 -33q0 -51 -37 -86t-88.5 -49t-112.5 -14q-94 0 -159 33t-65 94q0 36 29 62.5t72 31.5q-64 19 -64 74q0 50 59 78
q-46 41 -46 107q0 67 47 107.5t122 40.5t120 -39q19 34 53 54t77 14l8 -60q-33 6 -65.5 -3.5t-46.5 -32.5q23 -35 23 -81q0 -67 -47 -107.5t-122 -40.5q-54 0 -93 21q-34 -19 -34 -49q0 -40 62 -40h153q71 0 113 -32t42 -83zM95 -45q0 -43 45 -65.5t116 -22.5q80 0 130 24.5
t50 73.5q0 64 -109 64h-127q-43 0 -74 -20t-31 -54z" />
    <glyph glyph-name="Gbreve" unicode="&#x11e;" horiz-adv-x="731" 
d="M370 705q-109 0 -109 125h49q0 -77 60 -77t60 77h49q0 -125 -109 -125zM628 484l-52 -43q-21 69 -75.5 107.5t-138.5 38.5q-106 0 -172 -74t-66 -199t67.5 -198t176.5 -73q100 0 160 58t65 152h-266v53h322v-306h-48l-11 124q-19 -63 -82 -99.5t-143 -36.5
q-135 0 -222 90.5t-87 236.5q0 144 87.5 235.5t218.5 91.5q203 0 266 -158z" />
    <glyph glyph-name="gbreve" unicode="&#x11f;" horiz-adv-x="521" 
d="M263 505q-51 0 -82.5 40t-31.5 104h47q0 -45 17 -70.5t50 -25.5t50 25.5t17 70.5h47q0 -64 -31.5 -104t-82.5 -40zM361 298q0 45 -32 73.5t-78 28.5t-78 -28.5t-32 -73.5t32 -73.5t78 -28.5t78 28.5t32 73.5zM494 -33q0 -51 -37 -86t-88.5 -49t-112.5 -14q-94 0 -159 33
t-65 94q0 36 29 62.5t72 31.5q-64 19 -64 74q0 50 59 78q-46 41 -46 107q0 67 47 107.5t122 40.5t120 -39q19 34 53 54t77 14l8 -60q-33 6 -65.5 -3.5t-46.5 -32.5q23 -35 23 -81q0 -67 -47 -107.5t-122 -40.5q-54 0 -93 21q-34 -19 -34 -49q0 -40 62 -40h153q71 0 113 -32
t42 -83zM95 -45q0 -43 45 -65.5t116 -22.5q80 0 130 24.5t50 73.5q0 64 -109 64h-127q-43 0 -74 -20t-31 -54z" />
    <glyph glyph-name="Gdotaccent" unicode="&#x120;" horiz-adv-x="731" 
d="M408 714h-75v81h75v-81zM628 484l-52 -43q-21 69 -75.5 107.5t-138.5 38.5q-106 0 -172 -74t-66 -199t67.5 -198t176.5 -73q100 0 160 58t65 152h-266v53h322v-306h-48l-11 124q-19 -63 -82 -99.5t-143 -36.5q-135 0 -222 90.5t-87 236.5q0 144 87.5 235.5t218.5 91.5
q203 0 266 -158z" />
    <glyph glyph-name="gdotaccent" unicode="&#x121;" horiz-adv-x="521" 
d="M301 549h-75v81h75v-81zM361 298q0 45 -32 73.5t-78 28.5t-78 -28.5t-32 -73.5t32 -73.5t78 -28.5t78 28.5t32 73.5zM494 -33q0 -51 -37 -86t-88.5 -49t-112.5 -14q-94 0 -159 33t-65 94q0 36 29 62.5t72 31.5q-64 19 -64 74q0 50 59 78q-46 41 -46 107q0 67 47 107.5
t122 40.5t120 -39q19 34 53 54t77 14l8 -60q-33 6 -65.5 -3.5t-46.5 -32.5q23 -35 23 -81q0 -67 -47 -107.5t-122 -40.5q-54 0 -93 21q-34 -19 -34 -49q0 -40 62 -40h153q71 0 113 -32t42 -83zM95 -45q0 -43 45 -65.5t116 -22.5q80 0 130 24.5t50 73.5q0 64 -109 64h-127
q-43 0 -74 -20t-31 -54z" />
    <glyph glyph-name="uni0122" unicode="&#x122;" horiz-adv-x="731" 
d="M628 484l-52 -43q-21 69 -75.5 107.5t-138.5 38.5q-106 0 -172 -74t-66 -199t67.5 -198t176.5 -73q100 0 160 58t65 152h-266v53h322v-306h-48l-11 124q-19 -63 -82 -99.5t-143 -36.5q-135 0 -222 90.5t-87 236.5q0 144 87.5 235.5t218.5 91.5q203 0 266 -158zM332 -116
v60h76v-61q0 -89 -81 -89v30q23 0 31.5 15t8.5 45h-35z" />
    <glyph glyph-name="uni0123" unicode="&#x123;" horiz-adv-x="521" 
d="M301 579v-60h-76v61q0 89 81 89v-30q-23 0 -31.5 -15t-8.5 -45h35zM361 298q0 45 -32 73.5t-78 28.5t-78 -28.5t-32 -73.5t32 -73.5t78 -28.5t78 28.5t32 73.5zM494 -33q0 -51 -37 -86t-88.5 -49t-112.5 -14q-94 0 -159 33t-65 94q0 36 29 62.5t72 31.5q-64 19 -64 74
q0 50 59 78q-46 41 -46 107q0 67 47 107.5t122 40.5t120 -39q19 34 53 54t77 14l8 -60q-33 6 -65.5 -3.5t-46.5 -32.5q23 -35 23 -81q0 -67 -47 -107.5t-122 -40.5q-54 0 -93 21q-34 -19 -34 -49q0 -40 62 -40h153q71 0 113 -32t42 -83zM95 -45q0 -43 45 -65.5t116 -22.5
q80 0 130 24.5t50 73.5q0 64 -109 64h-127q-43 0 -74 -20t-31 -54z" />
    <glyph glyph-name="Hcircumflex" unicode="&#x124;" horiz-adv-x="720" 
d="M320 830h80l79 -122h-49l-70 80l-70 -80h-49zM153 0h-65v630h65v-275h414v275h65v-630h-65v300h-414v-300z" />
    <glyph glyph-name="hcircumflex" unicode="&#x125;" horiz-adv-x="545" 
d="M235 790h80l79 -122h-49l-70 80l-70 -80h-49zM145 630v-288q16 44 58.5 74t99.5 30q82 0 122 -47.5t40 -129.5v-269h-61v265q0 59 -31 93t-88 34q-60 0 -100 -42t-40 -109v-241h-61v630h61z" />
    <glyph glyph-name="Hbar" unicode="&#x126;" horiz-adv-x="750" 
d="M168 315h414v132h-414v-132zM168 260v-260h-65v447h-78v51h78v132h65v-132h414v132h65v-132h78v-51h-78v-447h-65v260h-414z" />
    <glyph glyph-name="hbar" unicode="&#x127;" horiz-adv-x="559" 
d="M159 241v-241h-61v507h-78v46h78v77h61v-77h142v-46h-142v-165q16 44 58.5 74t99.5 30q82 0 122 -47.5t40 -129.5v-269h-61v265q0 59 -31 93t-88 34q-60 0 -100 -42t-40 -109z" />
    <glyph glyph-name="Itilde" unicode="&#x128;" horiz-adv-x="241" 
d="M18 707h-44q0 53 21 83t61 30q30 0 69.5 -32t57.5 -32q22 0 29 14.5t9 46.5h43q0 -113 -81 -113q-30 0 -69.5 32t-57.5 32q-22 0 -29 -14.5t-9 -46.5zM88 630h65v-630h-65v630z" />
    <glyph glyph-name="itilde" unicode="&#x129;" horiz-adv-x="229" 
d="M29 525h-42q0 53 18.5 83t54.5 30q22 0 41.5 -16t35.5 -32t29 -16q19 0 25.5 14t8.5 47h42q0 -53 -18.5 -83t-54.5 -30q-22 0 -41.5 16t-35.5 32t-29 16q-19 0 -25.5 -14t-8.5 -47zM84 434h61v-434h-61v434z" />
    <glyph glyph-name="Imacron" unicode="&#x12a;" horiz-adv-x="241" 
d="M-7 714v51h252v-51h-252zM88 630h65v-630h-65v630z" />
    <glyph glyph-name="imacron" unicode="&#x12b;" horiz-adv-x="229" 
d="M9 536v51h211v-51h-211zM84 434h61v-434h-61v434z" />
    <glyph glyph-name="Ibreve" unicode="&#x12c;" horiz-adv-x="241" 
d="M119 705q-109 0 -109 125h49q0 -77 60 -77t60 77h49q0 -125 -109 -125zM88 630h65v-630h-65v630z" />
    <glyph glyph-name="ibreve" unicode="&#x12d;" horiz-adv-x="229" 
d="M115 505q-51 0 -82.5 40t-31.5 104h47q0 -45 17 -70.5t50 -25.5t50 25.5t17 70.5h47q0 -64 -31.5 -104t-82.5 -40zM84 434h61v-434h-61v434z" />
    <glyph glyph-name="Iogonek" unicode="&#x12e;" horiz-adv-x="241" 
d="M160 -153q-34 -22 -73 -22q-32 0 -51.5 17t-19.5 49q0 30 20.5 54.5t59.5 54.5h-8v630h65v-630h-15q-39 -35 -55.5 -57.5t-16.5 -43.5q0 -31 39 -31q21 0 55 17v-38z" />
    <glyph glyph-name="iogonek" unicode="&#x12f;" horiz-adv-x="229" 
d="M77 549v81h75v-81h-75zM154 -153q-34 -22 -73 -22q-32 0 -51.5 17t-19.5 49q0 30 20.5 54.5t59.5 54.5h-6v434h61v-422h1l-1 -1v-11h-13q-39 -35 -55.5 -57.5t-16.5 -43.5q0 -31 39 -31q21 0 55 17v-38z" />
    <glyph glyph-name="Idotaccent" unicode="&#x130;" horiz-adv-x="241" 
d="M157 714h-75v81h75v-81zM88 630h65v-630h-65v630z" />
    <glyph glyph-name="dotlessi" unicode="&#x131;" horiz-adv-x="229" 
d="M84 434h61v-434h-61v434z" />
    <glyph glyph-name="IJ" unicode="&#x132;" horiz-adv-x="747" 
d="M88 630h65v-630h-65v630zM604 630h65v-417q0 -105 -52 -165t-143 -60q-99 0 -154 70.5t-44 181.5l66 18q-12 -97 22 -155t110 -58q130 0 130 166v419z" />
    <glyph glyph-name="ij" unicode="&#x133;" horiz-adv-x="456" 
d="M379 549h-75v81h75v-81zM77 549v81h75v-81h-75zM84 434h61v-434h-61v434zM372 434v-507q0 -109 -102 -109q-52 0 -89 32l19 40q35 -23 69 -23q42 0 42 50v517h61z" />
    <glyph glyph-name="Jcircumflex" unicode="&#x134;" horiz-adv-x="526" 
d="M368 830h80l79 -122h-49l-70 80l-70 -80h-49zM383 630h65v-417q0 -105 -52 -165t-143 -60q-99 0 -154 70.5t-44 181.5l66 18q-12 -97 22 -155t110 -58q130 0 130 166v419z" />
    <glyph glyph-name="jcircumflex" unicode="&#x135;" horiz-adv-x="229" 
d="M77 662h70l82 -144h-47l-70 102l-70 -102h-47zM145 434v-507q0 -109 -102 -109q-52 0 -89 32l19 40q35 -23 69 -23q42 0 42 50v517h61z" />
    <glyph glyph-name="uni0136" unicode="&#x136;" horiz-adv-x="644" 
d="M624 0h-81l-269 329l-121 -122v-207h-65v630h65v-351l352 351h82l-265 -262zM275 -116v60h76v-61q0 -89 -81 -89v30q23 0 31.5 15t8.5 45h-35z" />
    <glyph glyph-name="uni0137" unicode="&#x137;" horiz-adv-x="508" 
d="M145 163v-163h-61v630h61v-406l252 210h81l-209 -170l219 -264h-73l-191 228zM223 -116v60h76v-61q0 -89 -81 -89v30q23 0 31.5 15t8.5 45h-35z" />
    <glyph glyph-name="kgreenlandic" unicode="&#x138;" horiz-adv-x="508" 
d="M145 163v-163h-61v434h61v-210l252 210h81l-209 -170l219 -264h-73l-191 228z" />
    <glyph glyph-name="Lacute" unicode="&#x139;" horiz-adv-x="601" 
d="M148 708h-42l54 122h85zM88 630h65v-575h400v-55h-465v630z" />
    <glyph glyph-name="lacute" unicode="&#x13a;" horiz-adv-x="229" 
d="M132 708h-42l54 122h85zM84 630h61v-630h-61v630z" />
    <glyph glyph-name="uni013B" unicode="&#x13b;" horiz-adv-x="601" 
d="M88 630h65v-575h400v-55h-465v630zM283 -116v60h76v-61q0 -89 -81 -89v30q23 0 31.5 15t8.5 45h-35z" />
    <glyph glyph-name="uni013C" unicode="&#x13c;" horiz-adv-x="229" 
d="M84 630h61v-630h-61v630zM77 -116v60h76v-61q0 -89 -81 -89v30q23 0 31.5 15t8.5 45h-35z" />
    <glyph glyph-name="Lcaron" unicode="&#x13d;" horiz-adv-x="601" 
d="M397 483h-32l16 147h75zM88 630h65v-575h400v-55h-465v630z" />
    <glyph glyph-name="lcaron" unicode="&#x13e;" horiz-adv-x="229" 
d="M271 483h-32l16 147h75zM84 630h61v-630h-61v630z" />
    <glyph glyph-name="Ldot" unicode="&#x13f;" horiz-adv-x="601" 
d="M88 630h65v-575h400v-55h-465v630zM484 274h-75v81h75v-81z" />
    <glyph glyph-name="ldot" unicode="&#x140;" horiz-adv-x="356" 
d="M84 630h61v-630h-61v630zM333 274h-75v81h75v-81z" />
    <glyph glyph-name="Lslash" unicode="&#x141;" horiz-adv-x="616" 
d="M568 0h-465v259l-78 -35v57l78 35v314h65v-288l189 85v-57l-189 -85v-230h400v-55z" />
    <glyph glyph-name="lslash" unicode="&#x142;" horiz-adv-x="297" 
d="M179 0h-61v312l-88 -48v55l88 49v262h61v-231l88 48v-55l-88 -48v-344z" />
    <glyph glyph-name="Nacute" unicode="&#x143;" horiz-adv-x="688" 
d="M364 708h-42l54 122h85zM158 630l382 -521v521h60v-630h-50l-402 545v-545h-60v630h70z" />
    <glyph glyph-name="nacute" unicode="&#x144;" horiz-adv-x="545" 
d="M291 518h-42l62 152h77zM145 241v-241h-61v434h61v-92q16 44 58.5 74t99.5 30q82 0 122 -47.5t40 -129.5v-269h-61v265q0 59 -31 93t-88 34q-60 0 -100 -42t-40 -109z" />
    <glyph glyph-name="uni0145" unicode="&#x145;" horiz-adv-x="688" 
d="M158 630l382 -521v521h60v-630h-50l-402 545v-545h-60v630h70zM309 -116v60h76v-61q0 -89 -81 -89v30q23 0 31.5 15t8.5 45h-35z" />
    <glyph glyph-name="uni0146" unicode="&#x146;" horiz-adv-x="545" 
d="M145 241v-241h-61v434h61v-92q16 44 58.5 74t99.5 30q82 0 122 -47.5t40 -129.5v-269h-61v265q0 59 -31 93t-88 34q-60 0 -100 -42t-40 -109zM236 -116v60h76v-61q0 -89 -81 -89v30q23 0 31.5 15t8.5 45h-35z" />
    <glyph glyph-name="Ncaron" unicode="&#x147;" horiz-adv-x="688" 
d="M387 708h-80l-79 122h49l70 -80l70 80h49zM158 630l382 -521v521h60v-630h-50l-402 545v-545h-60v630h70z" />
    <glyph glyph-name="ncaron" unicode="&#x148;" horiz-adv-x="545" 
d="M239 508l-82 144h47l70 -102l70 102h47l-82 -144h-70zM145 241v-241h-61v434h61v-92q16 44 58.5 74t99.5 30q82 0 122 -47.5t40 -129.5v-269h-61v265q0 59 -31 93t-88 34q-60 0 -100 -42t-40 -109z" />
    <glyph glyph-name="Eng" unicode="&#x14a;" horiz-adv-x="688" 
d="M459 -182q-106 0 -152 83l42 31q43 -62 108 -62q47 0 65.5 33t18.5 109l-393 533v-545h-60v630h70l382 -521v521h60v-656q0 -80 -38 -118t-103 -38z" />
    <glyph glyph-name="eng" unicode="&#x14b;" horiz-adv-x="545" 
d="M363 -182q-52 0 -89 32l19 40q35 -23 69 -23q42 0 42 50v348q0 59 -31 93t-88 34q-60 0 -100 -42t-40 -109v-241h-61v434h61v-92q16 44 58.5 74t99.5 30q82 0 122 -47.5t40 -129.5v-342q0 -109 -102 -109z" />
    <glyph glyph-name="Omacron" unicode="&#x14c;" horiz-adv-x="744" 
d="M247 714v51h251v-51h-251zM688 315q0 -145 -88.5 -236t-227.5 -91t-227.5 91t-88.5 236t88.5 236t227.5 91t227.5 -91t88.5 -236zM620 315q0 124 -68 198t-180 74t-180 -74t-68 -198t68 -198t180 -74t180 74t68 198z" />
    <glyph glyph-name="omacron" unicode="&#x14d;" horiz-adv-x="547" 
d="M148 536v51h251v-51h-251zM497 217q0 -100 -65 -164.5t-159 -64.5t-158.5 64.5t-64.5 164.5t64.5 164.5t158.5 64.5t159 -64.5t65 -164.5zM114 217q0 -80 43.5 -128.5t115.5 -48.5q73 0 116.5 48.5t43.5 128.5t-43.5 128.5t-116.5 48.5q-72 0 -115.5 -48.5t-43.5 -128.5z
" />
    <glyph glyph-name="Obreve" unicode="&#x14e;" horiz-adv-x="744" 
d="M372 705q-109 0 -109 125h49q0 -77 60 -77t60 77h49q0 -125 -109 -125zM688 315q0 -145 -88.5 -236t-227.5 -91t-227.5 91t-88.5 236t88.5 236t227.5 91t227.5 -91t88.5 -236zM620 315q0 124 -68 198t-180 74t-180 -74t-68 -198t68 -198t180 -74t180 74t68 198z" />
    <glyph glyph-name="obreve" unicode="&#x14f;" horiz-adv-x="547" 
d="M274 505q-51 0 -82.5 40t-31.5 104h47q0 -45 17 -70.5t50 -25.5t50 25.5t17 70.5h47q0 -64 -31.5 -104t-82.5 -40zM497 217q0 -100 -65 -164.5t-159 -64.5t-158.5 64.5t-64.5 164.5t64.5 164.5t158.5 64.5t159 -64.5t65 -164.5zM114 217q0 -80 43.5 -128.5t115.5 -48.5
q73 0 116.5 48.5t43.5 128.5t-43.5 128.5t-116.5 48.5q-72 0 -115.5 -48.5t-43.5 -128.5z" />
    <glyph glyph-name="Ohungarumlaut" unicode="&#x150;" horiz-adv-x="744" 
d="M466 708h-37l54 122h80zM326 708h-37l54 122h80zM688 315q0 -145 -88.5 -236t-227.5 -91t-227.5 91t-88.5 236t88.5 236t227.5 91t227.5 -91t88.5 -236zM620 315q0 124 -68 198t-180 74t-180 -74t-68 -198t68 -198t180 -74t180 74t68 198z" />
    <glyph glyph-name="ohungarumlaut" unicode="&#x151;" horiz-adv-x="547" 
d="M362 508h-37l59 152h72zM222 508h-37l59 152h72zM497 217q0 -100 -65 -164.5t-159 -64.5t-158.5 64.5t-64.5 164.5t64.5 164.5t158.5 64.5t159 -64.5t65 -164.5zM114 217q0 -80 43.5 -128.5t115.5 -48.5q73 0 116.5 48.5t43.5 128.5t-43.5 128.5t-116.5 48.5
q-72 0 -115.5 -48.5t-43.5 -128.5z" />
    <glyph glyph-name="OE" unicode="&#x152;" horiz-adv-x="1082" 
d="M394 0q-155 0 -246.5 84t-91.5 231t91.5 231t246.5 84h616v-55h-394v-219h301v-56h-301v-245h403v-55h-625zM551 575h-148q-135 0 -207 -68t-72 -192t72 -192t207 -68h148v520z" />
    <glyph glyph-name="oe" unicode="&#x153;" horiz-adv-x="900" 
d="M848 106q-57 -118 -198 -118q-61 0 -110 28t-78 77q-30 -49 -80 -77t-109 -28q-94 0 -158.5 64.5t-64.5 164.5t64.5 164.5t158.5 64.5q59 0 109.5 -29.5t80.5 -78.5q29 50 77.5 79t105.5 29q97 0 150.5 -61.5t53.5 -150.5v-23h-360q0 -77 47 -124.5t114 -47.5
q113 0 151 106zM114 217q0 -80 43.5 -128.5t115.5 -48.5q73 0 116.5 48.5t43.5 128.5t-43.5 128.5t-116.5 48.5q-72 0 -115.5 -48.5t-43.5 -128.5zM493 260h297q-3 56 -41 95t-103 39q-62 0 -103 -39t-50 -95z" />
    <glyph glyph-name="Racute" unicode="&#x154;" horiz-adv-x="654" 
d="M334 708h-42l54 122h85zM152 575v-233h190q87 0 128.5 28.5t41.5 88.5q0 116 -162 116h-198zM624 0h-80q-36 9 -47 129q-7 83 -37 121t-100 38h-208v-288h-64v630h262q115 0 172 -45.5t57 -125.5q0 -57 -43.5 -97.5t-104.5 -45.5q101 -15 120 -146q12 -79 28 -113.5
t45 -49.5v-7z" />
    <glyph glyph-name="racute" unicode="&#x155;" horiz-adv-x="455" 
d="M265 518h-42l62 152h77zM278 390q-54 0 -94.5 -46.5t-40.5 -111.5v-232h-61v434h61v-108q14 50 52 85t95 35q59 0 93 -38.5t34 -97.5q0 -24 -5 -36l-54 -13q4 14 4 32q0 97 -84 97z" />
    <glyph glyph-name="uni0156" unicode="&#x156;" horiz-adv-x="654" 
d="M152 575v-233h190q87 0 128.5 28.5t41.5 88.5q0 116 -162 116h-198zM624 0h-80q-36 9 -47 129q-7 83 -37 121t-100 38h-208v-288h-64v630h262q115 0 172 -45.5t57 -125.5q0 -57 -43.5 -97.5t-104.5 -45.5q101 -15 120 -146q12 -79 28 -113.5t45 -49.5v-7zM279 -116v60h76
v-61q0 -89 -81 -89v30q23 0 31.5 15t8.5 45h-35z" />
    <glyph glyph-name="uni0157" unicode="&#x157;" horiz-adv-x="455" 
d="M278 390q-54 0 -94.5 -46.5t-40.5 -111.5v-232h-61v434h61v-108q14 50 52 85t95 35q59 0 93 -38.5t34 -97.5q0 -24 -5 -36l-54 -13q4 14 4 32q0 97 -84 97zM75 -116v60h76v-61q0 -89 -81 -89v30q23 0 31.5 15t8.5 45h-35z" />
    <glyph glyph-name="Rcaron" unicode="&#x158;" horiz-adv-x="654" 
d="M357 708h-80l-79 122h49l70 -80l70 80h49zM152 575v-233h190q87 0 128.5 28.5t41.5 88.5q0 116 -162 116h-198zM624 0h-80q-36 9 -47 129q-7 83 -37 121t-100 38h-208v-288h-64v630h262q115 0 172 -45.5t57 -125.5q0 -57 -43.5 -97.5t-104.5 -45.5q101 -15 120 -146
q12 -79 28 -113.5t45 -49.5v-7z" />
    <glyph glyph-name="rcaron" unicode="&#x159;" horiz-adv-x="455" 
d="M213 508l-82 144h47l70 -102l70 102h47l-82 -144h-70zM278 390q-54 0 -94.5 -46.5t-40.5 -111.5v-232h-61v434h61v-108q14 50 52 85t95 35q59 0 93 -38.5t34 -97.5q0 -24 -5 -36l-54 -13q4 14 4 32q0 97 -84 97z" />
    <glyph glyph-name="Sacute" unicode="&#x15a;" horiz-adv-x="601" 
d="M309 708h-42l54 122h85zM32 141l44 51q28 -71 94 -110.5t143 -39.5q78 0 129 32t51 92q0 45 -32 70t-100 40l-136 30q-160 35 -160 161q0 77 61.5 126t158.5 49q88 0 152.5 -35t94.5 -91l-46 -49q-23 54 -77.5 87.5t-123.5 33.5q-73 0 -115 -31.5t-42 -89.5q0 -47 34 -70
t104 -38l116 -25q81 -18 127.5 -55.5t46.5 -112.5q0 -82 -68.5 -130t-174.5 -48q-94 0 -173.5 41.5t-107.5 111.5z" />
    <glyph glyph-name="sacute" unicode="&#x15b;" horiz-adv-x="479" 
d="M256 518h-42l62 152h77zM45 88l34 53q23 -48 69 -74t101 -26q115 0 115 72q0 49 -75 67l-100 25q-55 14 -86 40.5t-31 76.5q0 56 46.5 90t114.5 34q61 0 107.5 -24t68.5 -66l-43 -41q-16 36 -52 57t-81 21q-44 0 -73 -18t-29 -48q0 -27 18.5 -43t59.5 -26l108 -27
q107 -27 107 -116q0 -58 -49.5 -92.5t-124.5 -34.5q-68 0 -123.5 27.5t-81.5 72.5z" />
    <glyph glyph-name="Scircumflex" unicode="&#x15c;" horiz-adv-x="601" 
d="M252 830h80l79 -122h-49l-70 80l-70 -80h-49zM32 141l44 51q28 -71 94 -110.5t143 -39.5q78 0 129 32t51 92q0 45 -32 70t-100 40l-136 30q-160 35 -160 161q0 77 61.5 126t158.5 49q88 0 152.5 -35t94.5 -91l-46 -49q-23 54 -77.5 87.5t-123.5 33.5q-73 0 -115 -31.5
t-42 -89.5q0 -47 34 -70t104 -38l116 -25q81 -18 127.5 -55.5t46.5 -112.5q0 -82 -68.5 -130t-174.5 -48q-94 0 -173.5 41.5t-107.5 111.5z" />
    <glyph glyph-name="scircumflex" unicode="&#x15d;" horiz-adv-x="479" 
d="M204 662h70l82 -144h-47l-70 102l-70 -102h-47zM45 88l34 53q23 -48 69 -74t101 -26q115 0 115 72q0 49 -75 67l-100 25q-55 14 -86 40.5t-31 76.5q0 56 46.5 90t114.5 34q61 0 107.5 -24t68.5 -66l-43 -41q-16 36 -52 57t-81 21q-44 0 -73 -18t-29 -48q0 -27 18.5 -43
t59.5 -26l108 -27q107 -27 107 -116q0 -58 -49.5 -92.5t-124.5 -34.5q-68 0 -123.5 27.5t-81.5 72.5z" />
    <glyph glyph-name="uni015E" unicode="&#x15e;" horiz-adv-x="601" 
d="M290 -208q-65 0 -112 45l17 33q40 -40 95 -40q24 0 38.5 10.5t14.5 28.5q0 29 -32.5 36.5t-58.5 -7.5l-20 14l46 78q-84 7 -152.5 47.5t-93.5 103.5l44 51q28 -71 94 -110.5t143 -39.5q78 0 129 32t51 92q0 45 -32 70t-100 40l-136 30q-160 35 -160 161q0 77 61.5 126
t158.5 49q88 0 152.5 -35t94.5 -91l-46 -49q-23 54 -77.5 87.5t-123.5 33.5q-73 0 -115 -31.5t-42 -89.5q0 -47 34 -70t104 -38l116 -25q81 -18 127.5 -55.5t46.5 -112.5q0 -82 -68.5 -130t-174.5 -48l-30 -50q39 9 75 -8.5t36 -56.5q0 -41 -29.5 -61t-74.5 -20z" />
    <glyph glyph-name="uni015F" unicode="&#x15f;" horiz-adv-x="479" 
d="M217 -208q-65 0 -112 45l17 33q40 -40 95 -40q24 0 38.5 10.5t14.5 28.5q0 29 -32.5 36.5t-58.5 -7.5l-20 14l47 79q-55 8 -97.5 34t-63.5 63l34 53q23 -48 69 -74t101 -26q115 0 115 72q0 49 -75 67l-100 25q-55 14 -86 40.5t-31 76.5q0 56 46.5 90t114.5 34
q61 0 107.5 -24t68.5 -66l-43 -41q-16 36 -52 57t-81 21q-44 0 -73 -18t-29 -48q0 -27 18.5 -43t59.5 -26l108 -27q107 -27 107 -116q0 -58 -49.5 -92.5t-124.5 -34.5h-10l-30 -50q39 9 75 -8.5t36 -56.5q0 -41 -29.5 -61t-74.5 -20z" />
    <glyph glyph-name="Scaron" unicode="&#x160;" horiz-adv-x="601" 
d="M332 708h-80l-79 122h49l70 -80l70 80h49zM32 141l44 51q28 -71 94 -110.5t143 -39.5q78 0 129 32t51 92q0 45 -32 70t-100 40l-136 30q-160 35 -160 161q0 77 61.5 126t158.5 49q88 0 152.5 -35t94.5 -91l-46 -49q-23 54 -77.5 87.5t-123.5 33.5q-73 0 -115 -31.5
t-42 -89.5q0 -47 34 -70t104 -38l116 -25q81 -18 127.5 -55.5t46.5 -112.5q0 -82 -68.5 -130t-174.5 -48q-94 0 -173.5 41.5t-107.5 111.5z" />
    <glyph glyph-name="scaron" unicode="&#x161;" horiz-adv-x="479" 
d="M204 508l-82 144h47l70 -102l70 102h47l-82 -144h-70zM45 88l34 53q23 -48 69 -74t101 -26q115 0 115 72q0 49 -75 67l-100 25q-55 14 -86 40.5t-31 76.5q0 56 46.5 90t114.5 34q61 0 107.5 -24t68.5 -66l-43 -41q-16 36 -52 57t-81 21q-44 0 -73 -18t-29 -48
q0 -27 18.5 -43t59.5 -26l108 -27q107 -27 107 -116q0 -58 -49.5 -92.5t-124.5 -34.5q-68 0 -123.5 27.5t-81.5 72.5z" />
    <glyph glyph-name="uni0162" unicode="&#x162;" horiz-adv-x="672" 
d="M324 -208q-65 0 -112 45l17 33q40 -40 95 -40q24 0 38.5 10.5t14.5 28.5q0 29 -32.5 36.5t-58.5 -7.5l-20 14l52 88h-16v575h-262v55h592v-55h-265v-575h-13l-37 -62q39 9 75 -8.5t36 -56.5q0 -41 -29.5 -61t-74.5 -20z" />
    <glyph glyph-name="uni0163" unicode="&#x163;" horiz-adv-x="426" 
d="M256 -208q-65 0 -112 45l17 33q40 -40 95 -40q24 0 38.5 10.5t14.5 28.5q0 29 -32.5 36.5t-58.5 -7.5l-20 14l46 77q-54 5 -89.5 41t-35.5 100v255h-95v49h95v126l60 23v-149h194v-49h-194v-251q0 -46 24 -69.5t57 -23.5q38 0 60.5 20.5t42.5 64.5l32 -49
q-11 -32 -42.5 -57t-72.5 -31l-31 -51q39 9 75 -8.5t36 -56.5q0 -41 -29.5 -61t-74.5 -20z" />
    <glyph glyph-name="Tcaron" unicode="&#x164;" horiz-adv-x="672" 
d="M376 708h-80l-79 122h49l70 -80l70 80h49zM367 0h-65v575h-262v55h592v-55h-265v-575z" />
    <glyph glyph-name="tcaron" unicode="&#x165;" horiz-adv-x="426" 
d="M314 531h-32l16 147h75zM24 434h95v126l60 23v-149h194v-49h-194v-251q0 -46 24 -69.5t57 -23.5q38 0 60.5 20.5t42.5 64.5l32 -49q-13 -36 -50 -62.5t-85 -26.5q-60 0 -100.5 37t-40.5 105v255h-95v49z" />
    <glyph glyph-name="Tbar" unicode="&#x166;" horiz-adv-x="672" 
d="M507 318h-140v-318h-65v318h-140v51h140v206h-262v55h592v-55h-265v-206h140v-51z" />
    <glyph glyph-name="tbar" unicode="&#x167;" horiz-adv-x="465" 
d="M417 77q-13 -36 -50 -62.5t-85 -26.5q-60 0 -100.5 37t-40.5 105v94h-94v49h94v112h-95v49h95v126l60 23v-149h194v-49h-194v-112h194v-49h-194v-90q0 -46 24 -69.5t57 -23.5q38 0 60.5 20.5t42.5 64.5z" />
    <glyph glyph-name="Utilde" unicode="&#x168;" horiz-adv-x="670" 
d="M234 707h-43q0 113 81 113q30 0 69.5 -32t57.5 -32q22 0 29 14.5t9 46.5h43q0 -113 -81 -113q-30 0 -69.5 32t-57.5 32q-22 0 -29 -14.5t-9 -46.5zM335 -12q-109 0 -183 70.5t-74 201.5v370h65v-370q0 -104 51.5 -159.5t140.5 -55.5t141.5 55.5t52.5 159.5v370h63v-370
q0 -131 -74 -201.5t-183 -70.5z" />
    <glyph glyph-name="utilde" unicode="&#x169;" horiz-adv-x="543" 
d="M165 525h-43q0 54 20.5 88.5t60.5 34.5q30 0 69.5 -37t57.5 -37q21 0 28.5 18.5t9.5 52.5h43q0 -54 -20.5 -88.5t-60.5 -34.5q-30 0 -69.5 37t-57.5 37q-21 0 -28.5 -18.5t-9.5 -52.5zM398 193v241h61v-434h-61v92q-16 -44 -58.5 -74t-99.5 -30q-81 0 -120.5 47.5
t-39.5 129.5v269h61v-265q0 -59 30 -93t87 -34q60 0 100 42t40 109z" />
    <glyph glyph-name="Umacron" unicode="&#x16a;" horiz-adv-x="670" 
d="M210 714v51h251v-51h-251zM335 -12q-109 0 -183 70.5t-74 201.5v370h65v-370q0 -104 51.5 -159.5t140.5 -55.5t141.5 55.5t52.5 159.5v370h63v-370q0 -131 -74 -201.5t-183 -70.5z" />
    <glyph glyph-name="umacron" unicode="&#x16b;" horiz-adv-x="543" 
d="M141 536v51h251v-51h-251zM398 193v241h61v-434h-61v92q-16 -44 -58.5 -74t-99.5 -30q-81 0 -120.5 47.5t-39.5 129.5v269h61v-265q0 -59 30 -93t87 -34q60 0 100 42t40 109z" />
    <glyph glyph-name="Ubreve" unicode="&#x16c;" horiz-adv-x="670" 
d="M335 705q-109 0 -109 125h49q0 -77 60 -77t60 77h49q0 -125 -109 -125zM335 -12q-109 0 -183 70.5t-74 201.5v370h65v-370q0 -104 51.5 -159.5t140.5 -55.5t141.5 55.5t52.5 159.5v370h63v-370q0 -131 -74 -201.5t-183 -70.5z" />
    <glyph glyph-name="ubreve" unicode="&#x16d;" horiz-adv-x="543" 
d="M266 505q-51 0 -82.5 40t-31.5 104h47q0 -45 17 -70.5t50 -25.5t50 25.5t17 70.5h47q0 -64 -31.5 -104t-82.5 -40zM398 193v241h61v-434h-61v92q-16 -44 -58.5 -74t-99.5 -30q-81 0 -120.5 47.5t-39.5 129.5v269h61v-265q0 -59 30 -93t87 -34q60 0 100 42t40 109z" />
    <glyph glyph-name="Uring" unicode="&#x16e;" horiz-adv-x="670" 
d="M242 778q0 39 26 64.5t67 25.5q42 0 68 -25.5t26 -64.5t-26 -64.5t-68 -25.5q-41 0 -67 25.5t-26 64.5zM284 778q0 -23 13.5 -37t37.5 -14t37.5 14t13.5 37t-13.5 37t-37.5 14t-37.5 -14t-13.5 -37zM335 -12q-109 0 -183 70.5t-74 201.5v370h65v-370q0 -104 51.5 -159.5
t140.5 -55.5t141.5 55.5t52.5 159.5v370h63v-370q0 -131 -74 -201.5t-183 -70.5z" />
    <glyph glyph-name="uring" unicode="&#x16f;" horiz-adv-x="543" 
d="M173 593q0 39 26 64.5t67 25.5q42 0 68 -25.5t26 -64.5t-26 -64.5t-68 -25.5q-41 0 -67 25.5t-26 64.5zM215 593q0 -23 13.5 -37t37.5 -14t37.5 14t13.5 37t-13.5 37t-37.5 14t-37.5 -14t-13.5 -37zM398 193v241h61v-434h-61v92q-16 -44 -58.5 -74t-99.5 -30
q-81 0 -120.5 47.5t-39.5 129.5v269h61v-265q0 -59 30 -93t87 -34q60 0 100 42t40 109z" />
    <glyph glyph-name="Uhungarumlaut" unicode="&#x170;" horiz-adv-x="670" 
d="M429 708h-37l54 122h80zM289 708h-37l54 122h80zM335 -12q-109 0 -183 70.5t-74 201.5v370h65v-370q0 -104 51.5 -159.5t140.5 -55.5t141.5 55.5t52.5 159.5v370h63v-370q0 -131 -74 -201.5t-183 -70.5z" />
    <glyph glyph-name="uhungarumlaut" unicode="&#x171;" horiz-adv-x="543" 
d="M354 508h-37l59 152h72zM214 508h-37l59 152h72zM398 193v241h61v-434h-61v92q-16 -44 -58.5 -74t-99.5 -30q-81 0 -120.5 47.5t-39.5 129.5v269h61v-265q0 -59 30 -93t87 -34q60 0 100 42t40 109z" />
    <glyph glyph-name="Uogonek" unicode="&#x172;" horiz-adv-x="670" 
d="M374 -175q-32 0 -51.5 17t-19.5 49q0 46 68 99q-24 -2 -36 -2q-109 0 -183 70.5t-74 201.5v370h65v-370q0 -104 51.5 -159.5t140.5 -55.5t141.5 55.5t52.5 159.5v370h63v-370q0 -100 -44.5 -165.5t-118.5 -91.5q-42 -36 -59 -59t-17 -45q0 -31 39 -31q21 0 55 17v-38
q-34 -22 -73 -22z" />
    <glyph glyph-name="uogonek" unicode="&#x173;" horiz-adv-x="543" 
d="M458 -153q-34 -22 -73 -22q-32 0 -51.5 17t-19.5 49q0 30 21.5 55.5t62.5 56.5v89q-16 -44 -58.5 -74t-99.5 -30q-81 0 -120.5 47.5t-39.5 129.5v269h61v-265q0 -59 30 -93t87 -34q60 0 100 42t40 109v241h61v-434h-23q-39 -35 -55.5 -57.5t-16.5 -43.5q0 -31 39 -31
q21 0 55 17v-38z" />
    <glyph glyph-name="Wcircumflex" unicode="&#x174;" horiz-adv-x="886" 
d="M403 830h80l79 -122h-49l-70 80l-70 -80h-49zM476 630l152 -558h4l153 558h61l-176 -630h-81l-143 532h-4l-145 -532h-81l-176 630h63l156 -555h4l149 555h64z" />
    <glyph glyph-name="wcircumflex" unicode="&#x175;" horiz-adv-x="696" 
d="M312 662h70l82 -144h-47l-70 102l-70 -102h-47zM376 434l117 -354h4l113 354h59l-144 -434h-58l-117 348h-4l-116 -348h-58l-145 434h61l114 -354h4l115 354h55z" />
    <glyph glyph-name="Ycircumflex" unicode="&#x176;" horiz-adv-x="612" 
d="M266 830h80l79 -122h-49l-70 80l-70 -80h-49zM309 328l196 302h69l-237 -361v-269h-62v269l-237 361h74z" />
    <glyph glyph-name="ycircumflex" unicode="&#x177;" horiz-adv-x="482" 
d="M213 662h70l82 -144h-47l-70 102l-70 -102h-47zM205 -45l20 48l-198 431h67l159 -354h4l136 354h62l-192 -480q-27 -66 -57.5 -101t-83.5 -35q-46 0 -72.5 25.5t-32.5 67.5l55 30q0 -71 56 -71q24 0 41 19.5t36 65.5z" />
    <glyph glyph-name="Ydieresis" unicode="&#x178;" horiz-adv-x="612" 
d="M201 714v81h65v-81h-65zM346 714v81h65v-81h-65zM309 328l196 302h69l-237 -361v-269h-62v269l-237 361h74z" />
    <glyph glyph-name="Zacute" unicode="&#x179;" horiz-adv-x="628" 
d="M334 708h-42l54 122h85zM135 55h440v-55h-521v44l430 531h-425v55h505v-47z" />
    <glyph glyph-name="zacute" unicode="&#x17a;" horiz-adv-x="465" 
d="M256 518h-42l62 152h77zM62 434h345v-46l-279 -335h286v-53h-361v46l274 335h-265v53z" />
    <glyph glyph-name="Zdotaccent" unicode="&#x17b;" horiz-adv-x="628" 
d="M355 714h-75v81h75v-81zM135 55h440v-55h-521v44l430 531h-425v55h505v-47z" />
    <glyph glyph-name="zdotaccent" unicode="&#x17c;" horiz-adv-x="465" 
d="M277 549h-75v81h75v-81zM62 434h345v-46l-279 -335h286v-53h-361v46l274 335h-265v53z" />
    <glyph glyph-name="Zcaron" unicode="&#x17d;" horiz-adv-x="628" 
d="M357 708h-80l-79 122h49l70 -80l70 80h49zM135 55h440v-55h-521v44l430 531h-425v55h505v-47z" />
    <glyph glyph-name="zcaron" unicode="&#x17e;" horiz-adv-x="465" 
d="M204 508l-82 144h47l70 -102l70 102h47l-82 -144h-70zM62 434h345v-46l-279 -335h286v-53h-361v46l274 335h-265v53z" />
    <glyph glyph-name="uni0192" unicode="&#x192;" horiz-adv-x="421" 
d="M47 -95q-11 0 -37 4v48q15 -3 27 -3q36 0 56 23t29 69l59 284h-79v46h89l27 131q12 59 46.5 95.5t89.5 36.5q21 0 45 -6v-46q-22 5 -36 5q-68 0 -87 -91l-26 -125h105v-46h-115l-60 -290q-13 -64 -43.5 -99.5t-89.5 -35.5z" />
    <glyph glyph-name="Aringacute" unicode="&#x1fa;" horiz-adv-x="649" 
d="M437 993l-97 -102h-42l54 102h85zM322 848q44 0 72 -24.5t28 -61.5t-28 -62t-72 -25t-71 25t-27 62t27 61.5t71 24.5zM322 811q-26 0 -40 -13.5t-14 -35.5t14 -35.5t40 -13.5t40 13.5t14 35.5t-14 35.5t-40 13.5zM316 562l-118 -306h244l-122 306h-4zM544 0l-80 201h-287
l-77 -201h-64l249 630h72l256 -630h-69z" />
    <glyph glyph-name="aringacute" unicode="&#x1fb;" horiz-adv-x="511" 
d="M371 808l-97 -102h-42l54 102h85zM158 577q0 37 27 61.5t71 24.5t72 -24.5t28 -61.5t-28 -62t-72 -25t-71 25t-27 62zM202 577q0 -22 14 -35.5t40 -13.5t40 13.5t14 35.5t-14 35.5t-40 13.5t-40 -13.5t-14 -35.5zM119 305l-55 25q24 51 75 83.5t120 32.5q71 0 110 -31
t39 -89v-228q0 -52 41 -52q26 0 48 14l3 -53q-27 -16 -57 -16q-41 0 -66 28t-27 71q-15 -43 -60 -71t-105 -28q-61 0 -99 35t-38 92q0 55 44.5 87.5t130.5 51.5l127 28v42q0 26 -21 46t-70 20q-53 0 -89 -25t-51 -63zM350 173v65l-117 -27q-64 -15 -93.5 -34.5t-29.5 -58.5
q0 -33 21.5 -54t62.5 -21q63 0 109.5 40t46.5 90z" />
    <glyph glyph-name="AEacute" unicode="&#x1fc;" horiz-adv-x="1020" 
d="M684 708h-42l54 122h85zM491 582l-216 -326h216v326zM491 0v201h-253l-133 -201h-69l423 630h489v-55h-394v-219h301v-56h-301v-245h403v-55h-466z" />
    <glyph glyph-name="aeacute" unicode="&#x1fd;" horiz-adv-x="816" 
d="M424 518h-42l62 152h77zM566 -12q-65 0 -116 29.5t-78 82.5q-21 -45 -69 -77t-118 -32q-61 0 -99 33.5t-38 90.5t43 87t132 50l127 28v47q0 26 -21 46t-70 20q-53 0 -89 -25t-51 -63l-55 25q24 51 75 83.5t120 32.5q112 0 137 -79q63 79 166 79q97 0 150.5 -61.5
t53.5 -150.5v-23h-360q0 -77 47 -124.5t114 -47.5q113 0 151 106l46 -39q-57 -118 -198 -118zM409 260h297q-3 56 -41 95t-103 39q-62 0 -103 -39t-50 -95zM350 173v60l-117 -27q-46 -11 -67.5 -18.5t-38.5 -25.5t-17 -47q0 -32 21.5 -52t62.5 -20q63 0 109.5 40t46.5 90z
" />
    <glyph glyph-name="Oslashacute" unicode="&#x1fe;" horiz-adv-x="744" 
d="M389 708h-42l54 122h85zM124 315q0 -112 56 -184l359 395q-67 61 -167 61q-112 0 -180 -74t-68 -198zM372 43q112 0 180 74t68 198q0 104 -48 174l-357 -394q63 -52 157 -52zM372 -12q-114 0 -197 64l-70 -78l-39 31l73 80q-83 91 -83 230q0 145 88.5 236t227.5 91
q121 0 207 -72l60 67l39 -31l-64 -71q74 -88 74 -220q0 -145 -88.5 -236t-227.5 -91z" />
    <glyph glyph-name="oslashacute" unicode="&#x1ff;" horiz-adv-x="547" 
d="M291 518h-42l62 152h77zM114 217q0 -68 31 -113l228 257q-42 33 -100 33q-72 0 -115.5 -48.5t-43.5 -128.5zM273 40q73 0 116.5 48.5t43.5 128.5q0 65 -30 112l-227 -258q39 -31 97 -31zM273 -12q-76 0 -133 43l-58 -66l-34 28l59 67q-57 65 -57 157q0 100 64.5 164.5
t158.5 64.5q77 0 135 -44l55 62l34 -28l-56 -64q56 -62 56 -155q0 -100 -65 -164.5t-159 -64.5z" />
    <glyph glyph-name="uni0218" unicode="&#x218;" horiz-adv-x="601" 
d="M32 141l44 51q28 -71 94 -110.5t143 -39.5q78 0 129 32t51 92q0 45 -32 70t-100 40l-136 30q-160 35 -160 161q0 77 61.5 126t158.5 49q88 0 152.5 -35t94.5 -91l-46 -49q-23 54 -77.5 87.5t-123.5 33.5q-73 0 -115 -31.5t-42 -89.5q0 -47 34 -70t104 -38l116 -25
q81 -18 127.5 -55.5t46.5 -112.5q0 -82 -68.5 -130t-174.5 -48q-94 0 -173.5 41.5t-107.5 111.5zM254 -116v60h76v-61q0 -89 -81 -89v30q23 0 31.5 15t8.5 45h-35z" />
    <glyph glyph-name="uni0219" unicode="&#x219;" horiz-adv-x="479" 
d="M45 88l34 53q23 -48 69 -74t101 -26q115 0 115 72q0 49 -75 67l-100 25q-55 14 -86 40.5t-31 76.5q0 56 46.5 90t114.5 34q61 0 107.5 -24t68.5 -66l-43 -41q-16 36 -52 57t-81 21q-44 0 -73 -18t-29 -48q0 -27 18.5 -43t59.5 -26l108 -27q107 -27 107 -116
q0 -58 -49.5 -92.5t-124.5 -34.5q-68 0 -123.5 27.5t-81.5 72.5zM201 -116v60h76v-61q0 -89 -81 -89v30q23 0 31.5 15t8.5 45h-35z" />
    <glyph glyph-name="uni021A" unicode="&#x21a;" horiz-adv-x="672" 
d="M367 0h-65v575h-262v55h592v-55h-265v-575zM298 -116v60h76v-61q0 -89 -81 -89v30q23 0 31.5 15t8.5 45h-35z" />
    <glyph glyph-name="uni021B" unicode="&#x21b;" horiz-adv-x="426" 
d="M24 434h95v126l60 23v-149h194v-49h-194v-251q0 -46 24 -69.5t57 -23.5q38 0 60.5 20.5t42.5 64.5l32 -49q-13 -36 -50 -62.5t-85 -26.5q-60 0 -100.5 37t-40.5 105v255h-95v49zM202 -116v60h76v-61q0 -89 -81 -89v30q23 0 31.5 15t8.5 45h-35z" />
    <glyph glyph-name="uni0237" unicode="&#x237;" horiz-adv-x="229" 
d="M145 434v-507q0 -109 -102 -109q-52 0 -89 32l19 40q35 -23 69 -23q42 0 42 50v517h61z" />
    <glyph glyph-name="circumflex" unicode="&#x2c6;" 
d="M225 662h70l82 -144h-47l-70 102l-70 -102h-47z" />
    <glyph glyph-name="caron" unicode="&#x2c7;" 
d="M225 508l-82 144h47l70 -102l70 102h47l-82 -144h-70z" />
    <glyph glyph-name="breve" unicode="&#x2d8;" 
d="M260 505q-51 0 -82.5 40t-31.5 104h47q0 -45 17 -70.5t50 -25.5t50 25.5t17 70.5h47q0 -64 -31.5 -104t-82.5 -40z" />
    <glyph glyph-name="dotaccent" unicode="&#x2d9;" 
d="M297 549h-75v81h75v-81z" />
    <glyph glyph-name="ring" unicode="&#x2da;" 
d="M167 593q0 39 26 64.5t67 25.5q42 0 68 -25.5t26 -64.5t-26 -64.5t-68 -25.5q-41 0 -67 25.5t-26 64.5zM209 593q0 -23 13.5 -37t37.5 -14t37.5 14t13.5 37t-13.5 37t-37.5 14t-37.5 -14t-13.5 -37z" />
    <glyph glyph-name="ogonek" unicode="&#x2db;" 
d="M284 12h40q-48 -42 -67 -66t-19 -47q0 -31 39 -31q21 0 55 17v-38q-34 -22 -73 -22q-32 0 -51.5 17t-19.5 49q0 23 16.5 46.5t31.5 36.5t48 38z" />
    <glyph glyph-name="tilde" unicode="&#x2dc;" 
d="M158 525h-43q0 54 20.5 88.5t60.5 34.5q30 0 69.5 -37t57.5 -37q21 0 28.5 18.5t9.5 52.5h43q0 -54 -20.5 -88.5t-60.5 -34.5q-30 0 -69.5 37t-57.5 37q-21 0 -28.5 -18.5t-9.5 -52.5z" />
    <glyph glyph-name="hungarumlaut" unicode="&#x2dd;" 
d="M300 508h-37l59 152h72zM160 508h-37l59 152h72z" />
    <glyph glyph-name="Wgrave" unicode="&#x1e80;" horiz-adv-x="886" 
d="M475 708h-42l-97 122h85zM476 630l152 -558h4l153 558h61l-176 -630h-81l-143 532h-4l-145 -532h-81l-176 630h63l156 -555h4l149 555h64z" />
    <glyph glyph-name="wgrave" unicode="&#x1e81;" horiz-adv-x="696" 
d="M368 518h-42l-97 152h77zM376 434l117 -354h4l113 354h59l-144 -434h-58l-117 348h-4l-116 -348h-58l-145 434h61l114 -354h4l115 354h55z" />
    <glyph glyph-name="Wacute" unicode="&#x1e82;" horiz-adv-x="886" 
d="M460 708h-42l54 122h85zM476 630l152 -558h4l153 558h61l-176 -630h-81l-143 532h-4l-145 -532h-81l-176 630h63l156 -555h4l149 555h64z" />
    <glyph glyph-name="wacute" unicode="&#x1e83;" horiz-adv-x="696" 
d="M367 518h-42l62 152h77zM376 434l117 -354h4l113 354h59l-144 -434h-58l-117 348h-4l-116 -348h-58l-145 434h61l114 -354h4l115 354h55z" />
    <glyph glyph-name="Wdieresis" unicode="&#x1e84;" horiz-adv-x="886" 
d="M338 714v81h65v-81h-65zM483 714v81h65v-81h-65zM476 630l152 -558h4l153 558h61l-176 -630h-81l-143 532h-4l-145 -532h-81l-176 630h63l156 -555h4l149 555h64z" />
    <glyph glyph-name="wdieresis" unicode="&#x1e85;" horiz-adv-x="696" 
d="M390 540v81h65v-81h-65zM245 540v81h65v-81h-65zM376 434l117 -354h4l113 354h59l-144 -434h-58l-117 348h-4l-116 -348h-58l-145 434h61l114 -354h4l115 354h55z" />
    <glyph glyph-name="Ygrave" unicode="&#x1ef2;" horiz-adv-x="612" 
d="M338 708h-42l-97 122h85zM309 328l196 302h69l-237 -361v-269h-62v269l-237 361h74z" />
    <glyph glyph-name="ygrave" unicode="&#x1ef3;" horiz-adv-x="482" 
d="M278 518h-42l-97 152h77zM205 -45l20 48l-198 431h67l159 -354h4l136 354h62l-192 -480q-27 -66 -57.5 -101t-83.5 -35q-46 0 -72.5 25.5t-32.5 67.5l55 30q0 -71 56 -71q24 0 41 19.5t36 65.5z" />
    <glyph glyph-name="uni2009" unicode="&#x2009;" horiz-adv-x="60" 
 />
    <glyph glyph-name="endash" unicode="&#x2013;" 
d="M70 231v48h380v-48h-380z" />
    <glyph glyph-name="emdash" unicode="&#x2014;" horiz-adv-x="1020" 
d="M70 231v48h880v-48h-880z" />
    <glyph glyph-name="quoteleft" unicode="&#x2018;" horiz-adv-x="246" 
d="M168 510v-88h-88v109q0 111 106 111v-46q-34 0 -47.5 -14t-13.5 -51v-21h43z" />
    <glyph glyph-name="quoteright" unicode="&#x2019;" horiz-adv-x="246" 
d="M78 542v88h88v-109q0 -111 -106 -111v46q34 0 47.5 14t13.5 51v21h-43z" />
    <glyph glyph-name="quotesinglbase" unicode="&#x201a;" horiz-adv-x="246" 
d="M78 10v88h88v-109q0 -111 -106 -111v46q34 0 47.5 14t13.5 51v21h-43z" />
    <glyph glyph-name="quotedblleft" unicode="&#x201c;" horiz-adv-x="419" 
d="M168 510v-88h-88v109q0 111 106 111v-46q-34 0 -47.5 -14t-13.5 -51v-21h43zM341 510v-88h-88v109q0 111 106 111v-46q-34 0 -47.5 -14t-13.5 -51v-21h43z" />
    <glyph glyph-name="quotedblright" unicode="&#x201d;" horiz-adv-x="419" 
d="M78 542v88h88v-109q0 -111 -106 -111v46q34 0 47.5 14t13.5 51v21h-43zM251 542v88h88v-109q0 -111 -106 -111v46q34 0 47.5 14t13.5 51v21h-43z" />
    <glyph glyph-name="quotedblbase" unicode="&#x201e;" horiz-adv-x="419" 
d="M78 10v88h88v-109q0 -111 -106 -111v46q34 0 47.5 14t13.5 51v21h-43zM251 10v88h88v-109q0 -111 -106 -111v46q34 0 47.5 14t13.5 51v21h-43z" />
    <glyph glyph-name="dagger" unicode="&#x2020;" horiz-adv-x="325" 
d="M295 493h-108v-241h-49v241h-108v47h108v102h49v-102h108v-47z" />
    <glyph glyph-name="daggerdbl" unicode="&#x2021;" horiz-adv-x="335" 
d="M143 252v102h-108v47h108v92h-108v47h108v102h49v-102h108v-47h-108v-92h108v-47h-108v-102h-49z" />
    <glyph glyph-name="bullet" unicode="&#x2022;" horiz-adv-x="335" 
d="M275 255q0 -46 -31.5 -76.5t-76.5 -30.5t-76 30.5t-31 76.5t31 77t76 31t76.5 -31t31.5 -77z" />
    <glyph glyph-name="ellipsis" unicode="&#x2026;" horiz-adv-x="828" 
d="M70 0v88h88v-88h-88zM370 0v88h88v-88h-88zM670 0v88h88v-88h-88z" />
    <glyph glyph-name="perthousand" unicode="&#x2030;" horiz-adv-x="1203" 
d="M204 644q64 0 109.5 -45.5t45.5 -109.5t-45.5 -109t-109.5 -45q-63 0 -108.5 45t-45.5 109t45.5 109.5t108.5 45.5zM181 0l414 630h57l-414 -630h-57zM204 593q-41 0 -71 -30.5t-30 -73.5t29.5 -73t71.5 -30q43 0 72.5 30t29.5 73q0 44 -29.5 74t-72.5 30zM629 -14
q-64 0 -109.5 45.5t-45.5 109.5t45.5 109t109.5 45q63 0 108.5 -45t45.5 -109t-45.5 -109.5t-108.5 -45.5zM1153 141q0 -64 -45.5 -109.5t-108.5 -45.5q-64 0 -109.5 45.5t-45.5 109.5t45.5 109t109.5 45q63 0 108.5 -45t45.5 -109zM629 37q41 0 71 30.5t30 73.5t-29.5 73
t-71.5 30q-43 0 -72.5 -30t-29.5 -73q0 -44 29.5 -74t72.5 -30zM897 141q0 -44 29.5 -74t72.5 -30q41 0 71 30.5t30 73.5t-29.5 73t-71.5 30q-43 0 -72.5 -30t-29.5 -73z" />
    <glyph glyph-name="guilsinglleft" unicode="&#x2039;" horiz-adv-x="273" 
d="M60 192v48l153 143v-72l-102 -95l102 -95v-72z" />
    <glyph glyph-name="guilsinglright" unicode="&#x203a;" horiz-adv-x="273" 
d="M213 240v-48l-153 -143v72l102 95l-102 95v72z" />
    <glyph glyph-name="fraction" unicode="&#x2044;" horiz-adv-x="181" 
d="M326 630l-414 -630h-57l414 630h57z" />
    <glyph glyph-name="uni2070" unicode="&#x2070;" horiz-adv-x="440" 
d="M384 435q0 -97 -43 -150t-121 -53t-121 53t-43 150t43 150.5t121 53.5t121 -53.5t43 -150.5zM323 435q0 157 -103 157t-103 -157t103 -157t103 157z" />
    <glyph glyph-name="uni2074" unicode="&#x2074;" horiz-adv-x="419" 
d="M310 631v-244h69v-45h-69v-103h-53v103h-211v53l196 236h68zM257 582l-161 -195h161v195z" />
    <glyph glyph-name="uni2075" unicode="&#x2075;" horiz-adv-x="399" 
d="M48 356l57 11q2 -40 28 -64.5t70 -24.5q41 0 65 24.5t24 66.5q0 38 -24 63t-64 25q-54 0 -81 -42l-56 10q20 127 23 206h234q7 -54 -45 -54q-51 0 -146 10q-3 -73 -14 -128q32 43 95 43q62 0 98 -38.5t36 -94.5q0 -61 -41 -99t-105 -38q-66 0 -107.5 34t-46.5 90z" />
    <glyph glyph-name="uni2076" unicode="&#x2076;" horiz-adv-x="414" 
d="M356 542l-52 -15q-15 66 -82 66q-59 0 -87 -50t-26 -129q10 36 40 58t77 22q60 0 97 -36t37 -93q0 -60 -39 -96.5t-105 -36.5q-77 0 -118.5 52.5t-41.5 143.5q0 95 43 153t124 58q52 0 87 -25.5t46 -71.5zM123 364q0 -38 25.5 -62t67.5 -24q41 0 65 23.5t24 62.5
t-24.5 62.5t-66.5 23.5t-66.5 -23.5t-24.5 -62.5z" />
    <glyph glyph-name="uni2077" unicode="&#x2077;" horiz-adv-x="373" 
d="M265 578h-218v53h280v-40q-130 -134 -132 -352h-63q1 100 36.5 187t96.5 152z" />
    <glyph glyph-name="uni2078" unicode="&#x2078;" horiz-adv-x="405" 
d="M202 232q-70 0 -110 30t-40 81q0 36 25 62t59 32q-70 25 -70 93q0 50 38 79.5t98 29.5t98.5 -29.5t38.5 -79.5q0 -68 -70 -93q34 -6 59 -32t25 -62q0 -51 -40 -81t-111 -30zM202 458q36 0 58 17.5t22 49.5q0 34 -22 52.5t-58 18.5t-57.5 -18.5t-21.5 -52.5
q0 -32 21.5 -49.5t57.5 -17.5zM202 275q43 0 67 18.5t24 52.5q0 69 -91 69q-90 0 -90 -69q0 -34 23.5 -52.5t66.5 -18.5z" />
    <glyph glyph-name="uni2079" unicode="&#x2079;" horiz-adv-x="414" 
d="M291 506q0 38 -25.5 62.5t-67.5 24.5q-41 0 -65 -24t-24 -63t24 -62t67 -23t67 23t24 62zM58 328l52 15q15 -66 82 -66q59 0 87 50t26 129q-10 -36 -40 -58t-77 -22q-60 0 -97 36t-37 93q0 60 39 97t105 37q77 0 118.5 -52.5t41.5 -144.5q0 -95 -43 -152.5t-123 -57.5
q-53 0 -88 25.5t-46 70.5z" />
    <glyph glyph-name="uni2080" unicode="&#x2080;" horiz-adv-x="440" 
d="M384 96q0 -97 -43 -150t-121 -53t-121 53t-43 150t43 150.5t121 53.5t121 -53.5t43 -150.5zM323 96q0 157 -103 157t-103 -157t103 -157t103 157z" />
    <glyph glyph-name="uni2081" unicode="&#x2081;" horiz-adv-x="289" 
d="M203 -100h-57v294h-104v42h28q48 0 67 12t28 47h38v-395z" />
    <glyph glyph-name="uni2082" unicode="&#x2082;" horiz-adv-x="389" 
d="M143 -51h200v-49h-291v34l112 95q40 34 57.5 51t34 43.5t16.5 52.5q0 34 -20 54.5t-57 20.5q-40 0 -61.5 -23t-21.5 -65q0 -20 7 -35l-57 2q-6 20 -6 37q0 61 38 97t101 36q66 0 101.5 -34t35.5 -87q0 -33 -20 -66.5t-41.5 -54t-56.5 -49.5z" />
    <glyph glyph-name="uni2083" unicode="&#x2083;" horiz-adv-x="394" 
d="M110 164l-55 16q7 54 45.5 87t98.5 33q64 0 100 -30.5t36 -80.5q0 -36 -25 -61t-58 -30q39 -4 64.5 -30t25.5 -64q0 -50 -38.5 -80.5t-103.5 -30.5t-106.5 31.5t-48.5 86.5l55 16q2 -41 29.5 -64.5t70.5 -23.5q38 0 61 18t23 51q0 32 -25 49.5t-63 17.5q-18 0 -36 -4v51
q24 -3 37 -3q34 0 57.5 15.5t23.5 49.5q0 31 -21 50t-59 19q-39 0 -62.5 -23.5t-25.5 -65.5z" />
    <glyph glyph-name="uni2084" unicode="&#x2084;" horiz-adv-x="419" 
d="M310 292v-244h69v-45h-69v-103h-53v103h-211v53l196 236h68zM257 243l-161 -195h161v195z" />
    <glyph glyph-name="uni2085" unicode="&#x2085;" horiz-adv-x="399" 
d="M48 17l57 11q2 -40 28 -64.5t70 -24.5q41 0 65 24.5t24 66.5q0 38 -24 63t-64 25q-54 0 -81 -42l-56 10q20 127 23 206h234q7 -54 -45 -54q-51 0 -146 10q-3 -73 -14 -128q32 43 95 43q62 0 98 -38.5t36 -94.5q0 -61 -41 -99t-105 -38q-66 0 -107.5 34t-46.5 90z" />
    <glyph glyph-name="uni2086" unicode="&#x2086;" horiz-adv-x="414" 
d="M356 203l-52 -15q-15 66 -82 66q-59 0 -87 -50t-26 -129q10 36 40 58t77 22q60 0 97 -36t37 -93q0 -60 -39 -96.5t-105 -36.5q-77 0 -118.5 52.5t-41.5 143.5q0 95 43 153t124 58q52 0 87 -25.5t46 -71.5zM123 25q0 -38 25.5 -62t67.5 -24q41 0 65 23.5t24 62.5
t-24.5 62.5t-66.5 23.5t-66.5 -23.5t-24.5 -62.5z" />
    <glyph glyph-name="uni2087" unicode="&#x2087;" horiz-adv-x="373" 
d="M265 239h-218v53h280v-40q-130 -134 -132 -352h-63q1 100 36.5 187t96.5 152z" />
    <glyph glyph-name="uni2088" unicode="&#x2088;" horiz-adv-x="405" 
d="M202 -107q-70 0 -110 30t-40 81q0 36 25 62t59 32q-70 25 -70 93q0 50 38 79.5t98 29.5t98.5 -29.5t38.5 -79.5q0 -68 -70 -93q34 -6 59 -32t25 -62q0 -51 -40 -81t-111 -30zM202 119q36 0 58 17.5t22 49.5q0 34 -22 52.5t-58 18.5t-57.5 -18.5t-21.5 -52.5
q0 -32 21.5 -49.5t57.5 -17.5zM202 -64q43 0 67 18.5t24 52.5q0 69 -91 69q-90 0 -90 -69q0 -34 23.5 -52.5t66.5 -18.5z" />
    <glyph glyph-name="uni2089" unicode="&#x2089;" horiz-adv-x="414" 
d="M291 167q0 38 -25.5 62.5t-67.5 24.5q-41 0 -65 -24t-24 -63t24 -62t67 -23t67 23t24 62zM58 -11l52 15q15 -66 82 -66q59 0 87 50t26 129q-10 -36 -40 -58t-77 -22q-60 0 -97 36t-37 93q0 60 39 97t105 37q77 0 118.5 -52.5t41.5 -144.5q0 -95 -43 -152.5t-123 -57.5
q-53 0 -88 25.5t-46 70.5z" />
    <glyph glyph-name="Euro" unicode="&#x20ac;" horiz-adv-x="641" 
d="M603 184q-22 -91 -83 -143.5t-156 -52.5q-99 0 -166 64.5t-87 175.5h-79v47h73q0 6 -0.5 19.5t-0.5 20.5q0 25 1 37h-73v47h79q19 112 86 177.5t167 65.5q92 0 152.5 -49.5t83.5 -134.5l-57 -35q-14 76 -59.5 121t-119.5 45q-77 0 -126 -50.5t-64 -139.5h208l-10 -47
h-204q-1 -12 -1 -37q0 -27 1 -40h193l-10 -47h-177q16 -88 64.5 -137.5t125.5 -49.5q150 0 180 170z" />
    <glyph glyph-name="uni2117" unicode="&#x2117;" horiz-adv-x="744" 
d="M45 315q0 141 95 234t232 93t232 -93t95 -234t-95 -234t-232 -93t-232 93t-95 234zM91 315q0 -122 81.5 -202t199.5 -80t199.5 80t81.5 202t-81.5 202t-199.5 80t-199.5 -80t-81.5 -202zM306 264v-135h-55v371h146q68 0 104.5 -33t36.5 -85t-36.5 -85t-104.5 -33h-91z
M306 310h82q95 0 95 72t-95 72h-82v-144z" />
    <glyph glyph-name="trademark" unicode="&#x2122;" horiz-adv-x="714" 
d="M173 344h-52v242h-101v44h256v-44h-103v-242zM505 344h-44l-77 240h-2v-240h-48v286h82l68 -221h3l68 221h79v-286h-51v240h-2z" />
    <glyph glyph-name="uni2153" unicode="&#x2153;" horiz-adv-x="845" 
d="M203 239h-57v294h-104v42h28q48 0 67 12t28 47h38v-395zM622 630l-414 -630h-57l414 630h57zM573 264l-55 16q7 54 45.5 87t98.5 33q64 0 100 -30.5t36 -80.5q0 -36 -25 -61t-58 -30q39 -4 64.5 -30t25.5 -64q0 -50 -38.5 -80.5t-103.5 -30.5t-106.5 31.5t-48.5 86.5
l55 16q2 -41 29.5 -64.5t70.5 -23.5q38 0 61 18t23 51q0 32 -25 49.5t-63 17.5q-18 0 -36 -4v51q24 -3 37 -3q34 0 57.5 15.5t23.5 49.5q0 31 -21 50t-59 19q-39 0 -62.5 -23.5t-25.5 -65.5z" />
    <glyph glyph-name="uni2154" unicode="&#x2154;" horiz-adv-x="946" 
d="M143 288h200v-49h-291v34l112 95q40 34 57.5 51t34 43.5t16.5 52.5q0 34 -20 54.5t-57 20.5q-40 0 -61.5 -23t-21.5 -65q0 -20 7 -35l-57 2q-6 19 -6 37q0 61 38 97t101 36q66 0 101.5 -34t35.5 -87q0 -33 -20 -66.5t-41.5 -54t-56.5 -49.5zM723 630l-414 -630h-57
l414 630h57zM674 264l-55 16q7 54 45.5 87t98.5 33q64 0 100 -30.5t36 -80.5q0 -36 -25 -61t-58 -30q39 -4 64.5 -30t25.5 -64q0 -50 -38.5 -80.5t-103.5 -30.5t-106.5 31.5t-48.5 86.5l55 16q2 -41 29.5 -64.5t70.5 -23.5q38 0 61 18t23 51q0 32 -25 49.5t-63 17.5
q-18 0 -36 -4v51q24 -3 37 -3q34 0 57.5 15.5t23.5 49.5q0 31 -21 50t-59 19q-39 0 -62.5 -23.5t-25.5 -65.5z" />
    <glyph glyph-name="uni215B" unicode="&#x215b;" horiz-adv-x="851" 
d="M203 239h-57v294h-104v42h28q48 0 67 12t28 47h38v-395zM622 630l-414 -630h-57l414 630h57zM665 -7q-70 0 -110 30t-40 81q0 36 25 62t59 32q-70 25 -70 93q0 50 38 79.5t98 29.5t98.5 -29.5t38.5 -79.5q0 -68 -70 -93q34 -6 59 -32t25 -62q0 -51 -40 -81t-111 -30z
M665 219q36 0 58 17.5t22 49.5q0 34 -22 52.5t-58 18.5t-57.5 -18.5t-21.5 -52.5q0 -32 21.5 -49.5t57.5 -17.5zM665 36q43 0 67 18.5t24 52.5q0 69 -91 69q-90 0 -90 -69q0 -34 23.5 -52.5t66.5 -18.5z" />
    <glyph glyph-name="uni215C" unicode="&#x215c;" horiz-adv-x="941" 
d="M712 630l-414 -630h-57l414 630h57zM755 -8q-70 0 -110 30t-40 81q0 36 25 62t59 32q-70 25 -70 93q0 50 38 79.5t98 29.5t98.5 -29.5t38.5 -79.5q0 -68 -70 -93q34 -6 59 -32t25 -62q0 -51 -40 -81t-111 -30zM110 503l-55 16q7 54 45.5 87t98.5 33q64 0 100 -30.5
t36 -80.5q0 -36 -25 -61t-58 -30q39 -4 64.5 -30t25.5 -64q0 -50 -38.5 -80.5t-103.5 -30.5t-106.5 31.5t-48.5 86.5l55 16q2 -41 29.5 -64.5t70.5 -23.5q38 0 61 18t23 51q0 32 -25 49.5t-63 17.5q-18 0 -36 -4v51q24 -3 37 -3q34 0 57.5 15.5t23.5 49.5q0 31 -21 50
t-59 19q-39 0 -62.5 -23.5t-25.5 -65.5zM755 218q36 0 58 17.5t22 49.5q0 34 -22 52.5t-58 18.5t-57.5 -18.5t-21.5 -52.5q0 -32 21.5 -49.5t57.5 -17.5zM755 35q43 0 67 18.5t24 52.5q0 69 -91 69q-90 0 -90 -69q0 -34 23.5 -52.5t66.5 -18.5z" />
    <glyph glyph-name="uni215D" unicode="&#x215d;" horiz-adv-x="937" 
d="M707 630l-414 -630h-57l414 630h57zM751 -8q-70 0 -110 30t-40 81q0 36 25 62t59 32q-70 25 -70 93q0 50 38 79.5t98 29.5t98.5 -29.5t38.5 -79.5q0 -68 -70 -93q34 -6 59 -32t25 -62q0 -51 -40 -81t-111 -30zM48 356l57 11q2 -40 28 -64.5t70 -24.5q41 0 65 24.5
t24 66.5q0 38 -24 63t-64 25q-54 0 -81 -42l-56 10q20 127 23 206h234q7 -54 -45 -54q-51 0 -146 10q-3 -73 -14 -128q32 43 95 43q62 0 98 -38.5t36 -94.5q0 -61 -41 -99t-105 -38q-66 0 -107.5 34t-46.5 90zM751 218q36 0 58 17.5t22 49.5q0 34 -22 52.5t-58 18.5
t-57.5 -18.5t-21.5 -52.5q0 -32 21.5 -49.5t57.5 -17.5zM751 35q43 0 67 18.5t24 52.5q0 69 -91 69q-90 0 -90 -69q0 -34 23.5 -52.5t66.5 -18.5z" />
    <glyph glyph-name="uni215E" unicode="&#x215e;" horiz-adv-x="850" 
d="M265 578h-218v53h280v-40q-130 -134 -132 -352h-63q1 100 36.5 187t96.5 152zM620 630l-414 -630h-57l414 630h57zM664 -8q-70 0 -110 30t-40 81q0 36 25 62t59 32q-70 25 -70 93q0 50 38 79.5t98 29.5t98.5 -29.5t38.5 -79.5q0 -68 -70 -93q34 -6 59 -32t25 -62
q0 -51 -40 -81t-111 -30zM664 218q36 0 58 17.5t22 49.5q0 34 -22 52.5t-58 18.5t-57.5 -18.5t-21.5 -52.5q0 -32 21.5 -49.5t57.5 -17.5zM664 35q43 0 67 18.5t24 52.5q0 69 -91 69q-90 0 -90 -69q0 -34 23.5 -52.5t66.5 -18.5z" />
    <glyph glyph-name="minus" unicode="&#x2212;" horiz-adv-x="640" 
d="M67 286v52h506v-52h-506z" />
    <glyph glyph-name="approxequal" unicode="&#x2248;" horiz-adv-x="651" 
d="M72 329v54q72 46 137 46q43 0 115 -22t116 -22q69 0 139 45v-54q-69 -46 -139 -46q-44 0 -116 22t-115 22q-67 0 -137 -45zM72 193v55q70 45 137 45q43 0 115 -22t116 -22q69 0 139 45v-54q-70 -45 -139 -45q-44 0 -116 22t-115 22q-65 0 -137 -46z" />
    <glyph glyph-name="notequal" unicode="&#x2260;" horiz-adv-x="651" 
d="M579 211h-303l-99 -124h-61l99 124h-143v53h185l73 92h-258v53h301l101 127h61l-101 -127h145v-53h-188l-73 -92h261v-53z" />
    <glyph glyph-name="lessequal" unicode="&#x2264;" horiz-adv-x="485" 
d="M49 347v54l387 190v-56l-329 -161l329 -162v-56zM49 46v52h387v-52h-387z" />
    <glyph glyph-name="greaterequal" unicode="&#x2265;" horiz-adv-x="485" 
d="M436 401v-54l-387 -191v56l329 162l-329 161v56zM436 98v-52h-387v52h387z" />
    <glyph glyph-name="i.dot" horiz-adv-x="229" 
d="M152 549h-75v81h75v-81zM84 434h61v-434h-61v434z" />
    <glyph glyph-name="space_uni0326" 
d="M222 -116v60h76v-61q0 -89 -81 -89v30q23 0 31.5 15t8.5 45h-35z" />
    <glyph glyph-name="space_uni0326.alt" 
d="M298 579v-60h-76v61q0 89 81 89v-30q-23 0 -31.5 -15t-8.5 -45h35z" />
    <glyph glyph-name="space_dotbelowcomb" 
d="M227 -170v81h65v-81h-65z" />
    <glyph glyph-name="CR" horiz-adv-x="221" 
 />
    <glyph glyph-name="Euro.lt" horiz-adv-x="620" 
d="M582 184q-48 -196 -229 -196q-99 0 -166 64.5t-87 175.5h-69v47h63q0 6 -0.5 19.5t-0.5 20.5q0 25 1 37h-63v47h69q19 112 86 177.5t167 65.5q176 0 226 -184l-57 -35q-31 166 -169 166q-77 0 -126 -50.5t-64 -139.5h208l-10 -47h-204q-1 -12 -1 -37q0 -27 1 -40h193
l-10 -47h-177q16 -88 64.5 -137.5t125.5 -49.5q75 0 115.5 44t54.5 126z" />
    <glyph glyph-name="a.ord" horiz-adv-x="389" 
d="M106 461l-49 21q14 39 50.5 63t88.5 24q109 0 109 -89v-147q0 -32 26 -32q19 0 33 11l3 -42q-24 -14 -46 -14q-29 0 -48 18.5t-21 47.5q-11 -29 -41 -47t-70 -18q-42 0 -68.5 23.5t-26.5 62.5t29.5 60t87.5 34l89 21v24q0 17 -13.5 29.5t-43.5 12.5q-37 0 -60 -17.5
t-29 -45.5zM252 383v39l-76 -18q-26 -6 -40 -11.5t-24 -17t-10 -29.5q0 -20 13.5 -33t38.5 -13q40 0 69 25t29 58z" />
    <glyph glyph-name="approxequal.lt" horiz-adv-x="620" 
d="M56 329v54q72 46 137 46q44 0 115.5 -22t115.5 -22q69 0 139 45v-54q-69 -46 -139 -46q-44 0 -115.5 22t-115.5 22q-67 0 -137 -45zM56 193v55q70 45 137 45q44 0 115.5 -22t115.5 -22q69 0 139 45v-54q-70 -45 -139 -45q-44 0 -115.5 22t-115.5 22q-65 0 -137 -46z" />
    <glyph glyph-name="at.cap" horiz-adv-x="775" 
d="M562 172q52 0 85.5 48t33.5 143q0 109 -70 177.5t-190 68.5q-144 0 -233.5 -92.5t-89.5 -236.5q0 -129 85 -206.5t211 -77.5q113 0 206 45l21 -35q-95 -57 -228 -57q-150 0 -249 89t-99 244q0 162 103.5 268t272.5 106q146 0 230 -81.5t84 -211.5q0 -116 -52 -178
t-128 -62q-39 0 -62.5 20.5t-29.5 52.5q-18 -33 -52 -53t-76 -20q-58 0 -93 37t-35 102q0 84 52 151.5t137 67.5q41 0 71 -18.5t41 -47.5l16 58h59l-61 -241q-8 -33 2.5 -46.5t37.5 -13.5zM476 290l7 26q13 51 -10.5 85t-71.5 34q-58 0 -94 -53t-36 -121q0 -87 75 -87
q42 0 78.5 30.5t51.5 85.5z" />
    <glyph glyph-name="b.ord" horiz-adv-x="422" 
d="M125 327l-14 -64h-41v430h56v-197q11 32 39 52.5t68 20.5q64 0 102.5 -44.5t38.5 -112.5t-38.5 -112.5t-103.5 -44.5q-40 0 -68 19.5t-39 52.5zM124 419v-14q0 -48 27.5 -77.5t67.5 -29.5q45 0 71 31t26 83t-26 83t-71 31q-40 0 -67.5 -29.5t-27.5 -77.5z" />
    <glyph glyph-name="backslash.cap" horiz-adv-x="329" 
d="M69 630l250 -630h-59l-250 630h59z" />
    <glyph glyph-name="bar.cap" horiz-adv-x="232" 
d="M88 0v630h56v-630h-56z" />
    <glyph glyph-name="braceleft.cap" horiz-adv-x="339" 
d="M35 283v50h25q30 0 38.5 15t8.5 58v183q0 46 18 68.5t61 22.5h93v-50h-80q-31 0 -31 -37v-187q0 -85 -66 -98q66 -13 66 -98v-187q0 -37 31 -37h80v-50h-93q-43 0 -61 22.5t-18 68.5v183q0 43 -8.5 58t-38.5 15h-25z" />
    <glyph glyph-name="braceright.cap" horiz-adv-x="339" 
d="M304 333v-50h-25q-30 0 -38.5 -15t-8.5 -58v-183q0 -46 -18 -68.5t-61 -22.5h-93v50h80q31 0 31 37v187q0 85 66 98q-66 13 -66 98v187q0 37 -31 37h-80v50h93q43 0 61 -22.5t18 -68.5v-183q0 -43 8.5 -58t38.5 -15h25z" />
    <glyph glyph-name="bracketleft.cap" horiz-adv-x="315" 
d="M135 630v-644h120v-50h-180v744h180v-50h-120z" />
    <glyph glyph-name="bracketright.cap" horiz-adv-x="315" 
d="M180 -14v644h-120v50h180v-744h-180v50h120z" />
    <glyph glyph-name="bullet.cap" horiz-adv-x="335" 
d="M275 315q0 -46 -31.5 -76.5t-76.5 -30.5t-76 30.5t-31 76.5t31 77t76 31t76.5 -31t31.5 -77z" />
    <glyph glyph-name="c.ord" horiz-adv-x="375" 
d="M289 367l46 -23q-14 -39 -48 -64t-85 -25q-68 0 -111 43.5t-43 113.5q0 69 43 113t112 44q95 0 128 -80l-45 -27q-21 61 -82 61q-45 0 -72 -30t-27 -81t27 -81.5t71 -30.5q33 0 55 18.5t31 48.5z" />
    <glyph glyph-name="cent.lt" horiz-adv-x="620" 
d="M515 109q-20 -49 -63.5 -81.5t-107.5 -38.5v-88h-49v88q-91 8 -147 71t-56 157q0 92 56 155t147 73v98h49v-98q116 -8 164 -107l-39 -42q-35 86 -125 96v-350q96 11 131 102zM151 217q0 -73 39 -120t105 -55v349q-67 -8 -105.5 -54.5t-38.5 -119.5z" />
    <glyph glyph-name="colon.tab" horiz-adv-x="310" 
d="M111 331v88h88v-88h-88zM111 0v88h88v-88h-88z" />
    <glyph glyph-name="comma.tab" horiz-adv-x="310" 
d="M111 0v88h88v-109q0 -111 -106 -111v46q34 0 47.5 14t13.5 51v21h-43z" />
    <glyph glyph-name="d.ord" horiz-adv-x="422" 
d="M298 405v14q0 48 -27.5 77.5t-67.5 29.5q-45 0 -71.5 -31t-26.5 -83t26.5 -83t71.5 -31q40 0 67.5 29.5t27.5 77.5zM296 263v65q-27 -73 -107 -73q-65 0 -103 44.5t-38 112.5t38 112.5t103 44.5q80 0 107 -73v197h55v-430h-55z" />
    <glyph glyph-name="divide.lt" horiz-adv-x="620" 
d="M269 477v84h84v-84h-84zM57 286v52h506v-52h-506zM269 63v84h84v-84h-84z" />
    <glyph glyph-name="dollar.lt" horiz-adv-x="620" 
d="M277 359l13 -3v234q-66 -2 -105.5 -34t-39.5 -89q0 -47 32.5 -70t99.5 -38zM371 276l-32 7v-243q69 4 113 37t44 89q0 45 -30.5 70t-94.5 40zM339 -123h-49v113q-80 7 -145 47.5t-89 103.5l42 49q24 -63 76 -101t116 -47v252l-51 12q-155 36 -155 161q0 76 59 125.5
t147 49.5v107h49v-110q68 -8 118 -41.5t74 -81.5l-44 -47q-17 45 -56.5 76t-91.5 41v-241l50 -11q77 -18 122.5 -55.5t45.5 -112.5q0 -77 -61.5 -125t-156.5 -53v-111z" />
    <glyph glyph-name="e.ord" horiz-adv-x="390" 
d="M298 363l43 -26q-38 -82 -139 -82q-67 0 -110.5 42.5t-43.5 110.5q0 70 43 115.5t109 45.5q67 0 104.5 -42.5t37.5 -103.5v-18h-239q0 -48 29 -77t71 -29q71 0 95 64zM105 441h184q-2 36 -25 60t-64 24q-39 0 -64 -24t-31 -60z" />
    <glyph glyph-name="eight.dnom" horiz-adv-x="405" 
d="M202 -7q-70 0 -110 30t-40 81q0 36 25 62t59 32q-70 25 -70 93q0 50 38 79.5t98 29.5t98.5 -29.5t38.5 -79.5q0 -68 -70 -93q34 -6 59 -32t25 -62q0 -51 -40 -81t-111 -30zM202 219q36 0 58 17.5t22 49.5q0 34 -22 52.5t-58 18.5t-57.5 -18.5t-21.5 -52.5
q0 -32 21.5 -49.5t57.5 -17.5zM202 36q43 0 67 18.5t24 52.5q0 69 -91 69q-90 0 -90 -69q0 -34 23.5 -52.5t66.5 -18.5z" />
    <glyph glyph-name="eight.lt" horiz-adv-x="620" 
d="M310 -12q-108 0 -170 48t-62 130q0 59 39 99.5t94 50.5q-51 18 -80.5 57t-29.5 94q0 80 59 127.5t150 47.5t150 -47.5t59 -127.5q0 -55 -29.5 -94t-80.5 -57q55 -10 94 -50.5t39 -99.5q0 -82 -62 -130t-170 -48zM310 339q66 0 106 33t40 92q0 63 -39.5 96.5t-106.5 33.5
t-106.5 -33.5t-39.5 -96.5q0 -59 40 -92t106 -33zM310 36q79 0 122 34t43 95t-42.5 92.5t-122.5 31.5t-122.5 -31.5t-42.5 -92.5t43 -95t122 -34z" />
    <glyph glyph-name="emdash.cap" horiz-adv-x="1020" 
d="M70 291v48h880v-48h-880z" />
    <glyph glyph-name="endash.cap" 
d="M70 291v48h380v-48h-380z" />
    <glyph glyph-name="equal.lt" horiz-adv-x="620" 
d="M56 356v53h507v-53h-507zM56 211v53h507v-53h-507z" />
    <glyph glyph-name="exclamdown.cap" horiz-adv-x="220" 
d="M70 550v80h80v-80h-80zM143 0h-66v200l22 258h22l22 -258v-200z" />
    <glyph glyph-name="f.ord" horiz-adv-x="260" 
d="M83 519h-52v42h52v26q0 52 32.5 83t84.5 31q77 0 98 -61l-36 -25q-15 44 -60 44q-29 0 -46.5 -19t-17.5 -55v-24h84v-42h-84v-256h-55v256z" />
    <glyph glyph-name="five.dnom" horiz-adv-x="399" 
d="M48 117l57 11q2 -40 28 -64.5t70 -24.5q41 0 65 24.5t24 66.5q0 38 -24 63t-64 25q-54 0 -81 -42l-56 10q20 127 23 206h234q7 -54 -45 -54q-51 0 -146 10q-3 -73 -14 -128q32 43 95 43q62 0 98 -38.5t36 -94.5q0 -61 -41 -99t-105 -38q-66 0 -107.5 34t-46.5 90z" />
    <glyph glyph-name="five.lt" horiz-adv-x="620" 
d="M70 189l62 17q3 -76 50 -121.5t129 -45.5q75 0 119.5 46.5t44.5 123.5q0 71 -43.5 116t-115.5 45q-97 0 -147 -78l-68 14q32 191 36 324h361q3 -31 -8.5 -46.5t-46.5 -15.5q-82 0 -258 14q-1 -29 -10.5 -118.5t-15.5 -114.5q25 32 68 53t96 21q102 0 159 -61.5t57 -151.5
q0 -97 -64.5 -159.5t-165.5 -62.5q-102 0 -167.5 55.5t-71.5 145.5z" />
    <glyph glyph-name="florin.lt" horiz-adv-x="620" 
d="M152 -95q-11 0 -37 4v48q15 -3 27 -3q36 0 56 23t29 69l59 284h-79v46h89l27 131q12 59 46.5 95.5t89.5 36.5q21 0 45 -6v-46q-22 5 -36 5q-68 0 -87 -91l-26 -125h105v-46h-115l-60 -290q-13 -64 -43.5 -99.5t-89.5 -35.5z" />
    <glyph glyph-name="four.dnom" horiz-adv-x="419" 
d="M310 392v-244h69v-45h-69v-103h-53v103h-211v53l196 236h68zM257 343l-161 -195h161v195z" />
    <glyph glyph-name="four.lt" horiz-adv-x="620" 
d="M451 630v-401h125v-51h-125v-178h-62v178h-337v61l321 391h78zM389 572l-282 -343h282v343z" />
    <glyph glyph-name="g.ord" horiz-adv-x="395" 
d="M258 468q0 29 -19.5 46.5t-48.5 17.5t-48.5 -17.5t-19.5 -46.5t19.5 -46.5t48.5 -17.5t48.5 17.5t19.5 46.5zM362 244q0 -52 -50 -78t-120 -26q-66 0 -111 21.5t-45 62.5q0 24 19 41t48 21q-44 13 -44 52q0 37 44 56q-35 27 -35 74q0 46 34 73.5t88 27.5q52 0 86 -26
q12 24 36 38.5t55 9.5l6 -49q-21 5 -43.5 -1.5t-32.5 -20.5q15 -21 15 -52q0 -46 -33.5 -73.5t-88.5 -27.5q-36 0 -63 12q-21 -11 -21 -30q0 -25 39 -25h112q48 0 76.5 -22t28.5 -58zM89 232q0 -27 29 -41t75 -14q52 0 84.5 15.5t32.5 44.5q0 39 -66 39h-93q-25 0 -43.5 -12
t-18.5 -32z" />
    <glyph glyph-name="greater.lt" horiz-adv-x="620" 
d="M503 342v-63l-386 -220v62l338 189l-338 190v61z" />
    <glyph glyph-name="greaterequal.lt" horiz-adv-x="620" 
d="M503 401v-54l-387 -191v56l329 162l-329 161v56zM503 98v-52h-387v52h387z" />
    <glyph glyph-name="guillemotleft.cap" horiz-adv-x="448" 
d="M235 282v48l153 143v-72l-102 -95l102 -95v-72zM60 282v48l153 143v-72l-102 -95l102 -95v-72z" />
    <glyph glyph-name="guillemotright.cap" horiz-adv-x="448" 
d="M388 330v-48l-153 -143v72l102 95l-102 95v72zM213 330v-48l-153 -143v72l102 95l-102 95v72z" />
    <glyph glyph-name="guilsinglleft.cap" horiz-adv-x="273" 
d="M60 282v48l153 143v-72l-102 -95l102 -95v-72z" />
    <glyph glyph-name="guilsinglright.cap" horiz-adv-x="273" 
d="M213 330v-48l-153 -143v72l102 95l-102 95v72z" />
    <glyph glyph-name="h.ord" horiz-adv-x="412" 
d="M126 693v-193q11 30 40 49.5t67 19.5q56 0 84 -33t28 -88v-185h-56v177q0 39 -19.5 60.5t-55.5 21.5q-39 0 -63.5 -27t-24.5 -71v-161h-56v430h56z" />
    <glyph glyph-name="hyphen.cap" horiz-adv-x="360" 
d="M70 287v55h220v-55h-220z" />
    <glyph glyph-name="i.ord" horiz-adv-x="196" 
d="M66 631v62h64v-62h-64zM70 561h56v-298h-56v298z" />
    <glyph glyph-name="j.ord" horiz-adv-x="196" 
d="M130 631h-64v62h64v-62zM126 561v-340q0 -81 -78 -81q-38 0 -67 22l14 35q24 -16 47 -16q28 0 28 33v347h56z" />
    <glyph glyph-name="k.ord" horiz-adv-x="391" 
d="M126 368v-105h-56v430h56v-272l162 140h68l-139 -117l146 -181h-65l-121 148z" />
    <glyph glyph-name="l.ord" horiz-adv-x="196" 
d="M70 693h56v-430h-56v430z" />
    <glyph glyph-name="less.lt" horiz-adv-x="620" 
d="M117 279v63l386 219v-61l-339 -190l339 -189v-62z" />
    <glyph glyph-name="lessequal.lt" horiz-adv-x="620" 
d="M116 347v54l387 190v-56l-329 -161l329 -162v-56zM116 46v52h387v-52h-387z" />
    <glyph glyph-name="m.ord" horiz-adv-x="616" 
d="M329 497q11 30 41 51t71 21q54 0 81 -33t27 -88v-185h-55v177q0 39 -18.5 60.5t-53.5 21.5q-37 0 -61 -27t-24 -71v-161h-55v177q0 39 -18.5 60.5t-53.5 21.5q-36 0 -60 -27t-24 -71v-161h-56v298h56v-61q10 30 38.5 49.5t65.5 19.5q79 0 99 -72z" />
    <glyph glyph-name="minus.lt" horiz-adv-x="620" 
d="M57 286v52h506v-52h-506z" />
    <glyph glyph-name="multiply.lt" horiz-adv-x="620" 
d="M275 308l-167 167l37 37l165 -169l165 169l37 -37l-167 -167l167 -167l-37 -37l-165 169l-165 -169l-37 37z" />
    <glyph glyph-name="n.ord" horiz-adv-x="412" 
d="M126 424v-161h-56v298h56v-61q11 30 40 49.5t67 19.5q56 0 84 -33t28 -88v-185h-56v177q0 39 -19.5 60.5t-55.5 21.5q-39 0 -63.5 -27t-24.5 -71z" />
    <glyph glyph-name="nine.dnom" horiz-adv-x="414" 
d="M291 267q0 38 -25.5 62.5t-67.5 24.5q-41 0 -65 -24t-24 -63t24 -62t67 -23t67 23t24 62zM58 89l52 15q15 -66 82 -66q59 0 87 50t26 129q-10 -36 -40 -58t-77 -22q-60 0 -97 36t-37 93q0 60 39 97t105 37q77 0 118.5 -52.5t41.5 -144.5q0 -95 -43 -152.5t-123 -57.5
q-53 0 -88 25.5t-46 70.5z" />
    <glyph glyph-name="nine.lt" horiz-adv-x="620" 
d="M463 431q0 71 -47 115t-125 44q-74 0 -118.5 -44t-44.5 -115q0 -72 44.5 -114t122.5 -42t123 42t45 114zM71 135l57 27q28 -124 151 -124q72 0 121 44.5t69.5 117t17.5 165.5q-16 -64 -67.5 -104.5t-132.5 -40.5q-100 0 -160.5 58.5t-60.5 150.5q0 95 60.5 154t164.5 59
q122 0 187 -83.5t65 -228.5q0 -154 -68.5 -248t-195.5 -94q-80 0 -135 39t-73 108z" />
    <glyph glyph-name="notequal.lt" horiz-adv-x="620" 
d="M563 211h-303l-99 -124h-61l99 124h-143v53h185l73 92h-258v53h301l101 127h61l-101 -127h145v-53h-188l-73 -92h261v-53z" />
    <glyph glyph-name="o.ord" horiz-adv-x="409" 
d="M361 412q0 -69 -45 -113t-112 -44q-66 0 -111 44t-45 113q0 68 45 112.5t111 44.5q67 0 112 -44.5t45 -112.5zM105 412q0 -51 27 -82t72 -31t72 31t27 82t-27 81.5t-72 30.5t-72 -31t-27 -81z" />
    <glyph glyph-name="one.dnom" horiz-adv-x="289" 
d="M203 0h-57v294h-104v42h28q48 0 67 12t28 47h38v-395z" />
    <glyph glyph-name="one.lt" horiz-adv-x="620" 
d="M555 0h-464v53h206v441h-181v48h54q81 0 111.5 18t43.5 75h35v-582h195v-53z" />
    <glyph glyph-name="p.ord" horiz-adv-x="422" 
d="M124 419v-14q0 -48 27.5 -77.5t67.5 -29.5q45 0 71 31t26 83t-26 83t-71 31q-40 0 -67.5 -29.5t-27.5 -77.5zM126 328v-180h-56v413h56v-65q11 32 39 52.5t68 20.5q64 0 102.5 -44.5t38.5 -112.5t-38.5 -112.5t-102.5 -44.5q-40 0 -68 20.5t-39 52.5z" />
    <glyph glyph-name="parenleft.cap" horiz-adv-x="293" 
d="M50 308q0 103 36 201.5t102 170.5h65q-135 -154 -135 -372t135 -372h-65q-66 72 -102 170.5t-36 201.5z" />
    <glyph glyph-name="parenright.cap" horiz-adv-x="293" 
d="M105 680q66 -72 102 -170.5t36 -201.5t-36 -201.5t-102 -170.5h-65q135 154 135 372t-135 372h65z" />
    <glyph glyph-name="percent.lt" horiz-adv-x="820" 
d="M54 489q0 64 45.5 109.5t108.5 45.5q64 0 109.5 -45.5t45.5 -109.5t-45.5 -109t-109.5 -45q-63 0 -108.5 45t-45.5 109zM646 630l-414 -630h-57l414 630h57zM107 489q0 -43 29.5 -73t71.5 -30q43 0 72.5 30t29.5 73q0 44 -29.5 74t-72.5 30q-41 0 -71 -30.5t-30 -73.5z
M767 141q0 -64 -45.5 -109.5t-108.5 -45.5q-64 0 -109.5 45.5t-45.5 109.5t45.5 109t109.5 45q63 0 108.5 -45t45.5 -109zM714 141q0 43 -29.5 73t-71.5 30q-43 0 -72.5 -30t-29.5 -73q0 -44 29.5 -74t72.5 -30q41 0 71 30.5t30 73.5z" />
    <glyph glyph-name="period.tab" horiz-adv-x="310" 
d="M111 0v88h88v-88h-88z" />
    <glyph glyph-name="periodcentered.cap" horiz-adv-x="228" 
d="M70 275v88h88v-88h-88z" />
    <glyph glyph-name="perthousand.lt" horiz-adv-x="1220" 
d="M73 489q0 64 45.5 109.5t108.5 45.5q64 0 109.5 -45.5t45.5 -109.5t-45.5 -109t-109.5 -45q-63 0 -108.5 45t-45.5 109zM665 630l-414 -630h-57l414 630h57zM126 489q0 -43 29.5 -73t71.5 -30q43 0 72.5 30t29.5 73q0 44 -29.5 74t-72.5 30q-41 0 -71 -30.5t-30 -73.5z
M786 141q0 -64 -45.5 -109.5t-108.5 -45.5q-64 0 -109.5 45.5t-45.5 109.5t45.5 109t109.5 45q63 0 108.5 -45t45.5 -109zM1146 141q0 -64 -45.5 -109.5t-108.5 -45.5q-64 0 -109.5 45.5t-45.5 109.5t45.5 109t109.5 45q63 0 108.5 -45t45.5 -109zM733 141q0 43 -29.5 73
t-71.5 30q-43 0 -72.5 -30t-29.5 -73q0 -44 29.5 -74t72.5 -30q41 0 71 30.5t30 73.5zM890 141q0 -44 29.5 -74t72.5 -30q41 0 71 30.5t30 73.5t-29.5 73t-71.5 30q-43 0 -72.5 -30t-29.5 -73z" />
    <glyph glyph-name="plus.lt" horiz-adv-x="620" 
d="M563 286h-227v-227h-52v227h-227v52h227v228h52v-228h227v-52z" />
    <glyph glyph-name="plusminus.lt" horiz-adv-x="620" 
d="M567 352h-232v-200h-51v200h-232v51h232v200h51v-200h232v-51zM52 46v52h515v-52h-515z" />
    <glyph glyph-name="q.ord" horiz-adv-x="422" 
d="M296 148v180q-27 -73 -107 -73q-65 0 -103 44.5t-38 112.5t38 112.5t103 44.5q80 0 107 -73v65h55v-413h-55zM298 405v14q0 48 -27.5 77.5t-67.5 29.5q-45 0 -71.5 -31t-26.5 -83t26.5 -83t71.5 -31q40 0 67.5 29.5t27.5 77.5z" />
    <glyph glyph-name="questiondown.cap" horiz-adv-x="498" 
d="M303 630v-80h-80v80h80zM231 464h57q0 -45 -17.5 -76t-59.5 -65q-5 -4 -28.5 -22t-31 -25.5t-21.5 -24.5t-19 -35.5t-5 -42.5q0 -60 35.5 -97t102.5 -37q71 0 111 42.5t40 119.5q0 23 -4 43l64 -4q3 -22 3 -43q0 -96 -58 -152.5t-156 -56.5q-103 0 -153.5 52t-50.5 133
q0 40 20 75.5t39 53t67 55.5q8 7 12 10q30 25 41.5 45t11.5 52z" />
    <glyph glyph-name="r.ord" horiz-adv-x="353" 
d="M311 453l-48 -15q2 10 2 21q0 61 -54 61q-36 0 -61 -30.5t-25 -74.5v-152h-56v298h56v-72q10 33 36 56.5t64 23.5q41 0 64.5 -27t23.5 -69q0 -15 -2 -20z" />
    <glyph glyph-name="s.ord" horiz-adv-x="364" 
d="M43 323l33 38q15 -30 45.5 -46.5t66.5 -16.5q72 0 72 43q0 30 -48 41l-66 16q-85 19 -85 83q0 39 32.5 63.5t82.5 24.5q92 0 128 -63l-37 -30q-25 49 -91 49q-27 0 -44.5 -10.5t-17.5 -28.5q0 -31 46 -41l75 -19q78 -18 78 -81q0 -41 -35 -65.5t-89 -24.5
q-48 0 -87.5 18.5t-58.5 49.5z" />
    <glyph glyph-name="semicolon.tab" horiz-adv-x="310" 
d="M111 331v88h88v-88h-88zM111 0v88h88v-109q0 -111 -106 -111v46q34 0 47.5 14t13.5 51v21h-43z" />
    <glyph glyph-name="seven.dnom" horiz-adv-x="373" 
d="M265 339h-218v53h280v-40q-130 -134 -132 -352h-63q1 100 36.5 187t96.5 152z" />
    <glyph glyph-name="seven.lt" horiz-adv-x="620" 
d="M457 572h-377v58h451v-31q-218 -230 -221 -599h-68q2 168 60.5 320t154.5 252z" />
    <glyph glyph-name="six.dnom" horiz-adv-x="414" 
d="M356 303l-52 -15q-15 66 -82 66q-59 0 -87 -50t-26 -129q10 36 40 58t77 22q60 0 97 -36t37 -93q0 -60 -39 -96.5t-105 -36.5q-77 0 -118.5 52.5t-41.5 143.5q0 95 43 153t124 58q52 0 87 -25.5t46 -71.5zM123 125q0 -38 25.5 -62t67.5 -24q41 0 65 23.5t24 62.5
t-24.5 62.5t-66.5 23.5t-66.5 -23.5t-24.5 -62.5z" />
    <glyph glyph-name="six.lt" horiz-adv-x="620" 
d="M549 495l-57 -27q-28 124 -151 124q-72 0 -121 -44.5t-69.5 -117t-17.5 -165.5q16 64 67.5 104.5t132.5 40.5q100 0 160.5 -58.5t60.5 -150.5q0 -95 -60.5 -154t-164.5 -59q-122 0 -187 83.5t-65 228.5q0 154 68.5 248t195.5 94q80 0 135 -39t73 -108zM157 199
q0 -71 47 -115t125 -44q74 0 118.5 44t44.5 115q0 72 -44.5 114t-122.5 42t-123 -42t-45 -114z" />
    <glyph glyph-name="slash.cap" horiz-adv-x="329" 
d="M10 0l250 630h59l-250 -630h-59z" />
    <glyph glyph-name="space.tab" horiz-adv-x="310" 
 />
    <glyph glyph-name="sterling.lt" horiz-adv-x="620" 
d="M431 -12q-35 0 -69 15t-52 28.5t-49 41.5q-33 -85 -119 -85q-44 0 -74 25t-30 69q0 42 30.5 69.5t77.5 27.5q35 0 73 -19v1q0 54 -33 132h-107v48h87q-24 57 -24 111q0 85 50.5 137.5t140.5 52.5q88 0 141 -47.5t58 -133.5l-58 -14q-2 71 -38.5 107.5t-102.5 36.5
q-67 0 -99 -38.5t-32 -100.5q0 -46 24 -111h156v-48h-138q31 -79 31 -132q0 -14 -2 -38q4 -3 17.5 -14t18.5 -15t18 -13t20 -13t19 -10t21.5 -9t21.5 -5t24 -2q83 0 83 129l56 -9q0 -80 -37 -127t-104 -47zM143 30q61 0 73 80q-36 26 -70 26q-59 0 -59 -53q0 -24 15.5 -38.5
t40.5 -14.5z" />
    <glyph glyph-name="t.ord" horiz-adv-x="331" 
d="M32 561h62v83l55 16v-99h127v-42h-127v-158q0 -29 15 -44t36 -15q25 0 39.5 13t28.5 41l28 -39q-11 -26 -38 -44t-62 -18q-44 0 -73 26t-29 76v162h-62v42z" />
    <glyph glyph-name="three.dnom" horiz-adv-x="394" 
d="M110 264l-55 16q7 54 45.5 87t98.5 33q64 0 100 -30.5t36 -80.5q0 -36 -25 -61t-58 -30q39 -4 64.5 -30t25.5 -64q0 -50 -38.5 -80.5t-103.5 -30.5t-106.5 31.5t-48.5 86.5l55 16q2 -41 29.5 -64.5t70.5 -23.5q38 0 61 18t23 51q0 32 -25 49.5t-63 17.5q-18 0 -36 -4v51
q24 -3 37 -3q34 0 57.5 15.5t23.5 49.5q0 31 -21 50t-59 19q-39 0 -62.5 -23.5t-25.5 -65.5z" />
    <glyph glyph-name="three.lt" horiz-adv-x="620" 
d="M148 429l-60 27q11 84 70 135t151 51q100 0 155.5 -47.5t55.5 -127.5q0 -59 -39.5 -100t-92.5 -49q61 -5 102.5 -48t41.5 -105q0 -77 -60 -127t-161 -50t-166 50t-75 139l60 25q4 -77 53.5 -120t128.5 -43q72 0 114.5 34t42.5 97q0 57 -46.5 89t-115.5 32q-19 0 -64 -6
v65q37 -5 64 -5q64 0 107 27.5t43 90.5q0 58 -38 93t-110 35q-71 0 -114 -42.5t-47 -119.5z" />
    <glyph glyph-name="two.dnom" horiz-adv-x="389" 
d="M143 49h200v-49h-291v34l112 95q40 34 57.5 51t34 43.5t16.5 52.5q0 34 -20 54.5t-57 20.5q-40 0 -61.5 -23t-21.5 -65q0 -20 7 -35l-57 2q-6 20 -6 37q0 61 38 97t101 36q66 0 101.5 -34t35.5 -87q0 -33 -20 -66.5t-41.5 -54t-56.5 -49.5z" />
    <glyph glyph-name="two.lt" horiz-adv-x="620" 
d="M183 56h350v-56h-456v30l180 157q43 38 59.5 53t48 47.5t44 53t24 50t11.5 58.5q0 64 -37.5 102t-106.5 38q-72 0 -111.5 -41.5t-39.5 -118.5q0 -31 11 -59l-64 4q-10 29 -10 59q0 96 58 152.5t156 56.5q104 0 157 -53.5t53 -136.5q0 -41 -17.5 -81t-54 -81t-60.5 -64
t-68 -61z" />
    <glyph glyph-name="u.ord" horiz-adv-x="410" 
d="M285 399v162h55v-298h-55v61q-11 -30 -40 -49.5t-67 -19.5q-57 0 -84 32.5t-27 88.5v185h56v-178q0 -82 74 -82q38 0 63 27.5t25 70.5z" />
    <glyph glyph-name="v.ord" horiz-adv-x="375" 
d="M213 263h-51l-130 298h59l98 -232h2l97 232h54z" />
    <glyph glyph-name="w.ord" horiz-adv-x="505" 
d="M277 561l71 -227h3l69 227h52l-94 -298h-54l-70 223h-3l-70 -223h-54l-95 298h56l69 -227h3l69 227h48z" />
    <glyph glyph-name="x.ord" horiz-adv-x="376" 
d="M327 561l-110 -142l125 -156h-66l-91 117l-91 -117h-60l122 154l-113 144h65l80 -104l79 104h60z" />
    <glyph glyph-name="y.ord" horiz-adv-x="371" 
d="M155 236l11 28l-134 297h61l100 -231h3l88 231h55l-129 -318q-20 -51 -43.5 -77t-62.5 -26q-34 0 -54 19t-24 50l45 24q0 -48 36 -48q16 0 26.5 12t21.5 39z" />
    <glyph glyph-name="yen.lt" horiz-adv-x="620" 
d="M510 147h-170v-147h-60v147h-170v48h170v77h-170v48h138l-205 310h69l202 -310l196 310h67l-205 -310h138v-48h-170v-77h170v-48z" />
    <glyph glyph-name="z.ord" horiz-adv-x="357" 
d="M57 561h245v-41l-183 -212h187v-45h-254v40l179 213h-174v45z" />
    <glyph glyph-name="zero.dnom" horiz-adv-x="440" 
d="M384 196q0 -97 -43 -150t-121 -53t-121 53t-43 150t43 150.5t121 53.5t121 -53.5t43 -150.5zM323 196q0 157 -103 157t-103 -157t103 -157t103 157z" />
    <glyph glyph-name="zero.lt" horiz-adv-x="620" 
d="M565 315q0 -157 -66.5 -242t-188.5 -85t-188.5 85t-66.5 242t66.5 242t188.5 85t188.5 -85t66.5 -242zM499 315q0 276 -189 276t-189 -276t189 -276t189 276z" />
    </font>
</defs>
</svg>
