<svg  viewBox="0 0 623 686" fill="none" xmlns="http://www.w3.org/2000/svg" xmlns:xlink="http://www.w3.org/1999/xlink">
                      <mask id="mask0" mask-type="alpha" maskUnits="userSpaceOnUse" x="0" y="0" width="623" height="686">
                      <path fill-rule="evenodd" clip-rule="evenodd" d="M310.058 44.4774C393.829 21.9505 492.617 -29.033 562.912 21.8079C633.18 72.6299 613.797 182.548 620.527 269.024C625.714 335.672 624.799 402.363 597.267 463.277C571.841 519.533 524.127 559.651 473.325 594.712C423.716 628.95 369.263 650.204 310.058 661.494C237.612 675.31 156.976 705.861 94.2907 666.994C31.1223 627.827 10.9992 543.939 1.54056 470.202C-6.78095 405.331 20.1592 344.27 45.1395 283.828C68.0998 228.274 95.2408 175.871 139.839 135.577C188.792 91.349 246.355 61.6079 310.058 44.4774Z" fill="#C4C4C4"/>
                      </mask>
                      <g mask="url(#mask0)">
                      <path fill-rule="evenodd" clip-rule="evenodd" d="M310.058 44.4774C393.829 21.9505 492.617 -29.033 562.912 21.8079C633.18 72.6299 613.797 182.548 620.527 269.024C625.714 335.672 624.799 402.363 597.267 463.277C571.841 519.533 524.127 559.651 473.325 594.712C423.716 628.95 369.263 650.204 310.058 661.494C237.612 675.31 156.976 705.861 94.2907 666.994C31.1223 627.827 10.9992 543.939 1.54056 470.202C-6.78095 405.331 20.1592 344.27 45.1395 283.828C68.0998 228.274 95.2408 175.871 139.839 135.577C188.792 91.349 246.355 61.6079 310.058 44.4774V44.4774Z" fill="#004DD8"/>
                      <rect x="-10" y="98" width="739" height="588" fill="url(#pattern0)"/>
                      </g>
                      <defs>
                      <pattern id="pattern0" patternContentUnits="objectBoundingBox" width="1" height="1">
                      <use xlink:href="#image0" transform="translate(0 -0.128401) scale(0.000464037 0.000583203)"/>
                      </pattern>
                      <image id="image0" width="2155" height="2155" xlink:href="assets/img/header.png"/>
                       </defs>
                      </svg>