<svg width="726" height="100" viewBox="0 0 726 100" fill="none" xmlns="http://www.w3.org/2000/svg">
<g filter="url(#filter0_dd)">
<path d="M699.031 15H27C24.2386 15 22 17.2386 22 20V79.9334C22 82.6948 24.2386 84.9334 27 84.9334H699.031C701.792 84.9334 704.031 82.6948 704.031 79.9334V20C704.031 17.2386 701.792 15 699.031 15Z" fill="#0014D8"/>
</g>
<path d="M101.333 57.1847C103.601 57.1847 105.167 55.8167 105.167 53.8727C105.167 52.4507 104.393 51.5147 102.395 50.5607L101.081 49.9307C99.551 49.1927 99.173 48.7787 99.173 47.9327C99.173 46.8887 100.019 46.2047 101.279 46.2047C102.197 46.2047 103.025 46.5827 103.673 47.3027C103.817 47.4467 103.979 47.5367 104.159 47.5367C104.501 47.5367 104.825 47.2307 104.825 46.9067C104.825 46.7447 104.771 46.5467 104.573 46.3307C103.745 45.4127 102.629 44.9087 101.297 44.9087C99.245 44.9087 97.715 46.2227 97.715 48.0047C97.715 49.3367 98.507 50.2907 100.397 51.1907L101.729 51.8207C103.259 52.5407 103.709 53.0267 103.709 53.9087C103.709 55.0787 102.755 55.8887 101.315 55.8887C100.163 55.8887 99.155 55.3487 98.363 54.3407C98.219 54.1607 98.039 54.0707 97.823 54.0707C97.463 54.0707 97.157 54.3587 97.157 54.7187C97.157 54.8807 97.211 55.0247 97.319 55.1507C98.255 56.4107 99.803 57.1847 101.333 57.1847ZM111.64 48.0227C109.138 48.0227 107.158 50.0387 107.158 52.6127C107.158 55.2227 109.138 57.1847 111.802 57.1847C112.936 57.1847 113.98 56.8247 114.844 56.1047C115.096 55.8707 115.186 55.7087 115.186 55.4747C115.186 55.1147 114.916 54.8627 114.574 54.8627C114.412 54.8627 114.25 54.9347 114.106 55.0607C113.476 55.6007 112.684 55.9067 111.82 55.9067C110.056 55.9067 108.778 54.7547 108.598 53.0267H114.79C115.33 53.0267 115.636 52.7387 115.636 52.1627V52.0727C115.636 49.7147 113.962 48.0227 111.64 48.0227ZM111.604 49.2827C113.134 49.2827 114.178 50.3267 114.214 51.8027H108.652C108.958 50.3087 110.11 49.2827 111.604 49.2827ZM121.221 48.0227C119.943 48.0227 118.773 48.5087 118.017 49.3907C117.837 49.5887 117.765 49.7867 117.765 49.9847C117.765 50.2727 118.053 50.5607 118.395 50.5607C118.575 50.5607 118.755 50.4707 118.935 50.2907C119.547 49.6427 120.285 49.3007 121.131 49.3007C122.481 49.3007 123.255 50.0927 123.255 51.5147V52.2707H120.483C118.575 52.2707 117.333 53.2427 117.333 54.7187C117.333 56.1947 118.557 57.1847 120.393 57.1847C121.617 57.1847 122.607 56.7347 123.255 55.9607V56.4647C123.255 56.8607 123.561 57.1847 123.957 57.1847C124.335 57.1847 124.641 56.8787 124.641 56.4647V51.5867C124.641 49.3547 123.345 48.0227 121.221 48.0227ZM120.573 56.0327C119.475 56.0327 118.755 55.4927 118.755 54.6647C118.755 53.8367 119.403 53.4047 120.645 53.4047H123.255V53.6207C123.255 54.9527 122.049 56.0327 120.573 56.0327ZM131.703 48.1487C130.587 48.1487 129.615 48.6167 128.967 49.3907V48.7427C128.967 48.3467 128.661 48.0227 128.283 48.0227C127.869 48.0227 127.581 48.3467 127.581 48.7427V56.4647C127.581 56.8607 127.869 57.1847 128.283 57.1847C128.661 57.1847 128.967 56.8787 128.967 56.4647V52.0367C128.967 50.5427 130.119 49.4447 131.703 49.4447C132.099 49.4447 132.405 49.1927 132.405 48.7967C132.405 48.4187 132.099 48.1487 131.703 48.1487ZM137.887 57.1847C139.471 57.1847 140.713 56.4287 141.451 55.3667C141.559 55.2047 141.577 55.0967 141.577 54.9887C141.577 54.6287 141.289 54.3587 140.929 54.3587C140.785 54.3587 140.623 54.3947 140.443 54.5927C139.849 55.3307 139.039 55.9067 137.905 55.9067C136.087 55.9067 134.719 54.4847 134.719 52.5947C134.719 50.7227 136.105 49.3007 137.905 49.3007C139.039 49.3007 139.849 49.8767 140.443 50.6147C140.623 50.8307 140.785 50.8667 140.947 50.8667C141.289 50.8667 141.577 50.5787 141.577 50.2367C141.577 50.1287 141.559 50.0207 141.451 49.8587C140.731 48.7787 139.471 48.0227 137.887 48.0227C135.331 48.0227 133.297 50.0387 133.297 52.5947C133.297 55.1507 135.331 57.1847 137.887 57.1847ZM147.855 48.0227C146.739 48.0227 145.821 48.4547 145.227 49.2107V44.0087C145.227 43.5947 144.921 43.2887 144.543 43.2887C144.129 43.2887 143.841 43.6127 143.841 44.0087V56.4647C143.841 56.8607 144.129 57.1847 144.543 57.1847C144.921 57.1847 145.227 56.8787 145.227 56.4647V51.6587C145.227 50.2907 146.181 49.3007 147.531 49.3007C148.827 49.3007 149.709 50.2367 149.709 51.6587V56.4647C149.709 56.8607 149.997 57.1847 150.411 57.1847C150.789 57.1847 151.095 56.8787 151.095 56.4647V51.4787C151.095 49.3727 149.835 48.0227 147.855 48.0227ZM158.271 52.0547C158.271 50.5907 158.481 49.1807 158.901 47.8247C159.333 46.4567 160.005 45.2267 160.917 44.1347H162.411C161.571 45.2627 160.935 46.5047 160.503 47.8607C160.083 49.2167 159.873 50.6087 159.873 52.0367C159.873 53.4287 160.083 54.7967 160.503 56.1407C160.935 57.4727 161.565 58.7027 162.393 59.8307H160.917C160.005 58.7747 159.333 57.5807 158.901 56.2487C158.481 54.9047 158.271 53.5067 158.271 52.0547ZM168.329 48.0227C165.827 48.0227 163.847 50.0387 163.847 52.6127C163.847 55.2227 165.827 57.1847 168.491 57.1847C169.625 57.1847 170.669 56.8247 171.533 56.1047C171.785 55.8707 171.875 55.7087 171.875 55.4747C171.875 55.1147 171.605 54.8627 171.263 54.8627C171.101 54.8627 170.939 54.9347 170.795 55.0607C170.165 55.6007 169.373 55.9067 168.509 55.9067C166.745 55.9067 165.467 54.7547 165.287 53.0267H171.479C172.019 53.0267 172.325 52.7387 172.325 52.1627V52.0727C172.325 49.7147 170.651 48.0227 168.329 48.0227ZM168.293 49.2827C169.823 49.2827 170.867 50.3267 170.903 51.8027H165.341C165.647 50.3087 166.799 49.2827 168.293 49.2827ZM181.065 56.0687L178.365 52.4867L180.831 49.2287C181.011 49.0127 181.065 48.8507 181.065 48.6887C181.065 48.3287 180.759 48.0227 180.381 48.0227C180.129 48.0227 179.931 48.1667 179.805 48.3647L177.537 51.4247L175.287 48.3647C175.143 48.1667 174.963 48.0227 174.711 48.0227C174.333 48.0227 174.027 48.3287 174.027 48.6887C174.027 48.8507 174.081 49.0127 174.261 49.2287L176.691 52.4867L173.991 56.0687C173.883 56.1947 173.829 56.3567 173.829 56.5187C173.829 56.8787 174.117 57.1847 174.513 57.1847C174.747 57.1847 174.945 57.0227 175.089 56.8427L177.537 53.5667L179.967 56.8427C180.111 57.0407 180.291 57.1847 180.543 57.1847C180.921 57.1847 181.227 56.8787 181.227 56.5187C181.227 56.3567 181.173 56.1947 181.065 56.0687ZM183.298 48.3107C183.298 47.8547 183.406 47.5367 183.622 47.3567C183.838 47.1767 184.096 47.0867 184.396 47.0867C184.708 47.0867 184.972 47.1767 185.188 47.3567C185.416 47.5367 185.53 47.8547 185.53 48.3107C185.53 48.7427 185.416 49.0547 185.188 49.2467C184.972 49.4387 184.708 49.5347 184.396 49.5347C184.096 49.5347 183.838 49.4387 183.622 49.2467C183.406 49.0547 183.298 48.7427 183.298 48.3107ZM183.298 56.0147C183.298 55.5707 183.406 55.2587 183.622 55.0787C183.838 54.8987 184.096 54.8087 184.396 54.8087C184.708 54.8087 184.972 54.8987 185.188 55.0787C185.416 55.2587 185.53 55.5707 185.53 56.0147C185.53 56.4467 185.416 56.7587 185.188 56.9507C184.972 57.1427 184.708 57.2387 184.396 57.2387C184.096 57.2387 183.838 57.1427 183.622 56.9507C183.406 56.7587 183.298 56.4467 183.298 56.0147ZM197.029 45.1067H194.239C193.807 45.1067 193.501 45.4307 193.501 45.8447V56.2487C193.501 56.6627 193.807 56.9867 194.239 56.9867H197.029C200.881 56.9867 203.491 54.5927 203.491 51.0287C203.491 47.4467 200.935 45.1067 197.029 45.1067ZM197.011 46.3667C200.071 46.3667 202.033 48.1847 202.033 51.0287C202.033 53.8547 200.035 55.7267 197.011 55.7267H194.905V46.3667H197.011ZM209.744 48.0227C207.242 48.0227 205.262 50.0387 205.262 52.6127C205.262 55.2227 207.242 57.1847 209.906 57.1847C211.04 57.1847 212.084 56.8247 212.948 56.1047C213.2 55.8707 213.29 55.7087 213.29 55.4747C213.29 55.1147 213.02 54.8627 212.678 54.8627C212.516 54.8627 212.354 54.9347 212.21 55.0607C211.58 55.6007 210.788 55.9067 209.924 55.9067C208.16 55.9067 206.882 54.7547 206.702 53.0267H212.894C213.434 53.0267 213.74 52.7387 213.74 52.1627V52.0727C213.74 49.7147 212.066 48.0227 209.744 48.0227ZM209.708 49.2827C211.238 49.2827 212.282 50.3267 212.318 51.8027H206.756C207.062 50.3087 208.214 49.2827 209.708 49.2827ZM218.767 57.1847C220.387 57.1847 221.845 56.3207 221.845 54.6107C221.845 53.3687 221.107 52.6847 219.523 52.0187L218.713 51.6767C217.741 51.2807 217.291 50.9927 217.291 50.3987C217.291 49.6787 217.921 49.3007 218.749 49.3007C219.505 49.3007 220.171 49.6247 220.639 50.0207C220.873 50.2187 220.999 50.2907 221.161 50.2907C221.503 50.2907 221.773 50.0027 221.773 49.6787C221.773 49.5167 221.719 49.3727 221.593 49.2287C220.963 48.5087 220.009 48.0227 218.821 48.0227C217.219 48.0227 215.869 48.8867 215.869 50.4707C215.869 51.7307 216.715 52.3427 218.047 52.9007L218.893 53.2607C219.775 53.6207 220.423 53.9087 220.423 54.6647C220.423 55.4567 219.667 55.9067 218.749 55.9067C217.813 55.9067 217.129 55.4387 216.517 54.8087C216.373 54.6827 216.193 54.6107 216.031 54.6107C215.671 54.6107 215.365 54.8987 215.365 55.2587C215.365 55.4387 215.419 55.5647 215.545 55.7087C216.265 56.5547 217.363 57.1847 218.767 57.1847ZM225.051 43.8827C224.493 43.8827 224.025 44.3327 224.025 44.8727C224.025 45.4307 224.493 45.8627 225.051 45.8627C225.591 45.8627 226.059 45.4307 226.059 44.8727C226.059 44.3327 225.591 43.8827 225.051 43.8827ZM225.015 57.1847C225.411 57.1847 225.735 56.8607 225.735 56.4647V48.7427C225.735 48.3467 225.447 48.0227 225.051 48.0227C224.637 48.0227 224.349 48.3467 224.349 48.7427V56.4647C224.349 56.8607 224.619 57.1847 225.015 57.1847ZM236.518 48.0407C236.104 48.0407 235.816 48.3467 235.816 48.7607V49.5347C235.132 48.6167 233.944 48.0227 232.558 48.0227C230.092 48.0227 228.256 49.9127 228.256 52.4687C228.256 55.0247 230.092 56.8967 232.558 56.8967C233.944 56.8967 235.132 56.3387 235.816 55.4387V56.2127C235.816 58.0847 234.754 59.1467 232.9 59.1467C231.856 59.1467 230.938 58.7867 229.93 58.0127C229.822 57.9227 229.678 57.8687 229.534 57.8687C229.156 57.8687 228.886 58.1567 228.886 58.5167C228.886 58.6967 228.94 58.8587 229.102 59.0207C230.128 59.9207 231.514 60.4247 232.936 60.4247C235.564 60.4247 237.202 58.7867 237.202 56.1407V48.7607C237.202 48.3467 236.896 48.0407 236.518 48.0407ZM232.774 55.6187C230.956 55.6187 229.66 54.3047 229.66 52.4867C229.66 50.6507 230.974 49.3367 232.774 49.3367C234.61 49.3367 235.834 50.5967 235.834 52.4687C235.834 54.3587 234.61 55.6187 232.774 55.6187ZM244.235 48.0227C243.173 48.0227 242.255 48.4187 241.625 49.0667V48.7427C241.625 48.3467 241.319 48.0227 240.941 48.0227C240.527 48.0227 240.239 48.3467 240.239 48.7427V56.4647C240.239 56.8607 240.527 57.1847 240.941 57.1847C241.319 57.1847 241.625 56.8787 241.625 56.4647V51.6407C241.625 50.2727 242.579 49.3007 243.929 49.3007C245.225 49.3007 246.107 50.2187 246.107 51.6407V56.4647C246.107 56.8607 246.395 57.1847 246.809 57.1847C247.187 57.1847 247.493 56.8787 247.493 56.4647V51.4787C247.493 49.3727 246.233 48.0227 244.235 48.0227ZM254.286 48.0227C251.784 48.0227 249.804 50.0387 249.804 52.6127C249.804 55.2227 251.784 57.1847 254.448 57.1847C255.582 57.1847 256.626 56.8247 257.49 56.1047C257.742 55.8707 257.832 55.7087 257.832 55.4747C257.832 55.1147 257.562 54.8627 257.22 54.8627C257.058 54.8627 256.896 54.9347 256.752 55.0607C256.122 55.6007 255.33 55.9067 254.466 55.9067C252.702 55.9067 251.424 54.7547 251.244 53.0267H257.436C257.976 53.0267 258.282 52.7387 258.282 52.1627V52.0727C258.282 49.7147 256.608 48.0227 254.286 48.0227ZM254.25 49.2827C255.78 49.2827 256.824 50.3267 256.86 51.8027H251.298C251.604 50.3087 252.756 49.2827 254.25 49.2827ZM264.84 48.1487C263.724 48.1487 262.752 48.6167 262.104 49.3907V48.7427C262.104 48.3467 261.798 48.0227 261.42 48.0227C261.006 48.0227 260.718 48.3467 260.718 48.7427V56.4647C260.718 56.8607 261.006 57.1847 261.42 57.1847C261.798 57.1847 262.104 56.8787 262.104 56.4647V52.0367C262.104 50.5427 263.256 49.4447 264.84 49.4447C265.236 49.4447 265.542 49.1927 265.542 48.7967C265.542 48.4187 265.236 48.1487 264.84 48.1487ZM266.707 60.4247C267.031 60.4247 267.211 60.2807 267.355 59.8847C267.625 59.0747 267.985 56.8967 267.985 56.0687C267.985 55.5107 267.679 55.1867 267.175 55.1867C266.689 55.1867 266.365 55.5467 266.365 56.0687C266.365 58.1387 266.023 59.3807 266.023 59.7767C266.023 60.1367 266.311 60.4247 266.707 60.4247ZM276.909 56.9867H282.633C283.011 56.9867 283.281 56.6987 283.281 56.3567C283.281 55.9967 283.011 55.7267 282.633 55.7267H277.575V45.6467C277.575 45.2327 277.269 44.9087 276.873 44.9087C276.459 44.9087 276.171 45.2327 276.171 45.6467V56.2487C276.171 56.6627 276.477 56.9867 276.909 56.9867ZM288.319 48.0227C287.041 48.0227 285.871 48.5087 285.115 49.3907C284.935 49.5887 284.863 49.7867 284.863 49.9847C284.863 50.2727 285.151 50.5607 285.493 50.5607C285.673 50.5607 285.853 50.4707 286.033 50.2907C286.645 49.6427 287.383 49.3007 288.229 49.3007C289.579 49.3007 290.353 50.0927 290.353 51.5147V52.2707H287.581C285.673 52.2707 284.431 53.2427 284.431 54.7187C284.431 56.1947 285.655 57.1847 287.491 57.1847C288.715 57.1847 289.705 56.7347 290.353 55.9607V56.4647C290.353 56.8607 290.659 57.1847 291.055 57.1847C291.433 57.1847 291.739 56.8787 291.739 56.4647V51.5867C291.739 49.3547 290.443 48.0227 288.319 48.0227ZM287.671 56.0327C286.573 56.0327 285.853 55.4927 285.853 54.6647C285.853 53.8367 286.501 53.4047 287.743 53.4047H290.353V53.6207C290.353 54.9527 289.147 56.0327 287.671 56.0327ZM306.927 48.0227C306.639 48.0227 306.405 48.2027 306.297 48.4727L303.615 54.8627L301.095 48.5087C300.987 48.2207 300.735 48.0227 300.447 48.0227C300.141 48.0227 299.907 48.2207 299.799 48.5087L297.261 54.8447L294.597 48.4727C294.489 48.2027 294.237 48.0227 293.967 48.0227C293.589 48.0227 293.283 48.3467 293.283 48.7067C293.283 48.7967 293.301 48.8867 293.337 48.9767L296.595 56.7707C296.703 57.0227 296.955 57.1847 297.225 57.1847C297.495 57.1847 297.747 57.0227 297.837 56.7707L300.447 50.3087L303.039 56.7707C303.147 57.0227 303.399 57.1847 303.651 57.1847C303.939 57.1847 304.191 57.0227 304.281 56.7707L307.557 48.9767C307.593 48.8867 307.611 48.7967 307.611 48.7067C307.611 48.3467 307.305 48.0227 306.927 48.0227ZM313.12 48.0227C310.618 48.0227 308.638 50.0387 308.638 52.6127C308.638 55.2227 310.618 57.1847 313.282 57.1847C314.416 57.1847 315.46 56.8247 316.324 56.1047C316.576 55.8707 316.666 55.7087 316.666 55.4747C316.666 55.1147 316.396 54.8627 316.054 54.8627C315.892 54.8627 315.73 54.9347 315.586 55.0607C314.956 55.6007 314.164 55.9067 313.3 55.9067C311.536 55.9067 310.258 54.7547 310.078 53.0267H316.27C316.81 53.0267 317.116 52.7387 317.116 52.1627V52.0727C317.116 49.7147 315.442 48.0227 313.12 48.0227ZM313.084 49.2827C314.614 49.2827 315.658 50.3267 315.694 51.8027H310.132C310.438 50.3087 311.59 49.2827 313.084 49.2827ZM323.674 48.1487C322.558 48.1487 321.586 48.6167 320.938 49.3907V48.7427C320.938 48.3467 320.632 48.0227 320.254 48.0227C319.84 48.0227 319.552 48.3467 319.552 48.7427V56.4647C319.552 56.8607 319.84 57.1847 320.254 57.1847C320.632 57.1847 320.938 56.8787 320.938 56.4647V52.0367C320.938 50.5427 322.09 49.4447 323.674 49.4447C324.07 49.4447 324.376 49.1927 324.376 48.7967C324.376 48.4187 324.07 48.1487 323.674 48.1487ZM329.223 52.0547C329.223 53.5067 329.007 54.9047 328.575 56.2487C328.155 57.5807 327.489 58.7747 326.577 59.8307H325.101C325.929 58.7027 326.553 57.4727 326.973 56.1407C327.405 54.7967 327.621 53.4287 327.621 52.0367C327.621 50.6087 327.405 49.2167 326.973 47.8607C326.553 46.5047 325.923 45.2627 325.083 44.1347H326.577C327.489 45.2267 328.155 46.4567 328.575 47.8247C329.007 49.1807 329.223 50.5907 329.223 52.0547Z" fill="#5C6AF3"/>
<path fill-rule="evenodd" clip-rule="evenodd" d="M64.1254 39.4767C59.9709 39.4767 56.603 42.8314 56.603 46.9696C56.603 51.1078 59.9709 54.4625 64.1254 54.4625C68.2799 54.4625 71.6478 51.1078 71.6478 46.9696C71.6478 42.8314 68.2799 39.4767 64.1254 39.4767ZM54.0955 46.9696C54.0955 41.452 58.586 36.9791 64.1254 36.9791C69.6647 36.9791 74.1552 41.452 74.1552 46.9696C74.1552 52.4872 69.6647 56.9601 64.1254 56.9601C58.586 56.9601 54.0955 52.4872 54.0955 46.9696Z" fill="#5C6AF3"/>
<path fill-rule="evenodd" clip-rule="evenodd" d="M69.8164 52.6384C70.5508 51.9068 71.7416 51.9068 72.476 52.6384L79.6223 59.7566C80.3567 60.4881 80.3567 61.6742 79.6223 62.4057C78.8878 63.1373 77.6971 63.1373 76.9627 62.4057L69.8164 55.2875C69.082 54.556 69.082 53.3699 69.8164 52.6384Z" fill="#5C6AF3"/>
<defs>
<filter id="filter0_dd" x="14" y="7" width="698.031" height="85.9334" filterUnits="userSpaceOnUse" color-interpolation-filters="sRGB">
<feFlood flood-opacity="0" result="BackgroundImageFix"/>
<feColorMatrix in="SourceAlpha" type="matrix" values="0 0 0 0 0 0 0 0 0 0 0 0 0 0 0 0 0 0 127 0"/>
<feOffset dy="1"/>
<feGaussianBlur stdDeviation="0.5"/>
<feColorMatrix type="matrix" values="0 0 0 0 0 0 0 0 0 0 0 0 0 0 0 0 0 0 0.25 0"/>
<feBlend mode="normal" in2="BackgroundImageFix" result="effect1_dropShadow"/>
<feColorMatrix in="SourceAlpha" type="matrix" values="0 0 0 0 0 0 0 0 0 0 0 0 0 0 0 0 0 0 127 0"/>
<feOffset/>
<feGaussianBlur stdDeviation="4"/>
<feColorMatrix type="matrix" values="0 0 0 0 0 0 0 0 0 0.0387889 0 0 0 0 0.43776 0 0 0 0.5 0"/>
<feBlend mode="normal" in2="effect1_dropShadow" result="effect2_dropShadow"/>
<feBlend mode="normal" in="SourceGraphic" in2="effect2_dropShadow" result="shape"/>
</filter>
</defs>
</svg>
